<svg width="129" height="128" viewBox="0 0 129 128" fill="none" xmlns="http://www.w3.org/2000/svg">
  <g clip-path="url(#clip0)">
  <path d="M87.3334 117.333C82.592 117.333 79.3307 115.795 76.4534 114.437C73.68 113.131 71.2827 112 67.3334 112C63.384 112 60.9867 113.131 58.2134 114.437C55.336 115.795 52.0747 117.333 47.3334 117.333C35.7974 117.333 16.6667 90.8561 16.6667 62.6667C16.6667 43.9734 29.552 29.3334 46 29.3334C51.4054 29.3334 54.6907 30.8827 57.5894 32.2481C60.3414 33.5467 62.72 34.6667 67.3334 34.6667C71.9467 34.6667 74.3254 33.5467 77.0774 32.2481C79.976 30.8827 83.2614 29.3334 88.6667 29.3334C95.7707 29.3334 102.088 31.9521 107.445 37.1227C108.347 37.9921 108.789 39.2374 108.637 40.4827C108.485 41.7281 107.76 42.8294 106.677 43.4587C100.501 47.0507 96.6667 54.6641 96.6667 63.3334C96.6667 73.0961 102.011 81.4907 109.963 84.216C111.005 84.5734 111.853 85.3441 112.307 86.3467C112.763 87.3467 112.787 88.4934 112.368 89.5147C105.896 105.373 95.1307 117.333 87.3334 117.333ZM68.6667 26.6667C67.712 26.6667 66.7787 26.3254 66.0427 25.6854C65.0747 24.8427 64.5654 23.5841 64.6827 22.3014C64.7147 21.9734 65.4907 14.1814 71.5974 7.94939C77.3414 2.08272 82.9334 0.33872 83.5494 0.157387C84.8534 -0.22128 86.2614 0.0880535 87.2854 0.97872C88.312 1.86672 88.816 3.21605 88.6267 4.56272C88.536 5.20539 87.5894 11.0587 82.6747 17.6267C77.4134 24.6561 69.8987 26.4854 69.5814 26.5601C69.2774 26.6321 68.9707 26.6667 68.6667 26.6667Z" fill="url(#paint0_linear)"/>
  </g>
  <defs>
  <linearGradient id="paint0_linear" x1="16.6667" y1="58.666" x2="112.666" y2="58.666" gradientUnits="userSpaceOnUse">
  <stop stop-color="#8676FF"/>
  <stop offset="0.333333" stop-color="#516DFF"/>
  <stop offset="0.692708" stop-color="#32B5FF"/>
  <stop offset="1" stop-color="#4ADEFF"/>
  </linearGradient>
  <clipPath id="clip0">
  <rect width="128" height="128" fill="white" transform="translate(0.666687)"/>
  </clipPath>
  </defs>
  </svg>
