<svg width="151" height="20" viewBox="0 0 151 20" fill="none" xmlns="http://www.w3.org/2000/svg">
  <path
    d="M0 0.520368C0 0.534916 1.94345 2.66478 4.31717 5.25727C6.6909 7.84977 8.63146 9.98254 8.62568 9.99418C8.6228 10.0058 6.68223 12.1386 4.31717 14.7311C1.94923 17.3236 0.011551 19.4564 0.00577548 19.4709C0 19.4884 0.98472 19.5 2.6625 19.5H5.32788L8.21563 16.3139C9.80388 14.5594 11.1496 13.0726 11.2044 13.0086L11.3084 12.8893L14.3203 16.1946L17.3293 19.5H20.0034C22.5244 19.5 22.6745 19.4971 22.637 19.4505C22.6139 19.4214 20.6647 17.2828 18.3025 14.6933L14.0055 9.98545L18.3372 5.25727C20.7195 2.65605 22.6688 0.523277 22.6688 0.514548C22.6688 0.505819 21.4675 0.5 20.0005 0.5H17.3351L14.3203 3.79081L11.3084 7.08453L11.1784 6.93323C11.1034 6.85176 9.76057 5.37075 8.18675 3.64242L5.32788 0.50291L2.66539 0.5C1.19841 0.5 0 0.508729 0 0.520368Z"
    fill="#EDF2F4"
  />
  <path
    d="M26.394 10V19.5H37.7284H49.0628V10V0.5H37.7284H26.394V10ZM45.251 9.98545V15.6593H37.7284H30.2059V9.98545V4.31164H37.7284H45.251V9.98545Z"
    fill="#EDF2F4"
  />
  <path d="M52.7878 10V19.5H54.6938H56.5997V11.9058V4.31164H64.1222H71.6448V2.40582V0.5H62.2163H52.7878V10Z" fill="#EDF2F4" />
  <path
    d="M75.4277 10V19.5H77.3336H79.2396V11.9058V4.31164H86.7621H94.2847V11.9058V19.5H96.1906H98.0965V10V0.5H86.7621H75.4277V10Z"
    fill="#EDF2F4"
  />
  <path d="M101.879 2.40583V4.31165H113.214H124.548V2.40583V0.500007H113.214H101.879V2.40583Z" fill="#EDF2F4" />
  <path
    d="M128.331 2.40582V4.31164H133.111H137.89V11.9058V19.5H139.796H141.702V11.9058V4.31164H146.351H151V2.40582V0.5H139.666H128.331V2.40582Z"
    fill="#EDF2F4"
  />
  <path d="M101.879 9.98546V11.9058H113.214H124.548V9.98546V8.06509H113.214H101.879V9.98546Z" fill="#EDF2F4" />
  <path d="M101.879 17.5796V19.5H113.214H124.548V17.5796V15.6593H113.214H101.879V17.5796Z" fill="#EDF2F4" />
</svg>
