<svg width="33" height="8" viewBox="0 0 33 8" fill="none" xmlns="http://www.w3.org/2000/svg">
  <path d="M0 4V8H0.840764H1.68153V4.80245V1.6049H5H8.31847V4.80245V8H9.15924H10V4V4.76837e-07H5H0V4Z" fill="white" />
  <path d="M12 1V2H17H22V1V0H17H12V1Z" fill="white" />
  <path
    d="M23 0.802451V1.6049H25.1083H27.2166V4.80245V8H28.0573H28.8981V4.80245V1.6049H30.949H33V0.802451V4.76837e-07H28H23V0.802451Z"
    fill="white"
  />
  <path d="M12 4V5H17H22V4V3H17H12V4Z" fill="white" />
  <path d="M12 7V8H17H22V7V6H17H12V7Z" fill="white" />
</svg>
