<svg width="385" height="48" viewBox="0 0 385 48" fill="none" xmlns="http://www.w3.org/2000/svg">
    <path d="M0 0.0514526C0 0.0882072 4.95515 5.46891 11.0074 12.0184C17.0596 18.5678 22.0074 23.9559 21.9926 23.9853C21.9853 24.0147 17.0375 29.4028 11.0074 35.9522C4.96988 42.5017 0.0294511 47.8897 0.0147256 47.9265C0 47.9706 2.51071 48 6.78849 48H13.5843L20.9471 39.951C24.9967 35.5185 28.4277 31.7623 28.5676 31.6006L28.8327 31.2992L36.5121 39.6496L44.1841 48H51.002C57.4297 48 57.8126 47.9926 57.7169 47.875C57.658 47.8015 52.6881 42.3988 46.6653 35.8567L35.7095 23.9632L46.7537 12.0184C52.828 5.44686 57.7979 0.0588036 57.7979 0.0367508C57.7979 0.0147018 54.7349 0 50.9946 0H44.1988L36.5121 8.31363L28.8327 16.6346L28.5013 16.2524C28.3099 16.0466 24.8862 12.3051 20.8735 7.93874L13.5843 0.00735092L6.79585 0C3.05556 0 0 0.0220528 0 0.0514526Z" fill="url(#paint0_linear)"/>
    <path d="M67.2959 24V48H96.1948H125.094V24V0H96.1948H67.2959V24ZM115.375 23.9632V38.2971H96.1948H77.0148V23.9632V9.6294H96.1948H115.375V23.9632Z" fill="url(#paint1_linear)"/>
    <path d="M134.592 24V48H139.451H144.311V28.8147V9.6294H163.491H182.671V4.8147V0H158.631H134.592V24Z" fill="url(#paint2_linear)"/>
    <path d="M192.316 24V48H197.175H202.035V28.8147V9.6294H221.215H240.395V28.8147V48H245.254H250.114V24V0H221.215H192.316V24Z" fill="url(#paint3_linear)"/>
    <path d="M259.759 4.81471V9.62941H288.658H317.557V4.81471V6.67572e-06H288.658H259.759V4.81471Z" fill="url(#paint4_linear)"/>
    <path d="M327.202 4.8147V9.6294H339.388H351.573V28.8147V48H356.432H361.292V28.8147V9.6294H373.146H385V4.8147V0H356.101H327.202V4.8147Z" fill="url(#paint5_linear)"/>
    <path d="M259.759 23.9632V28.8147H288.658H317.557V23.9632V19.1118H288.658H259.759V23.9632Z" fill="url(#paint6_linear)"/>
    <path d="M259.759 43.1485V48H288.658H317.557V43.1485V38.2971H288.658H259.759V43.1485Z" fill="url(#paint7_linear)"/>
    <defs>
        <linearGradient id="paint0_linear" x1="63.1955" y1="18.6498" x2="13.2436" y2="53.4473" gradientUnits="userSpaceOnUse">
            <stop stop-color="#DB00FF"/>
            <stop offset="1" stop-color="#4D9FFF"/>
        </linearGradient>
        <linearGradient id="paint1_linear" x1="130.491" y1="18.6498" x2="80.5395" y2="53.4473" gradientUnits="userSpaceOnUse">
            <stop stop-color="#DB00FF"/>
            <stop offset="1" stop-color="#4D9FFF"/>
        </linearGradient>
        <linearGradient id="paint2_linear" x1="187.161" y1="18.6498" x2="140.959" y2="45.4231" gradientUnits="userSpaceOnUse">
            <stop stop-color="#DB00FF"/>
            <stop offset="1" stop-color="#4D9FFF"/>
        </linearGradient>
        <linearGradient id="paint3_linear" x1="255.511" y1="18.6498" x2="205.56" y2="53.4474" gradientUnits="userSpaceOnUse">
            <stop stop-color="#DB00FF"/>
            <stop offset="1" stop-color="#4D9FFF"/>
        </linearGradient>
        <linearGradient id="paint4_linear" x1="322.955" y1="3.7414" x2="317.273" y2="23.4711" gradientUnits="userSpaceOnUse">
            <stop stop-color="#DB00FF"/>
            <stop offset="1" stop-color="#4D9FFF"/>
        </linearGradient>
        <linearGradient id="paint5_linear" x1="390.398" y1="18.6498" x2="340.446" y2="53.4474" gradientUnits="userSpaceOnUse">
            <stop stop-color="#DB00FF"/>
            <stop offset="1" stop-color="#4D9FFF"/>
        </linearGradient>
        <linearGradient id="paint6_linear" x1="322.955" y1="22.8817" x2="317.193" y2="42.7388" gradientUnits="userSpaceOnUse">
            <stop stop-color="#DB00FF"/>
            <stop offset="1" stop-color="#4D9FFF"/>
        </linearGradient>
        <linearGradient id="paint7_linear" x1="322.955" y1="42.067" x2="317.193" y2="61.9241" gradientUnits="userSpaceOnUse">
            <stop stop-color="#DB00FF"/>
            <stop offset="1" stop-color="#4D9FFF"/>
        </linearGradient>
    </defs>
</svg>
