<svg width="129" height="128" viewBox="0 0 129 128" fill="none" xmlns="http://www.w3.org/2000/svg">
  <path
    d="M14.472 29.3601L54.464 23.9467C56.864 23.6214 59 25.4881 59 27.9121V56.0001C59 58.2081 57.208 60.0001 55 60.0001H15C12.792 60.0001 11 58.2081 11 56.0001V33.3334C11 31.3254 12.4827 29.6294 14.472 29.3601ZM117.667 20.0001V56.0001C117.667 58.2081 115.875 60.0001 113.667 60.0001H71C68.792 60.0001 67 58.2081 67 56.0001V25.7627C67 23.7601 68.48 22.0667 70.464 21.8001L113.133 16.0267C114.28 15.8934 115.427 16.2134 116.307 16.9867C117.16 17.7601 117.667 18.8534 117.667 20.0001ZM15 68.0001H55C57.208 68.0001 59 69.7921 59 72.0001V100.088C59 102.509 56.864 104.376 54.464 104.051L14.4667 98.6401C12.48 98.3707 11 96.6774 11 94.6721V72.0001C11 69.7921 12.792 68.0001 15 68.0001ZM113.667 68.0001C115.875 68.0001 117.667 69.7921 117.667 72.0001V108C117.667 109.147 117.16 110.24 116.307 111.013C115.56 111.653 114.627 112 113.667 112C113.48 112 113.32 112 113.133 111.973L70.464 106.203C68.48 105.933 67 104.24 67 102.237V72.0001C67 69.7921 68.792 68.0001 71 68.0001H113.667Z"
    fill="url(#paint0_linear)"
  />
  <defs>
    <linearGradient id="paint0_linear" x1="11" y1="63.9986" x2="117.667" y2="63.9986" gradientUnits="userSpaceOnUse">
      <stop stop-color="#8676FF" />
      <stop offset="0.333333" stop-color="#516DFF" />
      <stop offset="0.692708" stop-color="#32B5FF" />
      <stop offset="1" stop-color="#4ADEFF" />
    </linearGradient>
  </defs>
</svg>
