<svg width="152" height="20" viewBox="0 0 152 20" fill="none" xmlns="http://www.w3.org/2000/svg">
<path d="M0 0.520368C0 0.534916 1.95632 2.66478 4.34576 5.25727C6.73521 7.84977 8.68862 9.98254 8.68281 9.99418C8.6799 10.0058 6.72649 12.1386 4.34576 14.7311C1.96213 17.3236 0.0116275 19.4564 0.00581373 19.4709C0 19.4884 0.991241 19.5 2.68013 19.5H5.36317L8.27003 16.3139C9.86881 14.5594 11.2234 13.0726 11.2786 13.0086L11.3833 12.8893L14.4151 16.1946L17.4441 19.5H20.1359C22.6736 19.5 22.8247 19.4971 22.7869 19.4505C22.7637 19.4214 20.8015 17.2828 18.4237 14.6933L14.0983 9.98545L18.4586 5.25727C20.8568 2.65605 22.8189 0.523277 22.8189 0.514548C22.8189 0.505819 21.6096 0.5 20.133 0.5H17.4499L14.4151 3.79081L11.3833 7.08453L11.2525 6.93323C11.1769 6.85176 9.82521 5.37075 8.24096 3.64242L5.36317 0.50291L2.68304 0.5C1.20635 0.5 0 0.508729 0 0.520368Z" fill="black"/>
<path d="M26.5686 10V19.5H37.9781H49.3875V10V0.5H37.9781H26.5686V10ZM45.5504 9.98545V15.6593H37.9781H30.4057V9.98545V4.31164H37.9781H45.5504V9.98545Z" fill="black"/>
<path d="M53.1375 10V19.5H55.056H56.9745V11.9058V4.31164H64.5469H72.1193V2.40582V0.5H62.6284H53.1375V10Z" fill="black"/>
<path d="M75.9272 10V19.5H77.8458H79.7643V11.9058V4.31164H87.3367H94.9091V11.9058V19.5H96.8276H98.7462V10V0.5H87.3367H75.9272V10Z" fill="black"/>
<path d="M102.554 2.40583V4.31165H113.964H125.373V2.40583V0.500007H113.964H102.554V2.40583Z" fill="black"/>
<path d="M129.181 2.40582V4.31164H133.992H138.803V11.9058V19.5H140.721H142.64V11.9058V4.31164H147.32H152V2.40582V0.5H140.591H129.181V2.40582Z" fill="black"/>
<path d="M102.554 9.98546V11.9058H113.964H125.373V9.98546V8.06509H113.964H102.554V9.98546Z" fill="black"/>
<path d="M102.554 17.5796V19.5H113.964H125.373V17.5796V15.6593H113.964H102.554V17.5796Z" fill="black"/>
</svg>
