<?xml version="1.0" standalone="no"?>
<!DOCTYPE svg PUBLIC "-//W3C//DTD SVG 20010904//EN" "https://www.w3.org/TR/2001/REC-SVG-20010904/DTD/svg10.dtd">
<svg
  version="1.0"
  xmlns="http://www.w3.org/2000/svg"
  width="5229.000000pt"
  height="653.000000pt"
  viewBox="0 0 5229.000000 653.000000"
  preserveAspectRatio="xMidYMid meet"
>
  <g transform="translate(0.000000,653.000000) scale(0.100000,-0.100000)" fill="#000000" stroke="none">
    <path
      d="M0 6523 c0 -5 673 -737 1495 -1628 822 -891 1494 -1624 1492 -1628
-1 -4 -673 -737 -1492 -1628 -820 -891 -1491 -1624 -1493 -1629 -2 -6 339 -10
920 -10 l923 0 1000 1095 c550 603 1016 1114 1035 1136 l36 41 1043 -1136
1042 -1136 926 0 c873 0 925 1 912 17 -8 10 -683 745 -1501 1635 l-1488 1618
1500 1625 c825 894 1500 1627 1500 1630 0 3 -416 5 -924 5 l-923 0 -1044
-1131 -1043 -1132 -45 52 c-26 28 -491 537 -1036 1131 l-990 1079 -922 1
c-508 0 -923 -3 -923 -7z"
    />
    <path
      d="M9140 3265 l0 -3265 3925 0 3925 0 0 3265 0 3265 -3925 0 -3925 0 0
-3265z m6530 5 l0 -1950 -2605 0 -2605 0 0 1950 0 1950 2605 0 2605 0 0 -1950z"
    />
    <path
      d="M18280 3265 l0 -3265 660 0 660 0 0 2610 0 2610 2605 0 2605 0 0 655
0 655 -3265 0 -3265 0 0 -3265z"
    />
    <path
      d="M26120 3265 l0 -3265 660 0 660 0 0 2610 0 2610 2605 0 2605 0 0
-2610 0 -2610 660 0 660 0 0 3265 0 3265 -3925 0 -3925 0 0 -3265z"
    />
    <path
      d="M35280 5875 l0 -655 3925 0 3925 0 0 655 0 655 -3925 0 -3925 0 0
-655z"
    />
    <path
      d="M44440 5875 l0 -655 1655 0 1655 0 0 -2610 0 -2610 660 0 660 0 0
2610 0 2610 1610 0 1610 0 0 655 0 655 -3925 0 -3925 0 0 -655z"
    />
    <path
      d="M35280 3270 l0 -660 3925 0 3925 0 0 660 0 660 -3925 0 -3925 0 0
-660z"
    />
    <path
      d="M35280 660 l0 -660 3925 0 3925 0 0 660 0 660 -3925 0 -3925 0 0
-660z"
    />
  </g>
</svg>
