<svg xmlns:xlink="http://www.w3.org/1999/xlink" xmlns="http://www.w3.org/2000/svg" viewBox="0 0 48 48" width="172" height="172">
  <path
    d="M 12.984375 5.9863281 A 1.0001 1.0001 0 0 0 12 7 L 12 41 A 1.0001 1.0001 0 1 0 14 41 L 14 7 A 1.0001 1.0001 0 0 0 12.984375 5.9863281 z M 7 6 C 6.448 6 6 6.448 6 7 L 6 41 C 6 41.552 6.448 42 7 42 L 9 42 C 9.552 42 10 41.552 10 41 L 10 7 C 10 6.448 9.552 6 9 6 L 7 6 z M 17 6 C 16.448 6 16 6.448 16 7 L 16 41 C 16 41.552 16.448 42 17 42 L 19 42 C 19.552 42 20 41.552 20 41 L 20 7 C 20 6.448 19.552 6 19 6 L 17 6 z M 23 6 C 22.448 6 22 6.448 22 7 L 22 41 C 22 41.552 22.448 42 23 42 L 29 42 C 29.552 42 30 41.552 30 41 L 30 7 C 30 6.448 29.552 6 29 6 L 23 6 z M 33 6 C 32.448 6 32 6.448 32 7 L 32 41 C 32 41.552 32.448 42 33 42 L 35 42 C 35.552 42 36 41.552 36 41 L 36 7 C 36 6.448 35.552 6 35 6 L 33 6 z M 39 6 C 38.448 6 38 6.448 38 7 L 38 41 C 38 41.552 38.448 42 39 42 L 41 42 C 41.552 42 42 41.552 42 41 L 42 7 C 42 6.448 41.552 6 41 6 L 39 6 z"
  ></path>
</svg>
