<svg xmlns:xlink="http://www.w3.org/1999/xlink" xmlns="http://www.w3.org/2000/svg" viewBox="0 0 48 48" width="172" height="172">
  <path
    d="M 10.476562 6.9785156 A 1.50015 1.50015 0 0 0 9 8.5 L 9 11.050781 C 6.756334 11.30317 5 13.190108 5 15.5 L 5 32.5 C 5 34.809892 6.756334 36.69683 9 36.949219 L 9 39.5 A 1.50015 1.50015 0 1 0 12 39.5 L 12 37 L 16 37 L 16 39.5 A 1.50015 1.50015 0 1 0 19 39.5 L 19 37 L 23 37 L 23 39.5 A 1.50015 1.50015 0 1 0 26 39.5 L 26 37 L 30 37 L 30 39.5 A 1.50015 1.50015 0 1 0 33 39.5 L 33 37 L 37 37 L 37 39.5 A 1.50015 1.50015 0 1 0 40 39.5 L 40 36.724609 C 41.742275 36.103423 43 34.452699 43 32.5 L 43 15.5 C 43 13.547301 41.742275 11.896577 40 11.275391 L 40 8.5 A 1.50015 1.50015 0 0 0 38.476562 6.9785156 A 1.50015 1.50015 0 0 0 37 8.5 L 37 11 L 33 11 L 33 8.5 A 1.50015 1.50015 0 0 0 31.476562 6.9785156 A 1.50015 1.50015 0 0 0 30 8.5 L 30 11 L 26 11 L 26 8.5 A 1.50015 1.50015 0 0 0 24.476562 6.9785156 A 1.50015 1.50015 0 0 0 23 8.5 L 23 11 L 19 11 L 19 8.5 A 1.50015 1.50015 0 0 0 17.476562 6.9785156 A 1.50015 1.50015 0 0 0 16 8.5 L 16 11 L 12 11 L 12 8.5 A 1.50015 1.50015 0 0 0 10.476562 6.9785156 z M 12.5 17 C 13.328 17 14 17.672 14 18.5 C 14 19.328 13.328 20 12.5 20 C 11.672 20 11 19.328 11 18.5 C 11 17.672 11.672 17 12.5 17 z"
  ></path>
</svg>
