<svg xmlns:xlink="http://www.w3.org/1999/xlink" xmlns="http://www.w3.org/2000/svg" viewBox="0 0 48 48" width="172" height="172">
  <path
    d="M 24 7 A 3.5 3.5 0 0 0 22.298828 13.554688 L 18.089844 21.970703 L 10.46875 14.349609 A 3.5 3.5 0 0 0 7.5 9 A 3.5 3.5 0 0 0 6.4375 15.830078 L 9.6699219 32 L 38.330078 32 L 41.5625 15.833984 A 3.5 3.5 0 0 0 40.5 9 A 3.5 3.5 0 0 0 37.53125 14.347656 L 29.910156 21.970703 L 25.703125 13.556641 A 3.5 3.5 0 0 0 24 7 z M 10 35 L 10 38.5 C 10 40.43 11.57 42 13.5 42 L 34.5 42 C 36.43 42 38 40.43 38 38.5 L 38 35 L 10 35 z"
  ></path>
</svg>
