<svg xmlns:xlink="http://www.w3.org/1999/xlink" xmlns="http://www.w3.org/2000/svg" viewBox="0 0 48 48" width="172" height="172">
  <path
    d="M 35.476562 2.9785156 A 1.50015 1.50015 0 0 0 34 4.5 L 34 6 L 32.5 6 A 1.50015 1.50015 0 1 0 32.5 9 L 34 9 L 34 10.5 A 1.50015 1.50015 0 1 0 37 10.5 L 37 9 L 38.5 9 A 1.50015 1.50015 0 1 0 38.5 6 L 37 6 L 37 4.5 A 1.50015 1.50015 0 0 0 35.476562 2.9785156 z M 22.5 6 C 11.748 6 3 14.748 3 25.5 C 3 36.252 11.748 45 22.5 45 C 29.5 45 35.997984 41.197125 39.458984 35.078125 C 39.704984 34.643125 39.717188 34.113016 39.492188 33.666016 C 39.267188 33.219016 38.834891 32.913562 38.337891 32.851562 C 29.594891 31.771562 23 24.313 23 15.5 C 23 12.967 23.547906 10.500922 24.628906 8.1699219 C 24.838906 7.7149219 24.807875 7.1858125 24.546875 6.7578125 C 24.285875 6.3308125 23.828125 6.0620156 23.328125 6.0410156 L 23.076172 6.0253906 C 22.885172 6.0123906 22.694 6 22.5 6 z M 40.476562 15.978516 A 1.50015 1.50015 0 0 0 39 17.5 L 39 19 L 37.5 19 A 1.50015 1.50015 0 1 0 37.5 22 L 39 22 L 39 23.5 A 1.50015 1.50015 0 1 0 42 23.5 L 42 22 L 43.5 22 A 1.50015 1.50015 0 1 0 43.5 19 L 42 19 L 42 17.5 A 1.50015 1.50015 0 0 0 40.476562 15.978516 z"
  ></path>
</svg>
