<svg xmlns:xlink="http://www.w3.org/1999/xlink" xmlns="http://www.w3.org/2000/svg" viewBox="0 0 48 48" width="172" height="172">
  <path
    d="M 24 4 C 12.972066 4 4 12.972074 4 24 C 4 35.027926 12.972066 44 24 44 C 35.027934 44 44 35.027926 44 24 C 44 12.972074 35.027934 4 24 4 z M 24 7 C 27.171728 7 30.126208 7.8797482 32.664062 9.3847656 C 32.568627 9.4842111 32.490521 9.6042971 32.441406 9.7441406 L 32.242188 10.310547 C 32.097188 10.721547 32.236938 11.179406 32.585938 11.441406 L 32.933594 11.701172 C 33.466594 12.101172 33.466594 12.900781 32.933594 13.300781 L 32.494141 13.630859 C 32.191141 13.857859 31.786266 13.893609 31.447266 13.724609 L 30.210938 13.105469 C 30.071938 13.035469 29.918672 13 29.763672 13 L 27.306641 13 C 27.014641 13 26.737875 13.128609 26.546875 13.349609 L 24.238281 16.039062 C 23.996281 16.321063 23.932312 16.7165 24.070312 17.0625 L 24.28125 17.591797 C 24.54825 18.258797 25.409969 18.435734 25.917969 17.927734 C 25.917969 17.927734 26.562344 17.630063 26.777344 16.664062 C 26.866344 16.265062 27.245297 16 27.654297 16 L 28.599609 16 C 28.857609 16 29.104063 16.099344 29.289062 16.277344 L 29.783203 16.748047 C 30.189203 17.136047 30.197781 17.782688 29.800781 18.179688 L 29.027344 18.951172 C 28.935344 19.043172 28.826078 19.117969 28.705078 19.167969 L 25.628906 20.447266 C 25.543906 20.482266 25.462625 20.528938 25.390625 20.585938 L 22.615234 22.783203 C 22.438234 22.923203 22.219141 23 21.994141 23 L 21.5 23 C 20.672 23 20 23.672 20 24.5 C 20 25.328 20.672 26 21.5 26 L 21.732422 26 C 22.131422 26 22.523281 25.890641 22.863281 25.681641 L 24.896484 24.439453 C 25.311484 24.185453 25.848922 24.267766 26.169922 24.634766 L 27.064453 25.658203 C 27.254453 25.875203 27.529359 26 27.818359 26 L 28 26 C 28.552 26 29 25.552 29 25 L 29 24.394531 C 29 24.141531 29.095578 23.896891 29.267578 23.712891 L 30.410156 22.486328 C 30.485156 22.405328 30.572922 22.337156 30.669922 22.285156 L 32.527344 21.289062 C 33.194344 20.932063 34 21.415875 34 22.171875 L 34 23 C 34 23.552 33.552 24 33 24 L 32 24 C 31.448 24 31 24.448 31 25 C 31 25.552 31.448 26 32 26 L 33.46875 26 C 33.80075 26 34.110875 26.165406 34.296875 26.441406 L 36.462891 29.646484 C 36.789891 30.130484 37.460016 30.232187 37.916016 29.867188 L 38.625 29.300781 C 38.862 29.110781 39 28.823531 39 28.519531 L 39 28 C 39 27.448 38.552 27 38 27 C 37.448 27 37 26.552 37 26 C 37 25.448 37.448 25 38 25 L 38.359375 25 C 38.452375 25 38.544766 24.986891 38.634766 24.962891 L 40.984375 24.291016 C 40.915223 28.387975 39.410538 32.122752 36.943359 35.019531 C 36.978735 34.911028 37 34.797171 37 34.681641 L 37 34.085938 C 37 33.485937 36.514063 33 35.914062 33 C 35.548063 33 35.207859 32.815766 35.005859 32.509766 L 32.808594 28.578125 C 32.507594 28.117125 31.909016 27.956172 31.416016 28.201172 L 29.107422 29.466797 C 28.851422 29.594797 28.55325 29.615391 28.28125 29.525391 L 24.548828 28.173828 C 23.880828 27.951828 23.159188 27.951828 22.492188 28.173828 L 19.099609 29.525391 C 18.826609 29.615391 18.599703 29.811359 18.470703 30.068359 L 17.222656 32.556641 C 17.080656 32.838641 17.069453 33.166031 17.189453 33.457031 L 18.378906 36.328125 C 18.546906 36.734125 18.941859 37 19.380859 37 L 21.457031 37 C 21.799031 37 22.121172 36.838406 22.326172 36.566406 L 22.632812 36.158203 C 23.066813 35.579203 23.935141 35.579203 24.369141 36.158203 L 24.783203 36.710938 C 24.924203 36.897937 25 37.126328 25 37.361328 L 25 40.949219 C 24.667105 40.96854 24.33784 41 24 41 C 14.593385 41 7 33.406609 7 24 C 7 22.661441 7.1700722 21.365658 7.4609375 20.117188 L 9.0488281 19.207031 C 9.1828281 19.130031 9.3323281 19.091797 9.4863281 19.091797 L 10.117188 19.091797 C 10.605187 19.091797 11.001953 18.695031 11.001953 18.207031 L 11.001953 15.066406 C 11.001953 14.578406 11.396766 14.181641 11.884766 14.181641 C 12.266766 14.181641 12.605609 13.937219 12.724609 13.574219 L 14.314453 10.027344 C 15.121909 9.467268 15.983319 8.9856208 16.884766 8.5703125 L 15.056641 12.558594 C 14.821641 13.267594 15.348703 14 16.095703 14 L 18.332031 14 C 18.821031 14 19.288766 13.806937 19.634766 13.460938 L 21.775391 11.320312 C 21.980391 11.115312 22.095703 10.837875 22.095703 10.546875 L 22.095703 10.09375 C 22.095703 9.49075 21.605953 9 21.001953 9 L 20.548828 9 C 20.258828 9 19.979437 9.1153125 19.773438 9.3203125 L 19.095703 10 L 19.083984 8.7636719 C 19.080711 8.3839698 18.887769 8.0723593 18.613281 7.8808594 C 20.3066 7.3171846 22.114407 7 24 7 z M 21 16 C 20.448 16 20 16.448 20 17 L 20 18 C 20 18.552 20.448 19 21 19 C 21.552 19 22 18.552 22 18 L 22 17 C 22 16.448 21.552 16 21 16 z"
  ></path>
</svg>
