<svg fill="#000000" xmlns="http://www.w3.org/2000/svg" viewBox="0 0 48 48" width="48px" height="48px">
  <path
    d="M 16.5 5 C 10.159 5 5 10.159 5 16.5 L 5 31.5 C 5 37.841 10.159 43 16.5 43 L 31.5 43 C 37.841 43 43 37.841 43 31.5 L 43 16.5 C 43 10.159 37.841 5 31.5 5 L 16.5 5 z M 34 12 C 35.105 12 36 12.895 36 14 C 36 15.104 35.105 16 34 16 C 32.895 16 32 15.104 32 14 C 32 12.895 32.895 12 34 12 z M 24 14 C 29.514 14 34 18.486 34 24 C 34 29.514 29.514 34 24 34 C 18.486 34 14 29.514 14 24 C 14 18.486 18.486 14 24 14 z M 24 17 A 7 7 0 1 0 24 31 A 7 7 0 1 0 24 17 z"
  />
</svg>
