<svg xmlns:xlink="http://www.w3.org/1999/xlink" xmlns="http://www.w3.org/2000/svg" viewBox="0 0 48 48" width="172" height="172">
  <path
    d="M 13.5 4 C 10.467 4 8 6.467 8 9.5 L 8 38.5 C 8 41.533 10.467 44 13.5 44 L 34.5 44 C 37.533 44 40 41.533 40 38.5 L 40 9.5 C 40 6.467 37.533 4 34.5 4 L 13.5 4 z M 24.019531 11.984375 C 24.355031 11.984375 24.689813 12.149469 24.882812 12.480469 L 28 17.5 L 31.296875 14.283203 C 31.955875 13.624203 33.077 14.144266 33 15.072266 L 32.396484 23.037109 C 32.256484 24.711109 30.857734 26 29.177734 26 L 19.132812 26 C 17.503812 26 16.127781 24.786922 15.925781 23.169922 L 15 15.119141 C 14.885 14.197141 15.977063 13.630859 16.664062 14.255859 L 20 17.5 L 23.154297 12.480469 C 23.347297 12.149469 23.684031 11.984375 24.019531 11.984375 z M 13.5 34 L 34.5 34 C 35.878 34 37 35.122 37 36.5 L 37 38.5 C 37 39.878 35.878 41 34.5 41 L 13.5 41 C 12.122 41 11 39.878 11 38.5 L 11 36.5 C 11 35.122 12.122 34 13.5 34 z M 33.5 36 A 1.5 1.5 0 0 0 33.5 39 A 1.5 1.5 0 0 0 33.5 36 z"
  ></path>
</svg>
