<svg xmlns:xlink="http://www.w3.org/1999/xlink" xmlns="http://www.w3.org/2000/svg" viewBox="0 0 48 48" width="172" height="172">
  <path
    d="M 23.992188 4.9960938 A 2.0002 2.0002 0 0 0 23.205078 5.1464844 C 17.379981 5.5457461 12.619854 10.014685 12.041016 15.800781 A 2.0002 2.0002 0 1 0 16.021484 16.197266 C 16.425522 12.158495 19.827555 8.9960936 23.992188 8.9960938 C 28.42813 8.9960938 32.003906 12.570326 32.003906 17.001953 C 32.003906 20.766832 30.515504 21.752197 28.195312 23.544922 C 25.875121 25.337647 22.663236 27.785344 22.017578 32.740234 A 2.0002 2.0002 0 1 0 25.982422 33.255859 C 26.447764 29.684749 28.236567 28.568463 30.640625 26.710938 C 33.044683 24.853411 36.003906 22.104075 36.003906 17.001953 C 36.003906 10.691308 31.019692 5.6125565 24.816406 5.1640625 A 2.0002 2.0002 0 0 0 23.992188 4.9960938 z M 24 40.001953 C 22.898 40.001953 22.001953 40.898 22.001953 42 C 22.001953 43.102 22.898 43.998047 24 43.998047 C 25.102 43.998047 25.998047 43.102 25.998047 42 C 25.998047 40.898 25.102 40.001953 24 40.001953 z"
  ></path>
</svg>
