<svg xmlns:xlink="http://www.w3.org/1999/xlink" xmlns="http://www.w3.org/2000/svg" viewBox="0 0 48 48" width="172"  height="172" ><path d="M 16.5 4 C 13.486124 4 11 6.486124 11 9.5 L 11 38.5 C 11 41.513876 13.486124 44 16.5 44 L 31.5 44 C 34.513876 44 37 41.513876 37 38.5 L 37 9.5 C 37 6.486124 34.513876 4 31.5 4 L 16.5 4 z M 16.5 8 L 18.072266 8 L 18.658203 9.171875 C 18.913203 9.679875 19.432 10 20 10 L 28 10 C 28.568 10 29.086797 9.679875 29.341797 9.171875 L 29.927734 8 L 31.5 8 C 32.352124 8 33 8.647876 33 9.5 L 33 38.5 C 33 39.352124 32.352124 40 31.5 40 L 16.5 40 C 15.647876 40 15 39.352124 15 38.5 L 15 9.5 C 15 8.647876 15.647876 8 16.5 8 z"></path></svg>