<svg xmlns:xlink="http://www.w3.org/1999/xlink" xmlns="http://www.w3.org/2000/svg" viewBox="0 0 48 48" width="172" height="172">
  <path
    d="M45 28V13.5c0-2.481-2.019-4.5-4.5-4.5h-33C5.019 9 3 11.019 3 13.5V28H45zM35 15c0-.552.448-1 1-1h3c.552 0 1 .448 1 1v9c0 .552-.448 1-1 1h-3c-.552 0-1-.448-1-1V15zM26 15c0-.552.448-1 1-1h3c.552 0 1 .448 1 1v9c0 .552-.448 1-1 1h-3c-.552 0-1-.448-1-1V15zM17 15c0-.552.448-1 1-1h3c.552 0 1 .448 1 1v9c0 .552-.448 1-1 1h-3c-.552 0-1-.448-1-1V15zM8 15c0-.552.448-1 1-1h3c.552 0 1 .448 1 1v9c0 .552-.448 1-1 1H9c-.552 0-1-.448-1-1V15zM3 31v3.5C3 36.981 5.019 39 7.5 39H8v-3.5C8 34.671 8.671 34 9.5 34s1.5.671 1.5 1.5V39h3v-3.5c0-.829.671-1.5 1.5-1.5s1.5.671 1.5 1.5V39h2.5c.829 0 1.5-.671 1.5-1.5 0-1.654 1.346-3 3-3s3 1.346 3 3c0 .829.671 1.5 1.5 1.5H31v-3.5c0-.829.671-1.5 1.5-1.5s1.5.671 1.5 1.5V39h3v-3.5c0-.829.671-1.5 1.5-1.5s1.5.671 1.5 1.5V39h.5c2.481 0 4.5-2.019 4.5-4.5V31H3z"
  ></path>
</svg>
