<svg xmlns:xlink="http://www.w3.org/1999/xlink" xmlns="http://www.w3.org/2000/svg" viewBox="0 0 48 48" width="172"  height="172" ><path d="M14.62 15.572l-.8.408C13.316 16.235 13 16.752 13 17.316v.782l9.5 5.747v11.95l.687.443c.248.16.53.24.813.24s.566-.08.813-.24l.687-.443v-11.95l9.5-5.747v-.782c0-.564-.316-1.081-.819-1.337l-.8-.407L24 21.247 14.62 15.572zM23.319 11.142c.428-.217.934-.217 1.361 0l8.7 4.43 8.057-4.874L24.681 2.163c-.428-.217-.934-.217-1.361 0L6.563 10.698l8.057 4.874L23.319 11.142zM13.687 30.104C13.258 29.828 13 29.354 13 28.845V18.098l-8-4.84v19.944c0 .51.258.984.687 1.26L22.5 45.317v-9.521L13.687 30.104zM35 28.845c0 .51-.258.983-.687 1.26L25.5 35.795v9.521l16.813-10.855c.428-.275.687-.75.687-1.26V13.259l-8 4.84V28.845z"></path></svg>