<svg xmlns:xlink="http://www.w3.org/1999/xlink" xmlns="http://www.w3.org/2000/svg" viewBox="0 0 48 48" width="172"  height="172" ><path d="M 24 4 C 12.972066 4 4 12.972074 4 24 C 4 35.027926 12.972066 44 24 44 C 35.027934 44 44 35.027926 44 24 C 44 12.972074 35.027934 4 24 4 z M 24 8.0234375 C 24.422 8.0234375 24.843906 8.1876719 25.128906 8.5136719 L 28.628906 12.513672 C 29.174906 13.136672 29.110328 14.082906 28.486328 14.628906 C 28.202328 14.877906 27.852953 15 27.501953 15 C 27.083953 15 26.668094 14.826328 26.371094 14.486328 L 25.5 13.492188 L 25.5 18.5 C 25.5 19.328 24.828 20 24 20 C 23.172 20 22.5 19.328 22.5 18.5 L 22.5 13.492188 L 21.628906 14.486328 C 21.081906 15.108328 20.136672 15.174906 19.513672 14.628906 C 18.889672 14.082906 18.825094 13.136672 19.371094 12.513672 L 22.871094 8.5136719 C 23.156094 8.1876719 23.578 8.0234375 24 8.0234375 z M 33.599609 19.001953 C 33.982484 19.027578 34.355906 19.201172 34.628906 19.513672 C 35.174906 20.136672 35.110328 21.082906 34.486328 21.628906 L 33.492188 22.5 L 38.5 22.5 C 39.328 22.5 40 23.172 40 24 C 40 24.828 39.328 25.5 38.5 25.5 L 33.492188 25.5 L 34.486328 26.371094 C 35.110328 26.917094 35.174906 27.863328 34.628906 28.486328 C 34.331906 28.825328 33.916047 29 33.498047 29 C 33.147047 29 32.797672 28.877906 32.513672 28.628906 L 28.513672 25.128906 C 28.187672 24.843906 28 24.433 28 24 C 28 23.567 28.187672 23.156094 28.513672 22.871094 L 32.513672 19.371094 C 32.825172 19.098094 33.216734 18.976328 33.599609 19.001953 z M 14.400391 19.003906 C 14.783141 18.978031 15.174828 19.098094 15.486328 19.371094 L 19.486328 22.871094 C 19.812328 23.156094 20 23.567 20 24 C 20 24.433 19.812328 24.843906 19.486328 25.128906 L 15.486328 28.628906 C 15.202328 28.877906 14.852953 29 14.501953 29 C 14.083953 29 13.668094 28.826328 13.371094 28.486328 C 12.825094 27.863328 12.889672 26.917094 13.513672 26.371094 L 14.507812 25.5 L 9.5 25.5 C 8.672 25.5 8 24.828 8 24 C 8 23.172 8.672 22.5 9.5 22.5 L 14.507812 22.5 L 13.513672 21.628906 C 12.889672 21.082906 12.825094 20.136672 13.371094 19.513672 C 13.644594 19.202172 14.017641 19.029781 14.400391 19.003906 z M 24 28 C 24.828 28 25.5 28.672 25.5 29.5 L 25.5 34.507812 L 26.371094 33.513672 C 26.917094 32.889672 27.864328 32.825094 28.486328 33.371094 C 29.110328 33.917094 29.174906 34.863328 28.628906 35.486328 L 25.128906 39.486328 C 24.843906 39.812328 24.433 40 24 40 C 23.567 40 23.156094 39.812328 22.871094 39.486328 L 19.371094 35.486328 C 18.825094 34.863328 18.889672 33.917094 19.513672 33.371094 C 20.136672 32.825094 21.081906 32.887672 21.628906 33.513672 L 22.5 34.507812 L 22.5 29.5 C 22.5 28.672 23.172 28 24 28 z"></path></svg>