<svg fill="#000000" xmlns="http://www.w3.org/2000/svg" viewBox="0 0 48 48" width="48px" height="48px">
  <path
    d="M17.5,27c-0.9,0-1.74,0.27-2.45,0.73l3.43,1.47c1.27,0.55,1.86,2.02,1.32,3.28C19.39,33.43,18.47,34,17.5,34 c-0.33,0-0.66-0.06-0.98-0.2l-3.44-1.47C13.47,34.41,15.3,36,17.5,36c2.48,0,4.5-2.02,4.5-4.5C22,29.02,19.98,27,17.5,27z M30,13 c-2.76,0-5,2.24-5,5s2.24,5,5,5s5-2.24,5-5S32.76,13,30,13z M30,21c-1.66,0-3-1.34-3-3c0-1.66,1.34-3,3-3s3,1.34,3,3 C33,19.66,31.66,21,30,21z M24,4C13.28,4,4.54,12.42,4.03,23.01l8.95,3.83C14.15,25.7,15.74,25,17.5,25c0.16,0,0.33,0.01,0.49,0.02 l4.07-6.1C22.02,18.62,22,18.31,22,18c0-4.41,3.59-8,8-8s8,3.59,8,8c0,4.41-3.59,8-8,8c-0.14,0-0.28-0.01-0.42-0.02l-5.65,4.62 c0.04,0.3,0.07,0.59,0.07,0.9c0,3.58-2.92,6.5-6.5,6.5S11,35.08,11,31.5v-0.06l-6.44-2.76C6.66,37.47,14.56,44,24,44 c11.05,0,20-8.95,20-20S35.05,4,24,4z"
  />
</svg>
