<svg fill="#000000" xmlns="http://www.w3.org/2000/svg" viewBox="0 0 48 48" width="48px" height="48px">
  <path
    d="M 15.189453 6 C 13.33091 6 11.593951 6.9426764 10.580078 8.5019531 L 5.8417969 15.78125 L 5.9003906 15.701172 C 5.3170163 16.479504 5 17.426275 5 18.400391 L 5 36.5 C 5 38.967501 7.0324991 41 9.5 41 L 15 41 L 15 44.5 A 1.50015 1.50015 0 0 0 16.5 46 L 17.671875 46 C 18.599988 46 19.490527 45.630566 20.146484 44.974609 L 24.121094 41 L 30.173828 41 C 31.441313 41 32.649666 40.463511 33.501953 39.527344 L 41.050781 31.224609 L 41.048828 31.224609 C 42.30393 29.844549 43 28.045092 43 26.179688 L 43 10.5 C 43 8.0324991 40.967501 6 38.5 6 L 15.189453 6 z M 15.189453 9 L 23 9 L 38.5 9 C 39.346499 9 40 9.6535009 40 10.5 L 40 26.179688 C 40 27.300283 39.583024 28.379091 38.830078 29.207031 L 38.371094 29.710938 L 38.400391 29.650391 L 35.662109 32.681641 C 34.903109 33.521641 33.825359 34 32.693359 34 L 24.5 34 L 19 39 L 19 34 L 15 34 C 13.9 34 13 33.1 13 32 L 13 11 C 13 10.459499 13.216346 9.9711738 13.564453 9.6113281 C 14.011909 9.2264864 14.582744 9 15.189453 9 z M 23.476562 14.978516 A 1.50015 1.50015 0 0 0 22 16.5 L 22 24.5 A 1.50015 1.50015 0 1 0 25 24.5 L 25 16.5 A 1.50015 1.50015 0 0 0 23.476562 14.978516 z M 31.476562 14.978516 A 1.50015 1.50015 0 0 0 30 16.5 L 30 24.5 A 1.50015 1.50015 0 1 0 33 24.5 L 33 16.5 A 1.50015 1.50015 0 0 0 31.476562 14.978516 z"
  />
</svg>
