<svg width="168" height="168" viewBox="0 0 168 168" fill="none" xmlns="http://www.w3.org/2000/svg">
<path fill-rule="evenodd" clip-rule="evenodd" d="M143.226 22.7234H24.7728C16.2528 22.7234 12 29.6944 12 38.2941V42.6463C12 51.246 16.2528 58.2171 24.7728 58.2171H143.224C151.746 58.2171 155.998 51.246 155.998 42.6463V38.2941C156 29.6944 151.747 22.7234 143.226 22.7234ZM29.6368 48.1709C25.4224 48.1709 22.0048 44.7233 22.0048 40.4694C22.0048 36.2155 25.4224 32.7679 29.6368 32.7679C33.8528 32.7679 37.2688 36.2155 37.2688 40.4694C37.2688 44.7233 33.8528 48.1709 29.6368 48.1709ZM50.4512 48.1709C46.2368 48.1709 42.8176 44.7233 42.8176 40.4694C42.8176 36.2155 46.2368 32.7679 50.4512 32.7679C54.6656 32.7679 58.0832 36.2155 58.0832 40.4694C58.0832 44.7233 54.6656 48.1709 50.4512 48.1709ZM72.3152 48.1709C68.0992 48.1709 64.6832 44.7233 64.6832 40.4694C64.6832 36.2155 68.0992 32.7679 72.3152 32.7679C76.5312 32.7679 79.9472 36.2155 79.9472 40.4694C79.9472 44.7233 76.5312 48.1709 72.3152 48.1709ZM141.166 47.1663C141.166 49.0159 139.68 50.5156 137.85 50.5156C136.016 50.5156 134.531 49.0159 134.531 47.1663V33.7725C134.531 31.9229 136.018 30.4233 137.85 30.4233C139.682 30.4233 141.166 31.9213 141.166 33.7725V47.1663ZM143.226 66.254H24.7728C16.2528 66.254 12 73.225 12 81.8247V86.1769C12 94.7766 16.2528 101.748 24.7728 101.748H143.224C151.746 101.748 155.998 94.7766 155.998 86.1769V81.8247C156 73.225 151.747 66.254 143.226 66.254ZM29.6368 91.7015C25.4224 91.7015 22.0048 88.2539 22.0048 84C22.0048 79.7477 25.4224 76.3001 29.6368 76.3001C33.8528 76.3001 37.2688 79.7477 37.2688 84C37.2688 88.2555 33.8528 91.7015 29.6368 91.7015ZM50.4512 91.7015C46.2368 91.7015 42.8176 88.2539 42.8176 84C42.8176 79.7477 46.2368 76.3001 50.4512 76.3001C54.6656 76.3001 58.0832 79.7477 58.0832 84C58.0832 88.2555 54.6656 91.7015 50.4512 91.7015ZM141.166 90.6985C141.166 92.5465 139.68 94.0445 137.85 94.0445C136.016 94.0445 134.531 92.5448 134.531 90.6985V77.3031C134.531 75.4551 136.018 73.9539 137.85 73.9539C139.682 73.9539 141.166 75.4535 141.166 77.3031V90.6985ZM143.226 109.786H24.7728C16.2528 109.786 12 116.757 12 125.355V129.706C12 138.307 16.2528 145.277 24.7728 145.277H143.224C151.747 145.277 156 138.307 156 129.707V125.357C156 116.757 151.747 109.786 143.226 109.786ZM29.6368 135.232C25.4224 135.232 22.0048 131.783 22.0048 127.532C22.0048 123.277 25.4224 119.831 29.6368 119.831C33.8528 119.831 37.2688 123.278 37.2688 127.532C37.2688 131.784 33.8528 135.232 29.6368 135.232ZM50.4512 135.232C46.2368 135.232 42.8176 131.783 42.8176 127.532C42.8176 123.277 46.2368 119.831 50.4512 119.831C54.6656 119.831 58.0832 123.278 58.0832 127.532C58.0832 131.784 54.6656 135.232 50.4512 135.232ZM72.3152 135.232C68.0992 135.232 64.6832 131.783 64.6832 127.532C64.6832 123.277 68.0992 119.831 72.3152 119.831C76.5312 119.831 79.9472 123.278 79.9472 127.532C79.9472 131.784 76.5312 135.232 72.3152 135.232ZM141.166 134.227C141.166 136.077 139.68 137.575 137.85 137.575C136.016 137.575 134.531 136.077 134.531 134.227V120.834C134.531 118.984 136.018 117.484 137.85 117.484C139.682 117.484 141.166 118.984 141.166 120.834V134.227ZM93.985 135.232C89.769 135.232 86.353 131.783 86.353 127.532C86.353 123.277 89.769 119.831 93.985 119.831C98.201 119.831 101.617 123.278 101.617 127.532C101.617 131.784 98.201 135.232 93.985 135.232ZM125.616 94.0446C127.447 94.0446 128.933 92.5465 128.933 90.6985V77.3031C128.933 75.4536 127.448 73.9539 125.616 73.9539C123.784 73.9539 122.298 75.4552 122.298 77.3031V90.6985C122.298 92.5449 123.783 94.0446 125.616 94.0446Z" fill="#B469FF"/>
</svg>
