<svg width="172" height="172" viewBox="0 0 172 172" fill="none" xmlns="http://www.w3.org/2000/svg">
<mask id="mask0_2501_8888" style="mask-type:alpha" maskUnits="userSpaceOnUse" x="0" y="28" width="172" height="112">
<path d="M139.75 75.2501H137.672C134.984 49.1276 112.839 28.6667 86 28.6667C59.1608 28.6667 37.0158 49.1276 34.3283 75.2501H32.25C14.4767 75.2501 0 89.7267 0 107.5C0 125.273 14.4767 139.75 32.25 139.75H139.75C157.523 139.75 172 125.273 172 107.5C172 89.7267 157.523 75.2501 139.75 75.2501ZM138.639 108.969C136.848 111.334 133.479 111.8 131.114 109.973L108.037 92.3426C106.819 92.8442 105.493 93.1309 104.096 93.1309L95.2092 109.184C96.1767 110.797 96.75 112.66 96.75 114.667C96.75 120.615 91.9483 125.417 86 125.417C80.0517 125.417 75.25 120.615 75.25 114.667C75.25 114.559 75.2858 114.416 75.2858 114.308L62.35 106.21C60.845 106.998 59.1608 107.5 57.3333 107.5C56.3658 107.5 55.47 107.321 54.5742 107.106L37.84 123.84C36.8008 124.879 35.4033 125.417 34.0416 125.417C32.68 125.417 31.2825 124.879 30.2433 123.84C28.1292 121.762 28.1292 118.322 30.2433 116.243L46.9775 99.5092C46.7625 98.6134 46.5833 97.7176 46.5833 96.7501C46.5833 90.8017 51.385 86.0001 57.3333 86.0001C63.2817 86.0001 68.0833 90.8017 68.0833 96.7501C68.0833 96.8576 68.0475 97.0009 68.0475 97.1084L80.9833 105.207C82.4525 104.454 84.065 103.953 85.8208 103.953L94.7075 87.8992C93.74 86.2867 93.1667 84.4234 93.1667 82.4167C93.1667 76.4684 97.9683 71.6667 103.917 71.6667C109.865 71.6667 114.667 76.4684 114.667 82.4167C114.667 82.8826 114.595 83.3126 114.523 83.7784L137.636 101.444C140.001 103.236 140.431 106.604 138.639 108.969Z" fill="url(#paint0_linear_2501_8888)"/>
</mask>
<g mask="url(#mask0_2501_8888)">
<path d="M172 0H0V172H172V0Z" fill="url(#paint1_linear_2501_8888)"/>
<path d="M172 0H0V172H172V0Z" fill="url(#paint2_radial_2501_8888)" fill-opacity="0.25"/>
</g>
<defs>
<linearGradient id="paint0_linear_2501_8888" x1="1.08127e-06" y1="84.2083" x2="172" y2="84.2083" gradientUnits="userSpaceOnUse">
<stop stop-color="#8676FF"/>
<stop offset="0.333333" stop-color="#516DFF"/>
<stop offset="0.666666" stop-color="#32B5FF"/>
<stop offset="1" stop-color="#4ADEFF"/>
</linearGradient>
<linearGradient id="paint1_linear_2501_8888" x1="1.08127e-06" y1="85.9999" x2="172" y2="85.9999" gradientUnits="userSpaceOnUse">
<stop stop-color="#8676FF"/>
<stop offset="0.333333" stop-color="#516DFF"/>
<stop offset="0.666666" stop-color="#32B5FF"/>
<stop offset="1" stop-color="#4ADEFF"/>
</linearGradient>
<radialGradient id="paint2_radial_2501_8888" cx="0" cy="0" r="1" gradientUnits="userSpaceOnUse" gradientTransform="translate(91.0001 107) rotate(-72.7585) scale(45.5468 5990.87)">
<stop stop-color="#8676FF"/>
<stop offset="0.333333" stop-color="#516DFF"/>
<stop offset="0.666666" stop-color="#32B5FF"/>
<stop offset="1" stop-color="#4ADEFF"/>
</radialGradient>
</defs>
</svg>
