<svg width="85" height="82" viewBox="0 0 85 82" fill="none" xmlns="http://www.w3.org/2000/svg">
  <path d="M46.0001 0C46.0001 0 52.7001 13.7 51.5001 19.4C51.5001 19.4 69.1001 25.1 71.0001 34.5C71.0001 34.4 80.6001 21.8 46.0001 0V0ZM39.2001 20.5C40.9001 24.1 41.7001 28 42.7001 32L32.7001 28.2C33.6001 22.1 27.7001 12.9 27.7001 12.9L39.2001 20.5ZM21.4001 29.9C22.5001 32.8 23.8001 36.5 24.4001 39.7L15.4001 37.5C16.3001 31.4 10.6001 24.1 10.6001 24.1L21.4001 29.9V29.9Z" fill="#231F20"/>
  <path d="M41.1 15.3C41.1 15.3 81.4 43.6 84.1 54.6C86.1 62.9 80.3 70.5 80.3 70.5C80.3 70.5 77.2 48.9 0 81.7C7.8 73 12.1 61.8 10.9 49.8C10.4 44.9 9.2 40.2 7.1 36L25.2 45.5C25.2 45.8 25.2 46.1 25.3 46.4C26 53.7 25.5 60.9 23.8 67.5C27.5 59.7 29.3 50.8 28.4 41.6C27.9 36 26.5 30.7 24.3 25.9L43.6 38.8C43.7 39.4 43.7 40.1 43.8 40.7C44.6 48.8 43.8 56.7 41.7 63.9C46.2 55.5 48.5 45.7 47.5 35.6C46.8 28.2 44.6 21.4 41.1 15.3Z" fill="#231F20"/>
  </svg>
