<svg width="131" height="291" viewBox="0 0 131 291" fill="none" xmlns="http://www.w3.org/2000/svg">
  <path d="M128.119 115.65C112.809 48.11 80.8994 30.13 72.7594 17.42C69.4029 11.8209 66.4294 6.00095 63.8594 0C63.4294 6 62.6394 9.78 57.5394 14.33C47.2994 23.46 3.80943 58.9 0.149428 135.64C-3.26057 207.19 52.7494 251.31 60.1494 255.87C65.8394 258.67 72.7694 255.93 76.1494 253.36C103.149 234.83 140.039 185.43 128.149 115.65" fill="#10AA50"/>
  <path d="M66.1794 217.77C64.7694 235.48 63.7594 245.77 60.1794 255.89C60.1794 255.89 62.5294 272.75 64.1794 290.61H70.0194C71.4125 278.033 73.5394 265.549 76.3894 253.22C68.8294 249.5 66.4694 233.31 66.1794 217.77Z" fill="#B8C4C2"/>
  <path d="M76.3796 253.23C68.7396 249.7 66.5296 233.17 66.1896 217.77C68.079 192.367 68.6297 166.881 67.8396 141.42C67.4396 128.06 68.0296 17.68 64.5496 1.52002C66.9301 6.99325 69.6728 12.3017 72.7596 17.41C80.8996 30.13 112.82 48.11 128.12 115.65C140.04 185.31 103.35 234.58 76.3796 253.23Z" fill="#12924F"/>
</svg>
