<svg width="175" height="199" viewBox="0 0 175 199" fill="none" xmlns="http://www.w3.org/2000/svg">
  <path d="M1.4 148.725C2.3 150.325 3.6 151.525 5.2 152.425L82.2 196.825C85.4 198.725 89.3 198.725 92.4 196.825L169.4 152.425C172.6 150.625 174.5 147.225 174.5 143.525V54.725C174.5 51.025 172.6 47.625 169.4 45.825L92.4 1.425C89.2 -0.475 85.3 -0.475 82.2 1.425L5.2 45.825C1.9 47.625 0 51.025 0 54.725V143.625C0 145.425 0.4 147.125 1.4 148.725Z" fill="#009639"/>
  <path d="M62.6 133.025C62.6 138.525 58.2001 142.925 52.7001 142.925C47.2001 142.925 42.8 138.525 42.8 133.025V65.125C42.8 59.825 47.5 55.525 54 55.525C58.7 55.525 64.2 57.425 67.5 61.525L70.5 65.125L111.9 114.625V65.3251C111.9 59.8251 116.3 55.425 121.8 55.425C127.3 55.425 131.7 59.8251 131.7 65.3251V133.225C131.7 138.525 127 142.825 120.5 142.825C115.8 142.825 110.3 140.925 107 136.825L62.6 83.8251V133.025Z" fill="white"/>
  </svg>
