<svg width="82" height="93" viewBox="0 0 82 93" fill="none" xmlns="http://www.w3.org/2000/svg">
  <path
    d="M41.0501 0.110962C39.8061 0.110962 38.5961 0.367961 37.5251 0.973961L3.63708 20.544C1.44408 21.808 0.111084 24.194 0.111084 26.733V65.802C0.111084 68.339 1.44408 70.722 3.63708 71.989L12.4871 77.098C16.7871 79.217 18.3721 79.184 20.3291 79.184C26.6951 79.184 30.3301 75.321 30.3301 68.608V30.042C30.3301 29.497 29.8581 29.107 29.3231 29.107H25.0781C24.5341 29.107 24.0711 29.497 24.0711 30.042V68.608C24.0711 71.583 20.9711 74.576 15.9411 72.061L6.73108 66.665C6.40508 66.488 6.15509 66.175 6.15509 65.802V26.732C6.15509 26.362 6.40208 25.985 6.73108 25.797L40.5471 6.29996C40.6999 6.21069 40.8736 6.16364 41.0506 6.16364C41.2275 6.16364 41.4013 6.21069 41.5541 6.29996L75.3711 25.798C75.6931 25.992 75.9471 26.351 75.9471 26.734V65.803C75.9471 66.176 75.7591 66.558 75.4431 66.738L41.5541 86.236C41.2641 86.409 40.8641 86.409 40.5471 86.236L31.8411 81.056C31.7086 80.9841 31.5603 80.9465 31.4096 80.9465C31.2589 80.9465 31.1106 80.9841 30.9781 81.056C28.5751 82.418 28.1231 82.576 25.8691 83.358C25.3141 83.552 24.4711 83.853 26.1571 84.798L37.5251 91.488C38.5969 92.1064 39.8137 92.4293 41.0511 92.424C42.2884 92.4317 43.5053 92.1089 44.5761 91.489L78.4651 71.99C80.6581 70.715 81.9901 68.34 81.9901 65.803V26.733C81.9901 24.195 80.6581 21.813 78.4651 20.546L44.5761 0.975964C43.5141 0.368964 42.2961 0.111961 41.0511 0.111961L41.0501 0.110962Z"
    fill="#83CD29"
  />
  <path
    d="M50.1161 28.028C40.4661 28.028 34.7191 32.135 34.7191 38.965C34.7191 46.373 40.4231 48.409 49.6851 49.325C60.7651 50.41 61.6281 52.037 61.6281 54.218C61.6281 58.001 58.6121 59.614 51.4841 59.614C42.5271 59.614 40.5591 57.378 39.9001 52.923C39.8221 52.445 39.4531 52.059 38.9641 52.059H34.5751C34.0351 52.059 33.5681 52.525 33.5681 53.067C33.5681 58.77 36.6701 65.514 51.4841 65.514C62.2071 65.514 68.3921 61.305 68.3921 53.93C68.3921 46.62 63.3961 44.657 52.9941 43.282C42.4841 41.891 41.4821 41.21 41.4821 38.749C41.4821 36.717 42.3321 33.999 50.1161 33.999C57.0701 33.999 59.6401 35.499 60.6931 40.188C60.7851 40.628 61.1731 40.979 61.6281 40.979H66.0181C66.2881 40.979 66.5501 40.813 66.7371 40.619C66.9211 40.412 67.0511 40.179 67.0251 39.9C66.3451 31.826 60.9611 28.028 50.1161 28.028V28.028Z"
    fill="#83CD29"
  />
</svg>
