<svg width="197" height="146" viewBox="0 0 197 146" fill="none" xmlns="http://www.w3.org/2000/svg">
  <path fill-rule="evenodd" clip-rule="evenodd" d="M81.3651 145.813C58.3511 145.805 35.3361 145.911 12.3231 145.76C0.653067 145.684 -1.46893 142.93 1.15807 131.516C10.0641 92.806 19.2571 54.161 27.9651 15.407C30.3001 5.01296 35.3371 0.418956 46.4731 0.521956C92.4971 0.948956 138.529 0.658956 184.556 0.705956C196.099 0.716956 198.037 3.18596 195.446 14.893C187.033 52.9 178.567 90.896 169.952 128.858C166.728 143.065 163.014 145.776 148.067 145.809C125.833 145.856 103.598 145.821 81.3651 145.813Z" fill="#2671BE"/>
  <path fill-rule="evenodd" clip-rule="evenodd" d="M100.948 69.9509C99.405 68.1409 97.711 66.0569 95.917 64.0649C85.744 52.7649 75.661 41.3809 65.307 30.2499C60.569 25.1559 59.059 20.2089 64.749 15.1809C70.372 10.2109 75.897 10.6509 81.055 16.3689C95.42 32.2879 109.768 48.2249 124.371 63.9249C129.823 69.7889 128.553 73.7759 122.548 78.1209C99.499 94.8039 76.58 111.668 53.686 128.564C48.54 132.363 43.634 133.314 39.477 127.703C34.891 121.514 39.134 117.832 43.891 114.368C60.904 101.976 77.884 89.5379 94.791 77.0019C97.146 75.2559 100.527 74.2379 100.948 69.9509Z" fill="#FDFDFE"/>
  <path fill-rule="evenodd" clip-rule="evenodd" d="M108.235 129.819C102.039 129.819 95.8341 130.032 89.6521 129.751C84.7201 129.528 81.7521 126.772 81.8141 121.577C81.8741 116.665 84.3501 112.972 89.2771 112.839C102.819 112.476 116.381 112.554 129.928 112.819C134.233 112.903 137.411 115.708 137.385 120.194C137.354 125.34 134.646 129.327 129.135 129.659C122.191 130.079 115.204 129.763 108.236 129.763C108.235 129.78 108.235 129.8 108.235 129.819Z" fill="#FCFDFD"/>
  </svg>
