<?xml version="1.0" standalone="no"?>
<!DOCTYPE svg PUBLIC "-//W3C//DTD SVG 20010904//EN"
 "http://www.w3.org/TR/2001/REC-SVG-20010904/DTD/svg10.dtd">
<svg version="1.0" xmlns="http://www.w3.org/2000/svg"
 width="199.000000pt" height="200.000000pt" viewBox="0 0 199.000000 200.000000"
 preserveAspectRatio="xMidYMid meet">

<g transform="translate(0.000000,200.000000) scale(0.100000,-0.100000)"
fill="#000000" stroke="none">
<path d="M263 1990 c-96 -19 -178 -85 -222 -179 l-26 -56 0 -755 c0 -750 0
-755 21 -801 30 -64 88 -125 148 -157 l51 -27 760 0 760 0 43 23 c66 35 115
85 148 149 l29 58 0 755 0 755 -27 56 c-49 98 -121 156 -226 178 -63 13 -1392
14 -1459 1z m1195 -37 c54 -13 10 -21 -155 -28 -185 -8 -780 -1 -791 9 -15 15
21 21 156 27 160 7 753 1 790 -8z m-803 -450 c-204 -268 -202 -741 5 -1011
l41 -54 -32 19 c-50 28 -150 133 -188 196 -143 242 -123 549 50 766 41 51 149
145 157 136 2 -2 -13 -25 -33 -52z m807 -63 c76 -86 135 -214 155 -337 15 -96
15 -110 0 -205 -24 -144 -82 -262 -175 -355 -37 -37 -83 -76 -101 -87 l-34
-19 42 53 c54 68 104 174 133 280 33 122 33 338 0 459 -28 105 -77 211 -125
274 -21 26 -37 50 -37 53 0 13 97 -66 142 -116z m-1388 -425 c0 -236 -3 -448
-8 -470 -7 -36 -9 -38 -19 -20 -14 24 -17 892 -3 940 l8 30 11 -25 c6 -16 10
-180 11 -455z m1881 5 c0 -239 -4 -453 -8 -475 -8 -36 -10 -38 -20 -20 -14 24
-17 891 -4 940 8 28 9 29 20 10 8 -14 12 -146 12 -455z m-1209 248 c-50 -92
-66 -157 -66 -269 0 -106 20 -190 65 -268 14 -24 24 -46 22 -48 -11 -10 -94
90 -121 147 -29 60 -31 73 -31 170 0 97 2 110 32 172 18 39 51 87 78 113 26
25 49 45 51 45 2 0 -12 -28 -30 -62z m579 -28 c59 -80 78 -148 73 -260 -3 -80
-9 -104 -33 -154 -27 -54 -111 -154 -120 -144 -3 2 10 33 29 69 90 172 81 374
-25 546 l-23 38 31 -23 c17 -12 48 -45 68 -72z m-227 -61 c104 -51 138 -194
69 -297 -28 -41 -108 -82 -161 -82 -88 1 -170 64 -191 148 -25 95 14 184 99
227 62 31 124 32 184 4z m311 -1105 c63 -5 80 -9 72 -17 -18 -18 -955 -17
-973 0 -14 15 -34 13 217 23 193 7 532 4 684 -6z"/>
</g>
</svg>
