<?xml version="1.0" encoding="UTF-8"?>
<!-- Generator: Adobe Illustrator 16.0.0, SVG Export Plug-In . SVG Version: 6.00 Build 0)  -->
<!DOCTYPE svg PUBLIC "-//W3C//DTD SVG 1.1//EN" "http://www.w3.org/Graphics/SVG/1.1/DTD/svg11.dtd">
<svg
  version="1.1"
  id="svg2"
  xmlns:dc="http://purl.org/dc/elements/1.1/"
  xmlns:cc="http://creativecommons.org/ns#"
  xmlns:rdf="http://www.w3.org/1999/02/22-rdf-syntax-ns#"
  xmlns:svg="http://www.w3.org/2000/svg"
  xmlns="http://www.w3.org/2000/svg"
  xmlns:xlink="http://www.w3.org/1999/xlink"
  x="0px"
  y="0px"
  width="250px"
  height="233.092px"
  viewBox="-88.527 -82.539 250 233.092"
  enable-background="new -88.527 -82.539 250 233.092"
  xml:space="preserve"
>
  <g id="g10" transform="matrix(1.3333333,0,0,-1.3333333,0,68.013333)">
    <g id="g12" transform="scale(0.1)">
      <path id="path14" fill="#FFFFFF" d="M-663.95-289.498h1874.934v97.141H-663.95V-289.498z" />
      <path id="path16" fill="#0A0A0D" d="M-663.95-619.022h1875.008v362.183H-663.95V-619.022z" />
      <path
        id="path18"
        fill="#FFFFFF"
        d="M-294.992-457.567h36.021v-34.519c-4.896-3.889-10.796-6.929-17.622-9.133    c-6.852-2.183-15.187-3.289-24.976-3.289c-8.987,0-17.168,1.655-24.598,4.944c-7.482,3.289-13.931,7.881-19.453,13.704    c-5.471,5.823-9.716,12.825-12.777,20.911c-3.062,8.108-4.592,17.095-4.592,26.909c0,9.111,1.406,17.769,4.219,26.001    c2.783,8.189,6.749,15.315,11.895,21.416c5.171,6.123,11.473,10.891,18.904,14.458c7.452,3.538,15.813,5.317,25.126,5.317    c6.423,0,12.147-0.85,17.091-2.534c5.021-1.685,9.441-3.816,13.356-6.35c3.864-2.512,7.255-5.369,10.14-8.481    s5.321-6.13,7.328-9.016l17.271,14.736c-2.534,3.516-5.673,7.251-9.386,11.147c-3.717,3.889-8.262,7.478-13.557,10.789    c-5.347,3.289-11.572,5.999-18.647,8.108c-7.104,2.109-15.161,3.164-24.097,3.164c-12.678,0-24.225-2.336-34.666-6.951    c-10.367-4.673-19.277-10.994-26.708-19.028c-7.482-8.057-13.253-17.468-17.369-28.315c-4.167-10.789-6.251-22.361-6.251-34.739    c0-12.7,1.985-24.375,5.951-35.142c3.992-10.715,9.738-20.002,17.271-27.883c7.529-7.859,16.564-14.033,27.107-18.501    c10.591-4.49,22.463-6.731,35.669-6.731c8.459,0,16.062,0.608,22.815,1.89c6.779,1.274,12.927,2.981,18.398,5.068    c5.471,2.131,10.32,4.519,14.458,7.229c4.167,2.71,7.808,5.522,11.045,8.408v67.419h-59.363V-457.567z M-178.347-522.533h23.617    v69.258h34.014l36.244-69.258h27.385l-39.558,72.319c10.668,4.043,18.523,10.217,23.595,18.501    c5.072,8.306,7.606,17.82,7.606,28.66c0,6.101-1.055,12.078-3.19,18.025c-2.084,5.874-5.497,11.191-10.14,15.835    c-4.618,4.644-10.693,8.459-18.12,11.396c-7.456,2.988-16.567,4.468-27.385,4.468h-54.067V-522.533z M-154.73-432.745v58.359    h31.956c10.14,0,18.094-2.585,23.844-7.734c5.75-5.164,8.635-12.4,8.635-21.709c0-8.782-2.684-15.791-7.983-21.035    c-5.347-5.222-13.326-7.881-23.969-7.881H-154.73z M-23.828-522.533H1.749l17.52,47.19h69.507l17.52-47.19h27.136L67.212-353.328    H42.339L-23.828-522.533z M26.373-454.806l27.638,74.348l27.411-74.348H26.373z M180.818-522.533h24.122v66.445h30.699    c8.284,0,15.916,1.106,22.939,3.34c7.031,2.183,13.055,5.442,18.149,9.763c5.068,4.292,9.038,9.661,11.924,16.113    c2.864,6.401,4.314,13.857,4.314,22.317c0,5.742-0.901,11.646-2.681,17.747c-1.787,6.094-4.9,11.565-9.39,16.465    c-4.493,4.915-10.492,8.958-17.996,12.173c-7.533,3.237-17.021,4.841-28.542,4.841h-53.54V-522.533z M204.941-435.279v61.143    h30.447c10.14,0,18.124-2.732,23.947-8.254c5.823-5.471,8.738-13.052,8.738-22.69c0-9.463-2.813-16.868-8.459-22.193    c-5.676-5.317-13.733-8.005-24.225-8.005H204.941z M349.773-522.533h24.346v76.611h92.6v-76.611h24.324v169.204h-24.324v-70.781    h-92.6v70.781h-24.346V-522.533z M547.344-522.533h24.397v169.204h-24.397V-522.533z M754.598-478.631    c-1.707-1.882-3.787-4.189-6.248-6.973c-2.432-2.791-5.552-5.574-9.36-8.24c-3.794-2.71-8.459-5.039-13.931-7.002    c-5.522-1.934-12.078-2.908-19.68-2.908c-8.965,0-17.073,1.677-24.375,5.068c-7.258,3.413-13.425,8.035-18.501,13.96    c-5.068,5.918-9.009,12.898-11.799,20.933c-2.754,8.027-4.16,16.589-4.16,25.752c0,9.111,1.326,17.747,4.036,25.876    c2.717,8.108,6.658,15.213,11.799,21.314c5.171,6.05,11.396,10.891,18.779,14.429c7.354,3.567,15.688,5.325,24.976,5.325    c6.621,0,12.444-0.857,17.52-2.512c5.068-1.729,9.558-3.816,13.425-6.35c3.889-2.534,7.229-5.398,10.012-8.511    c2.813-3.135,5.2-6.123,7.236-9.009l17.263,14.707c-2.358,3.567-5.442,7.258-9.258,11.169c-3.816,3.867-8.386,7.485-13.704,10.796    c-5.347,3.289-11.55,6.05-18.625,8.232c-7.104,2.183-15.161,3.289-24.097,3.289c-12.678,0-24.25-2.336-34.666-6.951    c-10.393-4.673-19.277-11.045-26.733-19.153c-7.456-8.13-13.228-17.593-17.373-28.44c-4.138-10.818-6.248-22.39-6.248-34.739    c0-12.678,2.109-24.397,6.248-35.142c4.146-10.715,9.917-20.032,17.373-27.861c7.456-7.91,16.318-14.004,26.631-18.428    c10.32-4.387,21.738-6.577,34.241-6.577c8.782,0,16.838,1.157,24.097,3.545c7.251,2.38,13.704,5.295,19.299,8.76    c5.552,3.464,10.269,7.126,14.18,11.045c3.867,3.867,6.753,7.324,8.635,10.364L754.598-478.631z M812.686-497.154    c2.534-3.362,5.793-6.804,9.763-10.269c3.94-3.486,8.606-6.65,13.931-9.514c5.317-2.886,11.243-5.244,17.769-7.097    c6.504-1.838,13.733-2.813,21.665-2.813c8.459,0,16.34,1.23,23.591,3.691c7.28,2.432,13.579,5.918,18.904,10.386    c5.347,4.497,9.536,9.792,12.576,15.864c3.01,6.079,4.57,12.751,4.57,20.061c0,8.606-1.406,15.938-4.197,21.936    c-2.813,5.999-6.577,11.067-11.294,15.212c-4.746,4.138-10.115,7.427-16.113,9.866c-5.999,2.483-12.151,4.468-18.376,5.969    c-6.453,1.531-12.151,3.091-17.146,4.695c-4.966,1.604-9.185,3.567-12.546,5.852c-3.391,2.256-5.947,4.915-7.734,7.852    c-1.78,2.966-2.681,6.555-2.681,10.767c0,2.864,0.623,5.75,1.78,8.635c1.208,2.864,3.062,5.449,5.596,7.734    s5.771,4.167,9.639,5.596c3.889,1.436,8.511,2.161,13.96,2.161c5.398,0,10.166-0.652,14.304-1.934    c4.146-1.252,7.778-2.834,10.942-4.695c3.113-1.831,5.698-3.765,7.705-5.669c2.065-1.963,3.567-3.545,4.6-4.695l16.216,14.934    c-1.362,1.707-3.296,3.918-5.852,6.628c-2.512,2.681-5.925,5.295-10.115,7.83c-4.219,2.534-9.36,4.695-15.366,6.475    c-5.999,1.78-13.125,2.688-21.431,2.688c-9.316,0-17.498-1.282-24.602-3.816c-7.075-2.534-13.03-5.925-17.747-10.144    c-4.746-4.241-8.306-9.163-10.664-14.729c-2.358-5.552-3.567-11.499-3.567-17.747c0-6.753,1.208-12.803,3.567-18.128    c2.358-5.317,5.72-10.012,10.012-14.077c4.321-4.065,9.412-7.456,15.359-10.166c5.925-2.688,12.502-4.797,19.761-6.328    c13.374-2.886,23.613-6.628,30.718-11.294c7.104-4.644,10.649-11.594,10.649-20.933c0-8.613-3.142-15.461-9.39-20.537    c-6.277-5.068-14.963-7.603-26.104-7.603c-5.427,0-10.444,0.652-14.985,2.029c-4.57,1.333-8.716,3.12-12.429,5.325    c-3.713,2.183-7.075,4.695-10.012,7.478c-2.966,2.791-5.625,5.522-7.983,8.232L812.686-497.154"
      />
      <path id="path20" fill="#E3163D" d="M-663.95-212.484h1874.905v1341.588H-663.95V-212.484z" />
      <path
        id="path22"
        fill="#FFFFFF"
        d="M1062.837,542.621l0.029-115.587L962.613,542.621h-35.142l0.022-168.6h36.475l-0.029,115.613    l100.254-115.613h35.142l-0.022,168.6H1062.837"
      />
      <path
        id="path24"
        fill="#FFFFFF"
        d="M-181.335,542.621l-80.676-168.574h40.437l63.582,134.74v-0.026l0.103,0.176l28.616-61.421    h-31.853l-0.681-0.652l0.681,0.652l-31.227-28.89h77.41l20.834-44.579h40.338l-80.724,168.574H-181.335"
      />
      <path
        id="path26"
        fill="#FFFFFF"
        d="M364.759,542.621l0.022-168.574h135.344l-0.051,28.865h-99.097v40.84H487l-0.051,29.418    h-86.023v40.562h82.361l31.223,28.89H364.759"
      />
      <path
        id="path28"
        fill="#FFFFFF"
        d="M659.493,542.621h-0.051l-30.82-28.586V402.663l30.872-28.59H767.4l30.901,28.59    l-0.051,111.372l-30.872,28.586H659.493z M661.324,416.615v83.489l16.97,15.762h70.254l17.043-15.762v-83.489l-17.043-15.762    h-70.203L661.324,416.615"
      />
      <path
        id="path30"
        fill="#FFFFFF"
        d="M-552.3,542.621l0.022-168.6h36.449v55.397h55.95l42.971-55.397h42.949l-44.279,56.602v0.026    l27.861,25.778v58.008l-30.421,28.14l-0.026,0.048H-552.3z M-515.829,513.731h78.014l14.381-13.253v-28.964l-14.333-13.206    h-78.062V513.731"
      />
      <path
        id="path32"
        fill="#FFFFFF"
        d="M63.851,542.621l0.051-168.574h135.293l36.497,33.761l-0.051,101.18l-36.423,33.633H63.851z     M100.27,513.731h82.031l16.915-15.663V418.6l-16.89-15.663h-82.006L100.27,513.731"
      />
    </g>
  </g>
</svg>
