<svg width="461" height="355" viewBox="0 0 461 355" fill="none" xmlns="http://www.w3.org/2000/svg">
  <path d="M15.8 1.32651C10.8 3.52651 4.3 10.0265 2.1 14.9265C0.2 19.0265 0 21.5265 0 41.4265C0 66.1265 0.7 69.0265 7.5 75.8265C14.8 83.1265 13.6 83.0265 69 82.9265H118.5L127.4 101.127C135.4 117.727 153 153.727 227.2 304.627L251.9 354.927H304C360.4 354.927 365 354.627 380.9 349.427C399.1 343.427 412.6 334.927 427.4 320.027C439 308.427 445.4 299.127 451.5 284.927C461.7 261.227 463.7 232.527 456.8 207.927C453.7 196.927 443.9 177.327 437.1 168.627L431.8 161.827L437.6 150.127C452.5 119.927 452.8 87.9265 438.4 58.4265C424.4 29.5265 397.2 8.32651 366 1.82651C357.3 0.0265084 349.6 -0.0734916 187.9 0.0265084C47.1 0.0265084 18.4 0.226508 15.8 1.32651ZM354.6 86.0265C362.2 89.9265 366.6 99.7265 364.4 108.027C362.8 114.027 360.1 117.427 354.6 120.627C350 123.327 349.6 123.427 328.9 123.927C309.6 124.427 307.6 124.627 304.4 126.627C299.4 129.727 295.8 133.727 293.5 138.927C291.6 143.027 291.4 145.427 291.4 165.427C291.4 185.427 291.6 187.827 293.5 191.927C296 197.527 299.7 201.427 304.9 204.227C308.5 206.227 311 206.427 330.4 207.027C355.2 207.727 358.5 208.527 366.3 215.527C380.4 228.127 380.6 249.027 366.9 262.327C358.9 270.127 355.3 270.927 327.6 270.927L303.9 270.827L258.1 177.627C233 126.327 212.4 84.0265 212.4 83.6265C212.4 83.1265 243.6 83.1265 281.7 83.5265C346.3 84.1265 351.1 84.3265 354.6 86.0265Z" fill="url(#paint0_linear)"/>
  <path d="M113.9 177.026C111.7 177.526 107.8 179.626 105.2 181.726C102.6 183.726 83.6999 204.126 63.2999 226.926C42.8999 249.726 23.9999 270.626 21.4999 273.426C11.0999 284.526 3.0999 294.326 1.7999 297.526C0.999902 299.326 0.399902 303.826 0.399902 307.426C0.399902 317.826 2.6999 321.226 20.1999 336.826C28.4999 344.226 36.9999 351.226 39.0999 352.326C44.7999 355.326 54.3999 355.126 60.8999 351.926C65.7999 349.426 68.1999 346.926 118.6 290.926C157.2 247.926 157.5 247.626 159.5 237.926C161.3 229.526 159.5 223.226 149.8 203.626C145.1 194.126 140.4 185.426 139.3 184.326C133.7 178.326 122.2 175.026 113.9 177.026Z" fill="black"/>
  <path d="M113.9 177.026C111.7 177.526 107.8 179.626 105.2 181.726C102.6 183.726 83.6999 204.126 63.2999 226.926C42.8999 249.726 23.9999 270.626 21.4999 273.426C11.0999 284.526 3.0999 294.326 1.7999 297.526C0.999902 299.326 0.399902 303.826 0.399902 307.426C0.399902 317.826 2.6999 321.226 20.1999 336.826C28.4999 344.226 36.9999 351.226 39.0999 352.326C44.7999 355.326 54.3999 355.126 60.8999 351.926C65.7999 349.426 68.1999 346.926 118.6 290.926C157.2 247.926 157.5 247.626 159.5 237.926C161.3 229.526 159.5 223.226 149.8 203.626C145.1 194.126 140.4 185.426 139.3 184.326C133.7 178.326 122.2 175.026 113.9 177.026Z" fill="url(#paint1_linear)"/>
  <defs>
  <linearGradient id="paint0_linear" x1="405" y1="341" x2="44.4999" y2="2.45646e-05" gradientUnits="userSpaceOnUse">
  <stop offset="0.0697928" stop-color="#3D3FD1"/>
  <stop offset="0.545085" stop-color="#2B77DD"/>
  <stop offset="1" stop-color="#01D8DA"/>
  </linearGradient>
  <linearGradient id="paint1_linear" x1="140.762" y1="347.472" x2="-25.105" y2="239.058" gradientUnits="userSpaceOnUse">
  <stop offset="0.0697928" stop-color="#3D3FD1"/>
  <stop offset="0.545085" stop-color="#2B77DD"/>
  <stop offset="1" stop-color="#01D8DA"/>
  </linearGradient>
  </defs>
  </svg>
  