<svg width="308" height="243" viewBox="0 0 308 243" fill="none" xmlns="http://www.w3.org/2000/svg">
  <path d="M3.4 0.799996C0.1 3 0 5.2 0 108.3C0 207.7 0.1 210.8 1.9 213.1L3.8 215.5H67.4H131V220.7V226H108.2C87.3 226 85.2 226.2 83.7 227.8C81.5 230.2 81.5 237.8 83.6 240.8L85.1 243H155.5H225.9L227.4 240.8C228.3 239.5 229 236.5 229 233.9C229 226 228.8 226 202.7 226H180V220.7V215.5H242C300.1 215.5 304 215.4 305.7 213.7C307.4 212 307.5 206.3 307.8 108.6L308 5.3L305.9 2.7L303.9 -3.62098e-06H154.2C71.9 -3.62098e-06 4 0.399996 3.4 0.799996ZM288.2 16.7C289.9 18.2 290 22.4 290 107.2C290 194.7 290 196 288 198C286 200 284.7 200 153.6 200H21.3L18.6 197.9L16 195.9V107.3C16 26.2 16.1 18.5 17.7 16.8C19.2 15.1 24.7 15 152.8 15C275.7 15 286.5 15.1 288.2 16.7Z" fill="#0B71B9"/>
  <path d="M113.8 33.3C105.1 37.8 98 41.8 98 42.2C98 42.6 100.4 49 103.3 56.3L108.6 69.7L106.3 72.6C105.1 74.2 102.8 78.1 101.3 81.3C98.2 87.7 99 87.3 85 89C79.8 89.6 74 90.4 72.1 90.7L68.7 91.3L69.3 108.7C69.6 118.3 70 126.4 70.2 126.6C70.5 126.8 75.6 127.5 81.6 128C99.3 129.7 98.7 129.6 101.1 134.3C102.3 136.6 104.5 140.4 106.1 142.6L108.9 146.8L103.5 159.1C100.5 165.8 98 171.9 98 172.5C98 173.1 100.4 174.9 103.3 176.6C106.1 178.3 113 182.2 118.4 185.4C127.9 190.9 128.5 191.1 129.8 189.3C130.5 188.3 134.5 183 138.5 177.5L145.8 167.5H154.4L163 167.6L170.7 179C174.9 185.3 178.5 190.7 178.6 190.8C178.7 191 186 187.4 194.8 182.8L210.8 174.5L205.4 160.7L200 146.8L202.5 143.8C204 142.1 206.4 138.1 208 134.9C209.6 131.7 211.8 128.9 212.7 128.6C213.7 128.4 219 127.6 224.5 127C240.9 125.2 239 127.8 239 107.1V89.3L233.8 88.7C230.9 88.4 224.5 87.8 219.7 87.4L210.9 86.7L208.3 81.6C206.9 78.8 204.7 75 203.3 73.3L200.9 70L206 58.3C208.8 51.8 211.4 45.8 211.7 44.9C212 43.6 208.5 41.2 197.1 34.6C188.8 29.9 181.7 26 181.3 26.1C180.8 26.1 176.9 31.1 172.5 37.2L164.5 48.3L155 48.4L145.5 48.5L138.1 37.5C134.1 31.4 130.5 26.2 130.1 25.8C129.8 25.4 122.4 28.8 113.8 33.3ZM167.3 80.9C173.5 83.9 178.8 89.4 181.8 95.9C191.9 117.9 171.4 142.6 148.1 136.6C138.4 134.1 132.4 129.3 127.4 120C124.6 114.7 124.8 100.9 127.7 95.4C132.2 87 139.4 80.9 147.3 78.9C152.5 77.6 162.5 78.6 167.3 80.9Z" fill="#0B71B9"/>
  </svg>
   