<svg width="87" height="87" viewBox="0 0 87 87" fill="none" xmlns="http://www.w3.org/2000/svg">
  <path
    d="M38.7297 85.9103C32.1017 85.2753 25.3917 82.8953 19.6277 79.1343C14.7977 75.9843 13.7077 74.6873 13.7077 72.1023C13.7077 66.9093 19.4177 57.8123 29.1877 47.4443C34.7347 41.5543 42.4627 34.6543 43.2977 34.8403C44.9237 35.2033 57.9137 47.8743 62.7777 53.8403C70.4677 63.2703 74.0017 70.9943 72.2057 74.4373C70.8407 77.0543 62.3687 82.1703 56.1457 84.1353C51.0157 85.7553 44.2787 86.4413 38.7297 85.9103V85.9103ZM7.18369 66.7033C3.16969 60.5453 1.14169 54.4833 0.163692 45.7153C-0.160308 42.8203 -0.0463083 41.1653 0.896692 35.2213C2.06969 27.8213 6.28669 19.2513 11.3567 13.9813C13.5147 11.7413 13.7067 11.6813 16.3387 12.5713C19.5287 13.6513 22.9387 16.0073 28.2287 20.7913L31.3187 23.5853L29.6287 25.6553C21.8007 35.2653 13.5387 48.8953 10.4287 57.3253C8.73869 61.9053 8.05869 66.5053 8.78869 68.4203C9.27869 69.7143 8.82869 69.2323 7.17869 66.7063L7.18369 66.7033ZM77.6367 67.7503C78.0337 65.8143 77.5317 62.2603 76.3567 58.6743C73.8117 50.9093 65.3027 36.4643 57.4897 26.6423L55.0297 23.5503L57.6917 21.1073C61.1657 17.9173 63.5777 16.0073 66.1817 14.3843C68.2347 13.1043 71.1697 11.9713 72.4317 11.9713C73.2087 11.9713 75.9477 14.8213 78.1577 17.9213C81.5817 22.7213 84.0997 28.5513 85.3757 34.6113C86.2007 38.5313 86.2697 46.9113 85.5087 50.8213C84.8787 54.0293 83.5587 58.1873 82.2787 61.0083C81.3087 63.1213 78.9187 67.2263 77.8687 68.5623C77.3287 69.2493 77.3287 69.2483 77.6287 67.7663L77.6367 67.7503ZM39.4397 10.5053C35.8337 8.6753 30.2717 6.7103 27.1997 6.1803C26.1237 5.9953 24.2867 5.8903 23.1197 5.9503C20.5837 6.0783 20.6967 5.9463 24.7627 4.0253C28.1427 2.4283 30.9627 1.4893 34.7927 0.685303C39.0977 -0.219697 47.1927 -0.229697 51.4297 0.663303C56.0047 1.6283 61.3937 3.6333 64.4297 5.5033L65.3337 6.0573L63.2637 5.9533C59.1477 5.7453 53.1497 7.4083 46.7097 10.5403C44.7677 11.4863 43.0797 12.2403 42.9557 12.2203C42.8327 12.1963 41.2497 11.4253 39.4357 10.5053H39.4397Z"
    fill="#107C10"
  />
</svg>
