<svg width="257" height="256" viewBox="0 0 257 256" fill="none" xmlns="http://www.w3.org/2000/svg">
<path d="M50.0221 229.056C71.7232 245.855 98.9616 255.948 128.513 255.948C160.854 255.948 190.335 243.941 212.837 224.232C213.11 223.991 212.975 223.832 212.706 223.991C202.609 230.734 173.832 245.454 128.515 245.454C89.1324 245.454 64.244 236.666 50.1887 228.822C49.9197 228.689 49.8202 228.891 50.0221 229.056ZM137.202 235.596C168.701 235.596 203.314 227.01 224.016 210.013C229.681 205.381 235.076 199.218 239.91 190.935C242.692 186.168 245.413 180.506 247.629 174.94C247.728 174.668 247.56 174.536 247.356 174.841C228.105 203.171 172.358 220.842 114.796 220.842C74.1087 220.842 30.3312 207.831 13.1914 182.988C13.0225 182.758 12.8539 182.856 12.9569 183.12C28.9236 217.058 77.3626 235.596 137.202 235.596ZM102.786 179.297C37.2746 179.297 6.38435 148.786 0.781436 127.964C0.712016 127.662 0.513672 127.729 0.513672 127.999C0.513672 135.008 1.21491 144.055 2.4229 150.059C2.99841 152.982 5.37695 157.568 8.86429 161.224C24.728 177.759 64.2769 200.929 132.771 200.929C226.09 200.929 247.427 169.843 251.784 159.62C254.9 152.309 256.514 139.098 256.514 127.999C256.514 125.313 256.446 123.168 256.345 121.062C256.345 120.721 256.147 120.692 256.079 121.025C251.416 146.041 171.686 179.297 102.786 179.297ZM12.8536 73.1096C9.10039 80.5594 4.93899 93.1277 3.7019 99.6328C3.15965 102.42 3.39063 103.758 4.36795 105.838C12.2202 122.497 51.937 149.153 144.581 149.153C201.101 149.153 245.007 135.268 252.12 109.929C253.43 105.264 253.499 100.339 251.817 93.7029C249.937 86.2867 246.416 77.6399 243.436 71.5677C243.338 71.3693 243.164 71.3994 243.2 71.6332C244.307 104.868 151.626 126.287 104.863 126.287C54.211 126.287 11.9527 106.106 11.9527 80.6237C11.9527 78.1757 12.4598 75.7262 13.0922 73.1778C13.1556 72.9439 12.9559 72.9052 12.8536 73.1096ZM213.044 32.3047C213.582 33.1471 213.85 34.0466 213.85 35.2578C213.85 49.474 170.341 74.6234 101.079 74.6234C50.1884 74.6234 40.6608 55.7443 40.6608 43.738C40.6608 39.4464 42.3068 35.0547 45.932 30.5951C46.13 30.3299 45.9617 30.2279 45.733 30.4246C39.1217 36.0275 33.0473 42.332 27.7182 49.1371C25.1724 52.3558 23.592 55.2071 23.592 56.9151C23.592 81.7955 85.9797 99.8356 144.314 99.8356C206.469 99.8356 234.21 79.5449 234.21 61.7128C234.21 55.3399 231.729 51.6197 225.383 44.4073C221.264 39.7148 217.368 35.8948 213.243 32.1339C213.044 31.9701 212.905 32.1042 213.044 32.3047ZM193.988 18.0914C174.805 6.59353 152.53 0.052002 128.514 0.052002C104.332 0.052002 81.3845 6.82227 62.1329 18.6247C56.3576 22.1786 53.1079 25.0261 53.1079 28.6878C53.1079 39.48 78.3296 51.0838 123.076 51.0838C167.359 51.0838 201.705 38.3738 201.705 26.1388C201.706 23.219 199.153 21.1757 193.988 18.0914Z" fill="url(#paint0_radial_53_655)"/>
<defs>
<radialGradient id="paint0_radial_53_655" cx="0" cy="0" r="1" gradientUnits="userSpaceOnUse" gradientTransform="translate(83.805 129.761) rotate(89.9998) scale(153.933 185.33)">
<stop stop-color="#00A8E0"/>
<stop offset="1" stop-color="#1696D4"/>
</radialGradient>
</defs>
</svg>
