<svg width="254" height="150" viewBox="0 0 254 150" fill="none" xmlns="http://www.w3.org/2000/svg">
<path d="M181.166 16.7038C185.303 25.0508 182.873 35.9878 178.555 43.4818L145.147 118.645L144.858 118.997L132.782 42.7468C131.813 35.4248 139.636 32.3008 144.241 28.7828C144.007 27.7068 142.823 27.7598 142.078 27.2588L130.79 27.1408L130.447 26.7998C130.511 17.3338 135.607 8.59285 144.241 3.99885C153.261 -1.21315 165.966 0.203848 173.79 6.88785C176.967 9.72185 179.643 13.0148 181.166 16.7038Z" fill="#645FAA"/>
<path d="M119.616 14.0919C122.346 19.1449 123.924 24.8809 122.964 31.2329L109.341 118.538C109.415 118.644 109.288 118.762 109.18 118.814L105.652 111.79L71.5083 35.5399C68.3313 25.7219 71.2743 15.4569 78.4263 8.41987C85.6323 1.10787 97.4863 -0.875128 106.91 3.09087C111.899 5.24487 116.664 9.21087 119.616 14.0919Z" fill="#C9234A"/>
<path d="M230.586 50.8469C235.18 58.6809 234.147 70.5359 229.039 77.8059C225.875 82.9119 220.65 85.4599 216.226 88.8069L145.478 137.372H145.316L146.106 135.049L183.608 50.3999C189.226 40.4219 199.95 35.3689 211.292 36.8929C219.063 38.3119 226.834 43.3639 230.586 50.8469Z" fill="#0089CF"/>
<path d="M69.8673 50.3999L108.893 137.363H108.265L29.5852 83.1359C21.5782 76.3889 18.2963 66.2829 21.0143 56.0709C23.0503 48.4169 29.4033 41.2649 36.9613 38.4279C49.3363 33.8979 63.2783 38.7159 69.8673 50.3999Z" fill="#F36F21"/>
<path d="M251.117 112.237C255.039 120.52 253.494 131.862 247.887 138.907C242.324 145.656 234.882 149.344 226.151 149.109L142.258 149.163L212.537 100.267C219.404 95.8429 229.84 95.0419 237.334 98.6239C243.121 100.895 248.569 106.566 251.117 112.237Z" fill="#0DB14B"/>
<path d="M2.68825 112.237C-1.22275 120.52 0.311281 131.862 5.92928 138.907C11.4933 145.656 18.9123 149.344 27.6543 149.109L111.547 149.163L41.2673 100.267C34.4023 95.8429 23.9673 95.0419 16.4833 98.6239C10.6933 100.895 5.24725 106.566 2.68825 112.237Z" fill="#FDB913"/>
</svg>
