<svg width="257" height="86" viewBox="0 0 257 86" fill="none" xmlns="http://www.w3.org/2000/svg">
<path d="M231.418 42.9947L254.269 17.1538C257.544 13.4519 257.194 7.79465 253.493 4.5225C249.792 1.24833 244.133 1.59655 240.86 5.29808L219.473 29.4857L198.087 5.29808C194.812 1.59606 189.158 1.24811 185.454 4.5225C181.753 7.79668 181.404 13.4518 184.678 17.1538L207.526 42.9947L184.675 68.8356C181.4 72.5375 181.75 78.1948 185.451 81.4669C189.152 84.7411 194.81 84.393 198.084 80.6914L219.47 56.5038L240.857 80.6914C244.132 84.3933 249.786 84.7413 253.49 81.4669C257.191 78.1927 257.54 72.5376 254.266 68.8356L231.418 42.9947Z" fill="#00D258"/>
<path d="M125.268 85.3817C101.9 85.3817 82.8867 66.3711 82.8867 43C82.8867 19.6289 101.9 0.618347 125.268 0.618347C148.636 0.618347 167.65 19.6289 167.65 43C167.65 66.3711 148.637 85.3817 125.268 85.3817ZM125.268 18.5185C111.769 18.5185 100.787 29.501 100.787 43C100.787 56.4982 111.769 67.4815 125.268 67.4815C138.766 67.4815 149.75 56.499 149.75 43C149.75 29.501 138.767 18.5185 125.268 18.5185Z" fill="url(#paint0_linear_53_688)"/>
<path d="M42.8953 85.3817C19.5243 85.3817 0.513672 66.3676 0.513672 43C0.513672 19.6325 19.5243 0.618347 42.8953 0.618347C50.4883 0.618347 57.9409 2.6534 64.4481 6.50124C68.7027 9.0178 70.1106 14.5065 67.5957 18.761C65.0808 23.0157 59.5905 24.4238 55.3359 21.9071C51.5874 19.6902 47.2845 18.5175 42.897 18.5175C29.398 18.5175 18.4155 29.5 18.4155 42.999C18.4155 56.4981 29.398 67.4806 42.897 67.4806C47.285 67.4806 51.5882 66.3078 55.3359 64.091C59.5906 61.5745 65.0791 62.9824 67.5957 67.237C70.1106 71.4918 68.7059 76.9802 64.4481 79.4968C57.9403 83.3443 50.4874 85.3797 42.8953 85.3797V85.3817Z" fill="#00AAF4"/>
<defs>
<linearGradient id="paint0_linear_53_688" x1="38.0451" y1="13.0359" x2="73.7972" y2="121.01" gradientUnits="userSpaceOnUse">
<stop offset="0.12" stop-color="#00AAF4"/>
<stop offset="0.88" stop-color="#00D258"/>
</linearGradient>
</defs>
</svg>
