<svg width="257" height="256" viewBox="0 0 257 256" fill="none" xmlns="http://www.w3.org/2000/svg">
<path d="M196.847 98.124H196.465C190.452 98.124 185.559 103.018 185.559 109.03V125.656H207.758V109.03C207.758 103.018 202.864 98.124 196.847 98.124Z" fill="#EC0382"/>
<path d="M60.3397 98.7374H49.0853V157.121H60.3397C66.3819 157.121 71.2845 152.223 71.2845 146.18V109.682C71.2845 103.636 66.3819 98.7374 60.3397 98.7374Z" fill="#EC0382"/>
<path d="M0.422119 256H256.422V0H0.422119V256ZM60.1216 173.203H33.007V82.6557H60.1173C75.1647 82.6557 87.3653 94.8562 87.3653 109.904L87.3696 145.955C87.3696 161.002 75.1691 173.203 60.1216 173.203ZM155.176 173.203H139.096V109.65C139.096 103.625 134.211 98.7395 128.186 98.7395H116.897V173.203H100.817V82.6557H128.186C143.07 82.6557 155.176 94.7659 155.176 109.646V173.203ZM223.837 173.203H207.758V140.811H185.559V173.203H169.475V109.031C169.475 94.1509 181.585 82.0449 196.465 82.0449H196.847C211.731 82.0449 223.837 94.1509 223.837 109.031V173.203Z" fill="#EC0382"/>
</svg>
