<svg width="256" height="94" viewBox="0 0 256 94" fill="none" xmlns="http://www.w3.org/2000/svg">
<path d="M124.388 0.424005C122.741 0.642001 118.502 1.51399 117.364 1.87731C109.08 4.51749 100.845 9.8705 96.1941 15.6353C92.9483 19.6561 91.4224 22.0298 89.6542 25.6873C88.1524 28.7877 87.8133 30.6286 88.1767 33.511C88.4915 36.0785 89.2666 37.7013 94.4743 46.8814C94.7892 47.4143 95.6612 48.9402 96.4121 50.2724C97.1629 51.6046 98.7374 54.3901 99.9242 56.449C101.087 58.5079 102.734 61.3902 103.557 62.8678C104.405 64.3211 105.907 67.0097 106.949 68.8021C107.966 70.5945 109.104 72.5565 109.419 73.162C109.758 73.7676 111.042 75.996 112.253 78.1275C113.488 80.259 115.62 84.0134 117.001 86.4356C118.648 89.3664 119.81 91.1346 120.367 91.5948C121.772 92.7332 123.347 93.1935 127.174 93.5083C130.25 93.7748 131.098 93.7748 133.956 93.4115C140.544 92.5879 143.427 91.8613 148.004 89.8024C148.61 89.536 149.53 89.1242 150.063 88.9062C151.347 88.3491 155.465 85.7331 157.451 84.2314C161.98 80.7677 167.067 74.7365 169.731 69.6014C171.209 66.7675 173.68 60.9543 173.68 60.3003C173.68 60.1065 173.922 59.0892 174.188 58.0234C175.254 54.0026 175.714 49.352 175.52 44.8952C175.375 41.3831 175.302 40.8502 174.237 36.2238C173.171 31.549 171.96 28.3033 169.635 23.9918C166.825 18.8083 161.69 12.7287 157.33 9.43451C154.472 7.25455 149.264 4.32371 146.672 3.40328C140.302 1.12644 140.254 1.10221 135.288 0.49667C133.447 0.278674 125.963 0.23023 124.388 0.424005Z" fill="#FF312C"/>
<path d="M182.593 1.75621C181.479 2.04687 179.638 4.00884 179.396 5.12304C179.033 7.01234 179.396 8.10232 181.624 11.5176C183.126 13.8429 184.216 15.7806 185.209 17.9364C185.669 18.9295 186.372 20.3585 186.735 21.0852C187.123 21.8119 187.607 22.9503 187.801 23.6285C188.019 24.2825 188.503 25.76 188.891 26.8984C189.618 28.9815 190.853 34.7463 191.483 39.0093C191.919 41.9402 191.919 49.9818 191.483 54.1479C190.998 58.8712 189.86 64.2242 188.673 67.3973C188.285 68.4388 187.801 69.7952 187.583 70.425C186.88 72.4838 183.393 79.5081 181.939 81.7608C179.42 85.6605 179.105 86.6051 179.638 88.3975C180.026 89.7055 181.334 91.2073 182.545 91.7159C183.223 92.0066 188.697 92.055 215.317 92.055C247.29 92.055 247.314 92.055 248.864 91.5464C251.746 90.6017 254.823 87.4287 255.574 84.5705C255.816 83.7227 255.913 75.3662 255.961 48.044C256.058 7.10923 256.131 8.90164 254.144 6.06769C252.715 4.03306 251.94 3.37907 249.809 2.36176L248.162 1.58666L215.826 1.53822C194.898 1.51399 183.175 1.58666 182.593 1.75621Z" fill="#FF312C"/>
<path d="M45.183 5.99501C42.8092 6.72167 41.5013 8.29608 37.8438 14.9086C37.0445 16.3619 36.0756 18.0575 35.7365 18.663C34.9372 19.9952 31.2312 26.5351 30.2381 28.3275C29.8506 29.0542 29.245 30.023 28.9302 30.5075C28.6153 30.9919 28.3488 31.4521 28.3488 31.5732C28.3488 31.6943 27.7675 32.7843 27.0409 33.9954C26.3384 35.2307 25.2727 37.0716 24.6913 38.1131C24.11 39.1546 23.0443 40.9955 22.3176 42.2308C21.1307 44.2897 20.283 45.7672 16.4802 52.4524C15.7293 53.7846 14.8573 55.3106 14.5424 55.8435C13.9369 56.885 11.7085 60.7847 10.0614 63.7155C9.48005 64.7086 7.9783 67.373 6.67033 69.6499C2.28618 77.304 1.43842 78.8542 0.711767 80.6223C-0.257104 83.0687 -0.232882 84.6916 0.760211 87.1138C1.60797 89.1484 2.69795 90.2626 4.85369 91.3042L6.18589 91.9339L47.2418 92.0066C88.2735 92.055 88.2978 92.055 89.9691 91.5464C91.277 91.1588 91.9068 90.7955 92.9241 89.8266C94.7408 88.1069 95.5159 86.4113 95.5159 84.0618C95.5401 81.7123 95.3705 81.349 90.3808 72.6049C85.4154 63.9093 81.2977 56.667 80.571 55.359C79.2388 52.9368 75.654 46.6876 74.6124 44.9436C73.9827 43.8779 72.7231 41.6979 71.8027 40.0993C70.9065 38.5007 69.2594 35.5456 68.121 33.5594C66.9826 31.549 65.5777 29.0542 64.9722 27.9884C64.3909 26.9226 63.64 25.6873 63.3251 25.2029C63.0102 24.7427 62.7438 24.2825 62.7438 24.1614C62.7438 24.0645 61.7749 22.3205 60.6123 20.2859C59.4254 18.2512 57.8267 15.4657 57.0517 14.0609C54.8959 10.1612 53.1519 7.64209 52.1104 6.93966C50.2695 5.65591 47.484 5.29258 45.183 5.99501Z" fill="#FF312C"/>
</svg>
