<svg width="257" height="102" viewBox="0 0 257 102" fill="none" xmlns="http://www.w3.org/2000/svg">
<path d="M206.28 101.4C202.017 101.4 196.176 100.758 192.637 97.7208C186.284 92.2876 187.606 81.0789 187.649 80.6084C188.544 73.3783 192.424 63.9237 205.854 59.9022C211.951 58.0626 218.943 57.7204 223.633 57.592C224.23 57.592 226.404 57.5493 226.66 56.6509C226.958 55.7524 225.04 54.2123 223.846 53.3567C220.179 50.8326 211.141 46.5117 191.145 46.5117C191.059 46.5117 189.226 46.5117 188.416 46.5117C179.889 46.5117 168.676 48.009 162.792 51.6027C161.428 52.4155 160.618 53.3567 160.49 54.5546C160.319 56.6081 162.195 58.2338 162.409 58.4049L162.451 58.4477C164.285 59.8594 166.288 60.9718 167.567 61.5707L168.122 61.8274C171.277 63.3675 177.16 66.2339 179.804 72.2232C181.253 75.5174 181.85 79.0254 181.594 82.3624C179.548 101.101 158.529 101.314 157.633 101.314H157.548C148.936 101.314 142.626 97.9775 138.831 95.1968C138.789 95.154 132.948 91.5603 130.645 84.3731C130.603 84.1592 130.176 82.8757 130.134 82.6618C129.878 81.5923 129.281 79.1966 128.727 79.111C127.832 79.0254 126.382 82.0201 125.913 82.8758C124.932 84.7153 123.696 86.8972 123.27 87.4961C120.967 91.3037 114.998 101.314 105.96 101.314C103.615 101.314 101.227 100.63 98.797 99.3037C92.956 96.0951 91.2932 91.2181 89.9289 87.325C89.5452 86.2555 89.2467 85.1004 88.9056 83.9881C87.456 79.5388 87.1576 79.4105 83.8321 82.4479C80.6771 85.3571 77.6073 88.1806 74.9213 90.2769C70.6578 93.6566 62.0455 99.5177 52.5379 100.758C50.1503 101.058 47.8054 101.272 45.5883 101.272C36.7202 101.272 30.1544 98.7048 26.1041 93.7422C22.8638 89.8063 20.3057 84.9293 18.7282 79.5816C17.7476 76.3302 17.4492 76.8008 14.7632 76.2447C11.5229 75.6029 9.13531 75.2179 5.34079 74.3623C3.76329 73.9773 2.39896 73.0361 1.50363 71.5815C0.608289 70.1697 0.309843 68.4585 0.650924 66.79C1.24782 63.8381 3.72065 61.699 6.57721 61.699C7.00356 61.699 7.42991 61.7418 7.85626 61.8274C8.45315 61.9557 9.00741 62.0841 9.56167 62.2124C11.0113 62.5547 13.8252 63.1108 14.8058 63.2392C14.9337 63.2392 15.2321 63.2819 15.36 63.2819C17.3213 63.3675 17.3639 63.1964 18.0034 60.7579C18.0887 60.5012 18.1313 60.1589 18.2166 59.8167C21.0731 48.3941 29.1312 39.6667 40.2163 35.4314C42.9023 34.4046 47.2511 33.549 52.0689 33.549C56.3324 33.549 62.1308 34.319 65.6695 37.3565C71.809 42.6186 71.8942 50.2764 71.4252 54.4262C70.871 59.1322 67.8865 70.512 52.4952 75.1323C47.7201 76.5441 42.1349 77.2714 34.3753 77.4425C33.3094 77.4425 32.2009 77.357 31.8598 78.0415C31.3482 79.0254 32.4567 80.5656 32.542 80.6939C34.2048 83.603 38.2551 88.5657 46.569 88.5657C48.0612 88.5657 49.6387 88.3945 51.2588 88.0951C58.7626 86.6833 65.2431 82.6619 70.4446 78.5121C74.4523 75.3463 79.4406 70.3836 81.7003 67.8168C81.8282 67.6456 82.4251 67.0467 82.8941 65.9772C83.1073 65.421 83.3204 64.7793 83.4057 63.9664C83.491 63.1536 83.491 62.2552 83.2778 61.1857C83.1499 60.5867 81.3166 48.7791 81.1887 47.8807C80.1228 39.4528 79.8244 32.565 79.9949 28.2013C79.9949 27.9446 80.1654 6.21177 93.2118 1.24915C93.3397 1.20637 95.173 0.521867 97.9443 0.60743C102.592 0.692992 106.812 2.40424 109.456 5.48449C115.382 12.4578 115.169 20.5007 114.316 26.704C112.27 41.6346 107.111 55.0252 98.9249 66.4478C97.39 68.3729 97.9016 70.512 98.0296 70.8542C99.0102 74.6617 100.161 79.0254 101.526 82.9185C101.568 83.0897 103.061 87.4961 106.173 87.6245C108.816 87.71 113.549 80.0522 113.549 80.0522C113.762 79.7099 124.762 63.4531 125.913 47.624C125.913 47.4529 126.169 44.7149 125.785 41.164C125.785 41.0785 125.316 37.4849 127.064 35.303C127.959 34.1907 129.366 33.6345 131.157 33.6345C137.339 33.6345 137.979 40.9929 138.021 41.2924C138.064 41.9341 138.107 42.533 138.149 43.132C138.32 45.3566 139.855 64.7365 140.793 72.7366C140.793 72.9077 142.669 89.678 155.843 89.7207C155.971 89.7207 156.397 89.7635 157.079 89.7635C164.924 89.7635 169.614 86.5122 169.657 81.1217C169.742 80.3517 169.742 76.8436 162.622 73.0788C160.447 72.0093 155.8 69.143 153.711 67.3034C153.626 67.2178 153.327 66.9611 153.327 66.9611C144.715 59.6455 147.444 51.7738 148.467 49.5064C152.006 41.9341 160.575 37.0143 174.005 34.8324C180.401 33.8057 186.327 33.6345 189.311 33.6345C190.335 33.6345 191.017 33.5918 191.315 33.6345C227.981 33.6773 236.253 47.0251 237.532 49.7203C238.47 51.6454 239.237 53.6562 239.877 55.6669C240.303 57.1214 240.346 57.7204 242.52 57.8059C243.586 57.8487 244.439 57.9771 245.206 58.0198C247.21 58.1482 248.404 58.2765 251.814 58.961C253.349 59.3033 254.671 60.2445 255.524 61.6563C256.419 63.1108 256.718 64.9076 256.376 66.6189C255.737 69.528 253.264 71.5387 250.28 71.5387C249.896 71.5387 249.47 71.4959 249.086 71.4104C246.911 71.0254 246.059 70.9398 244.95 70.8115C244.652 70.7687 244.311 70.7687 243.927 70.7259C243.756 70.7259 243.629 70.6831 243.501 70.6831C241.326 70.6831 241.156 71.1109 240.857 72.8222C240.516 74.8757 239.919 76.8864 239.194 78.8543C235.656 88.3945 228.067 95.924 218.431 99.5604C215.873 100.544 211.823 101.357 206.28 101.4ZM225.21 70.3836C212.548 70.6831 205.939 72.3088 202.486 75.9452C200.951 77.6137 200.013 79.6672 199.714 82.234C199.714 82.3196 199.416 84.6726 200.823 86.5122C201.761 87.7528 203.21 88.4373 205.129 88.5229C205.129 88.5229 205.342 88.5229 205.641 88.5229C208.412 88.5229 222.439 87.8384 227.555 74.2339C227.64 74.02 228.493 72.0521 227.726 70.9398C227.427 70.512 226.489 70.3409 225.338 70.3409C225.338 70.3836 225.253 70.3836 225.21 70.3836ZM51.4294 45.9128C47.6348 45.9128 44.224 47.4101 44.0961 47.4957C37.4877 50.2765 32.7978 54.8968 30.5808 60.8434C30.4955 61.0573 29.5149 63.3247 30.1544 64.1804C30.6234 64.7793 31.604 64.7365 32.7125 64.7365H32.8404C44.1388 64.4798 52.4526 63.3247 56.2471 58.4904C56.375 58.3621 59.6579 54.469 59.2742 50.9609C59.1037 49.5919 58.4642 48.4369 57.313 47.624C55.6929 46.4689 53.7317 45.9128 51.4294 45.9128ZM91.8475 28.5008C91.8048 32.3083 92.1459 38.0838 92.7854 43.9876C93.0839 46.9823 93.5102 48.8647 93.7234 49.7203C93.8087 50.1481 93.9792 50.1909 93.9792 50.1909C94.1071 50.1909 94.1498 50.1481 94.3629 49.9342C95.2156 49.0358 96.3242 46.0411 97.0063 44.2871C99.4365 38.2977 101.142 31.7949 102.08 24.95C102.208 24.1371 103.231 16.6076 101.014 13.4846C100.46 12.6717 99.6923 11.9017 98.8396 11.8161C98.7543 11.8161 98.5412 11.7733 98.2427 11.7733C96.5373 11.7733 92.4017 13.0568 92.0606 22.8109C92.0606 22.8109 91.8475 27.3457 91.8475 28.5008Z" fill="#0025AE"/>
<path d="M129.75 8.09417C125.998 8.09417 123.099 11.0889 123.014 15.0247C122.929 19.3884 126.254 23.2815 130.432 23.7521C130.688 23.7949 130.987 23.7949 131.242 23.7949C134.994 23.7949 137.936 20.8002 137.979 16.8643C138.064 12.5006 134.738 8.60754 130.56 8.13695C130.304 8.13695 130.049 8.09417 129.75 8.09417Z" fill="#0025AE"/>
</svg>
