<svg width="257" height="102" viewBox="0 0 257 102" fill="none" xmlns="http://www.w3.org/2000/svg">
<path d="M8.2452 99.28H28.25V47.9853H41.4589V33.6231H28.25V31.7017C28.25 25.9308 33.1222 25.1604 41.4589 25.5479V10.287C30.4304 9.13139 19.0168 10.287 13.5026 15.9272C10.1689 19.2633 8.2452 24.2616 8.2452 30.0349V33.6231H0.422119V47.9853H8.2452V99.28ZM47.1038 99.28H67.2369V33.6231H47.1038V99.28ZM107.116 101.332C128.019 101.332 141.996 86.1996 141.996 66.58C141.996 46.832 128.019 31.8279 107.116 31.8279C86.2145 31.8279 72.2352 46.832 72.2352 66.58C72.2352 86.1996 86.2145 101.332 107.116 101.332ZM106.987 86.5847C97.4974 86.5847 92.4968 78.6356 92.4968 66.58C92.4968 54.3983 97.4974 46.5752 106.987 46.5752C116.477 46.5752 121.735 54.3983 121.735 66.58C121.735 78.6356 116.477 86.5847 106.987 86.5847ZM47.1038 27.9829H67.237V10.1562H47.1038V27.9829ZM175.98 101.332C193.037 101.332 205.603 93.7657 205.603 79.532C205.603 62.861 192.266 59.9102 180.596 57.8581C172.261 56.4481 164.695 55.8084 164.695 51.0646C164.695 46.9604 168.671 44.9084 173.928 44.9084C179.956 44.9084 183.929 46.832 184.7 52.8598H203.551C202.524 39.7793 192.523 31.7017 174.059 31.7017C158.667 31.7017 145.974 38.8829 145.974 52.7291C145.974 67.99 157.773 71.1977 169.439 73.2498C178.289 74.7883 186.238 75.3018 186.238 81.1989C186.238 85.4314 182.263 87.8664 175.726 87.8664C168.799 87.8664 164.31 84.6611 163.542 77.9936H144.048C144.819 92.4841 156.746 101.332 175.98 101.332Z" fill="white"/>
<path d="M246.384 0.667969L221.619 53.7789L212.259 33.6247H202.139L217.507 66.5792H225.685L256.422 0.667969H246.384Z" fill="#ED1C24"/>
</svg>
