<svg width="257" height="252" viewBox="0 0 257 252" fill="none" xmlns="http://www.w3.org/2000/svg">
<path d="M98.108 0.174403C115.379 -0.340657 132.956 2.81511 148.535 10.4674C161.659 16.871 173.06 26.3205 181.789 38.0273C191.481 50.9651 197.641 66.372 200.38 82.2612C203.336 99.5648 202.812 117.563 197.993 134.487C194.1 148.424 187.314 161.384 178.077 172.524C170.397 181.759 161.054 189.475 150.534 195.272C135.671 203.497 118.649 207.535 101.689 207.49C84.9004 207.56 68.0137 203.713 53.1955 195.746C39.471 188.392 27.7229 177.836 18.9481 164.973C9.5707 151.332 3.6843 135.39 1.51777 119.002C-0.812265 100.807 0.888252 82.02 6.87685 64.6592C10.4789 54.2279 15.8132 44.4783 22.6557 35.8199C29.8102 26.8325 38.5924 19.272 48.5436 13.5333C63.5376 4.85492 80.8371 0.591357 98.108 0.174403ZM96.849 29.9621C84.9079 30.8437 73.5755 35.5774 64.5555 43.4518C52.8317 53.6017 45.3797 67.9785 41.8846 82.9643C37.9733 100.076 38.8717 117.936 44.4804 134.568C49.0015 147.862 57.0585 160.346 68.819 168.305C82.0839 177.412 99.2117 179.751 114.79 176.509C126.943 174.016 138.009 167.054 145.788 157.423C155.942 144.968 161.191 129.111 162.748 113.275C164.51 95.2889 161.17 76.5792 152.214 60.7717C145.955 49.7102 136.594 40.1652 124.961 34.8306C116.233 30.7306 106.431 29.2058 96.849 29.9621Z" fill="#010066"/>
<path d="M200.074 168.861C207.984 164.886 216.685 162.735 225.536 162.566C232.653 162.508 240.228 163.886 245.824 168.579C250.729 172.622 253.182 178.958 253.628 185.183C254.249 191.376 252.749 197.614 250.043 203.17C246.118 211.202 240.285 218.098 234.207 224.577C229.846 229.139 225.372 233.587 220.782 237.92C232.694 237.92 244.605 237.92 256.514 237.92C256.514 242.572 256.514 247.225 256.514 251.88C237.029 251.88 217.543 251.88 198.058 251.88V237.086C208.409 227.398 219.16 217.967 227.748 206.607C230.985 202.238 234.031 197.561 235.474 192.263C236.385 188.94 236.263 185.134 234.247 182.216C231.795 178.557 227.298 176.869 223.059 176.595C215.292 176.186 207.885 179.51 201.476 183.622C200.989 178.7 200.531 173.778 200.074 168.861Z" fill="#010066"/>
</svg>
