<svg width="257" height="98" viewBox="0 0 257 98" fill="none" xmlns="http://www.w3.org/2000/svg">
<path d="M166.353 2.32234H107.149C99.701 2.32234 98.9192 6.24677 98.9192 8.99112V23.5019H125.185V95.6716H148.296V23.5019H174.562V8.99112C174.562 6.24677 173.78 2.32234 166.333 2.32234" fill="#2160AF"/>
<path d="M24.0371 48.9969C24.1142 53.9447 25.6511 58.7592 28.4548 62.8358C31.2585 66.9124 35.2039 70.0691 39.7954 71.9093C44.3868 73.7496 49.4194 74.1912 54.261 73.1789C59.1026 72.1665 63.5371 69.7453 67.0075 66.2193C70.4778 62.6934 72.8292 58.2201 73.7662 53.3614C74.7031 48.5026 74.1839 43.4752 72.2737 38.9108C70.3635 34.3464 67.1476 30.4486 63.0299 27.707C58.9122 24.9654 54.0765 23.5025 49.1303 23.5019C45.7929 23.4695 42.4832 24.1098 39.3984 25.3845C36.3136 26.6593 33.517 28.5424 31.1753 30.9216C28.8336 33.3008 26.9947 36.1274 25.7683 39.2328C24.542 42.3383 23.9532 45.659 24.0371 48.9969ZM0.514378 48.9969C0.514378 39.3775 3.36565 29.974 8.70765 21.9757C14.0496 13.9774 21.6424 7.74353 30.5258 4.06233C39.4092 0.381117 49.1843 -0.582051 58.6148 1.29461C68.0454 3.17128 76.708 7.80349 83.507 14.6055C90.3061 21.4075 94.9363 30.0737 96.8122 39.5084C98.688 48.943 97.7253 58.7222 94.0457 67.6095C90.366 76.4967 84.1348 84.0927 76.1399 89.437C68.1451 94.7813 58.7457 97.6338 49.1303 97.6338C42.7363 97.6684 36.399 96.4339 30.485 94.0019C24.5711 91.57 19.1979 87.9887 14.6766 83.4655C10.1553 78.9422 6.57561 73.5668 4.14467 67.6503C1.71372 61.7338 0.479825 55.3937 0.514378 48.9969Z" fill="#2160AF"/>
<path d="M223.596 97.6336C229.697 97.7362 235.756 96.6081 241.411 94.3165C247.067 92.025 252.203 88.617 256.514 84.2961C255.38 78.4443 252.662 73.0165 248.654 68.6052C245.123 64.6808 240.425 67.4251 238.464 68.9963C235.563 71.3675 232.153 73.0362 228.501 73.8721C224.849 74.708 221.054 74.6886 217.411 73.8153C213.768 72.9419 210.375 71.2384 207.499 68.8375C204.622 66.4366 202.339 63.4033 200.827 59.9742H227.882V38.4036H200.855C202.796 34.095 205.936 30.4361 209.899 27.8632C213.862 25.2903 218.48 23.9121 223.205 23.8928C228.235 23.8851 233.152 25.3885 237.318 28.2083C239.28 29.3883 243.984 32.1327 247.509 28.5993C251.415 24.1219 254.113 18.7211 255.348 12.9085C246.79 4.8059 235.367 0.433197 223.589 0.750979C217.16 0.532053 210.755 1.62439 204.762 3.96147C198.77 6.29855 193.315 9.83146 188.731 14.3451C184.147 18.8587 180.529 24.2585 178.097 30.2158C175.666 36.1731 174.472 42.5631 174.589 48.9968C174.598 55.4141 175.876 61.7662 178.347 67.6881C180.818 73.6101 184.434 78.9853 188.988 83.5048C193.542 88.0243 198.944 91.5991 204.883 94.0237C210.822 96.4484 217.181 97.6752 223.596 97.6336Z" fill="#2160AF"/>
</svg>
