<svg width="247" height="256" viewBox="0 0 247 256" fill="none" xmlns="http://www.w3.org/2000/svg">
<path d="M171.052 190.45C204.602 171.183 228.63 147.045 239.702 121.246C244.464 101.758 246.9 81.827 246.9 61.6748C246.9 58.6851 246.789 55.917 246.457 53.2595C244.464 84.3737 203.716 123.571 149.903 149.149C84.9066 180.042 36.1868 188.346 14.3737 164.761C21.9031 179.488 32.0899 194.436 43.4948 207.723C43.6342 207.845 43.774 207.966 43.9144 208.085C47.2211 210.911 50.7836 213.262 54.5928 215.153C81.8218 228.668 121.672 218.667 171.052 190.45Z" fill="#9909E3"/>
<path d="M142.374 127.114C199.095 100.085 239.816 62.5468 239.765 35.247C239.765 35.2447 239.765 35.2424 239.765 35.2401C239.765 35.23 239.765 35.2199 239.765 35.2098C239.758 32.9986 239.483 30.8546 238.927 28.7889C226.637 7.97232 201.945 0 175.481 0C96.865 0 0.422119 51.2664 0.422119 116.595C0.422119 124.971 2.28702 134.335 5.58005 144.139C5.59542 144.185 5.61083 144.231 5.62627 144.277C23.4533 167.64 78.2629 157.564 142.374 127.114ZM137.17 219.682C94.0969 236.955 69.4048 231.419 55.7854 220.678L55.564 220.567C76.7128 241.384 100.74 256 121.889 256C158.872 256 209.363 211.709 233.391 142.948C219.772 167.751 190.872 198.201 137.17 219.682Z" fill="#9909E3"/>
<path fill-rule="evenodd" clip-rule="evenodd" d="M171.052 190.45C204.602 171.183 228.63 147.045 239.702 121.246C228.63 146.934 204.602 171.183 171.052 190.45ZM54.5928 215.153C50.6605 213.178 46.9948 210.706 43.6055 207.723C43.7083 207.844 43.8112 207.965 43.9144 208.085C47.2211 210.911 50.7836 213.262 54.5928 215.153ZM149.903 149.149C203.827 123.571 244.464 84.3737 246.457 53.2595C244.464 84.3737 203.716 123.571 149.903 149.149ZM239.765 35.247L239.765 35.2401C239.713 62.5312 199.023 100.008 142.374 127.003C78.3396 157.527 23.5844 167.506 5.58005 144.139L5.62627 144.277C23.4533 167.64 78.2629 157.564 142.374 127.114C199.095 100.085 239.816 62.5468 239.765 35.247Z" fill="white"/>
</svg>
