<svg width="257" height="122" viewBox="0 0 257 122" fill="none" xmlns="http://www.w3.org/2000/svg">
<path d="M255.698 2.4463L144.575 24.5701V32.3205L144.928 32.2288C218.338 14.3846 255.696 3.65173 255.998 3.57623C256.413 3.46836 256.559 3.14475 256.502 2.87238C256.44 2.58653 256.141 2.34922 255.698 2.4463Z" fill="#49266C"/>
<path d="M165.35 0.331906C159.949 0.639331 149.947 8.64047 144.456 13.3921C122.594 32.3068 106.338 49.6925 94.5183 67.9007C69.8785 81.0984 38.4591 94.671 7.26893 105.264L6.51655 105.517L0.513672 121.681L3.94119 120.357C23.7836 112.796 56.9019 98.5947 86.9244 82.8081C85.2336 87.317 84.3814 91.4619 84.3814 95.24C84.3814 98.058 84.8533 100.679 85.7945 103.06C87.6822 107.817 91.4037 111.42 96.5625 113.467C104.245 116.533 114.728 116.59 126.687 112.968C157.241 103.708 193.482 75.2735 201.373 69.6185L201.675 69.4055C201.985 69.1817 202.007 68.8446 201.877 68.6153C201.705 68.3538 201.34 68.2836 201.041 68.467L200.653 68.7016C192.185 73.7849 151.039 98.2145 124.293 105.388C110.669 109.042 100.287 107.046 96.371 101.569C95.0119 99.6976 94.3565 97.3299 94.3565 94.5685C94.3565 89.1778 96.8941 82.3146 101.781 74.6856C106.279 72.1265 110.48 69.6239 114.266 67.2454C140.36 52.5807 170.423 24.0684 171.706 6.66379C171.712 6.54513 171.712 6.4076 171.712 6.27816C171.712 4.77609 171.062 3.23087 169.921 2.09016C168.697 0.841584 167.084 0.218644 165.35 0.331906ZM162.44 8.62699C164.153 7.51864 164.646 8.2117 164.142 9.46297C163.328 11.4612 159.56 23.4832 131.587 46.4484C124.287 52.427 119.096 55.7844 108.584 62.0084C125.798 37.8863 150.928 16.1023 162.44 8.62699Z" fill="#6EBE44"/>
<path d="M144.211 24.6427L27.2974 49.7733L22.7885 61.9328L144.575 32.3175L148.342 30.1898L148.237 24.6562L144.211 24.6427Z" fill="#49266C"/>
</svg>
