<svg width="257" height="222" viewBox="0 0 257 222" fill="none" xmlns="http://www.w3.org/2000/svg">
<path d="M0.513672 83.232C0.513672 85.915 1.95297 88.5178 4.46297 89.9045C8.13394 91.938 12.7778 90.604 14.8289 86.893C38.5248 44.2305 80.2344 15.8807 127.759 15.8807C169.117 15.8807 211.121 41.4547 238.136 79.4959C224.069 99.1947 206.642 115.117 188.586 125.533C193.327 118.008 196.507 109.257 196.507 99.8818C196.507 64.7292 165.73 36.2466 127.759 36.2466C82.767 36.2466 46.3055 71.5697 46.3055 115.175C46.3055 170.014 92.5011 215.204 152.026 221.385C152.297 221.385 152.581 221.4 152.826 221.4C156.708 221.4 160.01 218.494 160.432 214.572C160.878 210.369 157.846 206.608 153.631 206.172C101.791 200.848 61.5536 162.118 61.5536 115.175C61.5536 80.0249 91.1997 51.5097 127.759 51.5097C157.292 51.5097 181.214 73.182 181.214 99.8818C181.214 120.724 162.839 138.078 143.04 138.078C123.353 138.078 107.398 124.395 107.398 107.525C107.398 96.2685 116.518 87.1562 127.759 87.1562C136.555 87.1562 143.847 93.5228 145.324 101.895C146.039 106.043 150.008 108.816 154.16 108.104C158.32 107.329 161.094 103.39 160.349 99.2248C157.648 83.6984 144.083 71.8881 127.759 71.8881C108.073 71.8881 92.1174 87.8433 92.1174 107.525C92.1174 132.848 114.921 153.347 143.04 153.347C182.259 153.347 227.389 124.159 256.514 79.4959C227.221 32.7386 177.44 0.600098 127.759 0.600098C74.5374 0.600098 27.8002 32.0892 1.47655 79.4959C0.817079 80.712 0.513672 81.9783 0.513672 83.232Z" fill="#0093D0"/>
</svg>
