<svg width="257" height="128" viewBox="0 0 257 128" fill="none" xmlns="http://www.w3.org/2000/svg">
<path d="M256.514 58.416H230.946V84.5763H256.514V58.416Z" fill="#ED008C"/>
<path d="M179.824 58.416H154.256V84.5763H179.824V58.416Z" fill="#ED008C"/>
<path d="M104.298 58.416H78.7302V84.5763H104.298V58.416Z" fill="#ED008C"/>
<path d="M26.0816 58.416H0.513672V84.5763H26.0816V58.416Z" fill="#ED008C"/>
<path d="M61.9183 6.19905H64.9518C84.5448 6.19905 93.677 16.708 97.4931 44.7335L103.56 44.4646L102.751 0H3.05031L2.06772 44.4646L7.9061 44.7335C8.91727 34.2246 10.13 28.565 12.7619 22.9055C17.4145 12.3949 27.1245 6.19905 39.0585 6.19905H43.3063V102.94C43.3063 113.18 42.6999 116.414 40.2744 118.839C38.2505 120.725 34.2042 121.534 29.55 121.534H24.8974V128H80.3272V121.534H75.646C71.0219 121.534 66.9471 120.723 64.9534 118.839C62.5263 116.414 61.9199 113.178 61.9199 102.94V6.19905" fill="#ED008C"/>
</svg>
