<svg width="257" height="32" viewBox="0 0 257 32" fill="none" xmlns="http://www.w3.org/2000/svg">
<path d="M118.553 23.3338C122.073 23.3338 124.923 20.4861 124.923 16.9638C124.923 13.4474 122.073 10.5959 118.553 10.5959C115.037 10.5959 112.183 13.4474 112.183 16.9638C112.183 20.4858 115.037 23.3338 118.553 23.3338ZM98.592 10.4508H112.183L102.771 31.1232H89.1765L98.592 10.4508ZM10.5449 8.56008C10.5449 8.56008 11.5315 7.64233 12.3178 7.04622C13.3907 6.23232 15.8125 4.1357 17.7249 4.09475C19.294 4.06152 24.14 4.09475 24.14 4.09475L11.8727 31.1235H26.5953L38.8605 4.09475H254.437L255.884 0.876526H14.9301C11.7335 0.876526 9.29954 2.96929 8.17379 4.09475L2.27886 9.34075L2.3023 9.32087C1.19613 10.4662 0.513672 12.0273 0.513672 13.7432C0.513672 17.2655 3.36723 20.117 6.88573 20.117C10.406 20.117 13.2575 17.2655 13.2575 13.7432C13.2575 11.627 12.2219 9.7523 10.6333 8.59124L10.5449 8.56008ZM202.103 16.9638C202.746 15.3576 200.812 15.1947 199.528 15.1947C198.724 15.1947 196.299 14.9399 195.346 17.1264L194.056 19.8601H200.653C200.654 19.8604 201.458 18.572 202.103 16.9638ZM189.873 10.3683H212.723C215.935 10.5273 216.443 12.3884 215.633 14.1592L211.758 22.7569H192.772L190.523 27.5834H209.503L207.895 31.1232H180.403C177.961 31.0862 176.024 30.0604 177.51 26.6167C178.263 24.8794 183.605 13.104 183.605 13.104C184.466 11.1371 186.723 10.5879 189.873 10.3683ZM77.3955 26.236C78.9409 22.959 84.5245 10.4075 84.5245 10.4075H71.0119L65.7012 22.1549C63.2892 27.3009 56.0504 26.6576 57.9803 22.1549L63.4518 10.4075H51.0611L43.3398 27.3012C41.8927 30.6823 45.4323 31.1232 48.1663 31.1232H68.3174C74.9992 31.1232 75.8541 29.5153 77.3955 26.236ZM138.453 10.4075L129.122 31.1232H142.634L147.945 19.38C150.355 14.2298 157.598 14.8713 155.668 19.38L150.197 31.1232H162.587L170.307 14.2298C171.754 10.8508 168.218 10.4075 165.48 10.4075H151.32C151.32 10.4075 150.304 10.4546 149.569 10.641C148.222 11.0214 147.098 11.6175 146.707 12.1391C145.908 11.1881 145.121 10.4075 143.809 10.4075H138.453ZM220.779 31.1232H234.374L243.784 10.4508H230.187L220.779 31.1232ZM243.768 16.9638C243.768 13.4474 246.621 10.5959 250.138 10.5959C253.658 10.5959 256.514 13.4474 256.514 16.9638C256.514 20.4861 253.658 23.3338 250.138 23.3338C246.622 23.3338 243.768 20.4858 243.768 16.9638Z" fill="#165EAA"/>
</svg>
