<svg width="240" height="256" viewBox="0 0 240 256" fill="none" xmlns="http://www.w3.org/2000/svg">
<path fill-rule="evenodd" clip-rule="evenodd" d="M76.5063 121.489C69.2175 124.873 68.2655 137.406 66.4656 144.587L64.892 150.624C64.289 152.418 63.6117 154.305 63.3259 156.252C62.6746 160.638 62.7766 169.068 68.375 169.068L69.9003 168.9C71.5296 167.619 72.3683 167.486 73.194 165.32C73.94 163.336 73.8435 160.9 73.992 158.606C74.2313 156.699 74.4689 154.789 74.7027 152.88C75.2798 149.072 76.0109 145.315 76.6937 141.565C77.243 138.495 78.3452 135.554 78.8518 132.448C79.3602 129.303 81.2604 122.249 76.5063 121.489ZM99.2041 104.616C98.1149 104.974 97.0553 105.111 96.1498 105.785C94.9437 106.675 94.2589 108.073 93.513 109.271C92.4237 111.016 91.3605 112.773 90.3751 114.554C90.0671 115.098 89.6663 115.757 89.1263 116.137C88.1948 116.781 87.0183 117.07 86.3782 118.141C85.198 120.097 84.838 122.313 84.4038 124.68C83.7265 128.351 83.1067 132.084 82.8005 136.001C82.5667 138.9 82.3237 147.94 83.7655 149.889C84.4576 150.833 85.8178 151.017 87.0109 151.017C87.601 150.78 88.668 150.848 89.3806 150.848C90.4178 150.21 91.4718 149.735 92.1436 148.584C92.7508 147.541 93.2098 146.418 93.5074 145.248C94.4389 141.52 94.7303 137.503 95.2443 133.624C95.4391 131.774 95.6358 129.922 95.8269 128.069C95.9698 127.399 96.2593 126.233 96.944 125.918C97.8644 125.486 99.3303 126.213 100.39 126.213C100.828 126.018 101.268 125.823 101.702 125.621C102.448 125.235 103.062 124.484 103.518 123.792C103.91 122.864 104.307 121.941 104.699 121.014C106.345 116.204 105.985 111.506 103.079 107.499C101.624 105.491 102.179 105.089 99.2041 104.616ZM77.1855 91.9604C76.4228 92.3927 75.5989 92.7564 75.122 93.5636C74.4651 94.6547 74.2221 95.9611 74.1163 97.3528C73.8454 100.754 74.3334 104.044 77.757 105.278C79.9281 106.057 81.7002 103.812 82.5371 102.309C82.6113 102.166 82.897 101.914 82.6057 101.914C83.3739 99.0395 82.7746 93.6415 79.8112 92.2851C79.1005 91.9604 78.0799 91.9604 77.1855 91.9604ZM149.682 87.0671C148.823 87.5162 147.99 87.9708 147.417 88.8169C145.763 91.2441 145.064 94.4283 144.292 97.2971C143.421 100.492 142.523 103.76 141.813 107.004C140.939 110.958 140.302 114.872 139.2 118.625C138.409 121.288 137.554 127.436 141.226 128.321C143.568 128.881 146.216 127.505 147.359 125.634C148.899 123.088 149.037 119.511 149.569 116.438C150.094 113.396 151.352 110.548 151.766 107.522C152.048 105.196 152.336 102.877 152.614 100.55C153.204 97.6664 155.383 95.3673 154.846 91.9752C154.375 89.0174 152.98 87.1729 149.682 87.0671ZM189.146 67.663C187.765 68.2865 186.316 68.3551 185.13 69.4036C182.72 71.5115 180.606 74.1502 178.673 76.6219C177.787 77.713 176.904 78.8059 176.019 79.8915C175.57 80.3071 174.74 80.9918 174.072 80.9918C173.898 80.7321 173.566 80.3646 173.566 79.9787C173.295 79.0045 173.338 78.0229 172.779 77.1953C170.974 74.5009 167.227 77.3344 166.216 79.3589C165.314 81.157 165.01 83.2279 164.306 85.1428L160.113 98.9096C159.881 100.684 159.649 102.454 159.409 104.226C158.877 106.102 158.151 107.8 157.823 109.847C157.417 112.329 156.504 118.531 158.701 120.234C159.422 120.789 160.205 120.956 161.202 120.973C164.7 121.027 166.457 118.215 167.422 115.4C169.73 108.609 171.699 101.738 174.627 95.2726C175.965 92.2981 177.03 90.1419 179.422 87.6906C180.031 87.0578 180.719 86.2506 181.571 86.0243C183.042 85.629 183.662 86.7943 183.644 88.0766C183.614 89.947 183.078 91.9103 182.762 93.6545C182.321 96.2208 181.881 98.7964 181.436 101.363C181.055 103.144 180.294 105.77 180.385 107.648C180.432 108.75 180.823 109.811 181.454 110.596C182.183 111.507 183.82 112.131 183.74 113.543C183.603 115.862 175.371 120.392 173.393 121.134C169.686 122.517 166.489 125.18 163.325 127.616C161.766 128.718 160.215 129.82 158.66 130.917C156.286 132.598 153.64 134.07 151.085 135.404C149.348 136.532 147.613 137.668 145.876 138.794C144.455 139.637 143.039 140.481 141.618 141.32C140.256 142.259 138.888 143.203 137.523 144.142C136.246 144.996 135.21 146.298 133.869 147.039C133.683 147.133 132.405 147.514 132.405 147.139H132.234C132.234 145.25 132.64 143.48 132.82 141.73L132.934 136.508C133.063 134.821 133.203 133.14 133.336 131.451C133.685 127.438 134.706 123.537 135.554 119.787C136.279 116.54 136.862 113.181 137.604 110.006C138.072 107.997 140.221 99.5498 136.786 98.9709C134.589 98.596 131.941 100.056 130.748 101.765C128.732 104.617 127.862 108.056 126.743 111.342C125.162 115.965 123.225 120.886 121.021 125.172C120.416 126.341 117.523 132.457 116.142 132.457C115.138 130.739 115.842 127.672 116.324 125.879C116.363 125.718 116.602 125.372 116.313 125.372C117.042 123.617 117.419 121.164 118.042 119.314C118.848 116.903 120.134 114.512 121.319 112.279C121.878 111.223 122.802 109.796 123.693 108.947C124.351 108.418 125.016 107.893 125.674 107.364C127.218 105.952 128.283 104.094 128.723 102.049C129.373 99.1174 128.582 93.0644 125.11 92.7267C124.296 92.6451 123.396 93.0125 122.741 93.2816C118.308 95.0741 116.717 100.433 114.904 104.239C111.253 111.891 108.133 119.782 106.402 128.431C105.589 132.479 105.573 136.768 105.185 141.034C104.784 145.402 104.63 150.828 107.775 153.765C111.1 156.871 117.35 151.128 119.456 148.603C119.902 148.065 122.273 144.437 122.75 144.437V144.27H122.917V144.608C123.555 146.391 123.112 148.946 123.088 150.85C123.045 153.481 122.479 157.205 121.269 159.187C120.41 160.572 119.124 161.366 117.953 162.429C115.608 164.544 113.043 166.298 110.841 168.499C108.835 170.492 107.502 172.971 105.268 174.752C103.574 176.097 101.396 176.641 99.553 177.678C98.3932 178.328 97.5731 179.361 96.5618 180.248C95.8956 180.774 95.235 181.301 94.567 181.829C92.1695 183.856 91.5034 187.098 88.989 189.064L86.3837 190.877C82.8748 193.594 79.4345 196.452 75.9311 199.174C73.131 201.336 70.3624 203.464 67.7218 205.854C65.5229 207.723 63.3333 209.589 61.1363 211.451C60.5128 212.009 59.8875 212.568 59.2566 213.121C57.6106 214.633 55.9703 216.147 54.3243 217.656C52.3333 219.63 50.5018 221.848 48.2157 223.544C46.4788 224.824 44.3412 225.986 43.0237 227.817C42.5579 228.461 42.0328 229.151 41.721 229.862C40.9324 231.651 40.0269 236.564 41.4984 238.194C45.1149 242.194 54.6249 230.621 57.2581 228.381C61.3961 224.844 64.9867 220.64 68.967 216.923C76.2318 210.102 83.3358 203.112 90.2731 195.958C91.7539 194.429 93.6021 193.62 95.2925 192.505C97.0479 191.334 98.4452 189.647 99.8054 188.062C100.453 187.413 101.097 186.773 101.744 186.121C104.066 184.056 106.391 181.989 108.714 179.916C109.911 179.057 111.195 178.545 112.349 177.595C112.741 177.09 113.134 176.584 113.518 176.079C114.483 174.876 116.044 173.199 117.436 172.639C117.732 172.518 118.378 172.527 118.629 172.702C119.081 173.013 119.198 173.592 119.256 174.142C119.137 175.433 119.02 176.727 118.898 178.018C118.644 182.067 118.391 186.12 118.13 190.17C118.232 194.093 117.909 198.381 117.851 202.315L117.866 208.222C117.809 211.87 117.979 215.856 118.152 219.528C118.323 223.143 118.322 226.778 118.543 230.32C118.699 232.402 118.851 234.486 119.004 236.568L118.862 242.137C118.862 245.649 119.284 253.209 121.668 255.165C122.512 255.861 123.451 256.056 124.622 255.987C125.743 255.913 126.695 255.66 127.554 255.137C133.006 251.779 129.631 240.73 129.208 235.381L127.729 223.733L126.522 210.241C126.237 207.266 126.233 204.177 126.233 201.141C126.233 193.299 126.73 185.233 127.899 177.86C128.478 174.153 129.178 169.555 130.657 166.281C132.002 163.275 134.737 160.449 137.409 158.399C138.615 157.623 139.823 156.849 141.033 156.068C143.392 154.563 145.683 152.609 147.717 150.59C148.99 149.317 150.018 147.846 151.44 146.714C153.314 145.207 155.409 144.352 157.394 143.142C158.645 142.377 159.641 141.039 160.844 140.212C164.058 137.981 167.737 136.289 171.118 134.38L175.511 131.405C182.516 127.179 189.669 123.202 196.956 119.483C201.834 116.983 206.69 114.521 211.96 112.777C214.105 111.88 216.251 110.982 218.386 110.08C219.509 109.516 220.771 108.72 222.04 108.429C224.167 107.933 226.614 108.93 228.42 109.383C229.245 109.591 230.42 109.509 231.337 109.509L233.471 108.718C234.452 108.303 235.373 107.49 236.072 106.651C236.772 105.801 237.258 104.647 237.657 103.625C239.139 99.7688 241.11 95.1093 236.813 91.8991C235.968 91.2664 234.888 90.6856 233.703 90.6336C230.242 90.4703 227.234 92.3575 224.508 93.7195C223.474 94.0776 222.45 94.4376 221.417 94.7883C220.055 95.3895 218.887 96.566 217.542 97.2247C216.158 97.889 214.625 98.2416 213.283 98.9857C211.617 99.8393 209.949 100.695 208.283 101.543C206.082 102.665 203.15 104.311 200.498 104.497C199.248 104.575 197.281 103.922 196.366 103.174C194.659 101.76 192.925 99.8467 192.452 97.6793C191.753 94.5359 192.642 90.873 193.109 87.8873L193.592 82.5134C193.755 80.4203 194.174 78.2066 194.249 75.9334C194.31 73.9034 194.371 71.493 193.397 69.86C192.445 68.2902 191.074 67.7205 189.146 67.663ZM161.365 55.0077C160.632 55.6869 159.799 56.0988 159.339 57.0266C158.76 58.1753 158.838 59.6672 158.817 61.0774C158.788 61.8048 158.764 62.5322 158.73 63.2596C159.012 66.0486 160.829 67.431 163.724 66.8966C165.746 66.5181 165.989 64.0965 166.336 62.4432C166.591 61.198 167.138 59.669 166.862 58.2291C166.702 57.4219 166.253 56.559 165.596 56.0246C164.46 55.0987 163.026 55.0077 161.365 55.0077ZM105.131 0C104.025 0.454625 102.782 0.937083 101.962 1.89829C99.8017 4.40336 98.4582 7.39275 96.8921 10.23C94.0919 15.2661 90.9114 20.2688 88.8257 25.626C88.269 26.8655 87.7142 28.1032 87.1519 29.3428L85.7602 32.9427C84.9976 34.7296 84.6172 36.6854 83.8601 38.4223C83.1197 40.1035 81.7707 41.4432 80.9282 43.0298L77.6085 49.6413C76.9721 51.0701 76.343 52.4971 75.7084 53.9222C74.788 55.6572 73.7025 57.3254 72.8823 59.1012C71.2475 62.6287 70.0915 66.4457 68.7703 70.1365L65.7994 77.34L62.5132 85.154C59.4217 91.6449 57.1449 98.6461 54.5414 105.402L52.6246 110.685L47.7499 124.697C44.3356 134.53 42.2722 144.897 38.9784 154.751C38.2158 157.018 37.4921 159.317 36.9299 161.653C36.4381 163.674 36.2321 166.168 34.8813 167.738C34.6011 168.061 34.0444 168.365 33.6436 168.039C32.7492 167.304 32.4467 154.392 32.2556 152.025C31.4985 142.722 31.7842 132.656 31.9382 123.341C32.0589 115.51 31.9123 107.401 31.7898 99.5498L31.6209 93.6434C31.6209 89.7206 31.7471 78.5573 27.5386 77.8614C23.0091 77.108 19.8174 87.6572 18.6465 90.5371C17.3699 93.6694 16.995 97.3119 16.134 100.682C15.4178 103.439 14.4454 106.033 13.4193 108.601C10.1478 116.733 4.91314 123.871 1.84767 132.118C1.20749 133.836 0.487509 135.686 0.179478 137.523C-0.226901 139.885 -0.0691744 144.931 1.99055 146.25C3.51587 147.222 5.73889 146.929 7.01926 145.747C8.21613 144.634 8.92497 141.531 9.7136 139.963C10.4224 138.475 11.1313 136.994 11.8364 135.508C12.7568 133.546 14.0112 131.708 14.9 129.692C15.9948 127.206 16.3771 124.346 17.4348 121.843C17.8913 121.03 18.3459 120.219 18.8005 119.401C19.4407 118.048 20.0809 116.692 20.7211 115.33C20.8176 115.167 21.044 114.903 21.287 114.903V115.072C21.8493 116.195 21.9959 117.64 22.1666 118.947C22.4375 121.028 22.7214 123.122 22.8272 125.359C23.1723 132.767 23.3208 140.334 23.3208 147.974C23.3208 154.828 23.6975 161.69 24.5678 168.211L25.6496 175.307C26.2842 181.019 26.2842 186.914 26.8409 192.687C27.2899 197.016 27.739 201.35 28.1918 205.68C28.4813 208.311 28.2289 212.777 29.7523 214.616C30.8472 215.941 32.4356 215.804 34.1613 215.804C35.245 215.05 36.0132 215.097 36.9131 213.857C38.5071 211.653 38.1416 208.526 38.2362 205.511C38.342 202.004 38.4366 198.346 38.7706 194.88C39.3885 188.367 40.2904 182.008 41.6617 175.821C42.1961 173.396 43.1536 171.108 43.714 168.697C43.9626 167.242 44.2168 165.788 44.4655 164.331C44.5341 162.754 44.4488 161.061 44.7197 159.623C45.2615 156.675 46.605 154.149 47.6627 151.492C48.0023 150.622 47.9911 149.52 48.1118 148.503C48.34 147.432 48.5738 146.369 48.8002 145.296C49.9061 141.351 51.0139 137.408 52.1143 133.457C52.1718 133.199 52.8491 131.433 52.6228 131.433C53.237 130.151 53.4207 128.616 53.8827 127.247L56.9148 117.108L64.5376 92.9847C65.7985 89.3418 67.0566 85.698 68.3119 82.0533C71.4813 74.9871 75.1406 67.9599 78.2524 60.851C79.5699 57.8245 80.6666 54.6403 81.6408 51.4134C82.2401 49.4093 82.3923 47.5871 83.2923 45.726C84.1273 43.9798 85.7695 42.8349 86.9126 41.2651C88.707 38.7823 90.6127 36.3922 92.0044 33.6923C94.4297 28.9735 95.6562 23.0189 100.896 20.4154C101.459 20.1315 101.967 19.6713 102.628 19.5656C104.565 19.2371 105.342 23.2081 106.259 24.3586C106.614 24.8002 107.168 25.1175 107.656 25.318C108.556 25.6872 109.557 25.3013 110.551 25.3013C111.462 24.585 112.24 24.0469 112.685 22.9131C114.485 18.2926 112.691 6.13836 110.119 2.59043C108.864 0.870281 107.356 0.142882 105.131 0Z" fill="#E31E23"/>
</svg>
