<svg width="257" height="256" viewBox="0 0 257 256" fill="none" xmlns="http://www.w3.org/2000/svg">
<path d="M81.2407 8.94379C113.432 -3.84895 150.931 -2.96406 182.264 11.8943C173.336 10.5419 164.254 11.5615 155.416 13.0513C131.413 17.5709 108.603 28.8316 90.7729 45.5602C73.677 62.3152 61.6968 84.546 58.3137 108.33C56.075 125.183 58.1494 142.86 65.7344 158.199C73.5498 174.293 87.3076 187.493 103.89 194.305C119.868 201.046 138.402 200.972 154.587 194.955C178.87 186.069 196.319 162.076 198.313 136.443C199.569 119.643 195.471 101.771 184.15 88.8859C173.344 76.2728 157.538 69.3257 141.722 65.3714C140.874 49.8183 148.223 34.4527 159.877 24.3384C166.35 18.5192 174.382 14.8105 182.688 12.4358L183.318 12.2192C207.096 23.5882 227.299 42.3375 240.172 65.3555C251.202 84.9527 256.953 107.535 256.384 130.03C256.275 159.118 245.37 187.918 226.677 210.159C209.001 231.371 184.277 246.628 157.331 252.738C130.314 258.953 101.246 256.272 75.9607 244.824C51.2188 233.806 30.2575 214.653 16.9236 191.093C5.83096 171.514 -0.0372473 148.94 0.450225 126.419C0.503211 98.3583 10.4964 70.5143 27.9447 48.5715C41.8827 31.0504 60.3722 17.1192 81.2407 8.94379Z" fill="#C21F2F"/>
</svg>
