<svg width="257" height="76" viewBox="0 0 257 76" fill="none" xmlns="http://www.w3.org/2000/svg">
<path d="M162.071 48.9861C163.573 48.5857 182.441 38.8262 209.518 24.3621C234.292 11.1992 254.962 0.438713 255.513 0.538811C256.113 0.58886 256.514 0.98925 256.514 1.63988C256.514 2.39062 254.161 4.09228 247.255 8.49657L182.191 49.2364C160.97 62.7496 158.818 62.9998 135.646 54.9419C117.428 48.5857 115.726 48.2354 110.471 49.6368C107.068 50.5376 103.364 53.2403 88.3995 65.6023L82.5938 69.9065C81.8431 70.4571 76.638 73.46 72.8843 74.461C70.2318 75.2117 67.7794 75.462 63.0748 75.462C57.4693 75.462 56.3682 75.3118 52.6646 74.0106C49.8118 73.0082 47.2593 71.8084 45.7078 70.9075C42.2544 68.8555 37.0494 63.1809 34.4468 60.3973C28.6912 54.2413 9.07203 33.4209 5.66871 29.7673C2.01514 25.7634 0.513672 22.7605 0.513672 19.4573C0.513672 15.9038 4.01709 11.1992 7.82081 9.59765C10.5735 8.44653 15.4282 8.69678 18.3311 10.1482C20.5833 11.2493 22.5852 13.5515 37.3496 32.0196C46.4085 43.3806 54.6666 53.4905 55.7176 54.4915C58.0699 56.8438 61.273 57.9449 65.5272 57.9449C70.0316 57.9449 71.6832 57.094 85.0963 47.6848C97.7086 38.9263 99.4603 37.8753 104.665 36.4239C109.07 35.2227 116.427 35.0725 120.881 36.1736C122.533 36.574 130.441 39.627 138.398 42.9803C154.164 49.5867 156.716 50.2373 162.071 48.9861Z" fill="#0094DA"/>
</svg>
