<svg width="257" height="88" viewBox="0 0 257 88" fill="none" xmlns="http://www.w3.org/2000/svg">
<path d="M0.422119 67.9234L18.0874 44.3773L2.06308 22.7952H8.67991C12.929 22.7952 14.0981 24.5406 15.6016 26.3255L23.617 37.3698L31.1913 27.308C34.3439 23.0891 35.2606 22.7952 39.8067 22.7952H45.4546L29.2034 44.3694L60.7298 87.2056H53.7554C49.7479 87.2056 48.2145 85.5083 47.1595 84.0944L23.5248 51.4959L13.6624 64.6297C12.3556 66.3109 10.5098 67.9234 6.98622 67.9234H0.422119Z" fill="#C8001D"/>
<path d="M66.7604 67.9234H57.7346V31.0005H47.1913L52.9349 22.7952H57.7349V18.1913C57.7349 2.70382 72.4889 -1.06348 80.7723 1.5618L78.9212 9.76456C72.7903 8.42977 66.7604 10.6344 66.7604 19.9234V22.7952H78.3708V31.0003H66.7604V67.9234ZM94.7812 22.7952V67.9234H85.5503V22.7952H94.7812ZM105.612 67.9234V22.7952H114.719V27.308C114.719 27.308 119.176 21.8611 128.819 21.8611C139.877 21.8611 147.007 30.0723 147.007 41.2569V67.9234H141.961C139.232 67.9234 137.858 65.7989 137.858 63.821V43.308C137.858 34.807 133.48 30.6104 126.688 30.6104C118.34 30.6104 114.719 37.1543 114.719 37.1543V67.9234H105.612ZM166.87 22.7952V67.9234H157.639V22.7952H166.87ZM173.961 31.0003V22.7955H183.684V8.6594L192.833 4.74363V22.795H201.858L205.55 31H192.832V52.3335C192.832 58.6611 198.507 61.6255 205.324 59.7463L207.175 67.8213C207.175 67.8213 204.559 68.7469 200.472 68.7469C189.744 68.7469 183.684 61.8636 183.684 52.7436V31L173.961 31.0003ZM209.243 22.7952H213.755C218.978 22.7952 220.16 24.4029 221.716 28.0238L231.994 50.091L244.406 26.872C245.909 24.2301 247.337 22.7952 251.909 22.7952H256.422L224.57 81.977C222.396 85.9064 221.185 87.2058 216.217 87.2058H211.524L226.825 59.5438L209.243 22.7952Z" fill="#C8001D"/>
</svg>
