<svg width="257" height="92" viewBox="0 0 257 92" fill="none" xmlns="http://www.w3.org/2000/svg">
<path d="M65.281 26.8384H57.608L49.9811 39.6802L42.2668 26.8384H34.2263L45.8643 44.3506L32.8962 64.4058H40.9413L49.7307 49.6573L58.8876 64.4058H67.2819L53.8497 44.5022L65.281 26.8361V26.8384ZM85.7773 25.8804C79.0095 25.8804 72.0694 29.2735 72.0694 36.9258C72.0694 43.9187 76.9971 46.1516 81.5434 47.592C86.2529 49.0761 90.1628 50.188 90.1628 54.1163C90.1628 58.1457 86.5102 59.6849 83.395 59.6849C80.4361 59.6849 77.0453 58.0998 75.1937 55.5498L70.4292 60.0066C73.3927 63.5122 78.4168 65.3661 83.294 65.3661C90.6499 65.3661 96.9467 61.4424 96.9467 53.3743C96.9467 46 90.8084 43.8727 85.9887 42.3818C81.7617 41.0563 78.851 40.0524 78.851 36.5972C78.851 32.9377 82.3957 31.4559 85.4672 31.4559C88.116 31.4559 90.9163 32.8274 92.3521 34.6859L96.694 29.919C93.8178 27.2082 89.538 25.8804 85.7773 25.8827V25.8804ZM108.847 51.1413L119.478 34.3206H119.593V51.1413H108.847ZM118.208 26.8361L102.288 50.9805V56.6089H119.596V64.4104H125.83V56.6043H131.08V51.1413H125.837V26.8361H118.208ZM147.227 50.08L153.097 34.7985L158.863 50.08H147.227ZM156.157 26.8384H150.391L134.101 64.4035H141.553L144.944 55.8117H161.186L164.682 64.4035H172.309L156.157 26.8384ZM184.388 26.8384H177.726V64.4104H200.331V58.4605H184.388V26.8384ZM212.709 26.8384H206.04V64.4104H228.641V58.4605H212.709V26.8384ZM17.911 84.8838C11.7543 84.8838 6.74161 79.8528 6.74161 73.6777V18.2994C6.74161 12.1151 11.7589 7.08864 17.9133 7.08864H239.119C245.289 7.08864 250.295 12.1151 250.295 18.2994V73.6777C250.295 79.8528 245.282 84.8884 239.114 84.8884H17.9133L17.911 84.8838ZM239.953 0.872192H17.0771C7.87187 1.30868 0.513672 8.95863 0.513672 18.2994V73.6777C0.513672 83.2987 8.31754 91.1278 17.9041 91.1278H239.114C248.71 91.1278 256.514 83.301 256.514 73.6777V18.2994C256.514 8.95633 249.16 1.31097 239.953 0.872192Z" fill="#FFC300"/>
</svg>
