<svg xmlns:xlink="http://www.w3.org/1999/xlink" xmlns="http://www.w3.org/2000/svg" viewBox="0 0 48 48" width="172"  height="172" ><path d="M 24 4 C 14.629252 4 7 11.629252 7 21 L 7 21.533203 A 1.50015 1.50015 0 1 0 10 21.533203 L 10 21 C 10 13.250748 16.250748 7 24 7 C 31.749252 7 38 13.250748 38 21 L 38 21.533203 A 1.50015 1.50015 0 1 0 41 21.533203 L 41 21 C 41 11.629252 33.370748 4 24 4 z M 24 10 C 17.942442 10 13 14.942442 13 21 L 13 21.558594 A 1.50015 1.50015 0 1 0 16 21.558594 L 16 21 C 16 16.563558 19.563558 13 24 13 C 28.436442 13 32 16.563558 32 21 L 32 21.558594 A 1.50015 1.50015 0 1 0 35 21.558594 L 35 21 C 35 14.942442 30.057558 10 24 10 z M 24 16 C 22.458334 16 21.112148 16.632133 20.253906 17.597656 C 19.395664 18.563179 19 19.791667 19 21 C 19 22.208333 19.395664 23.436821 20.253906 24.402344 C 20.694447 24.897953 21.269613 25.294815 21.927734 25.574219 L 15.115234 41.923828 A 1.50015 1.50015 0 1 0 17.884766 43.076172 L 24 28.400391 L 30.115234 43.076172 A 1.50015 1.50015 0 1 0 32.884766 41.923828 L 26.072266 25.574219 C 26.730387 25.294815 27.305553 24.897953 27.746094 24.402344 C 28.604336 23.436821 29 22.208333 29 21 C 29 19.791667 28.604336 18.563179 27.746094 17.597656 C 26.887852 16.632133 25.541666 16 24 16 z M 24 19 C 24.791666 19 25.195482 19.242867 25.503906 19.589844 C 25.81233 19.936821 26 20.458333 26 21 C 26 21.541667 25.81233 22.063179 25.503906 22.410156 C 25.195482 22.757133 24.791666 23 24 23 C 23.208334 23 22.804518 22.757133 22.496094 22.410156 C 22.18767 22.063179 22 21.541667 22 21 C 22 20.458333 22.18767 19.936821 22.496094 19.589844 C 22.804518 19.242867 23.208334 19 24 19 z"></path></svg>