<svg xmlns:xlink="http://www.w3.org/1999/xlink" xmlns="http://www.w3.org/2000/svg" viewBox="0 0 48 48" width="172"  height="172" ><path d="M 9.5 7 C 6.4802259 7 4 9.4802259 4 12.5 L 4 35.5 C 4 38.519774 6.4802259 41 9.5 41 L 38.5 41 C 41.519774 41 44 38.519774 44 35.5 L 44 12.5 C 44 9.4802259 41.519774 7 38.5 7 L 9.5 7 z M 9.5 10 L 38.5 10 C 39.898226 10 41 11.101774 41 12.5 L 41 35.5 C 41 36.898226 39.898226 38 38.5 38 L 9.5 38 C 8.1017741 38 7 36.898226 7 35.5 L 7 12.5 C 7 11.101774 8.1017741 10 9.5 10 z M 16 18 C 15.487 18 15.026891 18.313016 14.837891 18.791016 L 11.087891 28.291016 C 10.834891 28.933016 11.149016 29.658109 11.791016 29.912109 C 12.435016 30.166109 13.158109 29.850984 13.412109 29.208984 L 13.792969 28.25 L 18.210938 28.25 L 18.589844 29.208984 C 18.781844 29.700984 19.252953 30 19.751953 30 C 19.903953 30 20.058984 29.972109 20.208984 29.912109 C 20.850984 29.659109 21.165109 28.933016 20.912109 28.291016 L 17.162109 18.791016 C 16.973109 18.313016 16.513 18 16 18 z M 24.25 18 C 23.56 18 23 18.56 23 19.25 L 23 28.75 C 23 29.44 23.56 30 24.25 30 C 24.94 30 25.5 29.44 25.5 28.75 L 25.5 27 L 27.5 27 C 29.981 27 32 24.981 32 22.5 C 32 20.019 29.981 18 27.5 18 L 24.25 18 z M 35.25 18 C 34.56 18 34 18.56 34 19.25 L 34 28.75 C 34 29.44 34.56 30 35.25 30 C 35.94 30 36.5 29.44 36.5 28.75 L 36.5 19.25 C 36.5 18.56 35.94 18 35.25 18 z M 25.5 20.5 L 27.5 20.5 C 28.603 20.5 29.5 21.397 29.5 22.5 C 29.5 23.603 28.603 24.5 27.5 24.5 L 25.5 24.5 L 25.5 20.5 z M 16 22.654297 L 17.222656 25.75 L 14.777344 25.75 L 16 22.654297 z"></path></svg>