<svg fill="#000000" xmlns="http://www.w3.org/2000/svg"  viewBox="0 0 48 48" width="48px" height="48px"><path d="M 11.5 6 C 8.4802259 6 6 8.4802259 6 11.5 L 6 36.5 C 6 39.519774 8.4802259 42 11.5 42 L 36.5 42 C 39.519774 42 42 39.519774 42 36.5 L 42 11.5 C 42 8.4802259 39.519774 6 36.5 6 L 11.5 6 z M 11.5 9 L 36.5 9 C 37.898226 9 39 10.101774 39 11.5 L 39 36.5 C 39 37.898226 37.898226 39 36.5 39 L 11.5 39 C 10.101774 39 9 37.898226 9 36.5 L 9 11.5 C 9 10.101774 10.101774 9 11.5 9 z M 17.970703 12.972656 A 2.0002 2.0002 0 0 0 16 15 L 16 25.5 C 16 28.194444 16.931876 30.635001 18.648438 32.351562 C 20.364999 34.068124 22.805556 35 25.5 35 C 30.17078 35 34 31.17078 34 26.5 C 34 21.82922 30.17078 18 25.5 18 L 24 18 A 2.0002 2.0002 0 1 0 24 22 L 25.5 22 C 28.00922 22 30 23.99078 30 26.5 C 30 29.00922 28.00922 31 25.5 31 C 23.694444 31 22.385001 30.431876 21.476562 29.523438 C 20.568124 28.614999 20 27.305556 20 25.5 L 20 15 A 2.0002 2.0002 0 0 0 17.970703 12.972656 z"/></svg>