<svg xmlns:xlink="http://www.w3.org/1999/xlink" xmlns="http://www.w3.org/2000/svg" viewBox="0 0 48 48" width="172"  height="172" ><path d="M 9.5 12 C 6.4802259 12 4 14.480226 4 17.5 L 4 30.5 C 4 33.519774 6.4802259 36 9.5 36 L 34.5 36 C 37.519774 36 40 33.519774 40 30.5 L 40 28 L 42 28 C 43.105 28 44 27.105 44 26 L 44 22 C 44 20.895 43.105 20 42 20 L 40 20 L 40 17.5 C 40 14.480226 37.519774 12 34.5 12 L 9.5 12 z M 9.5 15 L 34.5 15 C 35.898226 15 37 16.101774 37 17.5 L 37 30.5 C 37 31.898226 35.898226 33 34.5 33 L 9.5 33 C 8.1017741 33 7 31.898226 7 30.5 L 7 17.5 C 7 16.101774 8.1017741 15 9.5 15 z M 20.804688 18.005859 C 20.672562 17.988734 20.535156 18.009359 20.410156 18.068359 C 20.159156 18.185359 20 18.437844 20 18.714844 L 20 24 L 13.890625 22.021484 C 13.566625 21.938484 13.230125 22.091672 13.078125 22.388672 C 13.025125 22.491672 13 22.604844 13 22.714844 C 13 22.921844 13.090812 23.124672 13.257812 23.263672 L 22.828125 29.833984 C 23.042125 30.011984 23.337891 30.050594 23.587891 29.933594 C 23.839891 29.815594 24 29.562156 24 29.285156 L 24 24 L 30.109375 25.978516 C 30.433375 26.061516 30.769875 25.908328 30.921875 25.611328 C 30.974875 25.508328 31 25.395156 31 25.285156 C 31 25.078156 30.909187 24.875328 30.742188 24.736328 L 21.171875 18.166016 C 21.065375 18.077516 20.936813 18.022984 20.804688 18.005859 z"></path></svg>