<svg xmlns:xlink="http://www.w3.org/1999/xlink" xmlns="http://www.w3.org/2000/svg" viewBox="0 0 48 48" width="172" height="172">
  <path
    d="M 16.5 4 C 14.032499 4 12 6.0324991 12 8.5 L 12 39.5 C 12 41.967501 14.032499 44 16.5 44 L 31.5 44 C 33.967501 44 36 41.967501 36 39.5 L 36 8.5 C 36 6.0324991 33.967501 4 31.5 4 L 16.5 4 z M 16.5 7 L 31.5 7 C 32.346499 7 33 7.6535009 33 8.5 L 33 39.5 C 33 40.346499 32.346499 41 31.5 41 L 16.5 41 C 15.653501 41 15 40.346499 15 39.5 L 15 8.5 C 15 7.6535009 15.653501 7 16.5 7 z M 19.476562 9.9785156 A 1.50015 1.50015 0 0 0 18 11.5 L 18 15.5 A 1.50015 1.50015 0 1 0 21 15.5 L 21 11.5 A 1.50015 1.50015 0 0 0 19.476562 9.9785156 z"
  ></path>
</svg>
