<svg xmlns:xlink="http://www.w3.org/1999/xlink" xmlns="http://www.w3.org/2000/svg" viewBox="0 0 48 48" width="172"  height="172" ><path d="M 30.978516 2 A 1.50015 1.50015 0 0 0 29.939453 2.4394531 L 9.4394531 22.939453 A 1.50015 1.50015 0 0 0 9.4394531 25.060547 L 29.939453 45.560547 A 1.50015 1.50015 0 0 0 32.060547 45.560547 L 38.560547 39.060547 A 1.50015 1.50015 0 0 0 38.560547 36.939453 L 25.621094 24 L 38.560547 11.060547 A 1.50015 1.50015 0 0 0 38.560547 8.9394531 L 32.060547 2.4394531 A 1.50015 1.50015 0 0 0 30.978516 2 z M 31 5.6210938 L 35.378906 10 L 22.439453 22.939453 A 1.50015 1.50015 0 0 0 22.439453 25.060547 L 35.378906 38 L 31 42.378906 L 12.621094 24 L 31 5.6210938 z"></path></svg>