<svg xmlns:xlink="http://www.w3.org/1999/xlink" xmlns="http://www.w3.org/2000/svg" viewBox="0 0 48 48" width="172"  height="172" ><path d="M 23.978516 9 A 1.50015 1.50015 0 0 0 22.939453 9.4394531 L 2.4394531 29.939453 A 1.50015 1.50015 0 0 0 2.4394531 32.060547 L 8.9394531 38.560547 A 1.50015 1.50015 0 0 0 11.060547 38.560547 L 24 25.621094 L 36.939453 38.560547 A 1.50015 1.50015 0 0 0 39.060547 38.560547 L 45.560547 32.060547 A 1.50015 1.50015 0 0 0 45.560547 29.939453 L 25.060547 9.4394531 A 1.50015 1.50015 0 0 0 23.978516 9 z M 24 12.621094 L 42.378906 31 L 38 35.378906 L 25.060547 22.439453 A 1.50015 1.50015 0 0 0 22.939453 22.439453 L 10 35.378906 L 5.6210938 31 L 24 12.621094 z"></path></svg>