<svg xmlns:xlink="http://www.w3.org/1999/xlink" xmlns="http://www.w3.org/2000/svg" viewBox="0 0 48 48" width="172"  height="172" ><path d="M 9.9785156 9 A 1.50015 1.50015 0 0 0 8.9394531 9.4394531 L 2.4394531 15.939453 A 1.50015 1.50015 0 0 0 2.4394531 18.060547 L 22.939453 38.560547 A 1.50015 1.50015 0 0 0 25.060547 38.560547 L 45.560547 18.060547 A 1.50015 1.50015 0 0 0 45.560547 15.939453 L 39.060547 9.4394531 A 1.50015 1.50015 0 0 0 36.939453 9.4394531 L 24 22.378906 L 11.060547 9.4394531 A 1.50015 1.50015 0 0 0 9.9785156 9 z M 10 12.621094 L 22.939453 25.560547 A 1.50015 1.50015 0 0 0 25.060547 25.560547 L 38 12.621094 L 42.378906 17 L 24 35.378906 L 5.6210938 17 L 10 12.621094 z"></path></svg>