<svg xmlns:xlink="http://www.w3.org/1999/xlink" xmlns="http://www.w3.org/2000/svg" viewBox="0 0 48 48" width="172"  height="172" ><path d="M 5.5 12 C 2.4802259 12 0 14.480226 0 17.5 L 0 30.5 C 0 33.519774 2.4802259 36 5.5 36 L 42.5 36 C 45.519774 36 48 33.519774 48 30.5 L 48 17.5 C 48 14.480226 45.519774 12 42.5 12 L 5.5 12 z M 5.5 15 L 15 15 L 15 33 L 5.5 33 C 4.1017741 33 3 31.898226 3 30.5 L 3 17.5 C 3 16.101774 4.1017741 15 5.5 15 z M 18 15 L 30 15 L 30 33 L 18 33 L 18 15 z M 33 15 L 42.5 15 C 43.898226 15 45 16.101774 45 17.5 L 45 30.5 C 45 31.898226 43.898226 33 42.5 33 L 33 33 L 33 15 z M 9 18 C 6.794 18 5 19.794 5 22 L 5 26 C 5 28.206 6.794 30 9 30 C 11.206 30 13 28.206 13 26 L 13 22 C 13 19.794 11.206 18 9 18 z M 24 18 C 21.794 18 20 19.794 20 22 L 20 26 C 20 28.206 21.794 30 24 30 C 26.206 30 28 28.206 28 26 L 28 22 C 28 19.794 26.206 18 24 18 z M 35.134766 18 C 35.052766 18.318 35.009766 18.649187 35.009766 18.992188 C 35.009766 21.201187 36.800953 23 39.001953 23 C 41.210953 23 43.009766 21.202188 43.009766 18.992188 C 43.009766 18.649188 42.964813 18.317 42.882812 18 L 40.121094 18 C 40.367094 18.272 40.507812 18.622187 40.507812 18.992188 C 40.507812 19.823187 39.832953 20.5 39.001953 20.5 C 38.178953 20.5 37.507813 19.823187 37.507812 18.992188 C 37.507812 18.622187 37.648531 18.271 37.894531 18 L 35.134766 18 z M 9 20.5 C 9.827 20.5 10.5 21.173 10.5 22 L 10.5 26 C 10.5 26.827 9.827 27.5 9 27.5 C 8.173 27.5 7.5 26.827 7.5 26 L 7.5 22 C 7.5 21.173 8.173 20.5 9 20.5 z M 24 20.5 C 24.827 20.5 25.5 21.173 25.5 22 L 25.5 26 C 25.5 26.827 24.827 27.5 24 27.5 C 23.173 27.5 22.5 26.827 22.5 26 L 22.5 22 C 22.5 21.173 23.173 20.5 24 20.5 z M 36.25 25 C 35.56 25 35 25.56 35 26.25 C 35 26.94 35.56 27.5 36.25 27.5 L 39.775391 27.5 L 38.591797 30 L 41.357422 30 L 42.880859 26.785156 C 43.063859 26.398156 43.035641 25.943078 42.806641 25.580078 C 42.577641 25.217078 42.179 25 41.75 25 L 36.25 25 z"></path></svg>