<svg xmlns:xlink="http://www.w3.org/1999/xlink" xmlns="http://www.w3.org/2000/svg" viewBox="0 0 48 48" width="172"  height="172" ><path d="M 11.5 6 C 8.4802259 6 6 8.4802259 6 11.5 L 6 36.5 C 6 39.519774 8.4802259 42 11.5 42 L 36.5 42 C 39.519774 42 42 39.519774 42 36.5 L 42 11.5 C 42 8.4802259 39.519774 6 36.5 6 L 11.5 6 z M 11.5 9 L 36.5 9 C 37.898226 9 39 10.101774 39 11.5 L 39 36.5 C 39 37.898226 37.898226 39 36.5 39 L 11.5 39 C 10.101774 39 9 37.898226 9 36.5 L 9 11.5 C 9 10.101774 10.101774 9 11.5 9 z M 19 12 A 1.5 1.5 0 0 0 19 15 A 1.5 1.5 0 0 0 19 12 z M 24 12 A 1.5 1.5 0 0 0 24 15 A 1.5 1.5 0 0 0 24 12 z M 29 12 A 1.5 1.5 0 0 0 29 15 A 1.5 1.5 0 0 0 29 12 z M 13.5 17.5 A 1.5 1.5 0 0 0 13.5 20.5 A 1.5 1.5 0 0 0 13.5 17.5 z M 34.5 17.5 A 1.5 1.5 0 0 0 34.5 20.5 A 1.5 1.5 0 0 0 34.5 17.5 z M 20.5 18 C 19.136406 18 18 19.136406 18 20.5 L 18 27.5 C 18 28.863594 19.136406 30 20.5 30 L 27.5 30 C 28.863594 30 30 28.863594 30 27.5 L 30 20.5 C 30 19.136406 28.863594 18 27.5 18 L 20.5 18 z M 21 21 L 27 21 L 27 27 L 21 27 L 21 21 z M 13.5 22.5 A 1.5 1.5 0 0 0 13.5 25.5 A 1.5 1.5 0 0 0 13.5 22.5 z M 34.5 22.5 A 1.5 1.5 0 0 0 34.5 25.5 A 1.5 1.5 0 0 0 34.5 22.5 z M 13.5 27.5 A 1.5 1.5 0 0 0 13.5 30.5 A 1.5 1.5 0 0 0 13.5 27.5 z M 34.5 27.5 A 1.5 1.5 0 0 0 34.5 30.5 A 1.5 1.5 0 0 0 34.5 27.5 z M 19 33 A 1.5 1.5 0 0 0 19 36 A 1.5 1.5 0 0 0 19 33 z M 24 33 A 1.5 1.5 0 0 0 24 36 A 1.5 1.5 0 0 0 24 33 z M 29 33 A 1.5 1.5 0 0 0 29 36 A 1.5 1.5 0 0 0 29 33 z"></path></svg>