<svg xmlns:xlink="http://www.w3.org/1999/xlink" xmlns="http://www.w3.org/2000/svg" viewBox="0 0 48 48" width="172"  height="172" ><path d="M 24 6 C 22.625 6 21.403815 6.5696334 20.628906 7.4414062 C 19.853997 8.3131791 19.5 9.4166668 19.5 10.5 C 19.5 11.583333 19.853997 12.686821 20.628906 13.558594 C 20.910111 13.874949 21.265624 14.133425 21.650391 14.357422 L 17.199219 21.199219 L 10.318359 14.943359 C 10.778586 14.194635 11 13.342991 11 12.5 C 11 11.416667 10.646003 10.313179 9.8710938 9.4414062 C 9.0961849 8.5696335 7.8749997 8 6.5 8 C 5.1250003 8 3.9038151 8.5696335 3.1289062 9.4414062 C 2.3539975 10.313179 2 11.416667 2 12.5 C 2 13.583333 2.3539974 14.686821 3.1289062 15.558594 C 3.7397868 16.245835 4.63006 16.739263 5.6523438 16.919922 L 9 33.650391 L 9 38.5 C 9 40.43 10.57 42 12.5 42 L 35.5 42 C 37.43 42 39 40.43 39 38.5 L 39 33.650391 L 42.347656 16.919922 C 43.36994 16.739263 44.260213 16.245835 44.871094 15.558594 C 45.646003 14.686821 46 13.583333 46 12.5 C 46 11.416667 45.646003 10.313179 44.871094 9.4414062 C 44.096185 8.5696335 42.875 8 41.5 8 C 40.125 8 38.903815 8.5696335 38.128906 9.4414062 C 37.353997 10.313179 37 11.416667 37 12.5 C 37 13.342991 37.221414 14.194635 37.681641 14.943359 L 30.800781 21.199219 L 26.349609 14.357422 C 26.734376 14.133425 27.089889 13.874949 27.371094 13.558594 C 28.146003 12.686821 28.5 11.583333 28.5 10.5 C 28.5 9.4166668 28.146003 8.3131791 27.371094 7.4414062 C 26.596185 6.5696334 25.375 6 24 6 z M 24 9 C 24.624999 9 24.903816 9.1803665 25.128906 9.4335938 C 25.353997 9.6868209 25.5 10.083333 25.5 10.5 C 25.5 10.916667 25.353997 11.313179 25.128906 11.566406 C 24.903816 11.819633 24.624999 12 24 12 C 23.375001 12 23.096184 11.819633 22.871094 11.566406 C 22.646003 11.313179 22.5 10.916667 22.5 10.5 C 22.5 10.083333 22.646003 9.6868209 22.871094 9.4335938 C 23.096184 9.1803665 23.375001 9 24 9 z M 6.5 11 C 7.1249994 11 7.4038156 11.180367 7.6289062 11.433594 C 7.8539969 11.686821 8 12.083333 8 12.5 C 8 12.916667 7.8539969 13.313179 7.6289062 13.566406 C 7.4038156 13.819633 7.1249994 14 6.5 14 C 5.8750006 14 5.5961844 13.819633 5.3710938 13.566406 C 5.1460031 13.313179 5 12.916667 5 12.5 C 5 12.083333 5.1460031 11.686821 5.3710938 11.433594 C 5.5961844 11.180367 5.8750006 11 6.5 11 z M 41.5 11 C 42.124999 11 42.403816 11.180367 42.628906 11.433594 C 42.853997 11.686821 43 12.083333 43 12.5 C 43 12.916667 42.853997 13.313179 42.628906 13.566406 C 42.403816 13.819633 42.124999 14 41.5 14 C 40.875001 14 40.596184 13.819633 40.371094 13.566406 C 40.146003 13.313179 40 12.916667 40 12.5 C 40 12.083333 40.146003 11.686821 40.371094 11.433594 C 40.596184 11.180367 40.875001 11 41.5 11 z M 24 16.25 L 29.240234 24.320312 C 29.480234 24.690313 29.870547 24.930234 30.310547 24.990234 C 30.750547 25.050234 31.179766 24.909375 31.509766 24.609375 L 39.130859 17.679688 L 36.271484 32 L 11.728516 32 L 8.8691406 17.679688 L 16.490234 24.609375 C 16.820234 24.909375 17.259453 25.050234 17.689453 24.990234 C 18.129453 24.930234 18.519766 24.690313 18.759766 24.320312 L 24 16.25 z M 12 35 L 36 35 L 36 38.5 C 36 38.78 35.78 39 35.5 39 L 12.5 39 C 12.22 39 12 38.78 12 38.5 L 12 35 z"></path></svg>