<svg xmlns:xlink="http://www.w3.org/1999/xlink" xmlns="http://www.w3.org/2000/svg" viewBox="0 0 48 48" width="172"  height="172" ><path d="M 24 6 C 12.972292 6 4 14.972292 4 26 C 4 32.350208 6.9802044 38.015855 11.601562 41.675781 A 1.50015 1.50015 0 0 0 12.53125 42 L 35.466797 42 A 1.50015 1.50015 0 0 0 36.398438 41.675781 C 41.020865 38.015864 44 32.350208 44 26 C 44 14.972292 35.027708 6 24 6 z M 24 9 C 33.406292 9 41 16.593708 41 26 C 41 31.247414 38.593054 35.880681 34.863281 39 L 13.134766 39 C 9.4059116 35.880682 7 31.247352 7 26 C 7 16.593708 14.593708 9 24 9 z M 24 13 C 16.838262 13 11 18.838262 11 26 C 11 29.231666 12.187333 32.204138 14.146484 34.478516 A 1.50015 1.50015 0 1 0 16.417969 32.521484 C 14.90912 30.769862 14 28.500334 14 26 C 14 20.459738 18.459738 16 24 16 C 25.064262 16 26.085809 16.164899 27.044922 16.470703 A 1.50015 1.50015 0 1 0 27.955078 13.613281 C 26.706191 13.215085 25.375738 13 24 13 z M 31.720703 16.736328 A 1.50015 1.50015 0 0 0 30.689453 17.189453 L 24.773438 23.105469 A 3 3 0 0 0 24 23 A 3 3 0 0 0 24 29 A 3 3 0 0 0 26.896484 25.224609 L 32.810547 19.310547 A 1.50015 1.50015 0 0 0 31.720703 16.736328 z M 34.916016 20.980469 A 1.50015 1.50015 0 0 0 33.529297 22.955078 C 33.835101 23.914191 34 24.935738 34 26 C 34 28.499206 33.091169 30.768656 31.582031 32.521484 A 1.50015 1.50015 0 1 0 33.855469 34.478516 C 35.814331 32.203344 37 29.230794 37 26 C 37 24.624262 36.784915 23.293809 36.386719 22.044922 A 1.50015 1.50015 0 0 0 34.916016 20.980469 z"></path></svg>