<svg xmlns:xlink="http://www.w3.org/1999/xlink" xmlns="http://www.w3.org/2000/svg" viewBox="0 0 48 48" width="172"  height="172" ><path d="M 14.25 5.0136719 C 11.093377 4.9443083 7.9167304 6.1113615 5.5136719 8.5136719 C 0.83924184 13.186962 0.83924184 20.811085 5.5136719 25.484375 C 9.6447597 29.615463 22.953125 42.574219 22.953125 42.574219 A 1.50015 1.50015 0 0 0 25.046875 42.574219 C 25.046875 42.574219 38.35551 29.616139 42.486328 25.486328 C 47.160462 20.812194 47.160672 13.188829 42.486328 8.515625 C 38.825321 4.8546179 33.365824 4.0630986 28.919922 6.1425781 A 1.50015 1.50015 0 0 0 28.044922 7.1582031 L 26.044922 15.134766 A 1.50015 1.50015 0 0 0 27.5 17 L 30.005859 17 L 25 26.423828 L 24.492188 21.351562 A 1.50015 1.50015 0 0 0 23 20 L 19.111328 20 L 19.996094 7.6074219 A 1.50015 1.50015 0 0 0 18.626953 6.0078125 C 17.646501 5.5962637 16.638293 5.2591856 15.599609 5.1191406 C 15.15181 5.0587641 14.700946 5.023581 14.25 5.0136719 z M 14.193359 8.0097656 C 14.531089 8.0177657 14.867796 8.0440249 15.203125 8.0898438 C 15.791611 8.1702538 16.351196 8.3993317 16.917969 8.5957031 L 16.003906 21.392578 A 1.50015 1.50015 0 0 0 17.5 23 L 21.642578 23 L 22.507812 31.648438 A 1.50015 1.50015 0 0 0 25.324219 32.203125 L 33.824219 16.203125 A 1.50015 1.50015 0 0 0 32.5 14 L 29.421875 14 L 30.753906 8.6933594 C 33.976894 7.436967 37.753282 8.0247664 40.365234 10.636719 C 43.89249 14.163115 43.891899 19.835329 40.365234 23.363281 C 36.538772 27.188811 25.430532 38.006907 24 39.400391 C 22.569454 38.006889 11.460975 27.189491 7.6347656 23.363281 C 4.1071956 19.836571 4.1071956 14.163429 7.6347656 10.636719 C 9.4474571 8.8245914 11.829249 7.9537649 14.193359 8.0097656 z"></path></svg>