<svg xmlns:xlink="http://www.w3.org/1999/xlink" xmlns="http://www.w3.org/2000/svg" viewBox="0 0 48 48" width="172"  height="172" ><path d="M 8.5 8 C 6.0324991 8 4 10.032499 4 12.5 L 4 35.5 C 4 37.967501 6.0324991 40 8.5 40 L 39.5 40 C 41.967501 40 44 37.967501 44 35.5 L 44 12.5 C 44 10.032499 41.967501 8 39.5 8 L 8.5 8 z M 8.5 11 L 39.5 11 C 40.346499 11 41 11.653501 41 12.5 L 41 35.5 C 41 36.346499 40.346499 37 39.5 37 L 8.5 37 C 7.6535009 37 7 36.346499 7 35.5 L 7 12.5 C 7 11.653501 7.6535009 11 8.5 11 z M 10.5 17 A 1.5 1.5 0 0 0 10.5 20 A 1.5 1.5 0 0 0 10.5 17 z M 15.5 17 A 1.50015 1.50015 0 1 0 15.5 20 L 20.5 20 A 1.50015 1.50015 0 1 0 20.5 17 L 15.5 17 z M 27.5 17 A 1.5 1.5 0 0 0 27.5 20 A 1.5 1.5 0 0 0 27.5 17 z M 32.5 17 A 1.50015 1.50015 0 1 0 32.5 20 L 37.5 20 A 1.50015 1.50015 0 1 0 37.5 17 L 32.5 17 z M 10.5 23 A 1.5 1.5 0 0 0 10.5 26 A 1.5 1.5 0 0 0 10.5 23 z M 15.5 23 A 1.50015 1.50015 0 1 0 15.5 26 L 20.5 26 A 1.50015 1.50015 0 1 0 20.5 23 L 15.5 23 z M 27.5 23 A 1.5 1.5 0 0 0 27.5 26 A 1.5 1.5 0 0 0 27.5 23 z M 32.5 23 A 1.50015 1.50015 0 1 0 32.5 26 L 37.5 26 A 1.50015 1.50015 0 1 0 37.5 23 L 32.5 23 z M 10.5 29 A 1.5 1.5 0 0 0 10.5 32 A 1.5 1.5 0 0 0 10.5 29 z M 15.5 29 A 1.50015 1.50015 0 1 0 15.5 32 L 20.5 32 A 1.50015 1.50015 0 1 0 20.5 29 L 15.5 29 z M 27.5 29 A 1.5 1.5 0 0 0 27.5 32 A 1.5 1.5 0 0 0 27.5 29 z M 32.5 29 A 1.50015 1.50015 0 1 0 32.5 32 L 37.5 32 A 1.50015 1.50015 0 1 0 37.5 29 L 32.5 29 z"></path></svg>