<svg width="8" height="6" viewBox="0 0 8 6" fill="none" xmlns="http://www.w3.org/2000/svg">
<path d="M7.33346 5.00952C7.51027 5.00952 7.67984 4.93928 7.80486 4.81425C7.92988 4.68923 8.00012 4.51966 8.00012 4.34285C8.00012 4.16604 7.92988 3.99647 7.80486 3.87144C7.67984 3.74642 7.51027 3.67618 7.33346 3.67618C7.15664 3.67618 6.98708 3.74642 6.86205 3.87144C6.73703 3.99647 6.66679 4.16604 6.66679 4.34285C6.66679 4.51966 6.73703 4.68923 6.86205 4.81425C6.98708 4.93928 7.15664 5.00952 7.33346 5.00952ZM5.33346 5.00952C5.51027 5.00952 5.67984 4.93928 5.80486 4.81425C5.92988 4.68923 6.00012 4.51966 6.00012 4.34285C6.00012 4.16604 5.92988 3.99647 5.80486 3.87145C5.67984 3.74642 5.51027 3.67618 5.33346 3.67618C5.15664 3.67618 4.98708 3.74642 4.86205 3.87145C4.73703 3.99647 4.66679 4.16604 4.66679 4.34285C4.66679 4.51966 4.73703 4.68923 4.86205 4.81425C4.98708 4.93928 5.15664 5.00952 5.33346 5.00952ZM3.33346 5.00952C3.4218 5.01077 3.50951 4.99444 3.59149 4.9615C3.67346 4.92856 3.74808 4.87965 3.81099 4.81762C3.8739 4.75559 3.92386 4.68168 3.95796 4.60017C3.99206 4.51867 4.00962 4.4312 4.00962 4.34285C4.00962 4.2545 3.99206 4.16703 3.95796 4.08553C3.92386 4.00402 3.8739 3.93011 3.81099 3.86808C3.74808 3.80605 3.67346 3.75714 3.59148 3.7242C3.50951 3.69125 3.4218 3.67493 3.33346 3.67618C1.32938 3.67618 1.33333 3.67618 1.33333 1.5C1.33458 1.41166 1.31826 1.32395 1.28532 1.24197C1.25238 1.15999 1.20347 1.08538 1.14144 1.02246C1.07941 0.959552 1.00549 0.909595 0.92399 0.875496C0.842485 0.841398 0.755016 0.823838 0.666666 0.823838C0.578316 0.823838 0.490846 0.841398 0.409341 0.875496C0.327837 0.909595 0.253923 0.959552 0.191893 1.02246C0.129864 1.08538 0.0809568 1.15999 0.0480143 1.24197C0.0150718 1.32395 -0.00124968 1.41166 -3.06818e-07 1.5C-3.06817e-07 4.9615 0.0480139 5.00952 3.33346 5.00952Z" fill="black"/>
</svg>
