<svg xmlns:xlink="http://www.w3.org/1999/xlink" xmlns="http://www.w3.org/2000/svg" viewBox="0 0 48 48" width="172" height="172">
  <path
    d="M 17.984375 2.984375 A 1.50015 1.50015 0 0 0 16.939453 5.5605469 L 18.878906 7.5 L 5.6113281 20.767578 C 3.4759922 22.902914 3.4759922 26.409586 5.6113281 28.544922 L 19.455078 42.388672 C 21.590414 44.524008 25.097086 44.524008 27.232422 42.388672 L 41.560547 28.060547 A 1.50015 1.50015 0 0 0 41.560547 25.939453 L 19.060547 3.4394531 A 1.50015 1.50015 0 0 0 17.984375 2.984375 z M 21 9.6210938 L 38.378906 27 L 35.378906 30 L 11.5 30 A 1.50015 1.50015 0 0 0 11.318359 30.009766 L 7.7324219 26.423828 C 6.7437578 25.435164 6.7437578 23.877336 7.7324219 22.888672 L 21 9.6210938 z M 14.308594 33 L 32.378906 33 L 25.111328 40.267578 C 24.122664 41.256242 22.564836 41.256242 21.576172 40.267578 L 14.308594 33 z M 41 34.529297 C 40.8315 34.529297 40.662312 34.615109 40.570312 34.787109 C 39.741312 36.335109 38 39.738 38 41 C 38 42.657 39.343 44 41 44 C 42.657 44 44 42.657 44 41 C 44 39.738 42.258688 36.335109 41.429688 34.787109 C 41.337688 34.615109 41.1685 34.529297 41 34.529297 z"
  ></path>
</svg>
