<svg fill="#000000" xmlns="http://www.w3.org/2000/svg"  viewBox="0 0 48 48" width="48px" height="48px"><path d="M 13.5 4 C 11.585045 4 10 5.5850452 10 7.5 L 10 42.5 A 1.50015 1.50015 0 0 0 12.671875 43.4375 L 24.220703 29 L 30.830078 29 C 32.511659 29 33.974453 27.781239 34.275391 26.126953 L 35.935547 16.998047 A 1.50015 1.50015 0 0 0 36.019531 16.53125 L 37.546875 8.1269531 A 1.50015 1.50015 0 0 0 37.548828 8.1269531 C 37.933656 6.0075738 36.25669 4 34.103516 4 L 13.5 4 z M 13.5 7 L 34.103516 7 C 34.444341 7 34.656832 7.253223 34.595703 7.5898438 L 33.248047 15 L 23.5 15 A 1.50015 1.50015 0 1 0 23.5 18 L 32.703125 18 L 31.322266 25.589844 C 31.277203 25.837558 31.082497 26 30.830078 26 L 23.5 26 A 1.50015 1.50015 0 0 0 22.328125 26.5625 L 13 38.222656 L 13 7.5 C 13 7.2049548 13.204955 7 13.5 7 z"/></svg>