<svg xmlns:xlink="http://www.w3.org/1999/xlink" xmlns="http://www.w3.org/2000/svg" viewBox="0 0 48 48" width="172"  height="172" ><path d="M 24 4 C 12.972066 4 4 12.972074 4 24 C 4 35.027926 12.972066 44 24 44 C 35.027934 44 44 35.027926 44 24 C 44 12.972074 35.027934 4 24 4 z M 24 7 C 27.174852 7 30.132364 7.8809063 32.671875 9.3886719 C 32.57538 9.4885937 32.491124 9.6031035 32.441406 9.7441406 L 32.242188 10.310547 C 32.097187 10.722547 32.237891 11.180406 32.587891 11.441406 L 32.933594 11.701172 C 33.466594 12.101172 33.466594 12.900781 32.933594 13.300781 L 32.494141 13.630859 C 32.318141 13.762859 32.106531 13.830078 31.894531 13.830078 C 31.742531 13.830078 31.588266 13.795609 31.447266 13.724609 L 30.212891 13.105469 C 30.072891 13.035469 29.918672 13 29.763672 13 L 27.306641 13 C 27.014641 13 26.738828 13.128609 26.548828 13.349609 L 24.240234 16.039062 C 23.998234 16.322063 23.934266 16.7175 24.072266 17.0625 L 24.283203 17.591797 C 24.445203 17.996797 24.826844 18.220703 25.214844 18.220703 C 25.465844 18.220703 25.720922 18.126734 25.919922 17.927734 C 25.919922 17.927734 26.562344 17.630063 26.777344 16.664062 C 26.865344 16.265062 27.24725 16 27.65625 16 L 28.599609 16 C 28.856609 16 29.103062 16.099344 29.289062 16.277344 L 29.783203 16.748047 C 30.189203 17.136047 30.197781 17.782687 29.800781 18.179688 L 29.029297 18.951172 C 28.936297 19.043172 28.826078 19.117969 28.705078 19.167969 L 25.628906 20.447266 C 25.543906 20.482266 25.464578 20.528937 25.392578 20.585938 L 22.615234 22.783203 C 22.437234 22.923203 22.220141 23 21.994141 23 L 21.5 23 C 20.672 23 20 23.672 20 24.5 C 20 25.328 20.672 26 21.5 26 L 21.732422 26 C 22.131422 26 22.522281 25.889641 22.863281 25.681641 L 24.896484 24.439453 C 25.058484 24.340453 25.238969 24.292969 25.417969 24.292969 C 25.698969 24.292969 25.974922 24.410766 26.169922 24.634766 L 27.064453 25.658203 C 27.254453 25.875203 27.529359 26 27.818359 26 L 28 26 C 28.552 26 29 25.552 29 25 L 29 24.394531 C 29 24.141531 29.095578 23.898891 29.267578 23.712891 L 30.410156 22.484375 C 30.485156 22.404375 30.572922 22.337156 30.669922 22.285156 L 32.527344 21.289062 C 32.681344 21.207062 32.841047 21.169922 32.998047 21.169922 C 33.522047 21.169922 34 21.588922 34 22.169922 L 34 23 C 34 23.552 33.552 24 33 24 L 32 24 C 31.448 24 31 24.448 31 25 C 31 25.552 31.448 26 32 26 L 33.46875 26 C 33.80075 26 34.112828 26.164453 34.298828 26.439453 L 36.462891 29.646484 C 36.656891 29.934484 36.972969 30.085938 37.292969 30.085938 C 37.510969 30.085938 37.732969 30.015187 37.917969 29.867188 L 38.626953 29.300781 C 38.862953 29.110781 39 28.822531 39 28.519531 L 39 28 C 39 27.448 38.552 27 38 27 C 37.448 27 37 26.552 37 26 C 37 25.448 37.448 25 38 25 L 38.359375 25 C 38.452375 25 38.544766 24.986937 38.634766 24.960938 L 40.986328 24.279297 C 40.919902 28.380916 39.412926 32.119948 36.943359 35.019531 C 36.979189 34.910768 37 34.797073 37 34.681641 L 37 34.085938 C 37 33.485937 36.514063 33 35.914062 33 C 35.548063 33 35.205859 32.815766 35.005859 32.509766 L 32.808594 28.578125 C 32.601594 28.262125 32.256391 28.087891 31.900391 28.087891 C 31.737391 28.087891 31.571016 28.124172 31.416016 28.201172 L 29.107422 29.466797 C 28.955422 29.542797 28.789047 29.580078 28.623047 29.580078 C 28.508047 29.580078 28.39225 29.562391 28.28125 29.525391 L 24.548828 28.173828 C 24.214828 28.062828 23.868484 28.007812 23.521484 28.007812 C 23.174484 28.007812 22.826187 28.062828 22.492188 28.173828 L 19.099609 29.525391 C 18.826609 29.616391 18.599703 29.811359 18.470703 30.068359 L 17.222656 32.556641 C 17.081656 32.838641 17.069453 33.166031 17.189453 33.457031 L 18.378906 36.328125 C 18.546906 36.734125 18.941859 37 19.380859 37 L 21.457031 37 C 21.799031 37 22.121172 36.839406 22.326172 36.566406 L 22.632812 36.158203 C 22.849812 35.868203 23.175953 35.724609 23.501953 35.724609 C 23.827953 35.724609 24.151141 35.869203 24.369141 36.158203 L 24.783203 36.710938 C 24.923203 36.898938 25 37.126328 25 37.361328 L 25 40.949219 C 24.667105 40.96854 24.33784 41 24 41 C 14.593385 41 7 33.406609 7 24 C 7 22.661441 7.1700722 21.365658 7.4609375 20.117188 L 9.0488281 19.207031 C 9.1828281 19.130031 9.3323281 19.091797 9.4863281 19.091797 L 10.117188 19.091797 C 10.605187 19.091797 11.001953 18.695031 11.001953 18.207031 L 11.001953 15.066406 C 11.001953 14.578406 11.396766 14.181641 11.884766 14.181641 C 12.266766 14.181641 12.605609 13.937219 12.724609 13.574219 L 14.314453 10.027344 C 15.121909 9.467268 15.983319 8.9856208 16.884766 8.5703125 L 15.056641 12.558594 C 14.821641 13.267594 15.348703 14 16.095703 14 L 18.332031 14 C 18.821031 14 19.288766 13.806937 19.634766 13.460938 L 21.775391 11.320312 C 21.980391 11.115312 22.095703 10.837875 22.095703 10.546875 L 22.095703 10.09375 C 22.095703 9.49075 21.605953 9 21.001953 9 L 20.548828 9 C 20.258828 9 19.979437 9.1153125 19.773438 9.3203125 L 19.095703 10 L 19.083984 8.7636719 C 19.080711 8.3839698 18.887769 8.0723593 18.613281 7.8808594 C 20.3066 7.3171846 22.114407 7 24 7 z M 36.330078 12.349609 L 36.371094 12.351562 C 38.633923 14.754456 40.196999 17.8133 40.755859 21.222656 L 38.076172 22 L 38 22 C 37.655 22 37.32 22.043953 37 22.126953 C 36.976 19.951953 35.20825 18.186922 33.03125 18.169922 C 33.07525 17.924922 33.09675 17.676781 33.09375 17.425781 C 33.09075 17.170781 33.062719 16.917922 33.011719 16.669922 C 33.472719 16.535922 33.908922 16.318297 34.294922 16.029297 L 34.734375 15.699219 C 35.736375 14.948219 36.333984 13.752 36.333984 12.5 C 36.333984 12.45 36.332078 12.399609 36.330078 12.349609 z M 21 16 C 20.448 16 20 16.448 20 17 L 20 18 C 20 18.552 20.448 19 21 19 C 21.552 19 22 18.552 22 18 L 22 17 C 22 16.448 21.552 16 21 16 z M 23.521484 31.009766 C 23.543484 31.009766 23.564937 31.012578 23.585938 31.017578 L 27.259766 32.349609 L 27.298828 32.363281 L 27.335938 32.376953 C 27.751938 32.514953 28.184047 32.583984 28.623047 32.583984 C 29.252047 32.583984 29.882313 32.435297 30.445312 32.154297 L 30.498047 32.128906 L 30.548828 32.101562 L 31.152344 31.769531 L 32.386719 33.976562 L 32.4375 34.068359 L 32.494141 34.15625 C 32.759141 34.56025 33.088891 34.9075 33.462891 35.1875 L 31.193359 39.392578 C 30.178996 39.866225 29.112256 40.24223 28 40.509766 L 28 37.363281 C 28 36.485281 27.710594 35.614109 27.183594 34.912109 L 26.769531 34.359375 C 26.002531 33.336375 24.78 32.726562 23.5 32.726562 C 22.421 32.726562 21.382047 33.161109 20.623047 33.912109 L 20.296875 33.123047 L 20.824219 32.070312 L 23.476562 31.013672 C 23.491563 31.010672 23.506484 31.009766 23.521484 31.009766 z"></path></svg>