<svg xmlns:xlink="http://www.w3.org/1999/xlink" xmlns="http://www.w3.org/2000/svg" viewBox="0 0 48 48" width="172" height="172">
  <path
    d="M 2.5 6 A 1.50015 1.50015 0 1 0 2.5 9 L 5 9 L 5 40.5 A 1.50015 1.50015 0 1 0 8 40.5 L 8 36 L 15 36 L 15 40.5 A 1.50015 1.50015 0 0 0 16.5 42 L 35.5 42 A 1.50015 1.50015 0 0 0 37 40.5 L 37 36 L 41.5 36 C 43.414955 36 45 34.414955 45 32.5 L 45 14.5 C 45 12.585045 43.414955 11 41.5 11 L 8 11 L 8 7.5 A 1.50015 1.50015 0 0 0 6.5 6 L 2.5 6 z M 8 14 L 41.5 14 C 41.795045 14 42 14.204955 42 14.5 L 42 32.5 C 42 32.795045 41.795045 33 41.5 33 L 8 33 L 8 14 z M 31.5 16 C 27.37563 16 24 19.375633 24 23.5 C 24 27.624367 27.37563 31 31.5 31 C 35.62437 31 39 27.624367 39 23.5 C 39 19.375633 35.62437 16 31.5 16 z M 12.5 19 A 1.50015 1.50015 0 1 0 12.5 22 L 18.5 22 A 1.50015 1.50015 0 1 0 18.5 19 L 12.5 19 z M 31.5 19 C 34.003051 19 36 20.99695 36 23.5 C 36 26.00305 34.003051 28 31.5 28 C 28.996949 28 27 26.00305 27 23.5 C 27 20.99695 28.996949 19 31.5 19 z M 12.5 25 A 1.50015 1.50015 0 1 0 12.5 28 L 18.5 28 A 1.50015 1.50015 0 1 0 18.5 25 L 12.5 25 z M 18 36 L 34 36 L 34 39 L 18 39 L 18 36 z"
  ></path>
</svg>
