<svg xmlns:xlink="http://www.w3.org/1999/xlink" xmlns="http://www.w3.org/2000/svg" viewBox="0 0 48 48" width="172"  height="172" ><path d="M 22.5 4 A 1.50015 1.50015 0 0 0 21.439453 4.4394531 L 13.439453 12.439453 A 1.50015 1.50015 0 0 0 13 13.5 L 13 17.5 A 1.50015 1.50015 0 0 0 13.439453 18.560547 L 18.378906 23.5 L 9.1113281 32.763672 A 1.50015 1.50015 0 0 0 8.875 32.976562 L 4.9355469 36.126953 C 3.7908449 37.042715 3.6914084 38.813011 4.7304688 39.849609 L 8.1484375 43.267578 C 9.1850067 44.304147 10.952724 44.208021 11.869141 43.0625 L 15.117188 39.001953 L 24.5 29.621094 L 29.439453 34.560547 A 1.50015 1.50015 0 0 0 30.5 35 L 34.5 35 A 1.50015 1.50015 0 0 0 35.560547 34.560547 L 43.560547 26.560547 A 1.50015 1.50015 0 0 0 44 25.5 L 44 21.5 A 1.50015 1.50015 0 0 0 43.560547 20.439453 L 38.621094 15.5 L 40.265625 13.855469 L 40.267578 13.853516 C 41.231225 12.890189 41.230313 11.281094 40.267578 10.318359 L 37.683594 7.734375 L 37.681641 7.7324219 C 37.200298 7.2509636 36.556565 7.0098303 35.914062 7.0097656 C 35.270705 7.0097009 34.628173 7.2507335 34.146484 7.7324219 L 32.5 9.3789062 L 27.560547 4.4394531 A 1.50015 1.50015 0 0 0 26.5 4 L 22.5 4 z M 23.121094 7 L 25.878906 7 L 31.230469 12.351562 A 1.50015 1.50015 0 0 0 31.660156 12.779297 L 35.230469 16.351562 A 1.50015 1.50015 0 0 0 35.660156 16.779297 L 41 22.121094 L 41 24.878906 L 33.878906 32 L 31.121094 32 L 25.769531 26.648438 A 1.50015 1.50015 0 0 0 25.339844 26.220703 L 21.726562 22.605469 A 1.50015 1.50015 0 0 0 21.392578 22.271484 L 16 16.878906 L 16 14.121094 L 23.121094 7 z M 35.914062 10.207031 L 37.792969 12.085938 L 36.5 13.378906 L 34.621094 11.5 L 35.914062 10.207031 z M 20.5 25.621094 L 22.378906 27.5 L 14.001953 35.876953 L 13.875 35.751953 L 12.123047 33.998047 L 20.5 25.621094 z M 9.8886719 36.007812 L 11.990234 38.109375 L 9.8769531 40.751953 L 7.2441406 38.121094 L 9.8886719 36.007812 z"></path></svg>