<svg xmlns:xlink="http://www.w3.org/1999/xlink" xmlns="http://www.w3.org/2000/svg" viewBox="0 0 48 48" width="172" height="172">
  <path
    d="M 21.5 4 A 1.50015 1.50015 0 0 0 20.185547 4.7773438 L 9.1855469 24.777344 A 1.50015 1.50015 0 0 0 10.5 27 L 17.261719 27 L 11.113281 41.929688 A 1.50015 1.50015 0 0 0 13.560547 43.560547 L 38.560547 18.560547 A 1.50015 1.50015 0 0 0 37.5 16 L 31.111328 16 L 36.794922 6.2558594 A 1.50015 1.50015 0 0 0 35.5 4 L 21.5 4 z M 22.386719 7 L 32.888672 7 L 27.205078 16.744141 A 1.50015 1.50015 0 0 0 28.5 19 L 33.878906 19 L 16.742188 36.136719 L 20.886719 26.070312 A 1.50015 1.50015 0 0 0 19.5 24 L 13.037109 24 L 22.386719 7 z"
  ></path>
</svg>
