<svg xmlns:xlink="http://www.w3.org/1999/xlink" xmlns="http://www.w3.org/2000/svg" viewBox="0 0 48 48" width="172"  height="172" ><path d="M 24 4 C 17.651052 4 11.984367 6.9768903 8.3242188 11.599609 A 1.50015 1.50015 0 1 0 10.675781 13.462891 C 13.791633 9.5276097 18.586948 7 24 7 C 33.406292 7 41 14.593708 41 24 C 41 33.406292 33.406292 41 24 41 C 18.586948 41 13.791633 38.47239 10.675781 34.537109 A 1.50015 1.50015 0 1 0 8.3242188 36.400391 C 11.984367 41.02311 17.651052 44 24 44 C 35.027708 44 44 35.027708 44 24 C 44 12.972292 35.027708 4 24 4 z M 11.470703 16.486328 A 1.50015 1.50015 0 0 0 10.439453 16.939453 L 4.4394531 22.939453 A 1.50015 1.50015 0 0 0 4.4394531 25.060547 L 10.439453 31.060547 A 1.50015 1.50015 0 1 0 12.560547 28.939453 L 9.1191406 25.498047 L 29.501953 25.480469 A 1.50015 1.50015 0 1 0 29.498047 22.480469 L 9.1230469 22.498047 L 12.560547 19.060547 A 1.50015 1.50015 0 0 0 11.470703 16.486328 z"></path></svg>