<svg fill="#000000" xmlns="http://www.w3.org/2000/svg" viewBox="0 0 48 48" width="48px" height="48px">
  <path
    d="M 31.453125 0 C 31.328859 0.004 31.204281 0.02284375 31.082031 0.05859375 C 30.850031 0.12659375 28.752656 0.78046875 26.597656 2.9804688 C 24.308656 5.3174688 24.018812 8.2402813 24.007812 8.3632812 C 23.963813 8.8442812 24.151625 9.3168125 24.515625 9.6328125 C 24.791625 9.8728125 25.142 10 25.5 10 C 25.614 10 25.72975 9.9879375 25.84375 9.9609375 C 25.96275 9.9329375 28.780953 9.245375 30.751953 6.609375 C 32.595953 4.146375 32.949375 1.9519375 32.984375 1.7109375 C 33.056375 1.2059375 32.866422 0.7001875 32.482422 0.3671875 C 32.194422 0.1159375 31.825922 -0.012 31.453125 0 z M 17 11 C 11.010201 11 6 16.324462 6 23.5 C 6 29.083333 7.8433115 34.076668 10.099609 37.726562 C 11.227759 39.55151 12.456768 41.042182 13.673828 42.126953 C 14.890888 43.211724 16.041667 44 17.5 44 C 19.333333 44 20.659178 43.347772 21.701172 42.857422 C 22.743166 42.367072 23.535714 42 25 42 C 26.464286 42 27.256834 42.367072 28.298828 42.857422 C 29.340822 43.347772 30.666667 44 32.5 44 C 34.468484 44 35.925594 42.666795 37.517578 40.847656 C 39.109562 39.028518 40.679063 36.529079 41.888672 33.566406 A 1.50015 1.50015 0 0 0 40.986328 31.582031 C 38.151738 30.610218 36 27.596723 36 23.75 C 36 20.406316 37.532491 17.589086 39.753906 16.296875 A 1.50015 1.50015 0 0 0 40.041016 13.919922 C 38.127926 12.074018 35.698879 11 33 11 C 30.964286 11 29.590822 11.652228 28.548828 12.142578 C 27.506834 12.632928 26.75 13 25 13 C 23.25 13 22.493166 12.632928 21.451172 12.142578 C 20.409178 11.652228 19.035714 11 17 11 z M 17 14 C 18.464286 14 19.090822 14.347772 20.173828 14.857422 C 21.256834 15.367072 22.75 16 25 16 C 27.25 16 28.743166 15.367072 29.826172 14.857422 C 30.909178 14.347772 31.535714 14 33 14 C 34.330615 14 35.453764 14.444031 36.515625 15.095703 C 34.300504 17.207268 33 20.324458 33 23.75 C 33 28.07909 35.217905 31.744564 38.525391 33.599609 C 37.529119 35.719739 36.380533 37.590408 35.259766 38.871094 C 33.92575 40.395455 32.530516 41 32.5 41 C 31.333333 41 30.659178 40.652228 29.576172 40.142578 C 28.493166 39.632928 27.035714 39 25 39 C 22.964286 39 21.506834 39.632928 20.423828 40.142578 C 19.340822 40.652228 18.666667 41 17.5 41 C 17.458333 41 16.609112 40.725776 15.669922 39.888672 C 14.730732 39.051568 13.647241 37.76099 12.650391 36.148438 C 10.656689 32.923332 9 28.416667 9 23.5 C 9 17.675538 12.771799 14 17 14 z"
  />
</svg>
