<svg xmlns:xlink="http://www.w3.org/1999/xlink" xmlns="http://www.w3.org/2000/svg" viewBox="0 0 48 48" width="172"  height="172" ><path d="M 9.5 12 C 6.4802259 12 4 14.480226 4 17.5 L 4 30.5 C 4 33.519774 6.4802259 36 9.5 36 L 34.5 36 C 37.519774 36 40 33.519774 40 30.5 L 40 28 L 42 28 C 43.105 28 44 27.105 44 26 L 44 22 C 44 20.895 43.105 20 42 20 L 40 20 L 40 17.5 C 40 14.480226 37.519774 12 34.5 12 L 9.5 12 z M 9.5 15 L 34.5 15 C 35.898226 15 37 16.101774 37 17.5 L 37 30.5 C 37 31.898226 35.898226 33 34.5 33 L 9.5 33 C 8.1017741 33 7 31.898226 7 30.5 L 7 17.5 C 7 16.101774 8.1017741 15 9.5 15 z M 12 18 C 10.895 18 10 18.895 10 20 L 10 28 C 10 29.105 10.895 30 12 30 L 20 30 C 21.105 30 22 29.105 22 28 L 22 20 C 22 18.895 21.105 18 20 18 L 12 18 z"></path></svg>