<svg xmlns:xlink="http://www.w3.org/1999/xlink" xmlns="http://www.w3.org/2000/svg" viewBox="0 0 48 48" width="172"  height="172" ><path d="M 23.988281 5.0625 A 1.50015 1.50015 0 0 0 23.382812 5.1816406 C 17.280742 5.503815 12.318014 10.315708 11.990234 16.419922 A 1.5002382 1.5002382 0 1 0 14.986328 16.582031 C 15.241198 11.835613 19.167441 8.0625 23.988281 8.0625 C 28.973242 8.0625 33.003906 12.090431 33.003906 17.070312 C 33.003906 21.231431 31.197512 22.724637 28.775391 24.771484 C 26.353269 26.818332 23.270823 29.314512 22.621094 34.300781 A 1.50015 1.50015 0 1 0 25.595703 34.689453 C 26.112974 30.719723 28.227809 29.160902 30.710938 27.0625 C 33.194066 24.964098 36.003906 22.222195 36.003906 17.070312 C 36.003906 10.680694 30.916291 5.5283569 24.605469 5.1875 A 1.50015 1.50015 0 0 0 23.988281 5.0625 z M 24 41 C 23.173 41 22.5 41.671047 22.5 42.498047 C 22.5 43.325047 23.173 43.998047 24 43.998047 C 24.827 43.998047 25.5 43.327 25.5 42.5 C 25.5 41.673 24.827 41 24 41 z"></path></svg>