<svg fill="#000000" xmlns="http://www.w3.org/2000/svg"  viewBox="0 0 48 48" width="48px" height="48px"><path d="M 35 5 C 33.125 5 31.528815 5.7571334 30.503906 6.9101562 C 29.478997 8.0631791 29 9.5416668 29 11 C 29 12.458333 29.478997 13.936821 30.503906 15.089844 C 31.528815 16.242867 33.125 17 35 17 C 36.875 17 38.471185 16.242867 39.496094 15.089844 C 40.521003 13.936821 41 12.458333 41 11 C 41 9.5416668 40.521003 8.0631791 39.496094 6.9101562 C 38.471185 5.7571334 36.875 5 35 5 z M 21.5 6 C 19.791667 6 18.320482 6.6946334 17.378906 7.7539062 C 16.437331 8.8131791 16 10.166667 16 11.5 C 16 12.833333 16.437331 14.186821 17.378906 15.246094 C 18.320482 16.305367 19.791667 17 21.5 17 C 23.208333 17 24.679518 16.305367 25.621094 15.246094 C 26.562669 14.186821 27 12.833333 27 11.5 C 27 10.166667 26.562669 8.8131791 25.621094 7.7539062 C 24.679518 6.6946334 23.208333 6 21.5 6 z M 10.5 8 C 9.1250003 8 7.9038151 8.5696335 7.1289062 9.4414062 C 6.3539974 10.313179 6 11.416667 6 12.5 C 6 13.583333 6.3539975 14.686821 7.1289062 15.558594 C 7.9038151 16.430367 9.1250003 17 10.5 17 C 11.875 17 13.096185 16.430367 13.871094 15.558594 C 14.646003 14.686821 15 13.583333 15 12.5 C 15 11.416667 14.646003 10.313179 13.871094 9.4414062 C 13.096185 8.5696335 11.875 8 10.5 8 z M 35 8 C 36.124999 8 36.778816 8.3678665 37.253906 8.9023438 C 37.728997 9.4368209 38 10.208333 38 11 C 38 11.791667 37.728997 12.563179 37.253906 13.097656 C 36.778816 13.632133 36.124999 14 35 14 C 33.875001 14 33.221184 13.632133 32.746094 13.097656 C 32.271003 12.563179 32 11.791667 32 11 C 32 10.208333 32.271003 9.4368209 32.746094 8.9023438 C 33.221184 8.3678665 33.875001 8 35 8 z M 21.5 9 C 22.458333 9 22.987149 9.3053665 23.378906 9.7460938 C 23.770664 10.186821 24 10.833333 24 11.5 C 24 12.166667 23.770664 12.813179 23.378906 13.253906 C 22.987149 13.694633 22.458333 14 21.5 14 C 20.541667 14 20.012851 13.694633 19.621094 13.253906 C 19.229336 12.813179 19 12.166667 19 11.5 C 19 10.833333 19.229336 10.186821 19.621094 9.7460938 C 20.012851 9.3053665 20.541667 9 21.5 9 z M 10.5 11 C 11.124999 11 11.403816 11.180367 11.628906 11.433594 C 11.853997 11.686821 12 12.083333 12 12.5 C 12 12.916667 11.853997 13.313179 11.628906 13.566406 C 11.403816 13.819633 11.124999 14 10.5 14 C 9.8750006 14 9.5961843 13.819633 9.3710938 13.566406 C 9.146003 13.313179 9 12.916667 9 12.5 C 9 12.083333 9.1460031 11.686821 9.3710938 11.433594 C 9.5961843 11.180367 9.8750006 11 10.5 11 z M 10.5 20 C 6.9280619 20 4 22.928062 4 26.5 L 4 35.5 A 1.50015 1.50015 0 0 0 5.5 37 L 13 37 L 13 38.5 A 1.50015 1.50015 0 0 0 14.5 40 L 26 40 L 26 41.5 A 1.50015 1.50015 0 0 0 27.5 43 L 42.5 43 A 1.50015 1.50015 0 0 0 44 41.5 L 44 29 C 44 24.047281 39.952719 20 35 20 C 32.249711 20 29.780818 21.250888 28.126953 23.208984 C 26.568392 21.258242 24.179887 20 21.5 20 C 19.182442 20 17.076061 20.940618 15.539062 22.457031 C 14.350454 20.970467 12.542594 20 10.5 20 z M 10.5 23 C 11.955967 23 13.170075 23.883047 13.699219 25.138672 C 13.250915 26.171315 13 27.306994 13 28.5 L 13 34 L 7 34 L 7 26.5 C 7 24.549938 8.5499381 23 10.5 23 z M 21.5 23 C 23.714606 23 25.587475 24.307802 26.462891 26.177734 C 26.16697 27.067026 26 28.014187 26 29 L 26 37 L 16 37 L 16 28.5 C 16 25.444657 18.444657 23 21.5 23 z M 35 23 C 38.331281 23 41 25.668719 41 29 L 41 40 L 29 40 L 29 29 C 29 25.668719 31.668719 23 35 23 z"/></svg>