<svg fill="#000000" xmlns="http://www.w3.org/2000/svg"  viewBox="0 0 48 48" width="48px" height="48px"><path d="M 24 4 C 12.972066 4 4 12.972074 4 24 C 4 35.027926 12.972066 44 24 44 C 35.027934 44 44 35.027926 44 24 C 44 12.972074 35.027934 4 24 4 z M 24 7 C 33.406615 7 41 14.593391 41 24 C 41 33.406609 33.406615 41 24 41 C 22.566518 41 21.182325 40.804883 19.853516 40.472656 C 20.333373 39.496504 20.656022 38.535017 20.929688 37.529297 L 21.960938 33.460938 C 23.040937 34.480938 24.56 35 26.5 35 C 31.74 35 36 29.73 36 23.25 C 36 16.84 30.84 12 24 12 C 17.38 12 12 17.05 12 23.25 C 12 26.23 13.149922 28.940859 15.169922 30.880859 C 15.409922 31.110859 15.820391 30.980156 15.900391 30.660156 L 16.460938 28.330078 C 16.520937 28.090078 16.460313 27.840859 16.320312 27.630859 C 15.600312 26.610859 15 25.19 15 23.25 C 15 18.7 19.04 15 24 15 C 24.82 15 32 15.24 32 23.5 C 32 27.59 30.12 32 26 32 C 24.96 31.93 24.219062 31.589062 23.789062 31.039062 C 23.049063 30.059062 23.229219 28.399297 23.449219 27.529297 L 24.220703 24.509766 C 24.420703 23.709766 24.5 23.029219 24.5 22.449219 C 24.5 20.499219 23.32 19.5 22 19.5 C 20.22 19.5 19 21.389297 19 23.279297 C 19 24.309297 19.16 25.410625 19.5 26.390625 L 17.230469 35.810547 C 17.230469 35.810547 17 36.419922 17 38.419922 C 17 38.621315 17.035148 39.14999 17.050781 39.509766 C 11.123964 36.857341 7 30.926664 7 24 C 7 14.593391 14.593385 7 24 7 z"/></svg>