<svg xmlns:xlink="http://www.w3.org/1999/xlink" xmlns="http://www.w3.org/2000/svg" viewBox="0 0 48 48" width="172"  height="172" ><path d="M 11.5 3 C 9.5850452 3 8 4.5850452 8 6.5 L 8 12.5 C 8 14.414955 9.5850452 16 11.5 16 L 14 16 L 14 36.5 C 14 38.414955 15.585045 40 17.5 40 L 25 40 L 25 41.5 C 25 43.414955 26.585045 45 28.5 45 L 36.5 45 C 38.414955 45 40 43.414955 40 41.5 L 40 35.5 C 40 33.585045 38.414955 32 36.5 32 L 28.5 32 C 26.585045 32 25 33.585045 25 35.5 L 25 37 L 17.5 37 C 17.204955 37 17 36.795045 17 36.5 L 17 24 L 25 24 L 25 25.5 C 25 27.414955 26.585045 29 28.5 29 L 36.5 29 C 38.414955 29 40 27.414955 40 25.5 L 40 19.5 C 40 17.585045 38.414955 16 36.5 16 L 28.5 16 C 26.585045 16 25 17.585045 25 19.5 L 25 21 L 17 21 L 17 16 L 19.5 16 C 21.414955 16 23 14.414955 23 12.5 L 23 6.5 C 23 4.5850452 21.414955 3 19.5 3 L 11.5 3 z M 11.5 6 L 19.5 6 C 19.795045 6 20 6.2049548 20 6.5 L 20 12.5 C 20 12.795045 19.795045 13 19.5 13 L 15.746094 13 A 1.50015 1.50015 0 0 0 15.259766 13 L 11.5 13 C 11.204955 13 11 12.795045 11 12.5 L 11 6.5 C 11 6.2049548 11.204955 6 11.5 6 z M 28.5 19 L 36.5 19 C 36.795045 19 37 19.204955 37 19.5 L 37 25.5 C 37 25.795045 36.795045 26 36.5 26 L 28.5 26 C 28.204955 26 28 25.795045 28 25.5 L 28 22.746094 A 1.50015 1.50015 0 0 0 28 22.259766 L 28 19.5 C 28 19.204955 28.204955 19 28.5 19 z M 28.5 35 L 36.5 35 C 36.795045 35 37 35.204955 37 35.5 L 37 41.5 C 37 41.795045 36.795045 42 36.5 42 L 28.5 42 C 28.204955 42 28 41.795045 28 41.5 L 28 38.746094 A 1.50015 1.50015 0 0 0 28 38.259766 L 28 35.5 C 28 35.204955 28.204955 35 28.5 35 z"></path></svg>