<svg xmlns:xlink="http://www.w3.org/1999/xlink" xmlns="http://www.w3.org/2000/svg" viewBox="0 0 48 48" width="172"  height="172" ><path d="M 7.5 9 C 5.0324991 9 3 11.032499 3 13.5 L 3 28.253906 A 1.50015 1.50015 0 0 0 3 28.740234 L 3 34.5 C 3 36.967501 5.0324991 39 7.5 39 L 20 39 A 1.50015 1.50015 0 0 0 21.5 37.5 C 21.5 36.101774 22.601774 35 24 35 C 25.398226 35 26.5 36.101774 26.5 37.5 A 1.50015 1.50015 0 0 0 28 39 L 40.5 39 C 42.967501 39 45 36.967501 45 34.5 L 45 28.746094 A 1.50015 1.50015 0 0 0 45 28.259766 L 45 13.5 C 45 11.032499 42.967501 9 40.5 9 L 7.5 9 z M 7.5 12 L 40.5 12 C 41.346499 12 42 12.653501 42 13.5 L 42 27 L 6 27 L 6 13.5 C 6 12.653501 6.6535009 12 7.5 12 z M 9 14 C 8.448 14 8 14.448 8 15 L 8 24 C 8 24.552 8.448 25 9 25 L 12 25 C 12.552 25 13 24.552 13 24 L 13 15 C 13 14.448 12.552 14 12 14 L 9 14 z M 18 14 C 17.448 14 17 14.448 17 15 L 17 24 C 17 24.552 17.448 25 18 25 L 21 25 C 21.552 25 22 24.552 22 24 L 22 15 C 22 14.448 21.552 14 21 14 L 18 14 z M 27 14 C 26.448 14 26 14.448 26 15 L 26 24 C 26 24.552 26.448 25 27 25 L 30 25 C 30.552 25 31 24.552 31 24 L 31 15 C 31 14.448 30.552 14 30 14 L 27 14 z M 36 14 C 35.448 14 35 14.448 35 15 L 35 24 C 35 24.552 35.448 25 36 25 L 39 25 C 39.552 25 40 24.552 40 24 L 40 15 C 40 14.448 39.552 14 39 14 L 36 14 z M 6 30 L 42 30 L 42 34.5 C 42 35.346499 41.346499 36 40.5 36 L 40 36 L 40 34.5 A 1.50015 1.50015 0 0 0 38.476562 32.978516 A 1.50015 1.50015 0 0 0 37 34.5 L 37 36 L 35 36 L 35 34.5 A 1.50015 1.50015 0 0 0 33.476562 32.978516 A 1.50015 1.50015 0 0 0 32 34.5 L 32 36 L 29.193359 36 C 28.523966 33.717024 26.488802 32 24 32 C 21.511198 32 19.476034 33.717024 18.806641 36 L 16 36 L 16 34.5 A 1.50015 1.50015 0 0 0 14.476562 32.978516 A 1.50015 1.50015 0 0 0 13 34.5 L 13 36 L 11 36 L 11 34.5 A 1.50015 1.50015 0 0 0 9.4765625 32.978516 A 1.50015 1.50015 0 0 0 8 34.5 L 8 36 L 7.5 36 C 6.6535009 36 6 35.346499 6 34.5 L 6 30 z"></path></svg>