<svg xmlns:xlink="http://www.w3.org/1999/xlink" xmlns="http://www.w3.org/2000/svg" viewBox="0 0 48 48" width="172" height="172">
  <path
    d="M 12.5 4 C 10.019 4 8 6.019 8 8.5 L 8 39.5 C 8 41.981 10.019 44 12.5 44 L 25.640625 44 C 24.785625 43.111 24.055516 42.103 23.478516 41 L 12.5 41 C 11.673 41 11 40.327 11 39.5 L 11 8.5 C 11 7.673 11.673 7 12.5 7 L 24 7 L 24 15.5 C 24 17.981 26.019 20 28.5 20 L 37 20 L 37 22.169922 C 38.045 22.331922 39.053 22.606906 40 23.003906 L 40 18.5 C 40 18.086 39.831922 17.710953 39.560547 17.439453 L 26.560547 4.4394531 C 26.289172 4.1679531 25.9145 4 25.5 4 L 12.5 4 z M 27 9.1210938 L 34.878906 17 L 28.5 17 C 27.673 17 27 16.327 27 15.5 L 27 9.1210938 z M 35 24 C 28.925 24 24 28.925 24 35 C 24 41.075 28.925 46 35 46 C 41.075 46 46 41.075 46 35 C 46 28.925 41.075 24 35 24 z M 17.5 25 C 16.67 25 16 25.67 16 26.5 C 16 27.33 16.67 28 17.5 28 L 24.050781 28 C 24.770781 26.86 25.669219 25.85 26.699219 25 L 17.5 25 z M 41 30 C 41.25575 30 41.511531 30.097469 41.707031 30.292969 C 42.098031 30.683969 42.098031 31.316031 41.707031 31.707031 L 33.707031 39.707031 C 33.512031 39.902031 33.256 40 33 40 C 32.744 40 32.487969 39.902031 32.292969 39.707031 L 28.292969 35.707031 C 27.901969 35.316031 27.901969 34.683969 28.292969 34.292969 C 28.683969 33.901969 29.316031 33.901969 29.707031 34.292969 L 33 37.585938 L 40.292969 30.292969 C 40.488469 30.097469 40.74425 30 41 30 z M 17.5 32 C 16.67 32 16 32.67 16 33.5 C 16 34.33 16.67 35 17.5 35 L 22 35 C 22 33.97 22.119609 32.96 22.349609 32 L 17.5 32 z"
  ></path>
</svg>
