<svg fill="#000000" xmlns="http://www.w3.org/2000/svg"  viewBox="0 0 48 48" width="48px" height="48px"><path d="M 24 6 C 23.048235 6 22.141037 6.095179 21.275391 6.2265625 A 1.50015 1.50015 0 1 0 21.724609 9.1914062 C 22.492963 9.0747896 23.247765 9 24 9 C 32.3024 9 39 15.6976 39 24 C 39 32.3024 32.3024 39 24 39 C 15.6976 39 9 32.3024 9 24 C 9 20.065743 10.527501 16.519538 13 13.849609 L 13 17.5 A 1.50015 1.50015 0 1 0 16 17.5 L 16 10.5 A 1.50015 1.50015 0 0 0 14.5 9 L 7.5 9 A 1.50015 1.50015 0 1 0 7.5 12 L 10.605469 12 C 7.7471496 15.184124 6 19.390676 6 24 C 6 33.9236 14.0764 42 24 42 C 33.9236 42 42 33.9236 42 24 C 42 14.0764 33.9236 6 24 6 z"/></svg>