<svg xmlns:xlink="http://www.w3.org/1999/xlink" xmlns="http://www.w3.org/2000/svg" viewBox="0 0 48 48" width="172"  height="172" ><path d="M 18.525391 9 C 17.64455 9 16.774673 9.1804549 15.966797 9.5253906 A 1.50015 1.50015 0 0 0 15.964844 9.5253906 L 4.7265625 14.341797 C 3.0755431 15.048986 2 16.683202 2 18.478516 L 2 29.521484 C 2 31.316798 3.0755431 32.951014 4.7265625 33.658203 L 15.964844 38.474609 L 15.964844 38.472656 C 16.774721 38.820305 17.645326 38.998047 18.525391 38.998047 L 30.447266 38.998047 A 1.50015 1.50015 0 0 0 30.5 39 L 41.5 39 C 43.414955 39 45 37.414955 45 35.5 L 45 12.5 C 45 10.585045 43.414955 9 41.5 9 L 30.5 9 L 18.525391 9 z M 18.525391 12 L 29 12 L 29 15 L 24.5 15 A 1.50015 1.50015 0 0 0 23 16.5 L 23 19 L 16 19 C 13.256343 19 11 21.256343 11 24 C 11 26.743657 13.256343 29 16 29 L 23 29 L 23 31.5 A 1.50015 1.50015 0 0 0 24.5 33 L 29 33 L 29 35.998047 L 18.525391 35.998047 C 18.049456 35.998047 17.58256 35.903147 17.148438 35.716797 A 1.50015 1.50015 0 0 0 17.146484 35.716797 L 5.9082031 30.900391 C 5.3540341 30.663248 5 30.125651 5 29.521484 L 5 18.478516 C 5 17.874349 5.3540341 17.336752 5.9082031 17.099609 L 17.144531 12.283203 C 17.582656 12.096139 18.052231 12 18.525391 12 z M 32 12 L 41.5 12 C 41.795045 12 42 12.204955 42 12.5 L 42 15 L 37.5 15 A 1.50015 1.50015 0 1 0 37.5 18 L 42 18 L 42 20 L 37.5 20 A 1.50015 1.50015 0 1 0 37.5 23 L 42 23 L 42 25 L 37.5 25 A 1.50015 1.50015 0 1 0 37.5 28 L 42 28 L 42 30 L 37.5 30 A 1.50015 1.50015 0 1 0 37.5 33 L 42 33 L 42 35.5 C 42 35.795045 41.795045 36 41.5 36 L 32 36 L 32 31.5 A 1.50015 1.50015 0 0 0 30.5 30 L 26 30 L 26 27.5 A 1.50015 1.50015 0 0 0 24.5 26 L 16 26 C 14.877657 26 14 25.122343 14 24 C 14 22.877657 14.877657 22 16 22 L 24.5 22 A 1.50015 1.50015 0 0 0 26 20.5 L 26 18 L 30.5 18 A 1.50015 1.50015 0 0 0 32 16.5 L 32 12 z"></path></svg>