<svg xmlns:xlink="http://www.w3.org/1999/xlink" xmlns="http://www.w3.org/2000/svg" viewBox="0 0 48 48" width="172"  height="172" ><path d="M 23.957031 2 A 1.50015 1.50015 0 0 0 23.318359 2.1640625 L 5.8183594 11.076172 A 1.50015 1.50015 0 0 0 5 12.412109 L 5 33.201172 A 1.50015 1.50015 0 0 0 5.6855469 34.462891 L 23.185547 45.759766 A 1.50015 1.50015 0 0 0 24.814453 45.759766 L 42.314453 34.462891 A 1.50015 1.50015 0 0 0 43 33.201172 L 43 12.412109 A 1.50015 1.50015 0 0 0 42.181641 11.076172 L 24.681641 2.1640625 A 1.50015 1.50015 0 0 0 23.957031 2 z M 24 5.1835938 L 38.416016 12.525391 L 33.378906 15.572266 L 24.679688 11.142578 A 1.50015 1.50015 0 0 0 23.957031 10.980469 A 1.50015 1.50015 0 0 0 23.318359 11.142578 L 14.621094 15.572266 L 9.5839844 12.525391 L 24 5.1835938 z M 24 14.162109 L 30.357422 17.400391 L 24 21.246094 L 17.642578 17.400391 L 24 14.162109 z M 8 15.074219 L 13 18.099609 L 13 28.845703 A 1.50015 1.50015 0 0 0 13.685547 30.105469 L 22.5 35.794922 L 22.5 41.746094 L 8 32.384766 L 8 15.074219 z M 40 15.074219 L 40 32.384766 L 25.5 41.746094 L 25.5 35.794922 L 34.314453 30.105469 A 1.50015 1.50015 0 0 0 35 28.845703 L 35 18.099609 L 40 15.074219 z M 16 19.914062 L 22.5 23.845703 L 22.5 32.224609 L 16 28.027344 L 16 19.914062 z M 32 19.914062 L 32 28.027344 L 25.5 32.224609 L 25.5 23.845703 L 32 19.914062 z"></path></svg>