<svg xmlns:xlink="http://www.w3.org/1999/xlink" xmlns="http://www.w3.org/2000/svg" viewBox="0 0 48 48" width="172"  height="172" ><path d="M 24 4 C 12.972066 4 4 12.972074 4 24 C 4 35.027926 12.972066 44 24 44 C 35.027934 44 44 35.027926 44 24 C 44 12.972074 35.027934 4 24 4 z M 24 7 C 33.406615 7 41 14.593391 41 24 C 41 33.406609 33.406615 41 24 41 C 14.593385 41 7 33.406609 7 24 C 7 14.593391 14.593385 7 24 7 z M 23.927734 9.0019531 A 1.50015 1.50015 0 0 0 22.871094 9.5117188 L 19.371094 13.511719 A 1.500376 1.500376 0 1 0 21.628906 15.488281 L 22.5 14.492188 L 22.5 19.5 A 1.50015 1.50015 0 1 0 25.5 19.5 L 25.5 14.492188 L 26.371094 15.488281 A 1.500376 1.500376 0 1 0 28.628906 13.511719 L 25.128906 9.5117188 A 1.50015 1.50015 0 0 0 23.927734 9.0019531 z M 15.533203 18.986328 A 1.50015 1.50015 0 0 0 14.511719 21.628906 L 15.507812 22.5 L 10.5 22.5 A 1.50015 1.50015 0 1 0 10.5 25.5 L 15.507812 25.5 L 14.511719 26.371094 A 1.500376 1.500376 0 1 0 16.488281 28.628906 L 20.488281 25.128906 A 1.50015 1.50015 0 0 0 20.488281 22.871094 L 16.488281 19.371094 A 1.50015 1.50015 0 0 0 15.533203 18.986328 z M 32.572266 18.986328 A 1.50015 1.50015 0 0 0 31.511719 19.371094 L 27.511719 22.871094 A 1.50015 1.50015 0 0 0 27.511719 25.128906 L 31.511719 28.628906 A 1.500376 1.500376 0 1 0 33.488281 26.371094 L 32.492188 25.5 L 37.5 25.5 A 1.50015 1.50015 0 1 0 37.5 22.5 L 32.492188 22.5 L 33.488281 21.628906 A 1.50015 1.50015 0 0 0 32.572266 18.986328 z M 23.976562 26.978516 A 1.50015 1.50015 0 0 0 22.5 28.5 L 22.5 33.507812 L 21.628906 32.511719 A 1.50015 1.50015 0 0 0 20.435547 31.984375 A 1.50015 1.50015 0 0 0 19.371094 34.488281 L 22.871094 38.488281 A 1.50015 1.50015 0 0 0 25.128906 38.488281 L 28.628906 34.488281 A 1.500376 1.500376 0 1 0 26.371094 32.511719 L 25.5 33.507812 L 25.5 28.5 A 1.50015 1.50015 0 0 0 23.976562 26.978516 z"></path></svg>