<svg fill="#000000" xmlns="http://www.w3.org/2000/svg"  viewBox="0 0 48 48" width="48px" height="48px"><path d="M 36 5 C 32.151772 5 29 8.1517752 29 12 C 29 13.673141 29.596143 15.213844 30.585938 16.421875 L 25.773438 22.5 L 18.833984 22.5 C 18.141698 19.365907 15.333527 17 12 17 C 8.1517722 17 5 20.151775 5 24 C 5 27.848225 8.1517722 31 12 31 C 15.333527 31 18.141698 28.634093 18.833984 25.5 L 25.773438 25.5 L 30.585938 31.578125 C 29.596143 32.786156 29 34.326859 29 36 C 29 39.848225 32.151772 43 36 43 C 39.848228 43 43 39.848225 43 36 C 43 32.151775 39.848228 29 36 29 C 34.902674 29 33.866591 29.26313 32.939453 29.71875 L 28.414062 24 L 32.939453 18.28125 C 33.866591 18.73687 34.902674 19 36 19 C 39.848228 19 43 15.848225 43 12 C 43 8.1517752 39.848228 5 36 5 z M 36 8 C 38.226909 8 40 9.7730927 40 12 C 40 14.226907 38.226909 16 36 16 C 33.773091 16 32 14.226907 32 12 C 32 9.7730927 33.773091 8 36 8 z M 12 20 C 14.226909 20 16 21.773093 16 24 C 16 26.226907 14.226909 28 12 28 C 9.7730915 28 8 26.226907 8 24 C 8 21.773093 9.7730915 20 12 20 z M 36 32 C 38.226909 32 40 33.773093 40 36 C 40 38.226907 38.226909 40 36 40 C 33.773091 40 32 38.226907 32 36 C 32 33.773093 33.773091 32 36 32 z"/></svg>