<svg fill="#000000" xmlns="http://www.w3.org/2000/svg"  viewBox="0 0 48 48" width="48px" height="48px"><path d="M24,7c0.164,0.008,0.344,0.008,0.368,0.008c1.456,0,6.406,0.403,8.738,5.664c0.777,1.754,0.581,4.832,0.425,7.302 c-0.025,0.387-0.049,0.749-0.065,1.103c0.041,0.041,0.368,0.362,1.104,0.362c0.54,0,1.162-0.165,1.857-0.494 c0.115-0.058,0.262-0.082,0.417-0.082c0.589,0,1.309,0.379,1.415,0.922c0.057,0.321-0.065,0.947-1.604,1.556 c-0.139,0.058-0.319,0.115-0.507,0.173c-0.769,0.247-1.939,0.617-2.291,1.465c-0.196,0.461-0.139,1.029,0.18,1.679 c0.008,0,0.008,0.008,0.008,0.016c0.098,0.222,2.43,5.573,7.633,6.438c0.188,0.025,0.327,0.198,0.319,0.395 c-0.008,0.074-0.025,0.148-0.057,0.222c-0.213,0.502-1.178,1.218-4.565,1.745c-0.286,0.049-0.393,0.478-0.548,1.169 c-0.057,0.272-0.123,0.552-0.205,0.84c-0.098,0.337-0.319,0.379-0.524,0.379c-0.196,0-0.458-0.049-0.761-0.107 c-0.491-0.099-1.17-0.231-2.029-0.231c-0.475,0-0.974,0.041-1.464,0.124c-1.023,0.173-1.882,0.782-2.798,1.432 C27.731,40.029,26.356,41,24.229,41C24.164,41,24,40.992,24,40.992S23.836,41,23.771,41c-2.127,0-3.502-0.971-4.819-1.918 c-0.916-0.65-1.775-1.26-2.798-1.432c-0.491-0.082-0.99-0.124-1.464-0.124c-0.859,0-1.538,0.132-2.029,0.231 c-0.303,0.058-0.565,0.107-0.761,0.107c-0.205,0-0.425-0.041-0.524-0.379c-0.082-0.288-0.147-0.568-0.205-0.84 c-0.155-0.691-0.262-1.12-0.548-1.169c-3.387-0.527-4.353-1.243-4.565-1.745C6.025,33.657,6.009,33.583,6,33.508 c-0.008-0.198,0.131-0.37,0.319-0.395c5.203-0.864,7.535-6.215,7.633-6.438c0-0.008,0-0.016,0.008-0.016 c0.319-0.65,0.376-1.218,0.18-1.679c-0.352-0.848-1.522-1.218-2.291-1.465c-0.188-0.058-0.368-0.115-0.507-0.173 c-1.538-0.609-1.661-1.235-1.604-1.556c0.106-0.543,0.826-0.922,1.415-0.922c0.155,0,0.303,0.025,0.417,0.082 c0.695,0.329,1.317,0.494,1.857,0.494c0.736,0,1.064-0.321,1.104-0.362c-0.016-0.354-0.041-0.716-0.065-1.103 c-0.155-2.47-0.352-5.549,0.425-7.302c2.332-5.261,7.282-5.664,8.738-5.664C23.656,7.008,23.836,7.008,24,7 M24,4 c-0.05,0-0.101,0.001-0.151,0.004c-0.082,0.004-0.172,0.004-0.205,0.004c-0.006,0-0.01,0-0.012,0 c-1.919,0-8.417,0.537-11.481,7.448c-0.802,1.81-0.887,4.129-0.802,6.411c-0.064-0.003-0.129-0.004-0.195-0.004 c-1.796,0-3.934,1.173-4.359,3.346c-0.003,0.016-0.006,0.033-0.009,0.049c-0.137,0.768-0.293,3.389,3.452,4.872 c0.155,0.065,0.336,0.127,0.519,0.185c-0.734,1.231-2.36,3.4-4.906,3.834c-1.701,0.262-2.921,1.746-2.848,3.483 c0.003,0.068,0.008,0.136,0.015,0.204c0.043,0.387,0.142,0.758,0.294,1.104c0.775,1.829,2.868,2.686,5.127,3.182 c0.016,0.06,0.033,0.12,0.05,0.18c0.455,1.562,1.791,2.559,3.41,2.559c0.482,0,0.928-0.085,1.322-0.16 c0.411-0.082,0.883-0.178,1.468-0.178c0.313,0,0.648,0.028,0.968,0.082c0.343,0.058,0.961,0.496,1.558,0.92 C18.659,42.565,20.655,44,23.771,44c0.054,0,0.148-0.003,0.229-0.006C24.081,43.997,24.175,44,24.229,44 c3.116,0,5.112-1.435,6.57-2.482c0.583-0.414,1.2-0.852,1.547-0.91c0.317-0.053,0.652-0.082,0.965-0.082 c0.585,0,1.057,0.095,1.437,0.172c0.424,0.081,0.871,0.166,1.353,0.166c1.619,0,2.955-0.997,3.404-2.54 c0.019-0.066,0.037-0.132,0.055-0.198c2.244-0.492,4.354-1.355,5.145-3.224c0.135-0.305,0.234-0.677,0.277-1.063 c0.007-0.068,0.013-0.136,0.015-0.204c0.072-1.737-1.147-3.221-2.848-3.483c-2.547-0.435-4.174-2.605-4.906-3.834 c0.179-0.057,0.373-0.124,0.563-0.203c3.701-1.465,3.545-4.086,3.408-4.854c-0.003-0.016-0.006-0.033-0.009-0.049 c-0.426-2.173-2.564-3.346-4.359-3.346c-0.065,0-0.13,0.001-0.195,0.004c0.086-2.289,0-4.604-0.802-6.411 c-3.063-6.911-9.562-7.448-11.481-7.448c-0.002,0-0.006,0-0.012,0c-0.034,0-0.123,0-0.205-0.004C24.101,4.001,24.05,4,24,4L24,4z"/></svg>