<svg xmlns:xlink="http://www.w3.org/1999/xlink" xmlns="http://www.w3.org/2000/svg" viewBox="0 0 48 48" width="172" height="172">
  <path
    d="M 9.5 6 C 7.5850452 6 6 7.5850452 6 9.5 L 6 38.5 C 6 40.414955 7.5850452 42 9.5 42 L 38.5 42 C 40.414955 42 42 40.414955 42 38.5 L 42 9.5 C 42 7.5850452 40.414955 6 38.5 6 L 9.5 6 z M 9.5 9 L 38.5 9 C 38.795045 9 39 9.2049548 39 9.5 L 39 17 L 9 17 L 9 9.5 C 9 9.2049548 9.2049548 9 9.5 9 z M 34 11 A 2 2 0 0 0 34 15 A 2 2 0 0 0 34 11 z M 13.5 11.5 A 1.50015 1.50015 0 1 0 13.5 14.5 L 22.5 14.5 A 1.50015 1.50015 0 1 0 22.5 11.5 L 13.5 11.5 z M 9 20 L 39 20 L 39 28 L 9 28 L 9 20 z M 34 22 A 2 2 0 0 0 34 26 A 2 2 0 0 0 34 22 z M 13.5 22.5 A 1.50015 1.50015 0 1 0 13.5 25.5 L 22.5 25.5 A 1.50015 1.50015 0 1 0 22.5 22.5 L 13.5 22.5 z M 9 31 L 39 31 L 39 38.5 C 39 38.795045 38.795045 39 38.5 39 L 9.5 39 C 9.2049548 39 9 38.795045 9 38.5 L 9 31 z M 34 33 A 2 2 0 0 0 34 37 A 2 2 0 0 0 34 33 z M 13.5 33.5 A 1.50015 1.50015 0 1 0 13.5 36.5 L 22.5 36.5 A 1.50015 1.50015 0 1 0 22.5 33.5 L 13.5 33.5 z"
  ></path>
</svg>
