<svg xmlns:xlink="http://www.w3.org/1999/xlink" xmlns="http://www.w3.org/2000/svg" viewBox="0 0 48 48" width="172"  height="172" ><path d="M 8.5 5 C 6.0324991 5 4 7.0324991 4 9.5 L 4 30.5 C 4 32.967501 6.0324991 35 8.5 35 L 17 35 L 17 40 L 13.5 40 A 1.50015 1.50015 0 1 0 13.5 43 L 18.253906 43 A 1.50015 1.50015 0 0 0 18.740234 43 L 29.253906 43 A 1.50015 1.50015 0 0 0 29.740234 43 L 34.5 43 A 1.50015 1.50015 0 1 0 34.5 40 L 31 40 L 31 35 L 39.5 35 C 41.967501 35 44 32.967501 44 30.5 L 44 9.5 C 44 7.0324991 41.967501 5 39.5 5 L 8.5 5 z M 8.5 8 L 39.5 8 C 40.346499 8 41 8.6535009 41 9.5 L 41 30.5 C 41 31.346499 40.346499 32 39.5 32 L 29.746094 32 A 1.50015 1.50015 0 0 0 29.259766 32 L 18.746094 32 A 1.50015 1.50015 0 0 0 18.259766 32 L 8.5 32 C 7.6535009 32 7 31.346499 7 30.5 L 7 9.5 C 7 8.6535009 7.6535009 8 8.5 8 z M 21.505859 12 A 1.50015 1.50015 0 0 0 20.121094 12.908203 L 17.511719 19 L 11.5 19 A 1.50015 1.50015 0 1 0 11.5 22 L 18.5 22 A 1.50015 1.50015 0 0 0 19.878906 21.091797 L 21.425781 17.484375 L 25.099609 27.039062 A 1.50015 1.50015 0 0 0 27.841797 27.169922 L 30.427734 22 L 36.5 22 A 1.50015 1.50015 0 1 0 36.5 19 L 29.5 19 A 1.50015 1.50015 0 0 0 28.158203 19.830078 L 26.679688 22.787109 L 22.900391 12.960938 A 1.50015 1.50015 0 0 0 21.505859 12 z M 20 35 L 28 35 L 28 40 L 20 40 L 20 35 z"></path></svg>