<svg fill="#000000" xmlns="http://www.w3.org/2000/svg" viewBox="0 0 48 48" width="48px" height="48px">
  <path
    d="M 11.5 6 C 8.4802259 6 6 8.4802259 6 11.5 L 6 36.5 C 6 39.519774 8.4802259 42 11.5 42 L 36.5 42 C 39.519774 42 42 39.519774 42 36.5 L 42 11.5 C 42 8.4802259 39.519774 6 36.5 6 L 11.5 6 z M 11.5 9 L 36.5 9 C 37.898226 9 39 10.101774 39 11.5 L 39 36.5 C 39 37.898226 37.898226 39 36.5 39 L 11.5 39 C 10.101774 39 9 37.898226 9 36.5 L 9 11.5 C 9 10.101774 10.101774 9 11.5 9 z M 26.435547 13.023438 A 1.50015 1.50015 0 0 0 25 14.5 L 25 28 C 25 30.227598 23.227598 32 21 32 C 18.772402 32 17 30.227598 17 28 C 17 25.772402 18.772402 24 21 24 A 1.50015 1.50015 0 1 0 21 21 C 17.151598 21 14 24.151598 14 28 C 14 31.848402 17.151598 35 21 35 C 24.848402 35 28 31.848402 28 28 L 28 20.335938 C 29.268121 21.316987 30.78243 22 32.5 22 A 1.50015 1.50015 0 1 0 32.5 19 C 29.996501 19 28 17.003499 28 14.5 A 1.50015 1.50015 0 0 0 26.435547 13.023438 z"
  />
</svg>
