<svg xmlns:xlink="http://www.w3.org/1999/xlink" xmlns="http://www.w3.org/2000/svg" viewBox="0 0 48 48" width="172"  height="172" ><path d="M 9.9902344 5.9785156 A 1.50015 1.50015 0 0 0 9.7539062 6 L 8.5 6 A 1.50015 1.50015 0 1 0 8.5 9 L 8.6289062 9 L 11.175781 36.998047 C 11.431761 39.817933 13.820656 42 16.652344 42 L 31.347656 42 C 34.179344 42 36.566956 39.816987 36.824219 36.998047 L 39.371094 9 L 39.5 9 A 1.50015 1.50015 0 1 0 39.5 6 L 38.248047 6 A 1.50015 1.50015 0 0 0 37.759766 6 L 10.232422 6 A 1.50015 1.50015 0 0 0 9.9902344 5.9785156 z M 11.642578 9 L 36.357422 9 L 33.837891 36.726562 C 33.719153 38.027623 32.653969 39 31.347656 39 L 16.652344 39 C 15.346031 39 14.280129 38.026677 14.162109 36.726562 L 11.642578 9 z M 22.814453 12 C 22.292453 12 21.791828 12.207172 21.423828 12.576172 L 19 15 L 17.267578 15 C 16.547578 15 15.989172 15.62875 16.076172 16.34375 L 16.728516 21.757812 C 16.838516 22.667813 17.948656 23.051344 18.597656 22.402344 L 19.572266 21.427734 C 19.845266 21.154734 20.217469 21 20.605469 21 L 20.810547 21 C 21.467547 21 22 20.466594 22 19.808594 L 22 17.587891 C 22 17.211891 22.148063 16.851937 22.414062 16.585938 L 22.646484 16.353516 C 22.873484 16.126516 23.18 16 23.5 16 L 25.816406 16 C 26.469406 16 27 15.469406 27 14.816406 L 27 13.183594 C 27 12.530594 26.469406 12 25.816406 12 L 22.814453 12 z M 29.689453 16 C 29.284453 16 28.930031 16.275969 28.832031 16.667969 L 28.185547 19.259766 C 28.076547 19.694766 27.686281 20 27.238281 20 L 26.607422 20 C 25.899422 20 25.462172 20.772906 25.826172 21.378906 L 27.742188 24.570312 C 27.901187 24.836312 28.19 25 28.5 25 L 31.210938 25 C 31.660937 25 32.037891 24.661844 32.087891 24.214844 L 32.890625 16.980469 C 32.948625 16.457469 32.539672 16 32.013672 16 L 29.689453 16 z M 21.408203 24.021484 C 20.991426 24.03857 20.576438 24.187141 20.226562 24.478516 L 16.744141 27.380859 C 16.298141 27.751859 16.135844 28.36325 16.339844 28.90625 L 18.667969 35.115234 C 18.867969 35.648234 19.376313 36 19.945312 36 L 27.636719 36 C 28.389719 36 29 35.389719 29 34.636719 L 29 32 L 30.603516 29.863281 C 31.179516 29.096281 30.631875 28 29.671875 28 L 26.119141 28 C 25.426141 28 24.782781 27.636016 24.425781 27.041016 L 23.189453 24.980469 C 22.798828 24.329844 22.102832 23.993008 21.408203 24.021484 z"></path></svg>