<svg xmlns:xlink="http://www.w3.org/1999/xlink" xmlns="http://www.w3.org/2000/svg" viewBox="0 0 48 48" width="172"  height="172" ><path d="M 24.007812 0 A 1.50015 1.50015 0 0 0 22.820312 0.57421875 L 14.320312 11.40625 A 1.50015 1.50015 0 0 0 14.320312 13.259766 C 14.320312 13.259766 14.593099 13.58195 14.960938 13.863281 C 15.250483 14.084733 15.681737 14.338545 16.201172 14.591797 L 11.232422 22.435547 A 1.50015 1.50015 0 0 0 11.212891 24.009766 C 11.212891 24.009766 11.49734 24.446917 11.939453 24.853516 C 12.307115 25.191643 12.842801 25.587335 13.564453 25.980469 L 8.2285156 34.509766 A 1.50015 1.50015 0 0 0 8.4863281 36.410156 C 8.4863281 36.410156 9.8641103 37.649399 12.423828 38.775391 C 14.038228 39.485547 16.352781 40.070644 19 40.490234 L 19 46.5 A 1.50015 1.50015 0 0 0 20.5 48 L 27.5 48 A 1.50015 1.50015 0 0 0 29 46.5 L 29 40.490234 C 31.647219 40.070644 33.961772 39.485547 35.576172 38.775391 C 38.13589 37.649399 39.513672 36.410156 39.513672 36.410156 A 1.50015 1.50015 0 0 0 39.771484 34.509766 L 34.435547 25.980469 C 35.157199 25.587335 35.692885 25.191643 36.060547 24.853516 C 36.50266 24.446917 36.787109 24.009766 36.787109 24.009766 A 1.50015 1.50015 0 0 0 36.767578 22.435547 L 31.798828 14.591797 C 32.318263 14.338545 32.749517 14.084733 33.039062 13.863281 C 33.4069 13.58195 33.679688 13.259766 33.679688 13.259766 A 1.50015 1.50015 0 0 0 33.679688 11.40625 L 25.179688 0.57421875 A 1.50015 1.50015 0 0 0 24.007812 0 z M 24 3.9296875 L 30.314453 11.978516 C 30.265343 12.000806 30.266333 12.012446 30.212891 12.035156 C 29.158729 12.483071 27.240662 13 24 13 C 20.759338 13 18.841271 12.483071 17.787109 12.035156 C 17.733669 12.012446 17.734649 12.000806 17.685547 11.978516 L 24 3.9296875 z M 19.150391 15.546875 C 20.440691 15.813955 22.011935 16 24 16 C 25.989073 16 27.560927 15.814181 28.851562 15.546875 L 33.544922 22.957031 C 33.304155 23.13531 33.135483 23.296701 32.675781 23.519531 C 31.244464 24.213329 28.601678 25 24 25 C 19.398322 25 16.755535 24.213329 15.324219 23.519531 C 14.864517 23.296701 14.695845 23.13531 14.455078 22.957031 L 19.150391 15.546875 z M 16.402344 27.099609 C 18.259499 27.623835 20.718516 28 24 28 C 27.281484 28 29.740501 27.623835 31.597656 27.099609 L 36.427734 34.820312 C 35.990355 35.148539 35.827781 35.387657 34.369141 36.029297 C 32.160609 37.000805 28.752208 38 24 38 C 19.247792 38 15.839391 37.000805 13.630859 36.029297 C 12.172219 35.387657 12.009645 35.148539 11.572266 34.820312 L 16.402344 27.099609 z M 22 41 L 24 41 L 26 41 L 26 45 L 22 45 L 22 41 z"></path></svg>