<svg xmlns:xlink="http://www.w3.org/1999/xlink" xmlns="http://www.w3.org/2000/svg" viewBox="0 0 48 48" width="172"  height="172" ><path d="M 14.5 5 A 1.50015 1.50015 0 0 0 13.066406 7 L 8.5 7 C 6.0324991 7 4 9.0324991 4 11.5 C 4 12.558773 4.3894931 13.524488 5.0117188 14.296875 A 1.50015 1.50015 0 0 0 5 14.5 L 5 34.5 C 5 38.071938 7.9280619 41 11.5 41 L 36.5 41 C 40.071938 41 43 38.071938 43 34.5 L 43 14.5 A 1.50015 1.50015 0 0 0 42.988281 14.298828 C 43.611074 13.526259 44 12.55931 44 11.5 C 44 9.0324991 41.967501 7 39.5 7 L 34.933594 7 A 1.50015 1.50015 0 0 0 33.5 5 L 31.5 5 A 1.50015 1.50015 0 0 0 30.066406 7 L 17.933594 7 A 1.50015 1.50015 0 0 0 16.5 5 L 14.5 5 z M 8.5 10 L 39.5 10 C 40.346499 10 41 10.653501 41 11.5 C 41 12.346499 40.346499 13 39.5 13 L 8.5 13 C 7.6535009 13 7 12.346499 7 11.5 C 7 10.653501 7.6535009 10 8.5 10 z M 8 15.949219 C 8.1662017 15.968189 8.3290938 16 8.5 16 L 39.5 16 C 39.670906 16 39.833798 15.968189 40 15.949219 L 40 34.5 C 40 36.450062 38.450062 38 36.5 38 L 11.5 38 C 9.5499381 38 8 36.450062 8 34.5 L 8 15.949219 z M 32.476562 21.978516 A 1.50015 1.50015 0 0 0 31 23.5 L 31 25 L 29.5 25 A 1.50015 1.50015 0 1 0 29.5 28 L 31 28 L 31 29.5 A 1.50015 1.50015 0 1 0 34 29.5 L 34 28 L 35.5 28 A 1.50015 1.50015 0 1 0 35.5 25 L 34 25 L 34 23.5 A 1.50015 1.50015 0 0 0 32.476562 21.978516 z M 12.5 25 A 1.50015 1.50015 0 1 0 12.5 28 L 18.5 28 A 1.50015 1.50015 0 1 0 18.5 25 L 12.5 25 z"></path></svg>