<svg xmlns:xlink="http://www.w3.org/1999/xlink" xmlns="http://www.w3.org/2000/svg" viewBox="0 0 48 48" width="172"  height="172" ><path d="M 24 4 C 18.494917 4 14 8.494921 14 14 C 14 19.505079 18.494917 24 24 24 C 29.505083 24 34 19.505079 34 14 C 34 8.494921 29.505083 4 24 4 z M 24 7 C 27.883764 7 31 10.116238 31 14 C 31 17.883762 27.883764 21 24 21 C 20.116236 21 17 17.883762 17 14 C 17 10.116238 20.116236 7 24 7 z M 11.978516 28 C 9.7987044 28 8 29.798705 8 31.978516 L 8 33.5 C 8 37.104167 10.27927 39.892227 13.306641 41.5625 C 16.334011 43.232773 20.168103 44 24 44 C 27.831897 44 31.665989 43.232773 34.693359 41.5625 C 37.274641 40.138345 39.217335 37.862616 39.761719 35 L 40.001953 35 L 40.001953 31.978516 C 40.001953 29.798705 38.201295 28 36.021484 28 L 11.978516 28 z M 11.978516 31 L 36.021484 31 C 36.579674 31 37.001953 31.420326 37.001953 31.978516 L 37.001953 32 L 37 32 L 37 33.5 C 37 35.895833 35.65427 37.607773 33.244141 38.9375 C 30.834011 40.267227 27.418103 41 24 41 C 20.581897 41 17.165989 40.267227 14.755859 38.9375 C 12.34573 37.607773 11 35.895833 11 33.5 L 11 31.978516 C 11 31.420326 11.420326 31 11.978516 31 z"></path></svg>