<svg xmlns:xlink="http://www.w3.org/1999/xlink" xmlns="http://www.w3.org/2000/svg" viewBox="0 0 48 48" width="172"  height="172" ><path d="M 9.5 6 C 7.5850452 6 6 7.5850452 6 9.5 L 6 19.5 C 6 21.414955 7.5850452 23 9.5 23 L 19.5 23 C 21.414955 23 23 21.414955 23 19.5 L 23 9.5 C 23 7.5850452 21.414955 6 19.5 6 L 9.5 6 z M 28.5 6 C 26.585045 6 25 7.5850452 25 9.5 L 25 19.5 C 25 21.414955 26.585045 23 28.5 23 L 38.5 23 C 40.414955 23 42 21.414955 42 19.5 L 42 9.5 C 42 7.5850452 40.414955 6 38.5 6 L 28.5 6 z M 9 12 L 20 12 L 20 19.5 C 20 19.795045 19.795045 20 19.5 20 L 9.5 20 C 9.2049548 20 9 19.795045 9 19.5 L 9 12 z M 28 12 L 39 12 L 39 19.5 C 39 19.795045 38.795045 20 38.5 20 L 28.5 20 C 28.204955 20 28 19.795045 28 19.5 L 28 12 z M 9.5 25 C 7.5850452 25 6 26.585045 6 28.5 L 6 38.5 C 6 40.414955 7.5850452 42 9.5 42 L 19.5 42 C 21.414955 42 23 40.414955 23 38.5 L 23 28.5 C 23 26.585045 21.414955 25 19.5 25 L 9.5 25 z M 28.5 25 C 26.585045 25 25 26.585045 25 28.5 L 25 38.5 C 25 40.414955 26.585045 42 28.5 42 L 38.5 42 C 40.414955 42 42 40.414955 42 38.5 L 42 28.5 C 42 26.585045 40.414955 25 38.5 25 L 28.5 25 z M 9 31 L 20 31 L 20 38.5 C 20 38.795045 19.795045 39 19.5 39 L 9.5 39 C 9.2049548 39 9 38.795045 9 38.5 L 9 31 z M 28 31 L 39 31 L 39 38.5 C 39 38.795045 38.795045 39 38.5 39 L 28.5 39 C 28.204955 39 28 38.795045 28 38.5 L 28 31 z"></path></svg>