<svg width="256" height="256" viewBox="0 0 256 256" fill="none" xmlns="http://www.w3.org/2000/svg">
<rect width="256" height="256" rx="16" fill="#121212"/>
<path fill-rule="evenodd" clip-rule="evenodd" d="M206.824 46.4468H49.1744C37.8351 46.4468 32.175 55.7246 32.175 67.1699V72.9623C32.175 84.4077 37.8351 93.6854 49.1744 93.6854H206.821C218.163 93.6854 223.823 84.4077 223.823 72.9623V67.1699C223.825 55.7246 218.165 46.4468 206.824 46.4468ZM55.6479 80.315C50.039 80.315 45.4905 75.7265 45.4905 70.065C45.4905 64.4035 50.039 59.8151 55.6479 59.8151C61.259 59.8151 65.8054 64.4035 65.8054 70.065C65.8054 75.7265 61.259 80.315 55.6479 80.315ZM83.3499 80.315C77.7409 80.315 73.1903 75.7265 73.1903 70.065C73.1903 64.4035 77.7409 59.8151 83.3499 59.8151C88.9588 59.8151 93.5073 64.4035 93.5073 70.065C93.5073 75.7265 88.9588 80.315 83.3499 80.315ZM112.449 80.315C106.838 80.315 102.291 75.7265 102.291 70.065C102.291 64.4035 106.838 59.8151 112.449 59.8151C118.06 59.8151 122.606 64.4035 122.606 70.065C122.606 75.7265 118.06 80.315 112.449 80.315ZM204.083 78.978C204.083 81.4396 202.105 83.4355 199.669 83.4355C197.228 83.4355 195.252 81.4396 195.252 78.978V61.1521C195.252 58.6905 197.23 56.6946 199.669 56.6946C202.107 56.6946 204.083 58.6884 204.083 61.1521V78.978ZM206.824 104.382H49.1744C37.8351 104.382 32.175 113.66 32.175 125.105V130.897C32.175 142.343 37.8351 151.62 49.1744 151.62H206.821C218.163 151.62 223.823 142.343 223.823 130.897V125.105C223.825 113.66 218.165 104.382 206.824 104.382ZM55.6479 138.25C50.039 138.25 45.4905 133.662 45.4905 128C45.4905 122.341 50.039 117.752 55.6479 117.752C61.259 117.752 65.8054 122.341 65.8054 128C65.8054 133.664 61.259 138.25 55.6479 138.25ZM83.3499 138.25C77.7409 138.25 73.1903 133.662 73.1903 128C73.1903 122.341 77.7409 117.752 83.3499 117.752C88.9588 117.752 93.5073 122.341 93.5073 128C93.5073 133.664 88.9588 138.25 83.3499 138.25ZM204.083 136.915C204.083 139.375 202.105 141.368 199.669 141.368C197.228 141.368 195.252 139.372 195.252 136.915V119.087C195.252 116.628 197.23 114.63 199.669 114.63C202.107 114.63 204.083 116.625 204.083 119.087V136.915ZM206.824 162.319H49.1744C37.8351 162.319 32.175 171.597 32.175 183.04V188.83C32.175 200.278 37.8351 209.553 49.1744 209.553H206.821C218.165 209.553 223.825 200.278 223.825 188.832V183.042C223.825 171.597 218.165 162.319 206.824 162.319ZM55.6479 196.185C50.039 196.185 45.4905 191.594 45.4905 185.937C45.4905 180.273 50.039 175.687 55.6479 175.687C61.259 175.687 65.8054 180.276 65.8054 185.937C65.8054 191.596 61.259 196.185 55.6479 196.185ZM83.3499 196.185C77.7409 196.185 73.1903 191.594 73.1903 185.937C73.1903 180.273 77.7409 175.687 83.3499 175.687C88.9588 175.687 93.5073 180.276 93.5073 185.937C93.5073 191.596 88.9588 196.185 83.3499 196.185ZM112.449 196.185C106.838 196.185 102.291 191.594 102.291 185.937C102.291 180.273 106.838 175.687 112.449 175.687C118.06 175.687 122.606 180.276 122.606 185.937C122.606 191.596 118.06 196.185 112.449 196.185ZM204.083 194.848C204.083 197.309 202.105 199.303 199.669 199.303C197.228 199.303 195.252 197.309 195.252 194.848V177.022C195.252 174.56 197.23 172.565 199.669 172.565C202.107 172.565 204.083 174.56 204.083 177.022V194.848ZM141.289 196.185C135.678 196.185 131.132 191.594 131.132 185.937C131.132 180.273 135.678 175.687 141.289 175.687C146.9 175.687 151.447 180.276 151.447 185.937C151.447 191.596 146.9 196.185 141.289 196.185ZM183.387 141.368C185.823 141.368 187.802 139.375 187.802 136.915V119.087C187.802 116.626 185.825 114.63 183.387 114.63C180.949 114.63 178.971 116.628 178.971 119.087V136.915C178.971 139.372 180.947 141.368 183.387 141.368Z" fill="#B469FF"/>
</svg>
