<svg width="262" height="295" viewBox="0 0 262 295" fill="none" xmlns="http://www.w3.org/2000/svg">
  <path
    d="M20 0L90.6 55.9C62.9 95.1 42.9 140.2 35.3 188.2L58.2 183.3C57.1 188 55.9 196.9 54.8 205.9C54 211.9 53.3 217.8 52.5 222.5C41.1 211.7 27.7 203.9 13.4 198L0 156.8L29.6 113.7L20 0ZM114.4 166.6L60 138.2C71.5 168.6 75.3 172.5 114.4 166.6ZM241.3 0L231.7 113.7L261.3 156.8L247.9 198C194.9 218.5 177.5 261 166.9 287C165.9 289.5 164.9 291.9 164 294.1H98.2L89.6 273.5C94.4 225.5 120.1 163.7 163.1 117.7L128.8 124.6C149.9 69.6 168.2 55.7 214.4 20.7C222.4 14.5 231.3 7.7 241.3 0Z"
    fill="#161326"
  />
  <path
    d="M109.6 239.2L130.6 270.6L151.6 239.2H109.6ZM145.9 166.6L200.3 138.2C188.8 168.6 185 172.5 145.9 166.6Z"
    fill="white"
  />
</svg>
