<svg width="392" height="552" viewBox="0 0 392 552" fill="none" xmlns="http://www.w3.org/2000/svg">
  <path
    d="M212 0.999995C212 1.59999 209 1.99999 205 1.99999C201 1.99999 198 2.39999 198 2.99999C198 3.49999 196.7 3.99999 195 3.99999C193.4 3.99999 192 4.39999 192 4.99999C192 5.49999 190.7 5.99999 189 5.99999C187.4 5.99999 186 6.39999 186 6.99999C186 7.49999 185.1 7.99999 184 7.99999C182.9 7.99999 182 8.39999 182 8.99999C182 9.49999 181.1 9.99999 180 9.99999C178.9 9.99999 178 10.4 178 11C178 11.5 177.3 12 176.4 12C175.5 12 173.5 13.3 172 15C170.5 16.6 168.7 18 168.1 18C166.7 18 26 158.7 26 160.1C26 160.7 24.7 162.5 23 164C21.4 165.5 20 167.4 20 168.2C20 168.9 19.1 170.2 18 171C16.9 171.8 16 173.2 16 174.2C16 175.2 15.6 176 15 176C14.5 176 14 176.9 14 178C14 179.1 13.6 180 13 180C12.5 180 12 180.9 12 182C12 183.1 11.6 184 11 184C10.5 184 10 184.9 10 186C10 187.1 9.6 188 9 188C8.5 188 8 189.3 8 191C8 192.6 7.6 194 7 194C6.5 194 6 195.3 6 197C6 198.6 5.6 200 5 200C4.5 200 4 201.8 4 204C4 206.2 3.6 208 3 208C2.5 208 2 210.2 2 213C2 215.7 1.6 218 1 218C0.4 218 0 224 0 234C0 244 0.4 250 1 250C1.6 250 2 252.7 2 256C2 259.3 2.4 262 3 262C3.6 262 4 263.8 4 266C4 268.2 4.5 270 5 270C5.6 270 6 271.3 6 273C6 274.6 6.5 276 7 276C7.6 276 8 276.9 8 278C8 279.1 8.5 280 9 280C9.6 280 10 280.9 10 282C10 283.1 10.5 284 11 284C11.6 284 12 284.9 12 286C12 287.1 12.5 288 13 288C13.6 288 14 288.9 14 290C14 291.1 14.5 292 15 292C15.6 292 16 292.9 16 294C16 295.1 16.5 296 17 296C17.6 296 18 296.7 18 297.6C18 298.5 19.4 300.5 21 302C22.7 303.5 24 305.3 24 305.9C24 307.5 46.7 330 48.3 330C49 330 50.2 330.9 51 332C51.8 333.1 53.1 334 54 334C54.9 334 56.2 334.9 57 336C57.8 337.1 59.2 338 60.2 338C61.2 338 62 338.4 62 339C62 339.5 62.9 340 64 340C65.1 340 66 340.4 66 341C66 341.5 66.9 342 68 342C69.1 342 70 342.4 70 343C70 343.5 70.9 344 72 344C73.1 344 74 344.4 74 345C74 345.5 75.4 346 77 346C78.7 346 80 346.4 80 347C80 347.5 81.8 348 84 348C86.2 348 88 348.4 88 349C88 349.5 89.8 350 92 350C94.2 350 96 350.4 96 351C96 351.6 98.7 352 102 352C105.3 352 108 352.4 108 353C108 353.6 112 354 118 354C124 354 128 353.6 128 353C128 352.4 129.2 352 130.6 352C132 352 133.8 351.4 134.6 350.6C137.3 347.9 136.1 345 130 339C126.7 335.8 124 332.5 124 331.8C124 331 123.1 329.8 122 329C120.8 328.2 120 326.4 120 324.8C120 323.3 119.6 322 119 322C118.5 322 118 320.2 118 318C118 315.8 117.6 314 117 314C116.5 314 116 311.7 116 309C116 306.2 116.5 304 117 304C117.6 304 118 302.2 118 300C118 297.8 118.5 296 119 296C119.6 296 120 294.7 120 293.2C120 291.6 120.8 289.8 122 289C123.1 288.2 124 287 124 286.3C124 285.6 159.6 249.4 203 206C246.5 162.6 282 126.4 282 125.7C282 125 282.9 123.8 284 123C285.1 122.2 286 120.8 286 119.8C286 118.8 286.5 118 287 118C287.6 118 288 117.1 288 116C288 114.9 288.5 114 289 114C289.6 114 290 112.6 290 111C290 109.3 290.5 108 291 108C291.6 108 292 107.1 292 106C292 104.9 292.5 104 293 104C293.6 104 294 101.7 294 99C294 96.2 294.5 94 295 94C295.6 94 296 88.7 296 80C296 71.3 295.6 66 295 66C294.5 66 294 64.2 294 62C294 59.8 293.6 58 293 58C292.5 58 292 56.6 292 55C292 53.3 291.6 52 291 52C290.5 52 290 50.6 290 49C290 47.3 289.6 46 289 46C288.5 46 288 45.2 288 44.2C288 43.2 287.1 41.8 286 41C284.9 40.2 284 38.9 284 38C284 37.1 283.1 35.8 282 35C280.9 34.2 280 33 280 32.3C280 30.6 265.4 16 263.7 16C263 16 261.8 15.1 261 14C260.2 12.9 258.8 12 257.8 12C256.8 12 256 11.5 256 11C256 10.4 255.1 9.99999 254 9.99999C252.9 9.99999 252 9.49999 252 8.99999C252 8.39999 251.1 7.99999 250 7.99999C248.9 7.99999 248 7.49999 248 6.99999C248 6.39999 246.7 5.99999 245 5.99999C243.4 5.99999 242 5.49999 242 4.99999C242 4.39999 240.7 3.99999 239 3.99999C237.4 3.99999 236 3.49999 236 2.99999C236 2.39999 233 1.99999 229 1.99999C225 1.99999 222 1.59999 222 0.999995C222 0.399995 219.8 -5.27501e-06 217 -5.27501e-06C214.3 -5.27501e-06 212 0.399995 212 0.999995Z"
    fill="#232323"
  />
  <path
    d="M257.3 187.5C254.9 190.2 255.9 193.1 261 198C263.8 200.7 266 203.5 266 204.2C266 205 266.9 206.2 268 207C269.1 207.8 270 209.2 270 210.2C270 211.2 270.5 212 271 212C271.6 212 272 212.9 272 214C272 215.1 272.5 216 273 216C273.6 216 274 218.2 274 221C274 223.7 274.5 226 275 226C275.6 226 276 227.8 276 230C276 232.2 275.6 234 275 234C274.5 234 274 235.8 274 238C274 240.2 273.6 242 273 242C272.5 242 272 243.3 272 244.8C272 246.4 271.2 248.2 270 249C268.9 249.8 268 251 268 251.7C268 252.4 229.8 291.3 183 338C136.3 384.7 98 423.6 98 424.3C98 425 97.1 426.2 96 427C94.9 427.8 94 429.1 94 430C94 430.9 93.1 432.2 92 433C90.9 433.8 90 435.2 90 436.2C90 437.2 89.6 438 89 438C88.5 438 88 439.3 88 441C88 442.6 87.6 444 87 444C86.5 444 86 445.3 86 447C86 448.6 85.6 450 85 450C84.5 450 84 451.8 84 454C84 456.2 83.6 458 83 458C82.4 458 82 463.3 82 472C82 480.7 82.4 486 83 486C83.6 486 84 487.8 84 490C84 492.2 84.5 494 85 494C85.6 494 86 495.3 86 497C86 498.6 86.5 500 87 500C87.6 500 88 501.3 88 503C88 504.6 88.5 506 89 506C89.6 506 90 506.8 90 507.8C90 508.8 90.9 510.2 92 511C93.1 511.8 94 513.1 94 514C94 514.9 94.9 516.2 96 517C97.1 517.8 98 519 98 519.7C98 521.4 112.6 536 114.3 536C115 536 116.2 536.9 117 538C117.8 539.1 119.2 540 120.2 540C121.2 540 122 540.4 122 541C122 541.5 122.9 542 124 542C125.1 542 126 542.4 126 543C126 543.5 126.9 544 128 544C129.1 544 130 544.4 130 545C130 545.5 130.9 546 132 546C133.1 546 134 546.4 134 547C134 547.5 135.8 548 138 548C140.2 548 142 548.4 142 549C142 549.6 144.7 550 148 550C151.3 550 154 550.4 154 551C154 551.6 157 552 161 552C165 552 168 551.6 168 551C168 550.4 170.7 550 174 550C177.3 550 180 549.6 180 549C180 548.4 181.8 548 184 548C186.2 548 188 547.5 188 547C188 546.4 188.9 546 190 546C191.1 546 192 545.5 192 545C192 544.4 192.9 544 194 544C195.1 544 196 543.5 196 543C196 542.4 196.9 542 198 542C199.1 542 200 541.5 200 541C200 540.4 200.8 540 201.8 540C202.8 540 204.2 539.1 205 538C205.8 536.9 207 536 207.7 536C209.4 536 368 377.4 368 375.7C368 375 368.9 373.8 370 373C371.1 372.2 372 370.9 372 370C372 369.1 372.9 367.8 374 367C375.1 366.2 376 364.8 376 363.8C376 362.8 376.5 362 377 362C377.6 362 378 361.1 378 360C378 358.9 378.5 358 379 358C379.6 358 380 357.1 380 356C380 354.9 380.5 354 381 354C381.6 354 382 353.1 382 352C382 350.9 382.5 350 383 350C383.6 350 384 348.6 384 347C384 345.3 384.5 344 385 344C385.6 344 386 342.6 386 341C386 339.3 386.5 338 387 338C387.6 338 388 336.2 388 334C388 331.8 388.5 330 389 330C389.6 330 390 327.7 390 325C390 322.2 390.5 320 391 320C391.6 320 392 314 392 304C392 294 391.6 288 391 288C390.5 288 390 285.7 390 283C390 280.2 389.6 278 389 278C388.5 278 388 276.2 388 274C388 271.8 387.6 270 387 270C386.5 270 386 268.6 386 267C386 265.3 385.6 264 385 264C384.5 264 384 262.6 384 261C384 259.3 383.6 258 383 258C382.5 258 382 257.1 382 256C382 254.9 381.6 254 381 254C380.5 254 380 253.1 380 252C380 250.9 379.6 250 379 250C378.5 250 378 249.1 378 248C378 246.9 377.6 246 377 246C376.5 246 376 245.2 376 244.2C376 243.2 375.1 241.8 374 241C372.9 240.2 372 238.9 372 238.2C372 237.4 370.7 235.5 369 234C367.4 232.5 366 230.7 366 230.1C366 228.6 349.4 212 347.9 212C347.3 212 345.5 210.6 344 209C342.5 207.3 340.6 206 339.8 206C339.1 206 337.8 205.1 337 204C336.2 202.9 334.8 202 333.8 202C332.8 202 332 201.5 332 201C332 200.4 331.1 200 330 200C328.9 200 328 199.5 328 199C328 198.4 327.1 198 326 198C324.9 198 324 197.5 324 197C324 196.4 323.1 196 322 196C320.9 196 320 195.5 320 195C320 194.4 319.1 194 318 194C316.9 194 316 193.5 316 193C316 192.4 314.7 192 313 192C311.4 192 310 191.5 310 191C310 190.4 308.2 190 306 190C303.8 190 302 189.5 302 189C302 188.4 300.2 188 298 188C295.8 188 294 187.5 294 187C294 186.4 287.4 186 276.3 186C262.2 186.1 258.2 186.4 257.3 187.5Z"
    fill="#232323"
  />
</svg>
