<?xml version="1.0" encoding="UTF-8" standalone="no"?>
<!-- Created with Inkscape (http://www.inkscape.org/) -->

<svg
  xmlns:dc="http://purl.org/dc/elements/1.1/"
  xmlns:cc="http://creativecommons.org/ns#"
  xmlns:rdf="http://www.w3.org/1999/02/22-rdf-syntax-ns#"
  xmlns:svg="http://www.w3.org/2000/svg"
  xmlns="http://www.w3.org/2000/svg"
  xmlns:sodipodi="http://sodipodi.sourceforge.net/DTD/sodipodi-0.dtd"
  xmlns:inkscape="http://www.inkscape.org/namespaces/inkscape"
  width="1000.023"
  height="397.73999"
  id="svg2500"
  sodipodi:version="0.32"
  inkscape:version="0.91 r13725"
  version="1.0"
  sodipodi:docname="THX.svg"
>
  <defs id="defs2502" />
  <sodipodi:namedview
    id="base"
    pagecolor="#ffffff"
    bordercolor="#666666"
    borderopacity="1.0"
    inkscape:pageopacity="0.0"
    inkscape:pageshadow="2"
    inkscape:zoom="0.70710678"
    inkscape:cx="498.66929"
    inkscape:cy="234.54173"
    inkscape:document-units="px"
    inkscape:current-layer="layer1"
    inkscape:window-width="1366"
    inkscape:window-height="705"
    inkscape:window-x="-8"
    inkscape:window-y="-8"
    width="150.24mm"
    height="60.96mm"
    units="mm"
    showgrid="false"
    inkscape:window-maximized="1"
  />
  <metadata id="metadata2505">
    <rdf:RDF>
      <cc:Work rdf:about="">
        <dc:format>image/svg+xml</dc:format>
        <dc:type rdf:resource="http://purl.org/dc/dcmitype/StillImage" />
        <dc:title />
      </cc:Work>
    </rdf:RDF>
  </metadata>
  <g inkscape:label="Ebene 1" inkscape:groupmode="layer" id="layer1" transform="translate(-127.3742,-575.1707)">
    <path
      inkscape:connector-curvature="0"
      id="path2141"
      class="ps02"
      d="m 127.46498,575.17115 0,46.93711 119.83938,-0.0908 0,273.27013 55.01719,0 0,-273.27013 825.07585,0 0,-46.84625"
      style="fill:#000000;fill-opacity:1;fill-rule:nonzero;stroke:none"
    />
    <path
      inkscape:connector-curvature="0"
      id="path2143"
      class="ps02"
      d="m 127.46498,972.9107 999.93242,0 0,-47.93571 -1000.0232,0"
      style="fill:#000000;fill-opacity:1;fill-rule:nonzero;stroke:none"
    />
    <path
      inkscape:connector-curvature="0"
      id="path2145"
      class="ps02"
      d="m 386.57225,648.79975 57.10521,-0.18164 0.0908,103.2253 190.38111,0 0.0908,-103.2253 56.46973,0.18164 0,246.48778 -56.28819,0 0,-101.95429 -190.83512,0 0,101.95429 -57.01445,0"
      style="fill:#000000;fill-opacity:1;fill-rule:nonzero;stroke:none"
    />
    <path
      inkscape:connector-curvature="0"
      id="path2147"
      class="ps02"
      d="m 728.65916,895.28753 76.89688,0 97.86885,-97.86886 98.05041,98.14115 73.1746,0 -131.46014,-131.46011 115.29994,-115.3908 -74.62722,-0.0908 -85.0678,84.97703 -84.88618,-84.97703 -74.1733,0 118.11437,117.84205 -129.19041,129.19049"
      style="fill:#000000;fill-opacity:1;fill-rule:nonzero;stroke:none"
    />
  </g>
</svg>
