<svg width="171" height="171" viewBox="0 0 171 171" fill="none" xmlns="http://www.w3.org/2000/svg">
<g clip-path="url(#clip0_2454_8888)">
<path d="M85.5 7.18066C76.1934 7.18066 68.4642 13.6878 59.3657 19.6912C50.2673 25.6946 40.4142 31.7126 31.4919 33.301C25.3137 34.3986 21.375 40.003 21.375 45.9298V62.3159C21.375 87.6225 30.7128 112.503 43.0631 131.36C49.2383 140.789 56.1726 148.717 63.3248 154.454C70.4771 160.191 77.9022 163.931 85.5 163.931C93.0979 163.931 100.523 160.191 107.675 154.454C114.827 148.717 121.762 140.789 127.937 131.36C140.287 112.503 149.625 87.6225 149.625 62.3159V45.9298C149.625 40.003 145.686 34.3986 139.508 33.301C130.586 31.7126 120.733 25.6946 111.634 19.6912C102.536 13.6878 94.8066 7.18066 85.5 7.18066V7.18066ZM85.5 17.8682C88.167 17.8682 96.527 22.5272 105.748 28.6113C114.969 34.6955 125.668 41.6908 137.636 43.8215C138.156 43.9138 138.938 44.7174 138.938 45.9298V62.3159C138.938 70.0635 137.866 77.8714 136.085 85.5H85.5V153.243C81.6676 153.243 76.0239 150.941 70.0115 146.118C63.9991 141.296 57.6667 134.147 52.0042 125.502C44.555 114.128 38.3395 100.161 34.9153 85.5H85.5L85.5 17.8682Z" fill="white"/>
</g>
<defs>
<clipPath id="clip0_2454_8888">
<rect width="171" height="171" fill="white"/>
</clipPath>
</defs>
</svg>
