<svg width="172" height="172" viewBox="0 0 172 172" fill="none" xmlns="http://www.w3.org/2000/svg">
<path d="M26.805 21.5C23.864 21.5386 21.5 23.9337 21.5 26.875V145.125C21.5003 148.093 23.9066 150.5 26.875 150.5H145.125C148.093 150.5 150.5 148.093 150.5 145.125V44.7917C150.5 43.0469 149.652 41.4109 148.228 40.4037C146.803 39.3965 144.978 39.1433 143.333 39.7246L115.59 49.5158L89.2264 29.7445C87.8442 28.7066 86.0473 28.3967 84.3973 28.9116L57.8652 37.1981L29.3875 22.1229C28.5924 21.7025 27.7044 21.4883 26.805 21.5L26.805 21.5ZM32.25 35.8053L54.8208 47.7521C56.0874 48.4214 57.5687 48.5574 58.936 48.13L84.9782 39.9906L111.44 59.8389C112.879 60.9189 114.762 61.2079 116.458 60.6087L139.75 52.3852V80.1911L120.581 99.3675C119.291 100.658 117.209 100.658 115.919 99.3675L89.8003 73.2414C88.582 71.9872 86.7892 71.45 85.0692 71.7366L60.8117 76.0408C58.5542 76.435 56.2942 75.755 54.6458 74.2142L32.25 53.2181V35.8053Z" fill="black"/>
</svg>
