<svg width="172" height="172" viewBox="0 0 172 172" fill="none" xmlns="http://www.w3.org/2000/svg">
<path d="M85.9999 14.3334C46.5047 14.3334 14.3333 46.5049 14.3333 86C14.3333 125.495 46.5047 157.667 85.9999 157.667C94.8436 157.667 103.344 156.058 111.181 153.118C113.631 152.256 115.423 150.137 115.865 147.578C116.308 145.02 115.332 142.422 113.315 140.787C111.297 139.153 108.553 138.737 106.142 139.701C99.8823 142.05 93.1093 143.333 85.9999 143.333C54.2513 143.333 28.6666 117.749 28.6666 86.0001C28.6666 54.2514 54.2513 28.6667 85.9999 28.6667C117.749 28.6667 143.333 54.2514 143.333 86.0001V93.1667C143.333 101.169 137.003 107.5 129 107.5C120.997 107.5 114.667 101.169 114.667 93.1667V86.0001V57.3334C114.696 53.5603 111.795 50.4104 108.033 50.1298C104.27 49.8492 100.934 52.5339 100.403 56.2696C95.315 52.4432 89.164 50.1667 82.4166 50.1667C64.1426 50.1667 50.1666 66.7929 50.1666 86.0001C50.1666 105.207 64.1426 121.833 82.4166 121.833C91.9337 121.833 100.261 117.3 106.079 110.265C111.323 117.26 119.651 121.833 129 121.833C144.747 121.833 157.667 108.914 157.667 93.1667V86C157.667 46.5049 125.495 14.3334 85.9999 14.3334H85.9999ZM82.4166 64.5C91.8059 64.5 100.333 73.5951 100.333 86C100.333 98.405 91.8059 107.5 82.4166 107.5C73.0273 107.5 64.4999 98.405 64.4999 86C64.4999 73.5951 73.0273 64.5 82.4166 64.5Z" fill="black"/>
</svg>
