<svg width="32" height="32" viewBox="0 0 32 32" fill="none" xmlns="http://www.w3.org/2000/svg">
<path d="M25.9884 4.6471C25.6361 4.65542 25.3013 4.80288 25.0574 5.05726L16.0001 14.1145L6.94282 5.05726C6.81842 4.92937 6.66961 4.82776 6.50522 4.75842C6.34084 4.68909 6.1642 4.65345 5.98579 4.65361C5.72066 4.65394 5.46164 4.7333 5.24183 4.88155C5.02202 5.0298 4.85139 5.24021 4.75174 5.48591C4.65209 5.7316 4.62795 6.00143 4.6824 6.26091C4.73684 6.52039 4.8674 6.75775 5.05741 6.94267L14.1147 16L5.05741 25.0573C4.92944 25.1801 4.82728 25.3273 4.7569 25.4901C4.68652 25.653 4.64933 25.8282 4.64753 26.0056C4.64572 26.183 4.67933 26.3589 4.74638 26.5232C4.81344 26.6874 4.91259 26.8366 5.03802 26.9621C5.16346 27.0875 5.31267 27.1866 5.47691 27.2537C5.64114 27.3208 5.81711 27.3544 5.9945 27.3526C6.17188 27.3507 6.34713 27.3136 6.50997 27.2432C6.6728 27.1728 6.81996 27.0706 6.94282 26.9427L16.0001 17.8854L25.0574 26.9427C25.1803 27.0706 25.3274 27.1728 25.4903 27.2432C25.6531 27.3136 25.8283 27.3508 26.0057 27.3526C26.1831 27.3544 26.3591 27.3208 26.5233 27.2537C26.6876 27.1866 26.8368 27.0875 26.9622 26.9621C27.0876 26.8366 27.1868 26.6874 27.2538 26.5232C27.3209 26.3589 27.3545 26.183 27.3527 26.0056C27.3509 25.8282 27.3137 25.653 27.2433 25.4901C27.173 25.3273 27.0708 25.1801 26.9428 25.0573L17.8855 16L26.9428 6.94267C27.1368 6.75663 27.2701 6.51629 27.3251 6.25318C27.3802 5.99007 27.3544 5.71647 27.2512 5.46827C27.148 5.22006 26.9722 5.00884 26.7468 4.8623C26.5215 4.71576 26.2571 4.64075 25.9884 4.6471Z" fill="black"/>
</svg>
