<svg xmlns="http://www.w3.org/2000/svg" viewBox="0 0 48 48"><path d="M 24 4 C 19.385291 4 15.559689 7.5140788 15.058594 12 L 10.105469 12 C 8.4524687 12 7.0464531 13.127234 6.6894531 14.740234 L 5.0371094 22.173828 C 4.9621094 22.509828 5.0042031 22.862875 5.1582031 23.171875 L 7.8828125 28.615234 L 7.078125 31.025391 C 6.995125 31.273391 6.9772969 31.538922 7.0292969 31.794922 L 8.0292969 36.794922 C 8.0872969 37.085922 8.2294531 37.350547 8.4394531 37.560547 L 11.439453 40.560547 C 11.720453 40.841547 12.103 41 12.5 41 L 21.5 41 C 21.897 41 22.278547 40.841547 22.560547 40.560547 L 24.796875 38.326172 L 31.828125 41.84375 C 32.039125 41.94775 32.27 42 32.5 42 C 32.678 42 32.855391 41.968297 33.025391 41.904297 L 41.025391 38.904297 C 41.611391 38.685297 42 38.125 42 37.5 L 42 32.685547 L 42.955078 28.863281 C 43.042078 28.516281 43.001797 28.149125 42.841797 27.828125 L 40.433594 23.013672 L 42.332031 21.748047 C 42.749031 21.470047 43 21.001 43 20.5 L 43 12.5 C 43 10.57 41.43 9 39.5 9 L 32.046875 9 C 30.567564 6.0447248 27.515921 4 24 4 z M 24 7 C 27.331281 7 30 9.6687195 30 13 C 30 13.905865 29.036186 16.266038 27.701172 18.460938 C 26.445174 20.525924 24.994852 22.467859 23.998047 23.763672 C 23.001537 22.467603 21.554207 20.525093 20.298828 18.460938 C 18.963917 16.26601 18 13.905865 18 13 C 18 9.6687195 20.668719 7 24 7 z M 24 10.857422 A 2.143 2.143 0 0 0 24 15.142578 A 2.143 2.143 0 0 0 24 10.857422 z M 16.5 29 C 17.881 29 19 30.119 19 31.5 C 19 32.881 17.881 34 16.5 34 C 15.119 34 14 32.881 14 31.5 C 14 30.119 15.119 29 16.5 29 z"/></svg>