<svg width="172" height="172" viewBox="0 0 172 172" fill="none" xmlns="http://www.w3.org/2000/svg">
<path d="M48.375 14.3333C37.5103 14.3333 28.6666 23.1733 28.6666 34.0416V137.958C28.6666 148.827 37.5103 157.667 48.375 157.667H123.625C134.49 157.667 143.333 148.827 143.333 137.958V34.0416C143.333 23.1733 134.49 14.3333 123.625 14.3333H48.375ZM48.375 28.6666C51.342 28.6666 53.75 31.0746 53.75 34.0416C53.75 37.0086 51.342 39.4166 48.375 39.4166C45.408 39.4166 43 37.0086 43 34.0416C43 31.0746 45.408 28.6666 48.375 28.6666V28.6666ZM123.625 28.6666C126.592 28.6666 129 31.0746 129 34.0416C129 37.0086 126.592 39.4166 123.625 39.4166C120.658 39.4166 118.25 37.0086 118.25 34.0416C118.25 31.0746 120.658 28.6666 123.625 28.6666V28.6666ZM86 42.9999C105.791 42.9999 121.833 59.0425 121.833 78.8333C121.833 98.624 105.791 114.667 86 114.667C82.069 114.667 78.2934 114.012 74.753 112.84L67.3414 120.259C66.2879 121.312 64.9101 121.833 63.5341 121.833C62.1581 121.833 60.7838 121.308 59.7338 120.259C57.7035 118.232 57.656 114.99 59.5519 112.882L89.8002 82.6335C91.3873 81.0879 91.8636 78.7269 90.9999 76.6868C90.1362 74.6467 88.1094 73.3455 85.895 73.4093C84.4991 73.4499 83.1738 74.0323 82.1997 75.033L57.2073 100.025C52.815 94.0884 50.1666 86.7877 50.1666 78.8332C50.1666 59.0425 66.2092 42.9999 86 42.9999V42.9999ZM48.375 132.583C51.342 132.583 53.75 134.991 53.75 137.958C53.75 140.925 51.342 143.333 48.375 143.333C45.408 143.333 43 140.925 43 137.958C43 134.991 45.408 132.583 48.375 132.583ZM123.625 132.583C126.592 132.583 129 134.991 129 137.958C129 140.925 126.592 143.333 123.625 143.333C120.658 143.333 118.25 140.925 118.25 137.958C118.25 134.991 120.658 132.583 123.625 132.583Z" fill="black"/>
</svg>
