<svg xmlns="http://www.w3.org/2000/svg" viewBox="0 0 48 48"><path d="M 6.5 10 C 3.4802259 10 1 12.480226 1 15.5 L 1 32.5 C 1 35.519774 3.4802259 38 6.5 38 L 41.5 38 C 44.519774 38 47 35.519774 47 32.5 L 47 15.5 C 47 12.480226 44.519774 10 41.5 10 L 6.5 10 z M 8.5 17 C 9.33 17 10 17.67 10 18.5 L 10 29.5 C 10 30.33 9.33 31 8.5 31 C 7.67 31 7 30.33 7 29.5 L 7 18.5 C 7 17.67 7.67 17 8.5 17 z M 13.5 17 L 17 17 C 19.76 17 22 19.24 22 22 C 22 24.76 19.76 27 17 27 L 15 27 L 15 29.5 C 15 30.33 14.33 31 13.5 31 C 12.67 31 12 30.33 12 29.5 L 12 18.5 C 12 17.67 12.67 17 13.5 17 z M 37.929688 17 C 38.759687 16.98 39.46 17.599688 39.5 18.429688 C 39.54 19.249688 38.900078 19.95 38.080078 20 C 37.860078 20.01 36.730703 20.139297 35.720703 21.029297 C 35.820703 21.019297 35.91 21 36 21 C 38.76 21 41 23.24 41 26 C 41 28.76 38.76 31 36 31 C 33.24 31 31 28.76 31 26 C 31 25.95 31.009766 25.909141 31.009766 25.869141 C 31.009766 25.819141 31 25.780234 31 25.740234 C 31 19.080234 35.529687 17.11 37.929688 17 z M 15 20 L 15 24 L 17 24 C 17.1375 24 17.272461 23.985742 17.402344 23.958984 C 17.532227 23.932227 17.657812 23.892578 17.777344 23.841797 C 17.896875 23.791016 18.010742 23.72832 18.117188 23.65625 C 18.223633 23.58418 18.321484 23.502734 18.412109 23.412109 C 18.502734 23.321484 18.58418 23.223633 18.65625 23.117188 C 18.72832 23.010742 18.791016 22.896875 18.841797 22.777344 C 18.892578 22.657813 18.932227 22.532227 18.958984 22.402344 C 18.985742 22.272461 19 22.1375 19 22 C 19 21.8625 18.985742 21.727539 18.958984 21.597656 C 18.932227 21.467773 18.892578 21.342188 18.841797 21.222656 C 18.791016 21.103125 18.72832 20.989258 18.65625 20.882812 C 18.58418 20.776367 18.502734 20.678516 18.412109 20.587891 C 18.140234 20.316016 17.791992 20.121289 17.402344 20.041016 C 17.272461 20.014258 17.1375 20 17 20 L 15 20 z M 24.261719 22.998047 C 24.745469 23.005547 25.207656 23.299297 25.410156 23.779297 L 26.5 26.449219 L 27.589844 23.779297 C 27.859844 23.139297 28.580703 22.829844 29.220703 23.089844 C 29.860703 23.349844 30.170156 24.080703 29.910156 24.720703 L 27.660156 30.220703 C 27.460156 30.690703 27.01 31 26.5 31 C 25.99 31 25.539844 30.690703 25.339844 30.220703 L 23.089844 24.720703 C 22.829844 24.080703 23.139297 23.349844 23.779297 23.089844 C 23.936797 23.024844 24.100469 22.995547 24.261719 22.998047 z M 36 24 C 35.725 24 35.461719 24.056641 35.222656 24.158203 C 35.103125 24.208984 34.989258 24.27168 34.882812 24.34375 C 34.776367 24.41582 34.678516 24.497266 34.587891 24.587891 C 34.497266 24.678516 34.41582 24.776367 34.34375 24.882812 C 34.199609 25.095703 34.094531 25.337891 34.041016 25.597656 C 34.014258 25.727539 34 25.8625 34 26 C 34 26.1375 34.014258 26.272461 34.041016 26.402344 C 34.067773 26.532227 34.107422 26.657812 34.158203 26.777344 C 34.208984 26.896875 34.27168 27.010742 34.34375 27.117188 C 34.41582 27.223633 34.497266 27.321484 34.587891 27.412109 C 34.769141 27.593359 34.983594 27.740234 35.222656 27.841797 C 35.342188 27.892578 35.467773 27.932227 35.597656 27.958984 C 35.727539 27.985742 35.8625 28 36 28 C 36.1375 28 36.272461 27.985742 36.402344 27.958984 C 37.311523 27.77168 38 26.9625 38 26 C 38 24.9 37.1 24 36 24 z"/></svg>