<svg width="32" height="32" viewBox="0 0 32 32" fill="none" xmlns="http://www.w3.org/2000/svg">
<path d="M6.33341 7.33337C5.36095 7.33337 4.42832 7.71968 3.74069 8.40731C3.05306 9.09495 2.66675 10.0276 2.66675 11C2.66675 11.9725 3.05306 12.9051 3.74069 13.5928C4.42832 14.2804 5.36095 14.6667 6.33341 14.6667C7.30587 14.6667 8.23851 14.2804 8.92614 13.5928C9.61377 12.9051 10.0001 11.9725 10.0001 11C10.0001 10.0276 9.61377 9.09495 8.92614 8.40731C8.23851 7.71968 7.30587 7.33337 6.33341 7.33337ZM13.0001 8.00004C12.8676 7.99817 12.736 8.02265 12.613 8.07206C12.4901 8.12147 12.3781 8.19484 12.2838 8.28788C12.1894 8.38092 12.1145 8.4918 12.0633 8.61405C12.0122 8.73631 11.9858 8.86751 11.9858 9.00004C11.9858 9.13256 12.0122 9.26377 12.0633 9.38603C12.1145 9.50828 12.1894 9.61915 12.2838 9.7122C12.3781 9.80524 12.4901 9.8786 12.613 9.92802C12.736 9.97743 12.8676 10.0019 13.0001 10H28.3334C28.4659 10.0019 28.5975 9.97743 28.7205 9.92802C28.8434 9.8786 28.9553 9.80524 29.0497 9.7122C29.1441 9.61915 29.219 9.50828 29.2702 9.38603C29.3213 9.26377 29.3477 9.13256 29.3477 9.00004C29.3477 8.86751 29.3213 8.73631 29.2702 8.61405C29.219 8.4918 29.1441 8.38092 29.0497 8.28788C28.9553 8.19484 28.8434 8.12147 28.7205 8.07206C28.5975 8.02265 28.4659 7.99817 28.3334 8.00004H13.0001ZM13.0001 12C12.8676 11.9982 12.736 12.0226 12.613 12.0721C12.4901 12.1215 12.3781 12.1948 12.2838 12.2879C12.1894 12.3809 12.1145 12.4918 12.0633 12.6141C12.0122 12.7363 11.9858 12.8675 11.9858 13C11.9858 13.1326 12.0122 13.2638 12.0633 13.386C12.1145 13.5083 12.1894 13.6192 12.2838 13.7122C12.3781 13.8052 12.4901 13.8786 12.613 13.928C12.736 13.9774 12.8676 14.0019 13.0001 14H24.3334C24.4659 14.0019 24.5975 13.9774 24.7205 13.928C24.8434 13.8786 24.9553 13.8052 25.0497 13.7122C25.1441 13.6192 25.219 13.5083 25.2702 13.386C25.3213 13.2638 25.3477 13.1326 25.3477 13C25.3477 12.8675 25.3213 12.7363 25.2702 12.6141C25.219 12.4918 25.1441 12.3809 25.0497 12.2879C24.9553 12.1948 24.8434 12.1215 24.7205 12.0721C24.5975 12.0226 24.4659 11.9982 24.3334 12H13.0001ZM6.33341 17.3334C5.36095 17.3334 4.42832 17.7197 3.74069 18.4073C3.05306 19.0949 2.66675 20.0276 2.66675 21C2.66675 21.9725 3.05306 22.9051 3.74069 23.5928C4.42832 24.2804 5.36095 24.6667 6.33341 24.6667C7.30587 24.6667 8.23851 24.2804 8.92614 23.5928C9.61377 22.9051 10.0001 21.9725 10.0001 21C10.0001 20.0276 9.61377 19.0949 8.92614 18.4073C8.23851 17.7197 7.30587 17.3334 6.33341 17.3334ZM13.0001 18C12.8676 17.9982 12.736 18.0226 12.613 18.0721C12.4901 18.1215 12.3781 18.1948 12.2838 18.2879C12.1894 18.3809 12.1145 18.4918 12.0633 18.614C12.0122 18.7363 11.9858 18.8675 11.9858 19C11.9858 19.1326 12.0122 19.2638 12.0633 19.386C12.1145 19.5083 12.1894 19.6191 12.2838 19.7122C12.3781 19.8052 12.4901 19.8786 12.613 19.928C12.736 19.9774 12.8676 20.0019 13.0001 20H28.3334C28.4659 20.0019 28.5975 19.9774 28.7205 19.928C28.8434 19.8786 28.9553 19.8052 29.0497 19.7122C29.1441 19.6191 29.219 19.5083 29.2702 19.386C29.3213 19.2638 29.3477 19.1326 29.3477 19C29.3477 18.8675 29.3213 18.7363 29.2702 18.614C29.219 18.4918 29.1441 18.3809 29.0497 18.2879C28.9553 18.1948 28.8434 18.1215 28.7205 18.0721C28.5975 18.0226 28.4659 17.9982 28.3334 18H13.0001ZM13.0001 22C12.8676 21.9982 12.736 22.0226 12.613 22.0721C12.4901 22.1215 12.3781 22.1948 12.2838 22.2879C12.1894 22.3809 12.1145 22.4918 12.0633 22.614C12.0122 22.7363 11.9858 22.8675 11.9858 23C11.9858 23.1326 12.0122 23.2638 12.0633 23.386C12.1145 23.5083 12.1894 23.6191 12.2838 23.7122C12.3781 23.8052 12.4901 23.8786 12.613 23.928C12.736 23.9774 12.8676 24.0019 13.0001 24H24.3334C24.4659 24.0019 24.5975 23.9774 24.7205 23.928C24.8434 23.8786 24.9553 23.8052 25.0497 23.7122C25.1441 23.6191 25.219 23.5083 25.2702 23.386C25.3213 23.2638 25.3477 23.1326 25.3477 23C25.3477 22.8675 25.3213 22.7363 25.2702 22.614C25.219 22.4918 25.1441 22.3809 25.0497 22.2879C24.9553 22.1948 24.8434 22.1215 24.7205 22.0721C24.5975 22.0226 24.4659 21.9982 24.3334 22H13.0001Z" fill="black"/>
</svg>
