<svg width="32" height="32" viewBox="0 0 32 32" fill="none" xmlns="http://www.w3.org/2000/svg">
<path d="M30 18.6667V9C30 7.346 28.654 6 27 6H5C3.346 6 2 7.346 2 9V18.6667H30ZM23.3333 10C23.3333 9.632 23.632 9.33333 24 9.33333H26C26.368 9.33333 26.6667 9.632 26.6667 10V16C26.6667 16.368 26.368 16.6667 26 16.6667H24C23.632 16.6667 23.3333 16.368 23.3333 16V10ZM17.3333 10C17.3333 9.632 17.632 9.33333 18 9.33333H20C20.368 9.33333 20.6667 9.632 20.6667 10V16C20.6667 16.368 20.368 16.6667 20 16.6667H18C17.632 16.6667 17.3333 16.368 17.3333 16V10ZM11.3333 10C11.3333 9.632 11.632 9.33333 12 9.33333H14C14.368 9.33333 14.6667 9.632 14.6667 10V16C14.6667 16.368 14.368 16.6667 14 16.6667H12C11.632 16.6667 11.3333 16.368 11.3333 16V10ZM5.33333 10C5.33333 9.632 5.632 9.33333 6 9.33333H8C8.368 9.33333 8.66667 9.632 8.66667 10V16C8.66667 16.368 8.368 16.6667 8 16.6667H6C5.632 16.6667 5.33333 16.368 5.33333 16V10ZM2 20.6667V23C2 24.654 3.346 26 5 26H5.33333V23.6667C5.33333 23.114 5.78067 22.6667 6.33333 22.6667C6.886 22.6667 7.33333 23.114 7.33333 23.6667V26H9.33333V23.6667C9.33333 23.114 9.78067 22.6667 10.3333 22.6667C10.886 22.6667 11.3333 23.114 11.3333 23.6667V26H13C13.5527 26 14 25.5527 14 25C14 23.8973 14.8973 23 16 23C17.1027 23 18 23.8973 18 25C18 25.5527 18.4473 26 19 26H20.6667V23.6667C20.6667 23.114 21.114 22.6667 21.6667 22.6667C22.2193 22.6667 22.6667 23.114 22.6667 23.6667V26H24.6667V23.6667C24.6667 23.114 25.114 22.6667 25.6667 22.6667C26.2193 22.6667 26.6667 23.114 26.6667 23.6667V26H27C28.654 26 30 24.654 30 23V20.6667H2Z" fill="black"/>
</svg>
