<svg width="32" height="32" viewBox="0 0 32 32" fill="none" xmlns="http://www.w3.org/2000/svg">
<path d="M4.66678 14.6666C4.49009 14.6641 4.31468 14.6968 4.15072 14.7627C3.98676 14.8285 3.83753 14.9264 3.71171 15.0504C3.58588 15.1745 3.48597 15.3223 3.41777 15.4853C3.34957 15.6483 3.31445 15.8233 3.31445 16C3.31445 16.1767 3.34957 16.3516 3.41777 16.5146C3.48597 16.6776 3.58588 16.8255 3.71171 16.9495C3.83753 17.0736 3.98676 17.1714 4.15072 17.2373C4.31468 17.3032 4.49009 17.3358 4.66678 17.3333H27.3334C27.5101 17.3358 27.6855 17.3032 27.8495 17.2373C28.0135 17.1714 28.1627 17.0736 28.2885 16.9495C28.4143 16.8255 28.5143 16.6776 28.5825 16.5146C28.6506 16.3516 28.6858 16.1767 28.6858 16C28.6858 15.8233 28.6506 15.6483 28.5825 15.4853C28.5143 15.3223 28.4143 15.1745 28.2885 15.0504C28.1627 14.9264 28.0135 14.8285 27.8495 14.7627C27.6855 14.6968 27.5101 14.6641 27.3334 14.6666H4.66678Z" fill="black"/>
</svg>
