<svg width="172" height="172" viewBox="0 0 172 172" fill="none" xmlns="http://www.w3.org/2000/svg">
<path d="M84.2084 17.9166C40.4702 17.9166 14.3334 49.8011 14.3334 80.625C14.3334 92.8155 25.4345 103.917 37.625 103.917C43.6415 103.917 50.1094 102.609 55.3052 101.555C58.2722 100.953 61.3395 100.333 62.7084 100.333C69.764 100.333 71.699 105.701 74.7305 118.873C78.1454 133.734 82.8252 154.083 109.571 154.083C129.735 154.083 157.667 132.289 157.667 91.375C157.667 50.869 124.714 17.9166 84.2084 17.9166H84.2084ZM132.583 77.0416C132.583 81.9902 128.574 86 123.625 86C118.676 86 114.667 81.9902 114.667 77.0416C114.667 72.093 118.676 68.0833 123.625 68.0833C128.574 68.0833 132.583 72.093 132.583 77.0416ZM109.292 46.5833C114.24 46.5833 118.25 50.593 118.25 55.5416C118.25 60.4902 114.24 64.4999 109.292 64.4999C104.343 64.4999 100.333 60.4902 100.333 55.5416C100.333 50.593 104.343 46.5833 109.292 46.5833V46.5833ZM84.2084 57.3333C79.2598 57.3333 75.25 53.3235 75.25 48.375C75.25 43.4264 79.2598 39.4166 84.2084 39.4166C89.157 39.4166 93.1667 43.4264 93.1667 48.375C93.1667 53.3235 89.157 57.3333 84.2084 57.3333V57.3333ZM109.292 129C104.343 129 100.333 124.99 100.333 120.042C100.333 115.093 104.343 111.083 109.292 111.083C114.24 111.083 118.25 115.093 118.25 120.042C118.25 124.99 114.24 129 109.292 129ZM127.208 111.083C122.26 111.083 118.25 107.074 118.25 102.125C118.25 97.1764 122.26 93.1666 127.208 93.1666C132.157 93.1666 136.167 97.1764 136.167 102.125C136.167 107.074 132.157 111.083 127.208 111.083Z" fill="black"/>
</svg>
