<svg width="32" height="32" viewBox="0 0 32 32" fill="none" xmlns="http://www.w3.org/2000/svg">
<path d="M15.9806 3.31508C15.6272 3.32026 15.2903 3.46553 15.044 3.71896C14.7976 3.97239 14.6619 4.31325 14.6668 4.66665V14.6666H4.66678C4.49009 14.6641 4.31468 14.6968 4.15072 14.7627C3.98676 14.8286 3.83753 14.9264 3.71171 15.0504C3.58588 15.1745 3.48597 15.3223 3.41777 15.4853C3.34957 15.6483 3.31445 15.8233 3.31445 16C3.31445 16.1767 3.34957 16.3516 3.41777 16.5146C3.48597 16.6776 3.58588 16.8255 3.71171 16.9495C3.83753 17.0736 3.98676 17.1714 4.15072 17.2373C4.31468 17.3032 4.49009 17.3358 4.66678 17.3333H14.6668V27.3333C14.6643 27.51 14.6969 27.6854 14.7628 27.8494C14.8287 28.0133 14.9265 28.1626 15.0506 28.2884C15.1746 28.4142 15.3225 28.5141 15.4855 28.5823C15.6485 28.6505 15.8234 28.6856 16.0001 28.6856C16.1768 28.6856 16.3517 28.6505 16.5148 28.5823C16.6778 28.5141 16.8256 28.4142 16.9497 28.2884C17.0737 28.1626 17.1715 28.0133 17.2374 27.8494C17.3033 27.6854 17.3359 27.51 17.3334 27.3333V17.3333H27.3334C27.5101 17.3358 27.6855 17.3032 27.8495 17.2373C28.0135 17.1714 28.1627 17.0736 28.2885 16.9495C28.4143 16.8255 28.5143 16.6776 28.5825 16.5146C28.6506 16.3516 28.6858 16.1767 28.6858 16C28.6858 15.8233 28.6506 15.6483 28.5825 15.4853C28.5143 15.3223 28.4143 15.1745 28.2885 15.0504C28.1627 14.9264 28.0135 14.8286 27.8495 14.7627C27.6855 14.6968 27.5101 14.6641 27.3334 14.6666H17.3334V4.66665C17.3359 4.48837 17.3025 4.31142 17.2354 4.14625C17.1683 3.98109 17.0687 3.83106 16.9425 3.70505C16.8164 3.57904 16.6663 3.4796 16.5011 3.41262C16.3358 3.34564 16.1589 3.31247 15.9806 3.31508Z" fill="black"/>
</svg>
