<svg width="32" height="32" viewBox="0 0 32 32" fill="none" xmlns="http://www.w3.org/2000/svg">
<path d="M22.6669 2.66833C22.0979 2.66833 21.5294 2.73733 20.9521 2.87667C20.5374 2.976 20.2304 3.32897 20.189 3.75297L20.1617 4.03422C20.1304 4.35489 19.9462 4.64242 19.6669 4.80375C19.3876 4.96442 19.0462 4.98269 18.7541 4.84802L18.495 4.73083C18.109 4.5555 17.649 4.64286 17.3557 4.95219C16.557 5.79219 15.961 6.81957 15.6357 7.92224C15.5143 8.33091 15.6672 8.7706 16.0146 9.0186L16.2476 9.18526C16.5096 9.37393 16.6669 9.67837 16.6669 10.0004C16.6669 10.3224 16.5103 10.6262 16.2489 10.8142L16.0146 10.9821C15.9932 10.9975 15.9799 11.0189 15.9599 11.0355L16.0081 11.3519C16.0394 11.5559 16.1536 11.7252 16.3323 11.8285C16.4356 11.8878 16.5509 11.9196 16.6656 11.9196C16.7469 11.9196 16.8284 11.9035 16.9091 11.8715L18.0562 11.4235C18.3276 11.3182 18.6119 11.2647 18.9026 11.2647C19.5986 11.2647 20.2535 11.5718 20.6969 12.1058C21.5175 13.0925 22.161 14.2039 22.6083 15.4105C22.8463 16.0532 22.7809 16.746 22.4716 17.322C22.5369 17.324 22.6029 17.3337 22.6669 17.3337C23.2282 17.3337 23.8057 17.2634 24.3831 17.1241C24.7971 17.0247 25.1034 16.6731 25.1448 16.2491L25.1721 15.9665C25.2035 15.6458 25.3876 15.3583 25.6669 15.197C25.9469 15.037 26.2883 15.0194 26.5797 15.1527L26.8388 15.2712C27.2248 15.4479 27.6854 15.3598 27.9781 15.0498C28.7768 14.2098 29.3728 13.1825 29.6982 12.0798C29.8195 11.6698 29.6666 11.2295 29.3193 10.9821L29.0862 10.8155C28.8242 10.6268 28.6669 10.3224 28.6669 10.0004C28.6669 9.67837 28.8235 9.37456 29.0849 9.18656L29.3193 9.0186C29.6666 8.77126 29.8195 8.33157 29.6982 7.92224C29.3728 6.81957 28.7768 5.79219 27.9781 4.95219C27.6848 4.64219 27.2241 4.55417 26.8388 4.73083L26.581 4.84802C26.2863 4.98136 25.9456 4.96308 25.6669 4.80375C25.3876 4.64242 25.2035 4.35552 25.1721 4.03552L25.1448 3.75297C25.1034 3.3283 24.7964 2.976 24.3818 2.87667C23.8044 2.73733 23.2359 2.66833 22.6669 2.66833ZM22.6669 8.00037C23.7716 8.00037 24.6669 8.8957 24.6669 10.0004C24.6669 11.105 23.7716 12.0004 22.6669 12.0004C21.5622 12.0004 20.6669 11.105 20.6669 10.0004C20.6669 8.8957 21.5622 8.00037 22.6669 8.00037ZM11.9351 9.3311C11.3967 9.33276 10.8801 9.38765 10.3127 9.48865C9.89074 9.56265 9.56231 9.89798 9.49764 10.322L9.31014 11.5524C9.21881 12.1558 8.86291 12.6774 8.33358 12.9834C7.80558 13.2888 7.17571 13.3383 6.60571 13.1149L5.45727 12.6657C5.05661 12.5104 4.5998 12.6261 4.32446 12.9574C3.6018 13.8267 3.03487 14.808 2.64087 15.8754C2.49154 16.2794 2.618 16.7336 2.95467 17.003L3.91691 17.7725C4.39358 18.1532 4.66691 18.7224 4.66691 19.3337C4.66691 19.945 4.39358 20.5142 3.91691 20.8949L2.95467 21.6644C2.618 21.9338 2.4922 22.388 2.64087 22.792C3.03554 23.8594 3.6018 24.8407 4.32446 25.71C4.5998 26.0413 5.05794 26.159 5.45727 26.0017L6.60571 25.5524C7.17505 25.3298 7.80558 25.3793 8.33358 25.684C8.86291 25.99 9.21944 26.5109 9.31144 27.1149L9.49764 28.3454C9.56231 28.7694 9.89074 29.1047 10.3127 29.1788C10.8974 29.2834 11.4489 29.3337 12.0002 29.3337C12.5516 29.3337 13.1031 29.2841 13.6877 29.1801C14.1097 29.1061 14.4382 28.7694 14.5028 28.3454L14.689 27.1149H14.6903C14.7817 26.5116 15.1376 25.99 15.6669 25.684C16.1962 25.3793 16.8261 25.3311 17.3948 25.5538L18.5432 26.003C18.9439 26.159 19.4007 26.0413 19.676 25.71C20.3987 24.8407 20.9656 23.8607 21.3596 22.7933C21.509 22.3887 21.3825 21.9338 21.0458 21.6644L20.0836 20.8949C19.6069 20.5142 19.3336 19.945 19.3336 19.3337C19.3336 18.7224 19.6075 18.1525 20.0849 17.7712L21.0458 17.003C21.3825 16.7343 21.5076 16.2781 21.3583 15.8741C20.9636 14.8101 20.3968 13.83 19.6721 12.9587C19.3968 12.6274 18.9393 12.5104 18.5393 12.6657L17.3948 13.1136C16.8261 13.337 16.1962 13.2888 15.6669 12.9834C15.1376 12.6774 14.781 12.1564 14.689 11.5524L14.5028 10.3272C14.4382 9.90119 14.1078 9.56522 13.6838 9.49255C13.0335 9.38089 12.4736 9.32943 11.9351 9.3311ZM12.0002 16.0004C13.8409 16.0004 15.3336 17.493 15.3336 19.3337C15.3336 21.1744 13.8409 22.667 12.0002 22.667C10.1596 22.667 8.66691 21.1744 8.66691 19.3337C8.66691 17.493 10.1596 16.0004 12.0002 16.0004Z" fill="black"/>
</svg>
