<svg width="32" height="32" viewBox="0 0 32 32" fill="none" xmlns="http://www.w3.org/2000/svg">
<path d="M16 2.66663C14.2312 2.66663 12.5362 3.01322 10.9883 3.64189V3.64058C8.99992 4.44725 7.26174 5.72556 5.88799 7.32678L5.86325 6.62236C5.85945 6.44407 5.81993 6.26836 5.74702 6.10561C5.67412 5.94287 5.56931 5.7964 5.4388 5.67488C5.3083 5.55336 5.15474 5.45924 4.98722 5.39811C4.8197 5.33698 4.64162 5.31007 4.46351 5.31897C4.11068 5.33686 3.77937 5.49404 3.54233 5.75599C3.30528 6.01794 3.18187 6.36325 3.19919 6.71611L3.33851 10.7135C3.3511 11.0667 3.50341 11.4005 3.76197 11.6415C4.02053 11.8825 4.36419 12.0109 4.71742 11.9987L8.71481 11.8593C8.89339 11.8586 9.07 11.8221 9.23418 11.7519C9.39836 11.6816 9.54676 11.5791 9.67057 11.4504C9.79439 11.3218 9.8911 11.1695 9.95496 11.0028C10.0188 10.836 10.0485 10.6581 10.0423 10.4796C10.0361 10.3012 9.99417 10.1258 9.9189 9.96382C9.84364 9.80189 9.73661 9.65672 9.60417 9.53693C9.47174 9.41714 9.31659 9.32518 9.14793 9.26649C8.97928 9.2078 8.80056 9.18358 8.62237 9.19527L7.7682 9.22522C8.88875 7.86575 10.3353 6.7836 11.9909 6.11194H11.9922C13.2282 5.60994 14.5781 5.33329 16 5.33329C21.9067 5.33329 26.6666 10.0932 26.6666 16C26.6666 21.9067 21.9067 26.6666 16 26.6666C10.0932 26.6666 5.3333 21.9067 5.3333 16C5.3358 15.8233 5.30316 15.6479 5.23728 15.4839C5.17139 15.3199 5.07358 15.1707 4.94952 15.0449C4.82546 14.9191 4.67763 14.8191 4.51462 14.751C4.35161 14.6828 4.17667 14.6476 3.99997 14.6476C3.82327 14.6476 3.64833 14.6828 3.48532 14.751C3.32231 14.8191 3.17448 14.9191 3.05042 15.0449C2.92636 15.1707 2.82855 15.3199 2.76267 15.4839C2.69678 15.6479 2.66414 15.8233 2.66664 16C2.66664 23.3479 8.65203 29.3333 16 29.3333C23.3479 29.3333 29.3333 23.3479 29.3333 16C29.3333 8.65202 23.3479 2.66663 16 2.66663Z" fill="black"/>
</svg>
