<svg xmlns="http://www.w3.org/2000/svg" viewBox="0 0 48 48"><path d="M 11.5 6 C 8.4802259 6 6 8.4802259 6 11.5 L 6 36.5 C 6 39.519774 8.4802259 42 11.5 42 L 19.5 42 C 22.519774 42 25 39.519774 25 36.5 L 25 11.5 C 25 8.4802259 22.519774 6 19.5 6 L 11.5 6 z M 25.96875 6 C 27.23275 7.484 28 9.403 28 11.5 L 28 16 L 42 16 L 42 11.5 C 42 8.468 39.533 6 36.5 6 L 25.96875 6 z M 11.5 9 L 19.5 9 C 20.898226 9 22 10.101774 22 11.5 L 22 17 L 9 17 L 9 11.5 C 9 10.101774 10.101774 9 11.5 9 z M 28 19 L 28 29 L 42 29 L 42 19 L 28 19 z M 9 20 L 22 20 L 22 28 L 9 28 L 9 20 z M 9 31 L 22 31 L 22 36.5 C 22 37.898226 20.898226 39 19.5 39 L 11.5 39 C 10.101774 39 9 37.898226 9 36.5 L 9 31 z M 28 32 L 28 36.5 C 28 38.597 27.23275 40.516 25.96875 42 L 36.5 42 C 39.533 42 42 39.532 42 36.5 L 42 32 L 28 32 z"/></svg>