<svg width="32" height="32" viewBox="0 0 32 32" fill="none" xmlns="http://www.w3.org/2000/svg">
<path d="M8.15827 2.1333C7.3988 2.1333 6.69954 2.5367 6.3166 3.19163L3.82702 7.4583C3.43982 8.12283 3.43982 8.94483 3.82702 9.6083L6.3166 13.875C6.69954 14.531 7.3988 14.9333 8.15827 14.9333H13.1749C13.9333 14.9333 14.6358 14.5299 15.0187 13.875L17.5062 9.6083C17.8934 8.94377 17.8934 8.12177 17.5062 7.4583L15.0187 3.19163C14.6347 2.53563 13.9344 2.1333 13.1749 2.1333H8.15827ZM20.9583 9.59997C20.1999 9.59997 19.4975 10.0034 19.1145 10.6583L16.627 14.925C16.2398 15.5895 16.2398 16.4115 16.627 17.075L19.1145 21.3416C19.4985 21.9976 20.1988 22.4 20.9583 22.4H25.9749C26.7333 22.4 27.4358 21.9966 27.8187 21.3416L30.3062 17.075C30.6934 16.4104 30.6934 15.5884 30.3062 14.925L27.8187 10.6583C27.4347 10.0023 26.7344 9.59997 25.9749 9.59997H20.9583ZM8.15827 17.0666C7.39987 17.0666 6.69954 17.47 6.3166 18.125L3.82702 22.3916C3.43982 23.0562 3.43982 23.8782 3.82702 24.5416L6.3166 28.8083C6.69954 29.4643 7.3988 29.8666 8.15827 29.8666H13.1749C13.9333 29.8666 14.6358 29.4632 15.0187 28.8083L17.5062 24.5416C17.8934 23.8771 17.8934 23.0551 17.5062 22.3916L15.0187 18.125C14.6347 17.469 13.9344 17.0666 13.1749 17.0666H8.15827Z" fill="black"/>
</svg>
