<svg width="32" height="32" viewBox="0 0 32 32" fill="none" xmlns="http://www.w3.org/2000/svg">
<path d="M26.0926 17.5208C25.6172 17.1721 25.3332 16.6121 25.3332 16.0221C25.3332 15.4321 25.6172 14.8721 26.0919 14.5241L28.2879 12.9141C28.6379 12.6568 28.7826 12.2041 28.6459 11.7915C28.0806 10.0928 27.1866 8.54347 25.9879 7.18547C25.6992 6.86014 25.2339 6.75747 24.8359 6.93214L22.3632 8.01947C21.8246 8.25681 21.1972 8.22281 20.6859 7.92747C20.1752 7.63281 19.8326 7.10747 19.7679 6.52147L19.4706 3.80681C19.4232 3.37481 19.1019 3.02281 18.6766 2.93547C16.9452 2.58147 15.1259 2.57547 13.3639 2.92881C12.9359 3.01481 12.6139 3.36681 12.5666 3.80081L12.2719 6.49814C12.2072 7.08481 11.8646 7.61014 11.3526 7.90481C10.8419 8.19947 10.2166 8.23481 9.67592 7.99681L7.18992 6.90347C6.79525 6.72881 6.32858 6.83014 6.03992 7.15481C4.83725 8.50747 3.93925 10.0548 3.36792 11.7521C3.22925 12.1641 3.37325 12.6195 3.72458 12.8775L5.90658 14.4775C6.38258 14.8268 6.66658 15.3868 6.66658 15.9768C6.66658 16.5668 6.38258 17.1268 5.90792 17.4748L3.71192 19.0848C3.36192 19.3421 3.21725 19.7948 3.35392 20.2075C3.91925 21.9061 4.81325 23.4555 6.01192 24.8135C6.30058 25.1395 6.76725 25.2428 7.16392 25.0668L9.63658 23.9795C10.1752 23.7421 10.8019 23.7761 11.3139 24.0715C11.8246 24.3661 12.1672 24.8915 12.2319 25.4775L12.5293 28.1921C12.5766 28.6241 12.8979 28.9761 13.3232 29.0635C14.1992 29.2421 15.0992 29.3328 15.9999 29.3328C16.8786 29.3328 17.7652 29.2441 18.6352 29.0695C19.0632 28.9835 19.3852 28.6315 19.4326 28.1975L19.7279 25.5001C19.7926 24.9135 20.1352 24.3881 20.6472 24.0935C21.1579 23.7995 21.7839 23.7648 22.3239 24.0015L24.8099 25.0948C25.2059 25.2701 25.6712 25.1688 25.9599 24.8435C27.1626 23.4908 28.0606 21.9435 28.6319 20.2461C28.7706 19.8341 28.6266 19.3788 28.2752 19.1208L26.0926 17.5208ZM15.9999 20.6661C13.4226 20.6661 11.3332 18.5768 11.3332 15.9995C11.3332 13.4221 13.4226 11.3328 15.9999 11.3328C18.5772 11.3328 20.6666 13.4221 20.6666 15.9995C20.6666 18.5768 18.5772 20.6661 15.9999 20.6661Z" fill="black"/>
</svg>
