<svg width="32" height="32" viewBox="0 0 32 32" fill="none" xmlns="http://www.w3.org/2000/svg">
<path d="M15.9999 2C8.66059 2 3.33325 6.27533 3.33325 12.1667C3.33325 14.6247 3.96192 17.0133 5.15592 19.1153C5.26925 19.3153 5.33325 19.5393 5.33325 19.7693V22.3333C5.33325 24.3587 6.97459 26 8.99992 26H9.66659C9.85659 26 9.99925 26.158 9.99992 26.3487C10.0079 28.3633 11.6499 30 13.6666 30H18.3333C20.3499 30 21.9919 28.3633 21.9999 26.3487C22.0006 26.158 22.1433 26 22.3333 26H22.9999C25.0253 26 26.6666 24.3587 26.6666 22.3333V19.7693C26.6666 19.5393 26.7306 19.3153 26.8439 19.1153C28.0379 17.0133 28.6666 14.6247 28.6666 12.1667C28.6666 6.27533 23.3393 2 15.9999 2ZM12.3333 22C11.0446 22 9.99992 20.9553 9.99992 19.6667C9.99992 18.378 11.0446 17.3333 12.3333 17.3333C13.6219 17.3333 14.6666 18.378 14.6666 19.6667C14.6666 20.9553 13.6219 22 12.3333 22ZM16.9646 25.2633C16.8693 25.3107 16.7673 25.3333 16.6673 25.3333C16.4226 25.3333 16.1873 25.1987 16.0699 24.9647L15.9999 24.824L15.9299 24.9647C15.7653 25.294 15.3659 25.4267 15.0353 25.2627C14.7059 25.098 14.5726 24.6973 14.7373 24.368L15.4039 23.0347C15.6299 22.5827 16.3706 22.5827 16.5966 23.0347L17.2633 24.368C17.4279 24.698 17.2939 25.098 16.9646 25.2633ZM19.6666 22C18.3779 22 17.3333 20.9553 17.3333 19.6667C17.3333 18.378 18.3779 17.3333 19.6666 17.3333C20.9553 17.3333 21.9999 18.378 21.9999 19.6667C21.9999 20.9553 20.9553 22 19.6666 22Z" fill="black"/>
</svg>
