<svg width="172" height="172" viewBox="0 0 172 172" fill="none" xmlns="http://www.w3.org/2000/svg">
<path d="M48.375 14.3333C37.5067 14.3333 28.6666 23.1733 28.6666 34.0416V137.958C28.6666 148.827 37.5067 157.667 48.375 157.667H54.6598C55.2368 157.761 55.8254 157.761 56.4025 157.667H72.5765C73.1535 157.761 73.7421 157.761 74.3191 157.667H90.4931C91.0702 157.761 91.6588 157.761 92.2358 157.667H123.625C134.493 157.667 143.333 148.827 143.333 137.958V34.0416C143.333 23.1733 134.493 14.3333 123.625 14.3333H48.375ZM48.375 121.833H123.625C128.563 121.833 132.583 125.854 132.583 130.792V137.958C132.583 142.896 128.563 146.917 123.625 146.917H96.75V137.958C96.7708 136.505 96.2021 135.105 95.1736 134.078C94.1451 133.05 92.7444 132.484 91.291 132.506C88.3252 132.553 85.9574 134.992 86 137.958V146.917H78.8333V137.958C78.8541 136.505 78.2855 135.105 77.2569 134.078C76.2284 133.05 74.8277 132.484 73.3743 132.506C70.4085 132.553 68.0407 134.992 68.0833 137.958V146.917H60.9166V137.958C60.9375 136.505 60.3688 135.105 59.3403 134.078C58.3117 133.05 56.9111 132.484 55.4576 132.506C52.4918 132.553 50.1241 134.992 50.1666 137.958V146.917H48.3749C43.4371 146.917 39.4166 142.896 39.4166 137.958V130.792C39.4166 125.854 43.4371 121.833 48.3749 121.833H48.375ZM120.042 129C117.073 129 114.667 131.406 114.667 134.375C114.667 137.343 117.073 139.75 120.042 139.75C123.01 139.75 125.417 137.343 125.417 134.375C125.417 131.406 123.01 129 120.042 129Z" fill="black"/>
</svg>
