<svg width="32" height="32" viewBox="0 0 32 32" fill="none" xmlns="http://www.w3.org/2000/svg">
<path d="M15.9999 2C13.6106 2 11.6666 3.944 11.6666 6.33333V18.2747C10.1966 19.5361 9.33325 21.3907 9.33325 23.3333C9.33325 27.0093 12.3239 30 15.9999 30C19.6759 30 22.6666 27.0093 22.6666 23.3333C22.6666 21.3907 21.8033 19.5361 20.3333 18.2747V16H21.6666C21.7991 16.0019 21.9307 15.9774 22.0536 15.928C22.1766 15.8786 22.2885 15.8052 22.3829 15.7122C22.4773 15.6191 22.5522 15.5082 22.6033 15.386C22.6545 15.2637 22.6808 15.1325 22.6808 15C22.6808 14.8675 22.6545 14.7363 22.6033 14.614C22.5522 14.4918 22.4773 14.3809 22.3829 14.2878C22.2885 14.1948 22.1766 14.1214 22.0536 14.072C21.9307 14.0226 21.7991 13.9981 21.6666 14H20.3333V12.6667H21.6666C21.7991 12.6685 21.9307 12.6441 22.0536 12.5946C22.1766 12.5452 22.2885 12.4719 22.3829 12.3788C22.4773 12.2858 22.5522 12.1749 22.6033 12.0527C22.6545 11.9304 22.6808 11.7992 22.6808 11.6667C22.6808 11.5341 22.6545 11.4029 22.6033 11.2807C22.5522 11.1584 22.4773 11.0476 22.3829 10.9545C22.2885 10.8615 22.1766 10.7881 22.0536 10.7387C21.9307 10.6893 21.7991 10.6648 21.6666 10.6667H20.3333V9.33333H21.6666C21.7991 9.33521 21.9307 9.31073 22.0536 9.26131C22.1766 9.2119 22.2885 9.13854 22.3829 9.04549C22.4773 8.95245 22.5522 8.84158 22.6033 8.71932C22.6545 8.59706 22.6808 8.46586 22.6808 8.33333C22.6808 8.20081 22.6545 8.06961 22.6033 7.94735C22.5522 7.82509 22.4773 7.71422 22.3829 7.62117C22.2885 7.52813 22.1766 7.45477 22.0536 7.40535C21.9307 7.35594 21.7991 7.33146 21.6666 7.33333H20.3333V6.33333C20.3333 3.944 18.3893 2 15.9999 2ZM15.9999 10.6667C16.5526 10.6667 16.9999 11.114 16.9999 11.6667V20.1693C18.3486 20.5959 19.3333 21.8427 19.3333 23.3333C19.3333 25.174 17.8406 26.6667 15.9999 26.6667C14.1593 26.6667 12.6666 25.174 12.6666 23.3333C12.6666 21.8433 13.6513 20.5966 14.9999 20.1693V11.6667C14.9999 11.114 15.4473 10.6667 15.9999 10.6667Z" fill="black"/>
</svg>
