<svg width="172" height="172" viewBox="0 0 172 172" fill="none" xmlns="http://www.w3.org/2000/svg">
<path d="M86.0002 14.3333C73.4288 14.3333 62.9608 23.7268 61.2038 35.8333H23.2919C21.3535 35.8059 19.5504 36.8243 18.5732 38.4986C17.596 40.1729 17.596 42.2437 18.5732 43.918C19.5504 45.5923 21.3535 46.6107 23.2919 46.5833H30.9485L39.9768 139.855C40.9586 150.007 49.3994 157.667 59.6011 157.667H112.399C122.601 157.667 131.038 150.007 132.024 139.855L141.052 46.5833H148.709C150.647 46.6107 152.45 45.5923 153.427 43.918C154.404 42.2437 154.404 40.1729 153.427 38.4986C152.45 36.8243 150.647 35.8059 148.709 35.8333H110.797C109.04 23.7268 98.5717 14.3333 86.0002 14.3333V14.3333ZM86.0002 25.0833C92.7339 25.0833 98.258 29.6276 99.8367 35.8333H72.1638C73.7425 29.6276 79.2666 25.0833 86.0002 25.0833H86.0002ZM69.8752 64.5C72.8422 64.5 75.2502 66.9044 75.2502 69.875V123.625C75.2502 126.596 72.8422 129 69.8752 129C66.9082 129 64.5002 126.596 64.5002 123.625V69.875C64.5002 66.9044 66.9082 64.5 69.8752 64.5ZM102.125 64.5C105.092 64.5 107.5 66.9044 107.5 69.875V123.625C107.5 126.596 105.092 129 102.125 129C99.1582 129 96.7502 126.596 96.7502 123.625V69.875C96.7502 66.9044 99.1582 64.5 102.125 64.5Z" fill="black"/>
</svg>