<svg width="32" height="32" viewBox="0 0 32 32" fill="none" xmlns="http://www.w3.org/2000/svg">
<path d="M10.6667 3C8.09333 3 6 5.09333 6 7.66667C6 10.24 8.09333 12.3333 10.6667 12.3333C13.24 12.3333 15.3333 10.24 15.3333 7.66667C15.3333 5.09333 13.24 3 10.6667 3ZM21.3333 3C18.76 3 16.6667 5.09333 16.6667 7.66667C16.6667 10.24 18.76 12.3333 21.3333 12.3333C23.9067 12.3333 26 10.24 26 7.66667C26 5.09333 23.9067 3 21.3333 3ZM6.33333 13.6667C5.04667 13.6667 4 14.7133 4 16V22.3333C4 26.0093 6.99067 29 10.6667 29C12.3613 29 13.906 28.3598 15.0833 27.3138C13.9913 25.9458 13.3333 24.216 13.3333 22.3333V16C13.3333 15.1147 13.6498 14.3013 14.1745 13.6667H6.33333ZM17 13.6667C15.7133 13.6667 14.6667 14.7133 14.6667 16V22.3333C14.6667 26.0093 17.6573 29 21.3333 29C25.0093 29 28 26.0093 28 22.3333V16C28 14.7133 26.9533 13.6667 25.6667 13.6667H17Z" fill="black"/>
</svg>
