<svg width="32" height="32" viewBox="0 0 32 32" fill="none" xmlns="http://www.w3.org/2000/svg">
<path d="M25.2525 11.9399C25.0958 11.5712 24.7338 11.3326 24.3331 11.3326H19.6625L23.8625 4.17189C24.0438 3.86256 24.0458 3.47989 23.8678 3.16923C23.6891 2.85789 23.3585 2.66589 22.9998 2.66589H14.9998C14.6351 2.66589 14.2991 2.86456 14.1238 3.18389L6.79045 16.5172C6.62045 16.8266 6.62578 17.2039 6.80578 17.5079C6.98578 17.8126 7.31311 17.9992 7.66645 17.9992H12.1831L8.07511 27.9512C7.89178 28.3959 8.05045 28.9079 8.45311 29.1706C8.62111 29.2792 8.81045 29.3326 8.99978 29.3326C9.26445 29.3326 9.52778 29.2272 9.72178 29.0246L25.0551 13.0246C25.3325 12.7352 25.4105 12.3086 25.2525 11.9399Z" fill="black"/>
</svg>
