<svg width="128" height="128" viewBox="0 0 128 128" fill="none" xmlns="http://www.w3.org/2000/svg">
  <path
    d="M64 13.3333C36.0614 13.3333 13.3334 36.0613 13.3334 63.9999V110.667C13.3334 112.875 15.1254 114.667 17.3334 114.667H110.667C112.875 114.667 114.667 112.875 114.667 110.667V63.9999C114.667 36.0613 91.9387 13.3333 64 13.3333ZM78.4271 29.3489C79.9618 29.2385 81.777 29.6458 83.5156 30.5885C86.993 32.4765 88.8356 35.8072 87.6302 38.0312C86.4222 40.2552 82.6232 40.5259 79.1459 38.6405C75.6712 36.7525 73.8285 33.4218 75.0365 31.1978C75.6391 30.0858 76.8924 29.4592 78.4271 29.3489ZM46 50.6666C53.72 50.6666 60 59.4044 60 70.1457C60 73.1911 59.7291 75.6918 59.1771 77.8385C57.2264 78.1424 54.8427 78.6305 52.3334 79.203C52.9555 77.6829 53.3334 75.9131 53.3334 73.9999C53.3334 68.4799 50.3467 63.9999 46.6667 63.9999C42.9867 63.9999 40 68.4799 40 73.9999C40 77.2155 41.0305 80.0452 42.6042 81.8749C40.4974 82.5737 38.4171 83.3409 36.4531 84.1926C33.6852 80.558 32 75.5031 32 70.1457C32 59.4044 38.28 50.6666 46 50.6666ZM82 50.6666C89.72 50.6666 96 59.4044 96 70.1457C96 75.5057 94.3124 80.558 91.5417 84.1926C89.5788 83.341 87.5017 82.5788 85.3959 81.8801C86.971 80.0505 88 77.2173 88 73.9999C88 68.4799 85.0134 63.9999 81.3334 63.9999C77.6534 63.9999 74.6667 68.4799 74.6667 73.9999C74.6667 75.9131 75.0446 77.6829 75.6667 79.203C73.1717 78.6338 70.7977 78.1473 68.8542 77.8437C68.2969 75.689 68 73.2071 68 70.1457C68 59.4071 74.28 50.6666 82 50.6666ZM64 85.3332C72.952 85.3332 93.7897 92.4795 95.9844 96.2395C95.4511 100.77 79.8987 106.667 64 106.667C48.1014 106.667 32.549 100.77 32.0156 96.2395C34.2103 92.4795 55.048 85.3332 64 85.3332Z"
    fill="url(#paint0_linear)"
  />
  <defs>
    <linearGradient id="paint0_linear" x1="13.3334" y1="63.9999" x2="114.667" y2="63.9999" gradientUnits="userSpaceOnUse">
      <stop stop-color="#8676FF" />
      <stop offset="0.333333" stop-color="#516DFF" />
      <stop offset="0.692708" stop-color="#32B5FF" />
      <stop offset="1" stop-color="#4ADEFF" />
    </linearGradient>
  </defs>
</svg>
