<svg width="172" height="172" viewBox="0 0 172 172" fill="none" xmlns="http://www.w3.org/2000/svg">
<path d="M73.7665 141.233C75.1676 142.635 76.9986 143.333 78.8333 143.333C80.668 143.333 82.4991 142.635 83.9001 141.233C86.6987 138.435 86.6987 133.898 83.9001 131.1L45.967 93.1666H143.333C147.289 93.1666 150.5 89.9559 150.5 85.9999C150.5 82.0439 147.289 78.8333 143.333 78.8333H45.967L83.9001 40.9001C86.6987 38.1015 86.6987 33.565 83.9001 30.7664C81.1016 27.9678 76.565 27.9678 73.7665 30.7664L23.5998 80.9331C20.8012 83.7317 20.8012 88.2682 23.5998 91.0668L73.7665 141.233Z" fill="black"/>
</svg>
