<svg width="172" height="172" viewBox="0 0 172 172" fill="none" xmlns="http://www.w3.org/2000/svg">
<path d="M25.6705 21C23.0861 21 21 23.0738 21 25.6429V129.551C21 141.375 30.7768 151 42.7955 151C54.8141 151 64.5909 141.375 64.5909 129.551V25.6429C64.5909 23.0738 62.5048 21 59.9204 21H25.6705ZM108.839 34.9588C107.624 34.9588 106.408 35.4523 105.536 36.319L82.4335 59.2854L113.26 89.9295L136.363 66.9631C138.2 65.1369 138.2 62.1991 136.363 60.4038L112.135 36.319C111.263 35.4523 110.084 34.9588 108.839 34.9588H108.839ZM75.8292 65.8507L70.8182 70.8321C70.8182 70.8321 70.7846 131.374 70.6601 132.271L73.9318 129.025L83.2727 119.739L83.5221 119.491L106.655 96.4948L75.8292 65.8507ZM104.199 107.667C104.199 107.667 65.4026 146.048 63.7213 147.905C63.5656 148.06 63.4087 148.246 63.253 148.4C62.9105 148.772 62.5388 149.141 62.1341 149.513C62.1029 149.575 62.0382 149.608 61.9759 149.67C61.4778 150.134 60.9788 150.567 60.4495 151H111.295V107.667H104.199ZM120.636 107.667V151H153.33C155.914 151 158 148.926 158 146.357V112.31C158 109.74 155.914 107.667 153.33 107.667H120.636ZM42.7955 123.143C46.2205 123.143 49.0227 125.929 49.0227 129.333C49.0227 132.738 46.2205 135.524 42.7955 135.524C39.3704 135.524 36.5682 132.738 36.5682 129.333C36.5682 125.929 39.3704 123.143 42.7955 123.143V123.143Z" fill="black"/>
</svg>
