<svg width="172" height="172" viewBox="0 0 172 172" fill="none" xmlns="http://www.w3.org/2000/svg">
<path d="M37.3521 21.5C26.4839 21.5 17.6438 30.3401 17.6438 41.2083V130.792C17.6438 141.66 26.4839 150.5 37.3521 150.5H134.102C144.97 150.5 153.81 141.66 153.81 130.792V41.2083C153.81 30.3401 144.97 21.5 134.102 21.5H37.3521ZM82.1438 32.25H134.102C139.04 32.25 143.06 36.2705 143.06 41.2083V130.792C143.06 135.729 139.04 139.75 134.102 139.75H82.1438V91.319L103.497 91.361L96.5331 98.3247C95.129 99.6728 94.5634 101.675 95.0545 103.558C95.5455 105.442 97.0165 106.913 98.9001 107.404C100.784 107.895 102.786 107.329 104.134 105.925L120.259 89.8003C122.357 87.7012 122.357 84.2988 120.259 82.1997L104.134 66.0747C103.121 65.0323 101.73 64.4441 100.277 64.444C98.0893 64.4445 96.1198 65.7713 95.2974 67.799C94.4749 69.8267 94.9636 72.1506 96.5331 73.6753L103.469 80.611L82.1438 80.569L82.1438 32.25ZM37.3521 43H62.4355C65.406 43 67.8105 45.4044 67.8105 48.375C67.8105 51.3456 65.406 53.75 62.4355 53.75H37.3521C34.3815 53.75 31.9771 51.3456 31.9771 48.375C31.9771 45.4044 34.3815 43 37.3521 43V43ZM37.3521 60.9167H62.4355C65.406 60.9167 67.8105 63.3211 67.8105 66.2917C67.8105 69.2623 65.406 71.6667 62.4355 71.6667H37.3521C34.3815 71.6667 31.9771 69.2623 31.9771 66.2917C31.9771 63.3211 34.3815 60.9167 37.3521 60.9167V60.9167ZM37.3521 78.8333H62.4355C65.406 78.8333 67.8105 81.2377 67.8105 84.2083C67.8105 87.1789 65.406 89.5833 62.4355 89.5833H37.3521C34.3815 89.5833 31.9771 87.1789 31.9771 84.2083C31.9771 81.2377 34.3815 78.8333 37.3521 78.8333V78.8333Z" fill="black"/>
</svg>
