<svg width="32" height="32" viewBox="0 0 32 32" fill="none" xmlns="http://www.w3.org/2000/svg">
<path d="M7 4C5.355 4 4 5.355 4 7V12.3333V18.3333V25C4 26.645 5.355 28 7 28H25C26.645 28 28 26.645 28 25V18.3333V12.3333V7C28 5.355 26.645 4 25 4H7ZM7 6H25C25.5643 6 26 6.43567 26 7V12.3333V18.3333C26 18.8977 25.5643 19.3333 25 19.3333H7C6.43567 19.3333 6 18.8977 6 18.3333V12.3333V7C6 6.43567 6.43567 6 7 6ZM23 22.3333C23.7367 22.3333 24.3333 22.93 24.3333 23.6667C24.3333 24.4033 23.7367 25 23 25C22.2633 25 21.6667 24.4033 21.6667 23.6667C21.6667 22.93 22.2633 22.3333 23 22.3333ZM9 22.6667H18.3333C18.886 22.6667 19.3333 23.1147 19.3333 23.6667C19.3333 24.2187 18.886 24.6667 18.3333 24.6667H9C8.44733 24.6667 8 24.2187 8 23.6667C8 23.1147 8.44733 22.6667 9 22.6667Z" fill="black"/>
</svg>