<svg width="172" height="172" viewBox="0 0 172 172" fill="none" xmlns="http://www.w3.org/2000/svg">
<path d="M143.398 39.6282L101.523 18.0672C101.52 18.0672 101.516 18.0637 101.513 18.0637C91.7946 13.0828 80.2025 13.0936 70.4773 18.0672L28.5989 39.6317C22.0127 43.0252 17.917 49.7403 17.917 57.1507V114.918C17.917 122.328 22.0127 129.043 28.6025 132.444L70.4845 154.008C75.3399 156.495 80.6683 157.738 85.9932 157.738C91.3216 157.738 96.6572 156.491 101.52 154.005L143.398 132.44C149.988 129.047 154.084 122.332 154.084 114.921V57.1507C154.084 49.7403 149.988 43.0252 143.398 39.6282V39.6282ZM91.3753 81.9115V134.411C91.3753 137.378 88.9673 139.786 86.0003 139.786C83.0333 139.786 80.6253 137.378 80.6253 134.411V81.9115C77.0958 81.3453 73.6307 80.2703 70.3806 78.5826L38.7326 62.1387C36.0988 60.7698 35.074 57.5269 36.4393 54.8932C37.8153 52.2594 41.0653 51.231 43.6848 52.5998L75.3328 69.0438C82.0085 72.5088 89.9886 72.5088 96.6643 69.0438L128.312 52.5998C130.939 51.2238 134.189 52.2558 135.558 54.8932C136.93 57.5269 135.905 60.7698 133.268 62.1387L101.62 78.5826C98.37 80.2703 94.9013 81.3453 91.3753 81.9115V81.9115ZM139.75 111.019C139.75 115.125 137.482 118.845 133.831 120.723L118.92 128.402C118.132 128.807 117.294 129 116.462 129C114.513 129 112.635 127.936 111.678 126.087C110.32 123.446 111.36 120.207 113.997 118.845L128.911 111.162L129 91.5865C129 88.6159 131.408 86.2115 134.375 86.2115C137.342 86.2115 139.75 88.6159 139.75 91.5865L139.75 111.019Z" fill="black"/>
</svg>
