<svg width="171" height="171" viewBox="0 0 171 171" fill="none" xmlns="http://www.w3.org/2000/svg">
<g clip-path="url(#clip0_44_147)">
<path d="M143.526 36.3446C142.945 35.5751 142.169 34.9766 141.274 34.6133L138.724 33.573C129.005 29.6079 121.987 26.7437 113.637 25.1798C108.617 24.2393 103.202 27.1 100.43 32.1373C95.8597 31.7134 91.0254 31.5709 85.6496 31.7098C80.0671 31.578 75.1901 31.7098 70.6123 32.1373C67.8834 27.1819 62.4862 24.3925 57.4595 25.3258C48.4642 27.0073 41.0578 30.0212 29.7682 34.6097C28.874 34.9731 28.0974 35.5716 27.5167 36.3411C8.55353 61.4745 0.997472 88.749 4.41747 119.718C4.60272 121.374 5.54678 122.849 6.97535 123.711C19.6294 131.324 30.5912 136.547 41.4782 140.142C46.7293 141.877 52.5611 139.899 55.6819 135.343L60.5482 128.222C68.5496 130.241 76.8894 131.342 85.5249 131.506C93.9431 131.346 102.247 130.238 110.256 128.207L115.386 135.5C117.776 138.902 121.57 140.804 125.542 140.804C126.853 140.804 128.182 140.598 129.486 140.167C140.395 136.572 151.381 131.342 164.067 123.711C165.492 122.853 166.44 121.374 166.625 119.718C170.042 88.7454 162.486 61.4709 143.526 36.3446L143.526 36.3446ZM58.7385 99.6894C51.8771 99.6894 46.2305 92.4611 46.2305 83.676C46.2305 74.8909 51.8771 67.6626 58.7385 67.6626C65.5998 67.6626 71.2464 74.8909 71.2464 83.676C71.2464 92.4611 65.5999 99.6894 58.7385 99.6894V99.6894ZM108.613 99.7856C101.816 99.7856 96.2231 92.5146 96.2231 83.676C96.2231 74.8374 101.816 67.5664 108.613 67.5664C115.411 67.5664 121.004 74.8374 121.004 83.676C121.004 92.5146 115.411 99.7856 108.613 99.7856V99.7856Z" fill="black"/>
</g>
<defs>
<clipPath id="clip0_44_147">
<rect width="171" height="171" fill="white"/>
</clipPath>
</defs>
</svg>
