<svg width="172" height="172" viewBox="0 0 172 172" fill="none" xmlns="http://www.w3.org/2000/svg">
<path d="M80.625 21.5C79.636 21.5 78.8333 22.3027 78.8333 23.2917V34.0417C78.8333 35.0307 79.636 35.8333 80.625 35.8333H91.375C92.364 35.8333 93.1667 35.0307 93.1667 34.0417V23.2917C93.1667 22.3027 92.364 21.5 91.375 21.5H80.625ZM37.625 43C36.636 43 35.8333 43.8027 35.8333 44.7917V55.5417C35.8333 56.5307 36.636 57.3333 37.625 57.3333H48.375C49.364 57.3333 50.1667 56.5307 50.1667 55.5417V44.7917C50.1667 43.8027 49.364 43 48.375 43H37.625ZM59.125 43C58.136 43 57.3333 43.8027 57.3333 44.7917V55.5417C57.3333 56.5307 58.136 57.3333 59.125 57.3333H69.875C70.864 57.3333 71.6667 56.5307 71.6667 55.5417V44.7917C71.6667 43.8027 70.864 43 69.875 43H59.125ZM80.625 43C79.636 43 78.8333 43.8027 78.8333 44.7917V55.5417C78.8333 56.5307 79.636 57.3333 80.625 57.3333H91.375C92.364 57.3333 93.1667 56.5307 93.1667 55.5417V44.7917C93.1667 43.8027 92.364 43 91.375 43H80.625ZM134.298 51.2445L132.674 53.575C130.643 56.7069 129.164 60.1564 128.293 63.7791C126.648 70.7057 127.643 77.2089 131.177 82.7666C126.909 85.1352 119.633 85.9498 118.25 86H7.16667C3.20709 86 0 89.2071 0 93.1667C0 100.333 1.55416 110.813 4.96908 120.098C8.87133 130.289 14.6812 137.795 22.2349 142.389C30.6987 147.552 44.4507 150.5 60.0418 150.5C67.0831 150.522 74.1149 149.886 81.0379 148.603C90.6627 146.844 99.9238 143.495 108.438 138.693C115.454 134.648 121.767 129.499 127.138 123.45C136.115 113.331 141.462 102.059 145.44 92.0469C145.458 92.0361 145.471 92.0332 145.489 92.0189C156.228 92.4525 162.729 88.303 166.233 84.8522C168.448 82.7595 170.179 80.2049 171.3 77.3776L172 75.327L170.306 73.9972C169.84 73.6282 165.486 70.3509 156.302 70.3509C153.876 70.3617 151.455 70.5725 149.065 70.9738C147.288 58.8442 137.22 52.9234 136.769 52.6582L134.298 51.2445ZM16.125 64.5C15.136 64.5 14.3333 65.3027 14.3333 66.2917V77.0417C14.3333 78.0307 15.136 78.8333 16.125 78.8333H26.875C27.864 78.8333 28.6667 78.0307 28.6667 77.0417V66.2917C28.6667 65.3027 27.864 64.5 26.875 64.5H16.125ZM37.625 64.5C36.636 64.5 35.8333 65.3027 35.8333 66.2917V77.0417C35.8333 78.0307 36.636 78.8333 37.625 78.8333H48.375C49.364 78.8333 50.1667 78.0307 50.1667 77.0417V66.2917C50.1667 65.3027 49.364 64.5 48.375 64.5H37.625ZM59.125 64.5C58.136 64.5 57.3333 65.3027 57.3333 66.2917V77.0417C57.3333 78.0307 58.136 78.8333 59.125 78.8333H69.875C70.864 78.8333 71.6667 78.0307 71.6667 77.0417V66.2917C71.6667 65.3027 70.864 64.5 69.875 64.5H59.125ZM80.625 64.5C79.636 64.5 78.8333 65.3027 78.8333 66.2917V77.0417C78.8333 78.0307 79.636 78.8333 80.625 78.8333H91.375C92.364 78.8333 93.1667 78.0307 93.1667 77.0417V66.2917C93.1667 65.3027 92.364 64.5 91.375 64.5H80.625ZM102.125 64.5C101.136 64.5 100.333 65.3027 100.333 66.2917V77.0417C100.333 78.0307 101.136 78.8333 102.125 78.8333H112.875C113.864 78.8333 114.667 78.0307 114.667 77.0417V66.2917C114.667 65.3027 113.864 64.5 112.875 64.5H102.125Z" fill="black"/>
</svg>
