<svg width="48" height="48" viewBox="0 0 48 48" fill="none" xmlns="http://www.w3.org/2000/svg">
<path d="M38.657 18.5359L41.097 16.0959C43.631 13.5619 43.631 9.43793 41.097 6.90293C39.87 5.67693 38.239 5.00293 36.5 5.00293C34.761 5.00293 33.129 5.67793 31.903 6.90393L29.464 9.34293L38.657 18.5359ZM27.343 11.4639L9.27397 29.5329C8.88897 29.9179 8.59597 30.3929 8.42597 30.9079L5.07598 41.0289C4.89698 41.5669 5.03797 42.1599 5.43897 42.5609C5.72597 42.8469 6.10797 42.9999 6.49997 42.9999C6.65797 42.9999 6.81697 42.9749 6.97197 42.9239L17.09 39.5729C17.607 39.4029 18.083 39.1099 18.468 38.7239L36.536 20.6559L27.343 11.4639Z" fill="black"/>
</svg>
