<svg width="172" height="172" viewBox="0 0 172 172" fill="none" xmlns="http://www.w3.org/2000/svg">
<path d="M89.3683 3.90584C87.3975 2.36501 84.6025 2.36501 82.6317 3.90584C80.9475 5.26751 41.2083 37.5533 41.2083 69.6958C41.2083 72.8133 41.5308 75.8592 42.0683 78.8333H69.8392C69.8033 78.3675 69.7675 77.9017 69.7675 77.4C69.7675 62.7083 86 45.8308 86 45.8308C86 45.8308 102.232 62.8875 102.232 77.4C102.232 77.9017 102.197 78.3675 102.161 78.8333H129.932C130.469 75.8592 130.792 72.8133 130.792 69.6958C130.792 37.5533 91.0525 5.26751 89.3683 3.90584H89.3683ZM146.917 132.583H129C125.04 132.583 121.833 135.79 121.833 139.75V157.667C121.833 161.626 125.04 164.833 129 164.833H139.75C147.666 164.833 154.083 158.416 154.083 150.5V139.75C154.083 135.79 150.876 132.583 146.917 132.583L146.917 132.583ZM25.0833 132.583H43C46.9596 132.583 50.1667 135.79 50.1667 139.75V157.667C50.1667 161.626 46.9596 164.833 43 164.833H32.25C24.3344 164.833 17.9167 158.416 17.9167 150.5V139.75C17.9167 135.79 21.1237 132.583 25.0833 132.583L25.0833 132.583ZM73.4583 121.833H25.0833C21.1237 121.833 17.9167 118.626 17.9167 114.667V96.75C17.9167 92.7904 21.1237 89.5833 25.0833 89.5833H73.4583C77.4179 89.5833 80.625 92.7904 80.625 96.75V114.667C80.625 118.626 77.4179 121.833 73.4583 121.833ZM146.917 121.833H98.5417C94.5821 121.833 91.375 118.626 91.375 114.667V96.75C91.375 92.7904 94.5821 89.5833 98.5417 89.5833H146.917C150.876 89.5833 154.083 92.7904 154.083 96.75V114.667C154.083 118.626 150.876 121.833 146.917 121.833ZM103.917 164.833H68.0833C64.1238 164.833 60.9167 161.626 60.9167 157.667V139.75C60.9167 135.79 64.1237 132.583 68.0833 132.583H103.917C107.876 132.583 111.083 135.79 111.083 139.75V157.667C111.083 161.626 107.876 164.833 103.917 164.833V164.833Z" fill="black"/>
</svg>
