<svg width="172" height="172" viewBox="0 0 172 172" fill="none" xmlns="http://www.w3.org/2000/svg">
<path d="M59.125 17.9166C57.1866 17.8891 55.3836 18.9076 54.4064 20.5819C53.4292 22.2562 53.4292 24.3269 54.4064 26.0012C55.3836 27.6755 57.1866 28.694 59.125 28.6666H60.9167V70.9457C60.9167 74.2247 59.9136 77.4275 58.0472 80.121L24.3625 128.776C24.3625 128.778 24.3625 128.781 24.3625 128.783C20.1831 134.824 20.6006 143.191 25.7203 148.834C29.0624 152.522 33.7379 154.083 38.1849 154.083H133.815C138.262 154.083 142.938 152.522 146.28 148.834C151.399 143.191 151.817 134.824 147.638 128.783C147.638 128.781 147.638 128.778 147.638 128.776L113.953 80.121C112.087 77.4275 111.083 74.2247 111.083 70.9457V28.6666H112.875C114.813 28.694 116.616 27.6755 117.594 26.0012C118.571 24.3269 118.571 22.2562 117.594 20.5819C116.616 18.9076 114.813 17.8891 112.875 17.9166H105.708H66.2917H59.125ZM71.6667 28.6666H100.333V57.3332H71.6667V28.6666ZM75.25 93.1666C79.2096 93.1666 82.4167 96.3736 82.4167 100.333C82.4167 104.293 79.2096 107.5 75.25 107.5C71.2905 107.5 68.0834 104.293 68.0834 100.333C68.0834 96.3736 71.2904 93.1666 75.25 93.1666ZM105.708 114.667C110.657 114.667 114.667 118.676 114.667 123.625C114.667 128.573 110.657 132.583 105.708 132.583C100.76 132.583 96.75 128.573 96.75 123.625C96.75 118.676 100.76 114.667 105.708 114.667V114.667Z" fill="black"/>
</svg>
