<svg width="32" height="32" viewBox="0 0 32 32" fill="none" xmlns="http://www.w3.org/2000/svg">
<path d="M15.9999 2C8.66059 2 3.33325 6.27533 3.33325 12.1667C3.33325 14.6247 3.96192 17.0133 5.15592 19.1153C5.26925 19.3153 5.33325 19.5393 5.33325 19.7693V22.3333C5.33325 24.3587 6.97458 26 8.99992 26H9.66658C9.85658 26 9.99925 26.158 9.99992 26.3487C10.0079 28.3633 11.6499 30 13.6666 30H18.3333C20.3499 30 21.9919 28.3633 21.9999 26.3487C22.0006 26.158 22.1433 26 22.3333 26H22.9999C25.0253 26 26.6666 24.3587 26.6666 22.3333V19.7693C26.6666 19.5393 26.7306 19.3153 26.8439 19.1153C28.0379 17.0133 28.6666 14.6247 28.6666 12.1667C28.6666 6.27533 23.3393 2 15.9999 2ZM14.6666 20.3333C14.6666 20.8853 14.2186 21.3333 13.6666 21.3333C13.1146 21.3333 12.6666 20.8853 12.6666 20.3333V20C12.6666 19.632 12.3679 19.3333 11.9999 19.3333C11.6319 19.3333 11.3333 19.632 11.3333 20V20.3333C11.3333 20.8853 10.8853 21.3333 10.3333 21.3333C9.78125 21.3333 9.33325 20.8853 9.33325 20.3333V20C9.33325 18.5293 10.5293 17.3333 11.9999 17.3333C13.4706 17.3333 14.6666 18.5293 14.6666 20V20.3333ZM16.9646 25.2633C16.8693 25.3107 16.7673 25.3333 16.6673 25.3333C16.4226 25.3333 16.1873 25.1987 16.0699 24.9647L15.9999 24.824L15.9299 24.9647C15.7653 25.294 15.3659 25.4267 15.0353 25.2627C14.7059 25.098 14.5726 24.6973 14.7373 24.368L15.4039 23.0347C15.6299 22.5827 16.3706 22.5827 16.5966 23.0347L17.2633 24.368C17.4279 24.698 17.2939 25.098 16.9646 25.2633ZM22.6666 20.3333C22.6666 20.8853 22.2186 21.3333 21.6666 21.3333C21.1146 21.3333 20.6666 20.8853 20.6666 20.3333V20C20.6666 19.632 20.3679 19.3333 19.9999 19.3333C19.6319 19.3333 19.3333 19.632 19.3333 20V20.3333C19.3333 20.8853 18.8853 21.3333 18.3333 21.3333C17.7813 21.3333 17.3333 20.8853 17.3333 20.3333V20C17.3333 18.5293 18.5293 17.3333 19.9999 17.3333C21.4706 17.3333 22.6666 18.5293 22.6666 20V20.3333Z" fill="black"/>
</svg>