<svg width="172" height="172" viewBox="0 0 172 172" fill="none" xmlns="http://www.w3.org/2000/svg">
<path d="M141.542 154.083H109.292C104.343 154.083 100.333 150.074 100.333 145.125V112.875C100.333 108.915 97.1263 105.708 93.1667 105.708H78.8333C74.8738 105.708 71.6667 108.915 71.6667 112.875V145.125C71.6667 150.074 67.6569 154.083 62.7083 154.083H30.4583C25.5098 154.083 21.5 150.074 21.5 145.125V76.7299C21.5 68.4918 25.2768 60.7088 31.7448 55.6133L82.6711 15.4836C84.624 13.9499 87.376 13.9499 89.3253 15.4836L140.259 55.6133C146.727 60.7088 150.5 68.4882 150.5 76.7227V145.125C150.5 150.074 146.49 154.083 141.542 154.083L141.542 154.083Z" fill="black"/>
</svg>
