<svg width="172" height="172" viewBox="0 0 172 172" fill="none" xmlns="http://www.w3.org/2000/svg">
<path d="M109.292 17.9167C84.5527 17.9167 64.5003 37.969 64.5003 62.7083C64.5003 66.8256 65.1023 70.7959 66.1415 74.5835L19.4901 121.235C18.4832 122.242 17.917 123.611 17.917 125.037V148.708C17.917 151.675 20.3214 154.083 23.292 154.083H48.3753C51.3459 154.083 53.7503 151.675 53.7503 148.708V139.75H66.292C69.2626 139.75 71.667 137.342 71.667 134.375V121.833H84.2087C87.1792 121.833 89.5837 119.425 89.5837 116.458V102.885C95.5356 105.812 102.211 107.5 109.292 107.5C134.031 107.5 154.084 87.4477 154.084 62.7083C154.084 37.969 134.031 17.9167 109.292 17.9167V17.9167ZM114.667 68.0833C108.729 68.0833 103.917 63.2709 103.917 57.3333C103.917 51.3957 108.729 46.5833 114.667 46.5833C120.605 46.5833 125.417 51.3957 125.417 57.3333C125.417 63.2709 120.605 68.0833 114.667 68.0833Z" fill="black"/>
</svg>
