<svg width="172" height="172" viewBox="0 0 172 172" fill="none" xmlns="http://www.w3.org/2000/svg">
<path d="M85.9999 14.3334C46.5047 14.3334 14.3332 46.5049 14.3332 86C14.2967 88.5846 15.6546 90.9886 17.887 92.2916C20.1194 93.5945 22.8804 93.5945 25.1128 92.2916C27.3452 90.9886 28.7031 88.5846 28.6666 86C28.6666 54.2514 54.2513 28.6667 85.9999 28.6667C117.749 28.6667 143.333 54.2514 143.333 86C143.297 88.5846 144.655 90.9886 146.887 92.2916C149.119 93.5945 151.88 93.5945 154.113 92.2916C156.345 90.9886 157.703 88.5846 157.667 86C157.667 46.5049 125.495 14.3334 85.9999 14.3334V14.3334ZM26.406 103.525C22.448 103.525 19.2393 106.733 19.2393 110.691C19.2393 114.649 22.448 117.858 26.406 117.858C30.364 117.858 33.5727 114.649 33.5727 110.691C33.5727 106.733 30.364 103.525 26.406 103.525V103.525ZM40.3964 124.437C36.4384 124.437 33.2297 127.646 33.2297 131.604C33.2297 135.562 36.4384 138.77 40.3964 138.77C44.3544 138.77 47.5631 135.562 47.5631 131.604C47.5631 127.646 44.3544 124.437 40.3964 124.437ZM131.561 124.486C127.603 124.486 124.395 127.695 124.395 131.653C124.395 135.611 127.603 138.819 131.561 138.819C135.519 138.819 138.728 135.611 138.728 131.653C138.728 127.695 135.519 124.486 131.561 124.486V124.486ZM61.2945 138.42C57.3365 138.42 54.1278 141.629 54.1278 145.587C54.1278 149.545 57.3365 152.754 61.2945 152.754C65.2525 152.754 68.4612 149.545 68.4612 145.587C68.4612 141.629 65.2525 138.42 61.2945 138.42ZM110.649 138.455C106.691 138.455 103.483 141.664 103.483 145.622C103.483 149.58 106.691 152.789 110.649 152.789C114.607 152.789 117.816 149.58 117.816 145.622C117.816 141.664 114.607 138.455 110.649 138.455ZM85.9999 143.333C82.0419 143.333 78.8332 146.542 78.8332 150.5C78.8332 154.458 82.0419 157.667 85.9999 157.667C89.9579 157.667 93.1666 154.458 93.1666 150.5C93.1666 146.542 89.9579 143.333 85.9999 143.333Z" fill="black"/>
</svg>
