<svg width="172" height="172" viewBox="0 0 172 172" fill="none" xmlns="http://www.w3.org/2000/svg">
<path d="M86.0002 14.3334C52.41 14.3334 25.0835 41.6599 25.0835 75.25C25.0835 89.7124 30.2757 103.748 39.7501 114.839C40.8322 116.068 66.3635 145.078 74.8918 153.209C78.0058 156.18 82.0012 157.667 86.0002 157.667C89.9992 157.667 93.9946 156.18 97.1121 153.209C107.027 143.753 131.24 115.996 132.3 114.778C141.725 103.748 146.917 89.7124 146.917 75.25C146.917 41.6599 119.59 14.3334 86.0002 14.3334H86.0002ZM86.0002 93.1667C76.1066 93.1667 68.0835 85.1436 68.0835 75.25C68.0835 65.3565 76.1066 57.3334 86.0002 57.3334C95.8937 57.3334 103.917 65.3565 103.917 75.25C103.917 85.1436 95.8938 93.1667 86.0002 93.1667Z" fill="black"/>
</svg>
