<svg width="172" height="172" viewBox="0 0 172 172" fill="none" xmlns="http://www.w3.org/2000/svg">
<path d="M42.9999 17.9167C33.8085 17.9167 25.9088 24.1663 21.283 33.0058C16.6572 41.8454 14.3333 53.6048 14.3333 68.0833C14.3333 79.7913 16.5517 91.534 21.7869 101.089C22.08 101.624 22.5113 102.072 22.8297 102.594C19.1802 106.777 16.5169 109.516 16.5169 109.516C14.641 111.288 13.8628 113.932 14.4795 116.438C15.0962 118.944 17.0126 120.925 19.4968 121.625C21.981 122.324 24.6494 121.634 26.483 119.818C26.483 119.818 28.9559 117.39 32.5859 113.295C37.038 116.361 42.3028 118.25 48.214 118.25C61.7662 118.25 74.0213 111.605 83.9773 102.832C87.4639 105.579 91.6926 107.5 96.7499 107.5C103.333 107.5 108.94 104.41 113.141 100.613C117.342 96.8162 120.489 92.2191 123.058 87.8197C123.337 87.3419 123.437 87.0258 123.702 86.5529C124.333 88.5252 124.839 90.5305 125.753 92.3968C126.526 93.976 127.403 95.5259 128.888 97.0649C130.373 98.604 132.933 100.333 136.167 100.333C140.421 100.333 143.178 97.58 144.614 95.7142C146.051 93.8483 146.954 92.0858 147.952 90.3042C149.949 86.7409 152.094 83.2228 155.056 80.786C158.114 78.2697 158.552 73.7513 156.036 70.6938C153.52 67.6364 149.001 67.1977 145.944 69.714C141.477 73.3885 138.878 77.5154 136.873 80.9749C136.612 80.1303 136.355 79.6388 136.111 78.7423C135.306 75.7889 134.604 72.7204 133.934 70.1759C133.599 68.9037 133.297 67.7959 132.835 66.5926C132.605 65.991 132.388 65.3816 131.75 64.416C131.113 63.4505 129.709 60.9166 125.417 60.9166C120.737 60.9166 119.962 63.1825 119.314 64.0031C118.666 64.8237 118.35 65.4089 118.012 66.0257C117.336 67.2593 116.736 68.564 116.024 70.0849C114.6 73.1268 112.823 76.9339 110.684 80.597C108.546 84.26 106.021 87.7254 103.532 89.9752C101.043 92.225 98.9443 93.1667 96.7499 93.1667C95.4672 93.1667 94.5386 92.639 93.5865 92.1168C101.567 82.2495 107.5 71.4941 107.5 60.9167C107.5 56.8324 106.345 52.7888 103.742 49.3058C101.138 45.8229 96.5605 43 91.3749 43C85.3464 43 79.2858 46.6649 76.0968 52.1823C72.9077 57.6997 71.6666 64.6457 71.6666 73.4583C71.6666 78.6042 72.9144 84.7824 75.4109 90.7871C67.1217 98.3084 57.293 103.917 48.214 103.917C45.6033 103.917 43.5395 103.033 41.5652 101.901C42.897 100.14 43.9517 99.1097 45.3095 97.1489C54.6885 83.6042 64.4999 65.4177 64.4999 45.8135C64.4999 39.8118 63.3668 33.5523 60.1327 28.0648C56.8987 22.5772 50.5956 17.9167 42.9999 17.9167H42.9999ZM42.9999 32.25C45.5165 32.25 46.3825 32.9602 47.7871 35.3434C49.1916 37.7266 50.1666 41.832 50.1666 45.8135C50.1666 60.4121 42.0613 76.6588 33.5237 88.9884C33.2687 89.3568 33.0785 89.5164 32.8238 89.8773C30.3473 83.6414 28.6666 76.0879 28.6666 68.0833C28.6666 55.2103 30.9386 45.4702 33.9856 39.6476C37.0326 33.825 39.8826 32.25 42.9999 32.25V32.25ZM91.3749 57.3333C91.9084 57.3333 91.8108 57.2895 92.2568 57.8862C92.7028 58.4829 93.1666 59.8194 93.1666 60.9167C93.1666 64.6677 90.518 70.668 86.8118 76.9087C86.6744 75.7655 85.9999 74.3736 85.9999 73.4583C85.9999 66.1459 87.2933 61.4461 88.5055 59.3489C89.7177 57.2517 89.925 57.3333 91.3749 57.3333V57.3333ZM21.4999 139.75C18.9154 139.713 16.5114 141.071 15.2084 143.304C13.9055 145.536 13.9055 148.297 15.2084 150.53C16.5114 152.762 18.9154 154.12 21.4999 154.083H150.5C153.084 154.12 155.489 152.762 156.791 150.53C158.094 148.297 158.094 145.536 156.791 143.304C155.489 141.071 153.084 139.713 150.5 139.75H21.4999Z" fill="black"/>
</svg>
