<svg width="32" height="32" viewBox="0 0 32 32" fill="none" xmlns="http://www.w3.org/2000/svg">
<path d="M26.3332 5.33386H5.6665C4.0125 5.33386 2.6665 6.67986 2.6665 8.33386V23.6672C2.6665 25.3212 4.0125 26.6672 5.6665 26.6672H26.3332C27.9872 26.6672 29.3332 25.3212 29.3332 23.6672V8.33386C29.3332 6.67986 27.9872 5.33386 26.3332 5.33386ZM4.6665 20.0005C4.6665 19.2639 5.26317 18.6672 5.99984 18.6672C6.7365 18.6672 7.33317 19.2639 7.33317 20.0005C7.33317 20.7372 6.7365 21.3339 5.99984 21.3339C5.26317 21.3339 4.6665 20.7372 4.6665 20.0005ZM9.33317 23.3339V11.3339H10.9998C11.5532 11.3339 11.9998 10.8872 11.9998 10.3339C11.9998 9.78053 11.5532 9.33386 10.9998 9.33386H9.33317V8.6672C9.33317 7.93386 9.93317 7.33386 10.6665 7.33386H12.6665C13.3998 7.33386 13.9998 7.93386 13.9998 8.6672V23.3339C13.9998 24.0672 13.3998 24.6672 12.6665 24.6672H10.6665C9.93317 24.6672 9.33317 24.0672 9.33317 23.3339ZM20.6665 8.6672V23.3339C20.6665 24.0672 20.0665 24.6672 19.3332 24.6672H17.3332C16.5998 24.6672 15.9998 24.0672 15.9998 23.3339V11.3339H17.6665C18.2198 11.3339 18.6665 10.8872 18.6665 10.3339C18.6665 9.78053 18.2198 9.33386 17.6665 9.33386H15.9998V8.6672C15.9998 7.93386 16.5998 7.33386 17.3332 7.33386H19.3332C20.0665 7.33386 20.6665 7.93386 20.6665 8.6672ZM22.6665 23.3339V11.3339H24.3332C24.8865 11.3339 25.3332 10.8872 25.3332 10.3339C25.3332 9.78053 24.8865 9.33386 24.3332 9.33386H22.6665V8.6672C22.6665 7.93386 23.2665 7.33386 23.9998 7.33386H25.9998C26.7332 7.33386 27.3332 7.93386 27.3332 8.6672V23.3339C27.3332 24.0672 26.7332 24.6672 25.9998 24.6672H23.9998C23.2665 24.6672 22.6665 24.0672 22.6665 23.3339Z" fill="black"/>
</svg>