<svg width="32" height="32" viewBox="0 0 32 32" fill="none" xmlns="http://www.w3.org/2000/svg">
<path d="M5.6665 3.33386C5.1145 3.33386 4.6665 3.7812 4.6665 4.33386V5.33386H3.6665C3.1145 5.33386 2.6665 5.78186 2.6665 6.33386V27.0005C2.6665 27.5525 3.1145 28.0005 3.6665 28.0005H28.3332C28.8852 28.0005 29.3332 27.5525 29.3332 27.0005V6.33386C29.3332 5.78186 28.8852 5.33386 28.3332 5.33386H27.3332V4.33386C27.3332 3.7812 26.8852 3.33386 26.3332 3.33386H19.9998C18.3632 3.33386 16.9125 4.12822 15.9998 5.34688C15.0872 4.12822 13.6365 3.33386 11.9998 3.33386H5.6665ZM6.6665 5.33386H11.9998C13.6538 5.33386 14.9998 6.67986 14.9998 8.33386V23.0005C14.9998 23.5532 15.4478 24.0005 15.9998 24.0005C16.5518 24.0005 16.9998 23.5532 16.9998 23.0005V8.33386C16.9998 6.67986 18.3458 5.33386 19.9998 5.33386H25.3332V24.0005H19.9998C18.3825 24.0005 16.9225 24.784 15.9998 26.0214C15.0772 24.784 13.6172 24.0005 11.9998 24.0005H6.6665V5.33386ZM20.9998 9.33386C20.6462 9.33386 20.3071 9.47434 20.057 9.72439C19.807 9.97443 19.6665 10.3136 19.6665 10.6672C19.6665 11.0208 19.807 11.36 20.057 11.61C20.3071 11.8601 20.6462 12.0005 20.9998 12.0005C21.3535 12.0005 21.6926 11.8601 21.9426 11.61C22.1927 11.36 22.3332 11.0208 22.3332 10.6672C22.3332 10.3136 22.1927 9.97443 21.9426 9.72439C21.6926 9.47434 21.3535 9.33386 20.9998 9.33386ZM20.9842 13.3195C20.7192 13.3237 20.4667 13.4328 20.2821 13.623C20.0976 13.8132 19.996 14.0689 19.9998 14.3339V19.6672C19.998 19.7997 20.0224 19.9313 20.0719 20.0542C20.1213 20.1772 20.1946 20.2891 20.2877 20.3835C20.3807 20.4779 20.4916 20.5528 20.6138 20.604C20.7361 20.6551 20.8673 20.6814 20.9998 20.6814C21.1324 20.6814 21.2636 20.6551 21.3858 20.604C21.5081 20.5528 21.619 20.4779 21.712 20.3835C21.805 20.2891 21.8784 20.1772 21.9278 20.0542C21.9772 19.9313 22.0017 19.7997 21.9998 19.6672V14.3339C22.0018 14.2 21.9768 14.0672 21.9264 13.9431C21.876 13.8191 21.8013 13.7065 21.7066 13.6119C21.6119 13.5173 21.4991 13.4427 21.375 13.3925C21.251 13.3422 21.1181 13.3174 20.9842 13.3195Z" fill="black"/>
</svg>
