<svg width="32" height="32" viewBox="0 0 32 32" fill="none" xmlns="http://www.w3.org/2000/svg">
<path d="M28 14.6667C27.41 14.6667 26.8853 14.9267 26.5193 15.3334H24C23.408 15.3334 22.888 15.7234 22.7207 16.2907L21.244 21.3114L19.3247 4.51474C19.25 3.8614 18.7087 3.3594 18.0507 3.33407C17.4 3.30207 16.8147 3.76874 16.6907 4.41474L14.28 16.9521L12.5893 12.2181C12.4047 11.7021 11.9227 11.3507 11.3747 11.3341C10.8287 11.2961 10.324 11.6374 10.1087 12.1414L8.45467 16.0001H5.48133C5.11467 15.5934 4.59 15.3334 4 15.3334C2.89533 15.3334 2 16.2287 2 17.3334C2 18.4381 2.89533 19.3334 4 19.3334C4.59 19.3334 5.11467 19.0734 5.48067 18.6667H9.33333C9.86667 18.6667 10.3487 18.3487 10.5587 17.8587L11.2207 16.3154L13.4107 22.4487C13.6133 23.0147 14.1667 23.3787 14.7687 23.3294C15.3673 23.2834 15.8627 22.8421 15.976 22.2521L17.664 13.4727L19.342 28.1521C19.414 28.7821 19.92 29.2747 20.552 29.3287C20.5907 29.3321 20.6287 29.3334 20.6673 29.3334C21.254 29.3334 21.778 28.9474 21.946 28.3761L24.9973 18.0001H26.5187C26.8847 18.4067 27.4093 18.6667 27.9993 18.6667C29.104 18.6667 29.9993 17.7714 29.9993 16.6667C29.9993 15.5621 29.1047 14.6667 28 14.6667Z" fill="black"/>
</svg>
