<svg width="32" height="32" viewBox="0 0 32 32" fill="none" xmlns="http://www.w3.org/2000/svg">
<path d="M8.98438 3.31897C8.71939 3.32311 8.46688 3.43226 8.28231 3.62244C8.09774 3.81263 7.9962 4.0683 8 4.33329V6.17704C7.58 6.32672 7.19854 6.56793 6.88325 6.88321C6.56797 7.1985 6.32676 7.57995 6.17708 7.99996H4.33333C4.20082 7.99809 4.06926 8.02257 3.94629 8.07198C3.82332 8.12139 3.7114 8.19476 3.61703 8.2878C3.52266 8.38084 3.44773 8.49172 3.39658 8.61397C3.34543 8.73623 3.31909 8.86743 3.31909 8.99996C3.31909 9.13248 3.34543 9.26369 3.39658 9.38595C3.44773 9.5082 3.52266 9.61908 3.61703 9.71212C3.7114 9.80516 3.82332 9.87852 3.94629 9.92794C4.06926 9.97735 4.20082 10.0018 4.33333 9.99996H6V12.6666H4.33333C4.20082 12.6648 4.06926 12.6892 3.94629 12.7386C3.82332 12.7881 3.7114 12.8614 3.61703 12.9545C3.52266 13.0475 3.44773 13.1584 3.39658 13.2806C3.34543 13.4029 3.31909 13.5341 3.31909 13.6666C3.31909 13.7992 3.34543 13.9304 3.39658 14.0526C3.44773 14.1749 3.52266 14.2857 3.61703 14.3788C3.7114 14.4718 3.82332 14.5452 3.94629 14.5946C4.06926 14.644 4.20082 14.6685 4.33333 14.6666H6V17.3333H4.33333C4.20082 17.3314 4.06926 17.3559 3.94629 17.4053C3.82332 17.4547 3.7114 17.5281 3.61703 17.6211C3.52266 17.7142 3.44773 17.825 3.39658 17.9473C3.34543 18.0696 3.31909 18.2008 3.31909 18.3333C3.31909 18.4658 3.34543 18.597 3.39658 18.7193C3.44773 18.8415 3.52266 18.9524 3.61703 19.0455C3.7114 19.1385 3.82332 19.2119 3.94629 19.2613C4.06926 19.3107 4.20082 19.3352 4.33333 19.3333H6V22H4.33333C4.20082 21.9981 4.06926 22.0226 3.94629 22.072C3.82332 22.1214 3.7114 22.1948 3.61703 22.2878C3.52266 22.3808 3.44773 22.4917 3.39658 22.614C3.34543 22.7362 3.31909 22.8674 3.31909 23C3.31909 23.1325 3.34543 23.2637 3.39658 23.3859C3.44773 23.5082 3.52266 23.6191 3.61703 23.7121C3.7114 23.8052 3.82332 23.8785 3.94629 23.9279C4.06926 23.9774 4.20082 24.0018 4.33333 24H6.17708C6.32676 24.42 6.56797 24.8014 6.88325 25.1167C7.19854 25.432 7.58 25.6732 8 25.8229V27.6666C7.99813 27.7991 8.02261 27.9307 8.07202 28.0537C8.12144 28.1766 8.1948 28.2886 8.28784 28.3829C8.38089 28.4773 8.49176 28.5522 8.61402 28.6034C8.73627 28.6545 8.86748 28.6809 9 28.6809C9.13253 28.6809 9.26373 28.6545 9.38599 28.6034C9.50824 28.5522 9.61912 28.4773 9.71216 28.3829C9.80521 28.2886 9.87857 28.1766 9.92798 28.0537C9.97739 27.9307 10.0019 27.7991 10 27.6666V26H12.6667V27.6666C12.6648 27.7991 12.6893 27.9307 12.7387 28.0537C12.7881 28.1766 12.8615 28.2886 12.9545 28.3829C13.0476 28.4773 13.1584 28.5522 13.2807 28.6034C13.4029 28.6545 13.5341 28.6809 13.6667 28.6809C13.7992 28.6809 13.9304 28.6545 14.0527 28.6034C14.1749 28.5522 14.2858 28.4773 14.3788 28.3829C14.4719 28.2886 14.5452 28.1766 14.5946 28.0537C14.6441 27.9307 14.6685 27.7991 14.6667 27.6666V26H17.3333V27.6666C17.3315 27.7991 17.3559 27.9307 17.4054 28.0537C17.4548 28.1766 17.5281 28.2886 17.6212 28.3829C17.7142 28.4773 17.8251 28.5522 17.9473 28.6034C18.0696 28.6545 18.2008 28.6809 18.3333 28.6809C18.4659 28.6809 18.5971 28.6545 18.7193 28.6034C18.8416 28.5522 18.9524 28.4773 19.0455 28.3829C19.1385 28.2886 19.2119 28.1766 19.2613 28.0537C19.3107 27.9307 19.3352 27.7991 19.3333 27.6666V26H22V27.6666C21.9981 27.7991 22.0226 27.9307 22.072 28.0537C22.1214 28.1766 22.1948 28.2886 22.2878 28.3829C22.3809 28.4773 22.4918 28.5522 22.614 28.6034C22.7363 28.6545 22.8675 28.6809 23 28.6809C23.1325 28.6809 23.2637 28.6545 23.386 28.6034C23.5082 28.5522 23.6191 28.4773 23.7122 28.3829C23.8052 28.2886 23.8786 28.1766 23.928 28.0537C23.9774 27.9307 24.0019 27.7991 24 27.6666V25.8229C24.42 25.6732 24.8015 25.432 25.1167 25.1167C25.432 24.8014 25.6732 24.42 25.8229 24H27.6667C27.7992 24.0018 27.9307 23.9774 28.0537 23.9279C28.1767 23.8785 28.2886 23.8052 28.383 23.7121C28.4773 23.6191 28.5523 23.5082 28.6034 23.3859C28.6546 23.2637 28.6809 23.1325 28.6809 23C28.6809 22.8674 28.6546 22.7362 28.6034 22.614C28.5523 22.4917 28.4773 22.3808 28.383 22.2878C28.2886 22.1948 28.1767 22.1214 28.0537 22.072C27.9307 22.0226 27.7992 21.9981 27.6667 22H26V19.3333H27.6667C27.7992 19.3352 27.9307 19.3107 28.0537 19.2613C28.1767 19.2119 28.2886 19.1385 28.383 19.0455C28.4773 18.9524 28.5523 18.8415 28.6034 18.7193C28.6546 18.597 28.6809 18.4658 28.6809 18.3333C28.6809 18.2008 28.6546 18.0696 28.6034 17.9473C28.5523 17.825 28.4773 17.7142 28.383 17.6211C28.2886 17.5281 28.1767 17.4547 28.0537 17.4053C27.9307 17.3559 27.7992 17.3314 27.6667 17.3333H26V14.6666H27.6667C27.7992 14.6685 27.9307 14.644 28.0537 14.5946C28.1767 14.5452 28.2886 14.4718 28.383 14.3788C28.4773 14.2857 28.5523 14.1749 28.6034 14.0526C28.6546 13.9304 28.6809 13.7992 28.6809 13.6666C28.6809 13.5341 28.6546 13.4029 28.6034 13.2806C28.5523 13.1584 28.4773 13.0475 28.383 12.9545C28.2886 12.8614 28.1767 12.7881 28.0537 12.7386C27.9307 12.6892 27.7992 12.6648 27.6667 12.6666H26V9.99996H27.6667C27.7992 10.0018 27.9307 9.97735 28.0537 9.92794C28.1767 9.87852 28.2886 9.80516 28.383 9.71212C28.4773 9.61908 28.5523 9.5082 28.6034 9.38595C28.6546 9.26369 28.6809 9.13248 28.6809 8.99996C28.6809 8.86743 28.6546 8.73623 28.6034 8.61397C28.5523 8.49172 28.4773 8.38084 28.383 8.2878C28.2886 8.19476 28.1767 8.12139 28.0537 8.07198C27.9307 8.02257 27.7992 7.99809 27.6667 7.99996H25.8229C25.6732 7.57995 25.432 7.1985 25.1167 6.88321C24.8015 6.56793 24.42 6.32672 24 6.17704V4.33329C24.0019 4.19945 23.977 4.06658 23.9266 3.94257C23.8762 3.81855 23.8014 3.70591 23.7067 3.61132C23.612 3.51673 23.4993 3.44211 23.3752 3.39189C23.2511 3.34168 23.1182 3.31688 22.9844 3.31897C22.7194 3.32311 22.4669 3.43226 22.2823 3.62244C22.0977 3.81263 21.9962 4.0683 22 4.33329V5.99996H19.3333V4.33329C19.3353 4.19945 19.3103 4.06658 19.2599 3.94257C19.2095 3.81855 19.1348 3.70591 19.0401 3.61132C18.9453 3.51673 18.8326 3.44211 18.7085 3.39189C18.5844 3.34168 18.4516 3.31688 18.3177 3.31897C18.0527 3.32311 17.8002 3.43226 17.6156 3.62244C17.4311 3.81263 17.3295 4.0683 17.3333 4.33329V5.99996H14.6667V4.33329C14.6686 4.19945 14.6436 4.06658 14.5932 3.94257C14.5429 3.81855 14.4681 3.70591 14.3734 3.61132C14.2787 3.51673 14.1659 3.44211 14.0419 3.39189C13.9178 3.34168 13.7849 3.31688 13.651 3.31897C13.3861 3.32311 13.1335 3.43226 12.949 3.62244C12.7644 3.81263 12.6629 4.0683 12.6667 4.33329V5.99996H10V4.33329C10.0019 4.19945 9.97695 4.06658 9.92658 3.94257C9.8762 3.81855 9.80144 3.70591 9.70673 3.61132C9.61202 3.51673 9.49928 3.44211 9.3752 3.39189C9.25112 3.34168 9.11822 3.31688 8.98438 3.31897ZM13 12H19C19.2652 12 19.5196 12.1053 19.7071 12.2929C19.8946 12.4804 20 12.7347 20 13V19C20 19.2652 19.8946 19.5195 19.7071 19.7071C19.5196 19.8946 19.2652 20 19 20H13C12.7348 20 12.4804 19.8946 12.2929 19.7071C12.1054 19.5195 12 19.2652 12 19V13C12 12.7347 12.1054 12.4804 12.2929 12.2929C12.4804 12.1053 12.7348 12 13 12Z" fill="black"/>
</svg>
