<svg xmlns="http://www.w3.org/2000/svg" viewBox="0 0 48 48"><path d="M37.34,11.099c-4.229-3.789-9.917-5.604-15.608-4.973C12.53,7.141,5.125,14.56,4.122,23.766	c-0.638,5.856,1.299,11.66,5.315,15.923C10.82,41.158,12.796,42,14.86,42h18.28c2.064,0,4.043-0.844,5.428-2.315	C42.071,35.963,44,31.103,44,26C44,20.321,41.572,14.89,37.34,11.099z M10,27.5c-0.828,0-1.5-0.672-1.5-1.5s0.672-1.5,1.5-1.5	s1.5,0.672,1.5,1.5S10.828,27.5,10,27.5z M15.161,36.96c-0.586,0.586-1.536,0.586-2.121,0c-0.586-0.586-0.586-1.536,0-2.121	c0.586-0.586,1.536-0.586,2.121,0C15.747,35.425,15.747,36.374,15.161,36.96z M15.161,17.161c-0.586,0.586-1.536,0.586-2.121,0	c-0.586-0.586-0.586-1.536,0-2.121c0.586-0.586,1.536-0.586,2.121,0C15.747,15.626,15.747,16.575,15.161,17.161z M24,10.5	c0.828,0,1.5,0.672,1.5,1.5s-0.672,1.5-1.5,1.5s-1.5-0.672-1.5-1.5S23.172,10.5,24,10.5z M22.152,26.765	c-0.423-1.021,0.062-2.19,1.082-2.613c1.021-0.423,11.429-3.765,11.852-2.744c0.423,1.021-9.301,6.017-10.321,6.44	C23.745,28.27,22.575,27.786,22.152,26.765z M34.96,36.96c-0.586,0.586-1.536,0.586-2.121,0c-0.586-0.586-0.586-1.536,0-2.121	c0.586-0.586,1.536-0.586,2.121,0C35.546,35.425,35.546,36.374,34.96,36.96z M34.96,17.161c-0.586,0.586-1.536,0.586-2.121,0	c-0.586-0.586-0.586-1.536,0-2.121c0.586-0.586,1.536-0.586,2.121,0C35.546,15.626,35.546,16.575,34.96,17.161z M38,27.5	c-0.828,0-1.5-0.672-1.5-1.5s0.672-1.5,1.5-1.5s1.5,0.672,1.5,1.5S38.828,27.5,38,27.5z"/></svg>