<svg xmlns="http://www.w3.org/2000/svg" viewBox="0 0 48 48"><path d="M 11.5 6 C 8.4802259 6 6 8.4802259 6 11.5 L 6 36.5 C 6 39.519774 8.4802259 42 11.5 42 L 36.5 42 C 39.519774 42 42 39.519774 42 36.5 L 42 11.5 C 42 8.4802259 39.519774 6 36.5 6 L 11.5 6 z M 32.5 11 C 32.88375 11 33.267547 11.146453 33.560547 11.439453 L 36.560547 14.439453 C 37.146547 15.025453 37.146547 15.974547 36.560547 16.560547 L 33.560547 19.560547 C 33.267547 19.853547 32.884 20 32.5 20 C 32.116 20 31.731453 19.854547 31.439453 19.560547 C 30.853453 18.974547 30.853453 18.025453 31.439453 17.439453 L 31.878906 17 L 27.5 17 C 26.671 17 26 16.328 26 15.5 C 26 14.672 26.671 14 27.5 14 L 31.878906 14 L 31.439453 13.560547 C 30.853453 12.974547 30.853453 12.025453 31.439453 11.439453 C 31.732453 11.146453 32.11625 11 32.5 11 z M 15.5 15 C 15.88375 15 16.267547 15.146453 16.560547 15.439453 C 17.146547 16.025453 17.146547 16.974547 16.560547 17.560547 L 16.121094 18 L 20.5 18 C 21.329 18 22 18.672 22 19.5 C 22 20.328 21.329 21 20.5 21 L 16.121094 21 L 16.560547 21.439453 C 17.146547 22.025453 17.146547 22.974547 16.560547 23.560547 C 16.267547 23.853547 15.884 24 15.5 24 C 15.116 24 14.732453 23.853547 14.439453 23.560547 L 11.439453 20.560547 C 10.853453 19.974547 10.853453 19.025453 11.439453 18.439453 L 14.439453 15.439453 C 14.732453 15.146453 15.11625 15 15.5 15 z M 32.5 24 C 32.88375 24 33.267547 24.146453 33.560547 24.439453 L 36.560547 27.439453 C 37.146547 28.025453 37.146547 28.974547 36.560547 29.560547 L 33.560547 32.560547 C 33.267547 32.853547 32.884 33 32.5 33 C 32.116 33 31.731453 32.854547 31.439453 32.560547 C 30.853453 31.974547 30.853453 31.025453 31.439453 30.439453 L 31.878906 30 L 27.5 30 C 26.671 30 26 29.328 26 28.5 C 26 27.672 26.671 27 27.5 27 L 31.878906 27 L 31.439453 26.560547 C 30.853453 25.974547 30.853453 25.025453 31.439453 24.439453 C 31.732453 24.146453 32.11625 24 32.5 24 z M 15.5 28 C 15.88375 28 16.267547 28.146453 16.560547 28.439453 C 17.146547 29.025453 17.146547 29.974547 16.560547 30.560547 L 16.121094 31 L 20.5 31 C 21.329 31 22 31.672 22 32.5 C 22 33.328 21.329 34 20.5 34 L 16.121094 34 L 16.560547 34.439453 C 17.146547 35.025453 17.146547 35.974547 16.560547 36.560547 C 16.267547 36.853547 15.884 37 15.5 37 C 15.116 37 14.732453 36.853547 14.439453 36.560547 L 11.439453 33.560547 C 10.853453 32.974547 10.853453 32.025453 11.439453 31.439453 L 14.439453 28.439453 C 14.732453 28.146453 15.11625 28 15.5 28 z"/></svg>