<svg width="172" height="172" viewBox="0 0 172 172" fill="none" xmlns="http://www.w3.org/2000/svg">
<path d="M93.0267 7.09666C91.1648 7.15214 89.3976 7.93029 88.0996 9.26626L74.4032 22.9627C72.6142 24.3217 71.5659 26.441 71.5714 28.6876C71.5769 30.9343 72.6355 33.0483 74.4312 34.3986L88.0996 48.067C89.8971 49.9393 92.5664 50.6934 95.0779 50.0387C97.5894 49.384 99.5507 47.4227 100.205 44.9112C100.86 42.3997 100.106 39.7304 98.2337 37.9329L97.4989 37.1981C119.703 42.3768 136.167 62.1733 136.167 86C136.167 101.831 128.803 115.766 117.34 124.99C114.256 127.471 113.767 131.983 116.248 135.068C118.73 138.152 123.242 138.641 126.327 136.16C140.979 124.37 150.5 106.297 150.5 86C150.5 53.6521 126.48 26.8321 95.3713 22.2628L98.2337 19.4004C100.353 17.34 100.991 14.1897 99.8386 11.4675C98.6865 8.74524 95.9814 7.00951 93.0267 7.09664L93.0267 7.09666ZM50.0897 34.1956C48.4743 34.2304 46.9181 34.81 45.6735 35.8403C31.0214 47.6295 21.5 65.7034 21.5 86C21.5 118.348 45.5201 145.168 76.6287 149.737L73.7663 152.6C71.894 154.397 71.1399 157.066 71.7946 159.578C72.4493 162.089 74.4106 164.051 76.9221 164.705C79.4336 165.36 82.1029 164.606 83.9004 162.734L97.5968 149.037C99.3858 147.678 100.434 145.559 100.429 143.312C100.423 141.066 99.3645 138.952 97.5688 137.601L83.9004 123.933C82.5494 122.544 80.6938 121.762 78.7563 121.763C75.8413 121.767 73.2189 123.536 72.1233 126.237C71.0277 128.938 71.6773 132.034 73.7663 134.067L74.5011 134.802C52.2967 129.623 35.8333 109.827 35.8333 86C35.8333 70.1694 43.1966 56.2337 54.6598 47.0103C57.0941 45.1093 58.0368 41.8628 56.9994 38.9536C55.9619 36.0445 53.1775 34.1272 50.0897 34.1956V34.1956Z" fill="black"/>
</svg>
