<svg width="32" height="32" viewBox="0 0 32 32" fill="none" xmlns="http://www.w3.org/2000/svg">
<path d="M26.0001 2.66663H18.6667C17.6061 2.66663 16.5887 3.08796 15.8387 3.83796L3.83874 15.838C2.27674 17.4 2.27674 19.9326 3.83874 21.4946L10.5054 28.1613C11.2861 28.9426 12.3101 29.3333 13.3334 29.3333C14.3567 29.3333 15.3807 28.9426 16.1614 28.162L28.1614 16.162C28.9121 15.4113 29.3334 14.394 29.3334 13.3326V5.99996C29.3334 4.15929 27.8407 2.66663 26.0001 2.66663ZM22.6667 11.3333C21.5621 11.3333 20.6667 10.438 20.6667 9.33329C20.6667 8.22863 21.5621 7.33329 22.6667 7.33329C23.7714 7.33329 24.6667 8.22863 24.6667 9.33329C24.6667 10.438 23.7714 11.3333 22.6667 11.3333Z" fill="black"/>
</svg>
