<svg width="32" height="32" viewBox="0 0 32 32" fill="none" xmlns="http://www.w3.org/2000/svg">
<path d="M25.6667 12.0001H6.33333C5.04667 12.0001 4 13.0467 4 14.3334V17.6667C4 18.9534 5.04667 20.0001 6.33333 20.0001H25.6667C26.9533 20.0001 28 18.9534 28 17.6667V14.3334C28 13.0467 26.9533 12.0001 25.6667 12.0001ZM26 17.6667C26 17.8501 25.8507 18.0001 25.6667 18.0001H22V14.0001H25.6667C25.8507 14.0001 26 14.1501 26 14.3334V17.6667ZM25.6667 2.66675H6.33333C5.04667 2.66675 4 3.71341 4 5.00008V8.33342C4 9.62008 5.04667 10.6667 6.33333 10.6667H25.6667C26.9533 10.6667 28 9.62008 28 8.33342V5.00008C28 3.71341 26.9533 2.66675 25.6667 2.66675ZM26 8.33342C26 8.51675 25.8507 8.66675 25.6667 8.66675H12V4.66675H25.6667C25.8507 4.66675 26 4.81675 26 5.00008V8.33342ZM25.6667 21.3334H6.33333C5.04667 21.3334 4 22.3801 4 23.6667V27.0001C4 28.2867 5.04667 29.3334 6.33333 29.3334H25.6667C26.9533 29.3334 28 28.2867 28 27.0001V23.6667C28 22.3801 26.9533 21.3334 25.6667 21.3334ZM26 27.0001C26 27.1834 25.8507 27.3334 25.6667 27.3334H16V23.3334H25.6667C25.8507 23.3334 26 23.4834 26 23.6667V27.0001Z" fill="black"/>
</svg>