<svg width="32" height="32" viewBox="0 0 32 32" fill="none" xmlns="http://www.w3.org/2000/svg">
<path d="M8.33333 4C5.95204 4 4 5.95204 4 8.33333V23.6667C4 26.048 5.95204 28 8.33333 28H23.6667C26.048 28 28 26.048 28 23.6667V8.33333C28 5.95204 26.048 4 23.6667 4H8.33333ZM6 10.6667H26V23.6667C26 24.9667 24.9667 26 23.6667 26H8.33333C7.03329 26 6 24.9667 6 23.6667V10.6667ZM11.6562 14.6562C11.4572 14.6563 11.2628 14.7157 11.0977 14.8269C10.9327 14.9381 10.8045 15.096 10.7297 15.2804C10.6549 15.4649 10.6368 15.6674 10.6778 15.8622C10.7188 16.0569 10.8169 16.235 10.9596 16.3737L12.9193 18.3333L10.9596 20.293C10.8637 20.3851 10.787 20.4955 10.7343 20.6176C10.6815 20.7397 10.6536 20.8712 10.6522 21.0042C10.6509 21.1372 10.6761 21.2692 10.7264 21.3924C10.7767 21.5156 10.851 21.6275 10.9451 21.7216C11.0392 21.8156 11.1511 21.89 11.2743 21.9403C11.3974 21.9906 11.5294 22.0158 11.6625 22.0144C11.7955 22.0131 11.9269 21.9852 12.0491 21.9324C12.1712 21.8796 12.2816 21.803 12.3737 21.707L15.0404 19.0404C15.2278 18.8528 15.3331 18.5985 15.3331 18.3333C15.3331 18.0682 15.2278 17.8138 15.0404 17.6263L12.3737 14.9596C12.2805 14.8636 12.169 14.7873 12.0457 14.7352C11.9225 14.6831 11.7901 14.6563 11.6562 14.6562ZM17 20C16.8675 19.9981 16.7359 20.0226 16.613 20.072C16.49 20.1214 16.3781 20.1948 16.2837 20.2878C16.1893 20.3809 16.1144 20.4918 16.0632 20.614C16.0121 20.7363 15.9858 20.8675 15.9858 21C15.9858 21.1325 16.0121 21.2637 16.0632 21.386C16.1144 21.5082 16.1893 21.6191 16.2837 21.7122C16.3781 21.8052 16.49 21.8786 16.613 21.928C16.7359 21.9774 16.8675 22.0019 17 22H21C21.1325 22.0019 21.2641 21.9774 21.387 21.928C21.51 21.8786 21.6219 21.8052 21.7163 21.7122C21.8107 21.6191 21.8856 21.5082 21.9368 21.386C21.9879 21.2637 22.0142 21.1325 22.0142 21C22.0142 20.8675 21.9879 20.7363 21.9368 20.614C21.8856 20.4918 21.8107 20.3809 21.7163 20.2878C21.6219 20.1948 21.51 20.1214 21.387 20.072C21.2641 20.0226 21.1325 19.9981 21 20H17Z" fill="black"/>
</svg>
