<svg width="32" height="32" viewBox="0 0 32 32" fill="none" xmlns="http://www.w3.org/2000/svg">
<path d="M10.9999 3.33325C9.57859 3.33325 8.34687 4.14792 7.7382 5.33325H24.9999C25.9193 5.33325 26.6666 6.08059 26.6666 6.99992V24.2616C27.8519 23.6536 28.6666 22.4213 28.6666 20.9999V6.99992C28.6666 4.97859 27.0213 3.33325 24.9999 3.33325H10.9999ZM6.99992 7.33325C4.98674 7.33325 3.33325 8.98674 3.33325 10.9999V24.9999C3.33325 27.0131 4.98674 28.6666 6.99992 28.6666H20.9999C23.0131 28.6666 24.6666 27.0131 24.6666 24.9999V10.9999C24.6666 8.98674 23.0131 7.33325 20.9999 7.33325H6.99992ZM6.99992 9.33325H20.9999C21.9321 9.33325 22.6666 10.0678 22.6666 10.9999V24.9999C22.6666 25.9321 21.9321 26.6666 20.9999 26.6666H6.99992C6.06777 26.6666 5.33325 25.9321 5.33325 24.9999V10.9999C5.33325 10.0678 6.06777 9.33325 6.99992 9.33325Z" fill="black"/>
</svg>
