<svg width="172" height="172" viewBox="0 0 172 172" fill="none" xmlns="http://www.w3.org/2000/svg">
<path d="M86 14.3333C46.483 14.3333 14.3334 46.4829 14.3334 85.9999C14.3334 125.517 46.483 157.667 86 157.667C125.517 157.667 157.667 125.517 157.667 85.9999C157.667 46.4829 125.517 14.3333 86 14.3333V14.3333ZM102.125 32.5366C103.236 29.8097 106.389 28.4874 109.113 29.6305C111.872 30.7449 113.198 33.8947 112.051 36.618C111.191 38.7322 109.22 39.9863 107.106 39.9863C106.425 39.9863 105.708 39.843 105.028 39.5563C102.304 38.4455 100.978 35.2958 102.125 32.5366ZM85.8209 25.0833C88.795 25.0833 91.1959 27.4841 91.1959 30.4224C91.1959 33.393 88.795 35.8333 85.8567 35.8333C82.8825 35.8333 80.4459 33.4324 80.4459 30.4583C80.4459 27.5199 82.8467 25.0833 85.8209 25.0833V25.0833ZM29.67 62.8158C30.7809 60.053 33.9342 58.763 36.6575 59.8774C39.4167 61.0241 40.7067 64.138 39.5959 66.9008C38.7359 68.9791 36.7292 70.2333 34.615 70.2333C33.9342 70.2333 33.2534 70.0899 32.5725 69.8427C29.8134 68.6924 28.5234 65.5391 29.67 62.8158V62.8158ZM25.0834 86.1074C25.0834 83.1691 27.4842 80.7324 30.4584 80.7324C33.4325 80.7324 35.8334 83.1333 35.8334 86.1074C35.8334 89.0422 33.4325 91.4824 30.4584 91.4824C27.4842 91.4824 25.0834 89.078 25.0834 86.1074V86.1074ZM36.765 112.302C36.0842 112.588 35.4034 112.732 34.7225 112.732C32.6084 112.732 30.6017 111.474 29.7417 109.435C28.595 106.672 29.9209 103.522 32.6442 102.372C35.3675 101.229 38.5209 102.555 39.6675 105.278C40.8142 108.034 39.5242 111.155 36.765 112.302V112.302ZM42.8209 43.0358C44.8992 40.9216 48.3034 40.9216 50.4175 42.9999C52.5317 45.1141 52.5317 48.5182 50.4534 50.5966C49.3784 51.6716 48.0167 52.2055 46.6192 52.2055C45.2575 52.2055 43.8959 51.6716 42.8209 50.6324C40.7425 48.5541 40.7067 45.1499 42.8209 43.0358V43.0358ZM50.5967 129.143C49.5575 130.182 48.16 130.716 46.7984 130.716C45.4009 130.716 44.0392 130.182 43.0001 129.143C40.8859 127.029 40.8859 123.625 42.9642 121.547C45.0784 119.432 48.4826 119.432 50.5967 121.511C52.6751 123.625 52.6751 127.029 50.5967 129.143H50.5967ZM62.5292 29.7774C65.2525 28.6343 68.4059 29.9208 69.5525 32.6441C70.6992 35.4068 69.4092 38.5566 66.6859 39.7068H66.65C66.005 39.9541 65.2884 40.0974 64.6075 40.0974C62.4934 40.0974 60.4867 38.8791 59.6267 36.8008C58.48 34.0774 59.77 30.9241 62.5292 29.7774V29.7774ZM69.7675 139.388C68.9075 141.466 66.9009 142.724 64.7867 142.724C64.1059 142.724 63.425 142.581 62.7442 142.33C60.0209 141.183 58.695 138.03 59.8417 135.307C60.9525 132.547 64.1059 131.257 66.865 132.368C69.5884 133.515 70.9142 136.668 69.7675 139.388V139.388ZM86.0717 146.917C83.0975 146.917 80.6967 144.516 80.6967 141.542C80.6967 138.567 83.0975 136.167 86.0359 136.167C89.0101 136.167 91.4467 138.567 91.4467 141.542C91.4467 144.516 89.0459 146.917 86.0717 146.917ZM91.375 75.6835V109.292C91.375 112.259 88.9706 114.667 86 114.667C83.0295 114.667 80.625 112.259 80.625 109.292V75.6835L73.677 82.6316C71.5771 84.7314 68.1765 84.7314 66.0767 82.6316C63.9769 80.5318 63.9769 77.1312 66.0767 75.0313L82.2017 58.9063C84.3015 56.8065 87.7021 56.8065 89.802 58.9063L105.927 75.0313C108.027 77.1312 108.027 80.5318 105.927 82.6316C104.877 83.6851 103.501 84.2083 102.125 84.2083C100.749 84.2083 99.373 83.6851 98.3231 82.6352L91.375 75.6835ZM109.363 142.294C108.683 142.545 108.002 142.685 107.285 142.685C105.207 142.685 103.2 141.431 102.34 139.352C101.193 136.629 102.483 133.476 105.243 132.329C107.966 131.218 111.119 132.508 112.266 135.235C113.413 137.994 112.123 141.147 109.363 142.294ZM121.332 42.7813C123.41 40.6672 126.814 40.6672 128.928 42.7813C131.007 44.8597 131.043 48.2638 128.928 50.378C127.889 51.4172 126.528 51.9547 125.13 51.9547C123.768 51.9547 122.407 51.4172 121.332 50.378C119.253 48.2997 119.218 44.8991 121.332 42.7813H121.332ZM129.108 129.072C129.108 129.072 129.108 129.072 129.108 129.036C128.033 130.111 126.671 130.612 125.309 130.612C123.912 130.612 122.55 130.107 121.511 129.068C119.397 126.954 119.397 123.55 121.475 121.436C123.589 119.357 126.993 119.357 129.108 121.436C131.186 123.55 131.186 126.957 129.108 129.072H129.108ZM135.163 59.5908C137.887 58.4441 141.04 59.7341 142.223 62.4574C143.333 65.2202 142.079 68.3341 139.32 69.4808C138.639 69.7674 137.923 69.9108 137.242 69.9108C135.128 69.9108 133.157 68.6924 132.297 66.6141C131.15 63.8908 132.44 60.7374 135.163 59.5908H135.163ZM142.294 109.292C141.434 111.37 139.428 112.624 137.313 112.624C136.633 112.624 135.952 112.481 135.271 112.194C132.512 111.083 131.222 107.934 132.368 105.171C133.515 102.447 136.633 101.157 139.392 102.268C142.115 103.411 143.441 106.568 142.294 109.292V109.292ZM146.917 85.9999C146.917 88.9741 144.516 91.3749 141.542 91.3749C138.568 91.3749 136.167 88.9741 136.167 85.9999C136.167 85.9641 136.167 85.9247 136.167 85.8924C136.167 85.8602 136.167 85.8208 136.167 85.7849C136.167 82.8108 138.568 80.4099 141.506 80.4099C144.48 80.3741 146.917 82.7749 146.917 85.7491C146.917 85.7849 146.917 85.8566 146.917 85.8924C146.917 85.9283 146.917 85.9641 146.917 85.9999Z" fill="black"/>
</svg>
