<svg xmlns:xlink="http://www.w3.org/1999/xlink" xmlns="http://www.w3.org/2000/svg" viewBox="0 0 48 48" width="172"  height="172" ><path d="M24,6C12.972,6,4,14.972,4,26c0,6.136,2.771,11.85,7.601,15.676C11.866,41.886,12.194,42,12.532,42h22.936	c0.338,0,0.666-0.114,0.932-0.324C41.229,37.85,44,32.136,44,26C44,14.972,35.028,6,24,6z M15.468,36.565	C15.176,36.855,14.794,37,14.412,37c-0.386,0-0.772-0.148-1.065-0.444C10.544,33.727,9,29.978,9,26c0-8.271,6.729-15,15-15	c1.715,0,3.397,0.287,5,0.854c0.781,0.276,1.19,1.133,0.914,1.914S28.779,14.959,28,14.682C26.72,14.229,25.374,14,24,14	c-6.617,0-12,5.383-12,12c0,3.182,1.235,6.181,3.478,8.444C16.061,35.033,16.057,35.982,15.468,36.565z M24,29c-1.657,0-3-1.343-3-3	s1.343-3,3-3c0.267,0,0.521,0.046,0.767,0.112l7.672-7.672c0.586-0.586,1.535-0.586,2.121,0c0.586,0.585,0.586,1.536,0,2.121	l-7.672,7.672C26.954,25.479,27,25.733,27,26C27,27.657,25.657,29,24,29z M34.653,36.556C34.36,36.852,33.974,37,33.588,37	c-0.382,0-0.764-0.145-1.056-0.435c-0.589-0.583-0.593-1.533-0.01-2.121C34.765,32.181,36,29.182,36,26c0-1.374-0.229-2.72-0.683-4	c-0.276-0.781,0.133-1.638,0.914-1.915c0.779-0.276,1.638,0.132,1.914,0.914C38.713,22.602,39,24.284,39,26	C39,29.978,37.456,33.727,34.653,36.556z"></path></svg>