<svg xmlns:xlink="http://www.w3.org/1999/xlink" xmlns="http://www.w3.org/2000/svg" viewBox="0 0 48 48" width="172"  height="172" ><path d="M 24 5 C 13.523 5 5 13.523 5 24 L 5 41.5 C 5 42.328 5.672 43 6.5 43 L 41.5 43 C 42.328 43 43 42.328 43 41.5 L 43 24 C 43 13.523 34.477 5 24 5 z M 29.410156 11.005859 C 29.985656 10.964484 30.666359 11.117203 31.318359 11.470703 C 32.622359 12.178703 33.313328 13.427719 32.861328 14.261719 C 32.408328 15.095719 30.983688 15.197234 29.679688 14.490234 C 28.376688 13.782234 27.685672 12.533219 28.138672 11.699219 C 28.364672 11.282219 28.834656 11.047234 29.410156 11.005859 z M 17.25 19 C 20.145 19 22.5 22.276688 22.5 26.304688 C 22.5 27.446687 22.398406 28.384453 22.191406 29.189453 C 21.459878 29.303423 20.566021 29.486463 19.625 29.701172 C 19.858286 29.131126 20 28.467461 20 27.75 C 20 25.68 18.88 24 17.5 24 C 16.12 24 15 25.68 15 27.75 C 15 28.955848 15.386431 30.016977 15.976562 30.703125 C 15.186504 30.965187 14.40639 31.252887 13.669922 31.572266 C 12.631922 30.209266 12 28.313688 12 26.304688 C 12 22.276688 14.355 19 17.25 19 z M 30.75 19 C 33.645 19 36 22.276688 36 26.304688 C 36 28.314687 35.367125 30.209266 34.328125 31.572266 C 33.592059 31.252904 32.813116 30.967094 32.023438 30.705078 C 32.614129 30.01898 33 28.956517 33 27.75 C 33 25.68 31.88 24 30.5 24 C 29.12 24 28 25.68 28 27.75 C 28 28.467461 28.141714 29.131126 28.375 29.701172 C 27.439376 29.487697 26.549124 29.305283 25.820312 29.191406 C 25.611313 28.383406 25.5 27.452688 25.5 26.304688 C 25.5 22.277687 27.855 19 30.75 19 z M 24 32 C 27.357 32 35.171141 34.679844 35.994141 36.089844 C 35.794141 37.788844 29.962 40 24 40 C 18.038 40 12.205859 37.788844 12.005859 36.089844 C 12.828859 34.679844 20.643 32 24 32 z"></path></svg>