<svg xmlns:xlink="http://www.w3.org/1999/xlink" xmlns="http://www.w3.org/2000/svg" viewBox="0 0 48 48" width="172"  height="172" ><path d="M 24 3 A 4 4 0 0 0 20.041016 7.5546875 L 11.736328 12.347656 A 4 4 0 0 0 9.2773438 11.5 A 4 4 0 0 0 9.2773438 19.5 A 4 4 0 0 0 11.734375 18.650391 L 20.042969 23.447266 A 4 4 0 0 0 22.5 27.703125 L 22.5 37.294922 A 4 4 0 0 0 21.542969 37.849609 L 13.236328 33.052734 A 4 4 0 0 0 9.2773438 28.5 A 4 4 0 0 0 9.2773438 36.5 A 4 4 0 0 0 11.734375 35.650391 L 20.042969 40.447266 A 4 4 0 0 0 24 45 A 4 4 0 0 0 27.958984 40.445312 L 36.263672 35.652344 A 4 4 0 0 0 38.722656 36.5 A 4 4 0 0 0 38.722656 28.5 A 4 4 0 0 0 34.763672 33.054688 L 26.458984 37.847656 A 4 4 0 0 0 25.5 37.296875 L 25.5 27.705078 A 4 4 0 0 0 27.958984 23.445312 L 36.263672 18.652344 A 4 4 0 0 0 38.722656 19.5 A 4 4 0 0 0 38.722656 11.5 A 4 4 0 0 0 34.763672 16.054688 L 26.458984 20.847656 A 4 4 0 0 0 24 20 A 4 4 0 0 0 21.542969 20.849609 L 13.236328 16.052734 A 4 4 0 0 0 13.236328 14.945312 L 21.541016 10.152344 A 4 4 0 0 0 24 11 A 4 4 0 0 0 24 3 z"></path></svg>