<svg fill="#000000" xmlns="http://www.w3.org/2000/svg"  viewBox="0 0 48 48" width="48px" height="48px"><path d="M 24 4 C 16.837609 4 11.630938 6.4768122 9.1699219 7.9433594 A 1.50015 1.50015 0 0 0 9.1679688 7.9433594 C 7.8065655 8.7559546 7 10.231672 7 11.792969 L 7 25.011719 C 7 27.730769 8.284901 31.97079 10.958984 36.195312 C 13.633068 40.419835 17.79025 44.525983 23.636719 45.988281 A 1.50015 1.50015 0 0 0 24.363281 45.988281 C 30.20975 44.525983 34.366932 40.419835 37.041016 36.195312 C 39.715099 31.97079 41 27.730769 41 25.011719 L 41 11.792969 C 41 10.232628 40.194994 8.7559825 38.832031 7.9433594 A 1.50015 1.50015 0 0 0 38.830078 7.9433594 C 36.368945 6.4767143 31.161442 4 24 4 z M 24 7 C 30.468558 7 35.158102 9.2461765 37.294922 10.519531 C 37.729959 10.778908 38 11.261309 38 11.792969 L 38 25.011719 C 38 26.631668 36.899026 30.809116 34.505859 34.589844 C 32.432324 37.865618 29.438346 40.88789 25.5 42.433594 L 25.5 37.5 A 1.50015 1.50015 0 0 0 23.976562 35.978516 A 1.50015 1.50015 0 0 0 22.5 37.5 L 22.5 42.433594 C 18.561654 40.88789 15.567676 37.865618 13.494141 34.589844 C 11.100974 30.809116 10 26.631668 10 25.011719 L 10 11.792969 C 10 11.262265 10.270478 10.778936 10.705078 10.519531 C 12.842062 9.2460787 17.530391 7 24 7 z M 16.511719 12.048828 C 15.255415 11.986008 13.855609 12.358781 12.599609 13.300781 A 1.50015 1.50015 0 1 0 14.400391 15.699219 C 15.144391 15.141219 15.744585 15.013987 16.363281 15.044922 C 16.981978 15.075852 17.637358 15.315965 18.244141 15.669922 C 19.457706 16.377835 20.328125 17.4375 20.328125 17.4375 A 1.5007322 1.5007322 0 1 0 22.671875 15.5625 C 22.671875 15.5625 21.542294 14.122165 19.755859 13.080078 C 18.862642 12.559035 17.768022 12.111643 16.511719 12.048828 z M 31.488281 12.048828 C 30.231978 12.111648 29.137358 12.559035 28.244141 13.080078 C 26.457706 14.122165 25.328125 15.5625 25.328125 15.5625 A 1.5007322 1.5007322 0 1 0 27.671875 17.4375 C 27.671875 17.4375 28.542294 16.377835 29.755859 15.669922 C 30.362642 15.315965 31.018022 15.075857 31.636719 15.044922 C 32.255415 15.013992 32.855609 15.141222 33.599609 15.699219 A 1.50015 1.50015 0 1 0 35.400391 13.300781 C 34.144391 12.358781 32.744585 11.986013 31.488281 12.048828 z M 16.5 18 C 15.284 18 14.191437 18.426422 13.398438 19.107422 C 13.156437 19.315422 13.156437 19.684578 13.398438 19.892578 C 14.191437 20.573578 15.284 21 16.5 21 C 17.716 21 18.808563 20.573578 19.601562 19.892578 C 19.843563 19.684578 19.843563 19.315422 19.601562 19.107422 C 18.808563 18.426422 17.716 18 16.5 18 z M 31.5 18 C 30.284 18 29.191438 18.426422 28.398438 19.107422 C 28.156437 19.315422 28.156438 19.684578 28.398438 19.892578 C 29.191437 20.573578 30.284 21 31.5 21 C 32.716 21 33.808563 20.573578 34.601562 19.892578 C 34.843562 19.684578 34.843562 19.315422 34.601562 19.107422 C 33.808563 18.426422 32.716 18 31.5 18 z M 33.451172 26.970703 A 1.50015 1.50015 0 0 0 32.158203 27.830078 L 31.337891 29.470703 C 30.867256 30.411228 29.914306 31 28.863281 31 C 27.907577 31 27.025477 30.511074 26.519531 29.701172 A 1.50015 1.50015 0 0 0 26.519531 29.699219 L 25.271484 27.705078 A 1.50015 1.50015 0 0 0 22.728516 27.705078 L 21.480469 29.699219 C 20.973087 30.510426 20.092423 31 19.136719 31 C 18.085694 31 17.131433 30.410001 16.662109 29.470703 L 15.841797 27.830078 A 1.50015 1.50015 0 0 0 14.521484 26.980469 A 1.50015 1.50015 0 0 0 13.158203 29.169922 L 13.978516 30.8125 C 14.953192 32.763202 16.955744 34 19.136719 34 C 21.111613 34 22.9463 32.980131 24.001953 31.314453 C 25.057438 32.979207 26.889819 34 28.863281 34 C 31.044256 34 33.044119 32.761975 34.019531 30.8125 A 1.50015 1.50015 0 0 0 34.021484 30.8125 L 34.841797 29.169922 A 1.50015 1.50015 0 0 0 33.451172 26.970703 z"/></svg>