<svg width="48" height="48" viewBox="0 0 48 48" fill="none" xmlns="http://www.w3.org/2000/svg">
<path d="M17.4936 3.78942C15.0108 5.873 12.9681 7.58744 12.9541 7.5982C12.9304 7.61758 12.8723 8.11372 10.9609 24.5672C9.87822 33.8884 8.99571 41.5189 9.00002 41.5232C9.00432 41.5275 12.205 42.9869 16.1139 44.7659L23.2192 48L25.9711 46.165C28.5369 44.4549 28.7241 44.3322 28.7349 44.3526C28.7467 44.3731 28.7478 44.3731 28.7597 44.3451C28.7672 44.33 30.1243 41.2886 31.7763 37.5874L34.778 30.8578L30.4935 19.9437C28.1365 13.9404 26.2111 9.02637 26.2144 9.02314C26.2187 9.01776 39.8739 10.5912 39.96 10.6063C39.9794 10.6095 39.988 10.6084 39.9815 10.602C39.9708 10.5923 22.0149 -1.79093e-06 22.0106 -1.79093e-06C22.0095 0.00107444 19.9765 1.70583 17.4936 3.78942Z" fill="white"/>
</svg>
