<svg width="48" height="48" viewBox="0 0 48 48" fill="none" xmlns="http://www.w3.org/2000/svg">
<path fill-rule="evenodd" clip-rule="evenodd" d="M24.3783 10.7345C22.8906 10.7345 21.4596 10.976 20.1228 11.4218L20.0589 11.3828L18.3066 3.3365C18.3075 3.16427 18.4263 3.01492 18.5932 2.97426L22.5689 2.01083C22.7415 1.96862 22.9198 2.05272 22.9963 2.21256L25.7337 7.93796C27.0671 7.97691 28.4046 8.20504 29.709 8.61939L34.1072 4.25021C34.2283 4.12929 34.4177 4.10634 34.5656 4.19581L38.0619 6.31125C38.2136 6.40307 38.2798 6.58832 38.2205 6.75399L36.0937 12.7105C36.8966 13.5972 37.5774 14.5695 38.1283 15.6026L44.6566 15.6073C44.8295 15.6074 44.9795 15.7249 45.0206 15.8915L45.989 19.8474C46.0317 20.0188 45.947 20.1958 45.7866 20.2721L37.6098 22.0528C36.643 15.6465 31.0873 10.7345 24.3783 10.7345ZM16.1895 13.5178C13.0313 15.9526 10.9983 19.7629 10.9983 24.0456C10.9983 27.9119 12.6553 31.3935 15.3012 33.8257L15.298 33.8964L9.71047 40.0451C9.56209 40.1338 9.37214 40.1105 9.25046 39.9897L6.35725 37.1109C6.23129 36.9861 6.21089 36.7909 6.30838 36.6427L9.80292 31.3409C9.14352 30.1872 8.64446 28.9318 8.3225 27.6077L2.28492 26.1395C2.11815 26.0994 2 25.9503 2 25.7781V21.7069C2 21.5302 2.12471 21.3777 2.29778 21.342L8.51838 20.0548C8.86263 18.9115 9.34393 17.8276 9.94489 16.8225L6.55666 11.2708C6.46697 11.1238 6.4899 10.9352 6.61158 10.8138L9.50566 7.93505C9.63074 7.80973 9.82674 7.78968 9.97562 7.88642L16.1895 13.5178ZM19.5556 36.5011L19.5928 36.4808C21.0787 37.0473 22.6921 37.3576 24.3783 37.3576C30.7775 37.3576 36.1275 32.888 37.4468 26.916L45.5588 28.7232C45.7101 28.8068 45.7847 28.9822 45.7402 29.1474L44.6773 33.0785C44.6315 33.2494 44.4717 33.3645 44.294 33.3544L37.9318 32.9888C37.2563 34.1331 36.412 35.1901 35.4195 36.1286L37.1549 42.0662C37.2032 42.23 37.1323 42.4063 36.9824 42.4922L33.4367 44.5246C33.2828 44.6128 33.0877 44.5815 32.9702 44.4501L28.7436 39.7303C27.5761 40.0043 26.3918 40.1305 25.2164 40.1142L22.0727 45.8065C21.9895 45.9572 21.8138 46.0316 21.6473 45.9873L17.6953 44.9296C17.5237 44.8844 17.4084 44.7254 17.4183 44.5488L19.5556 36.5011Z" fill="white"/>
</svg>
