<svg width="48" height="48" viewBox="0 0 48 48" fill="none" xmlns="http://www.w3.org/2000/svg">
<path fill-rule="evenodd" clip-rule="evenodd" d="M6.10303 17.2751C6.11738 17.2514 6.13259 17.2281 6.1478 17.2052C8.60653 13.4037 12.485 11.1787 16.1322 11.1787C19.8461 11.1787 22.1808 13.2232 25.2506 13.2232C28.2293 13.2232 30.0436 11.1758 34.3374 11.1758C37.5815 11.1758 41.0211 12.9498 43.471 16.0172C42.7936 16.3897 42.1826 16.8127 41.6364 17.2776L6.10303 17.2751V17.2751Z" fill="white"/>
<path fill-rule="evenodd" clip-rule="evenodd" d="M31.0806 7.75C32.6391 5.73994 33.8246 2.90178 33.395 0C30.8468 0.175411 27.8664 1.80453 26.1255 3.92525C24.5459 5.85182 23.2418 8.70907 23.7495 11.4846C26.5315 11.5714 29.4093 9.90336 31.0806 7.75Z" fill="white"/>
<path fill-rule="evenodd" clip-rule="evenodd" d="M6.13477 17.2227C5.07592 18.8885 4.316 21.2736 4.12158 23.3678H38.2151C38.5865 21.0766 39.7447 18.8868 41.7021 17.2227L6.13477 17.2227Z" fill="white"/>
<path fill-rule="evenodd" clip-rule="evenodd" d="M4.30219 29.461C3.96839 27.322 3.91437 25.2599 4.12406 23.3681L38.2077 23.3672C37.8743 25.4188 38.1541 27.5539 38.9974 29.4623L4.30219 29.461V29.461Z" fill="white"/>
<path fill-rule="evenodd" clip-rule="evenodd" d="M5.96796 35.5534C5.16311 33.5065 4.61202 31.4506 4.30225 29.4609L38.9974 29.4622C40.0715 31.894 42.0593 33.96 44.8582 35.0216C44.775 35.2073 44.6948 35.3849 44.6177 35.556L5.96796 35.5534V35.5534Z" fill="white"/>
<path fill-rule="evenodd" clip-rule="evenodd" d="M44.6174 35.5534C43.6564 37.6749 43.0994 38.776 41.7695 40.8085C41.5906 41.0815 41.4057 41.3607 41.2133 41.6425L9.18788 41.6455C9.08529 41.492 8.98364 41.3387 8.88356 41.1865C7.68621 39.3552 6.71688 37.4566 5.96777 35.5508L44.6174 35.5534V35.5534Z" fill="white"/>
<path fill-rule="evenodd" clip-rule="evenodd" d="M41.2134 41.6445C39.2543 44.5264 36.6242 47.6976 33.4328 47.7277C30.3186 47.7561 29.5197 45.6927 25.2948 45.7159C21.0698 45.7396 20.1877 47.7638 17.0736 47.7345C13.7442 47.7036 11.1588 44.5891 9.18799 41.6475L41.2134 41.6445V41.6445Z" fill="white"/>
</svg>
