<svg width="48" height="48" viewBox="0 0 48 48" fill="none" xmlns="http://www.w3.org/2000/svg">
<path fill-rule="evenodd" clip-rule="evenodd" d="M18.8641 15.9874L7.17105 36.2381L4.44101 31.6103L7.59236 26.1868L1.33383 26.1704L0 23.858L1.36205 21.4928L10.2704 21.5209L13.472 16.0015L18.8641 15.9874Z" fill="white"/>
<path fill-rule="evenodd" clip-rule="evenodd" d="M19.7611 32.1756L43.1452 32.1767L40.5025 36.8548L34.2299 36.8375L37.3449 42.2657L36.0092 44.5771L33.2799 44.5801L28.8501 36.8512L22.4693 36.8382L19.7611 32.1756Z" fill="white"/>
<path fill-rule="evenodd" clip-rule="evenodd" d="M33.3715 23.3022L21.6804 3.0504L27.0532 3L30.1744 8.4409L33.3179 3.02907L35.9875 3.03013L37.3547 5.39228L32.8762 13.0931L36.0554 18.6255L33.3715 23.3022Z" fill="white"/>
<path fill-rule="evenodd" clip-rule="evenodd" d="M28.2236 15.4049L4.83947 15.4037L7.48221 10.7256L13.7548 10.743L10.6398 5.31468L11.9755 3.00334L14.7048 3.00033L19.1346 10.7293L25.5154 10.7422L28.2236 15.4049Z" fill="white"/>
<path fill-rule="evenodd" clip-rule="evenodd" d="M29.1359 31.6398L40.8289 11.3891L43.559 16.0169L40.4076 21.4404L46.6662 21.4569L48 23.7693L46.6379 26.1344L37.7296 26.1063L34.528 31.6258L29.1359 31.6398Z" fill="white"/>
<path fill-rule="evenodd" clip-rule="evenodd" d="M14.6444 24.3293L26.3354 44.5811L20.9627 44.6315L17.8414 39.1906L14.6979 44.6025L12.0284 44.6014L10.6611 42.2393L15.1397 34.5384L11.9605 29.006L14.6444 24.3293Z" fill="white"/>
</svg>
