<svg width="48" height="48" viewBox="0 0 48 48" fill="none" xmlns="http://www.w3.org/2000/svg">
<path fill-rule="evenodd" clip-rule="evenodd" d="M14.3336 0.329694C14.6288 0.0971495 14.8891 0.0080157 15.1308 0.000527751C15.4397 -0.00904363 15.7174 0.113197 15.9951 0.235421C16.1321 0.295743 16.2692 0.356061 16.4099 0.400528C17.185 0.14774 17.5144 0.341396 17.8434 0.534771C17.9558 0.600862 18.0682 0.666921 18.1983 0.715111C19.2166 0.500224 19.5982 0.898648 20.0596 1.38038C20.1118 1.4349 20.1651 1.49048 20.2204 1.54636L20.8527 1.53386C22.5625 2.53989 23.4102 4.58873 23.7115 5.64219C24.0127 4.58889 24.8623 2.54007 26.5725 1.53386L27.2048 1.54636C27.26 1.49048 27.3133 1.4349 27.3655 1.38038C27.8269 0.898647 28.2085 0.500224 29.2268 0.715111C29.3569 0.666921 29.4693 0.600862 29.5817 0.534771C29.9107 0.341396 30.2401 0.14774 31.0152 0.400528C31.1559 0.356073 31.2929 0.295767 31.4298 0.235468C31.9245 0.0176315 32.419 -0.200133 33.0915 0.329694C33.8145 0.0512744 34.5156 -0.0454515 35.1428 0.521361C36.1106 0.395977 36.4256 0.654744 36.664 0.956778C36.685 0.956344 36.7173 0.953872 36.7592 0.950671C37.1413 0.921443 38.3169 0.83152 38.8864 1.67969C40.4745 1.49213 40.9763 2.61222 40.4077 3.65678L40.4185 3.67348C40.7393 4.1691 41.0596 4.66388 40.3096 5.60886C40.5779 6.1411 40.4116 6.71846 39.7796 7.4172C39.9464 8.16537 39.6185 8.69325 39.0304 9.1047C39.1321 10.0508 38.2429 10.6309 37.8597 10.881L37.8596 10.881L37.859 10.8814C37.8278 10.9018 37.7999 10.92 37.7763 10.9359C37.6558 11.5325 37.4048 12.0955 36.2049 12.4068C36.0155 13.2578 35.3467 13.4349 34.6774 13.6121C34.6475 13.62 34.6176 13.628 34.5877 13.6359C36.8956 14.9752 38.8748 16.7375 38.8614 21.0609L39.1994 21.663C41.8458 23.2698 44.2267 28.4341 40.5037 32.6318C40.3125 33.6648 40.0195 34.469 39.7265 35.2732L39.7263 35.2737C39.6467 35.4922 39.5671 35.7107 39.4895 35.9339C38.9464 40.1426 35.4016 42.1133 34.4667 42.3464C33.0967 43.3882 31.6375 44.3768 29.663 45.0693C27.8016 46.9859 25.785 47.7164 23.7574 47.7151C23.7539 47.7152 23.7504 47.7152 23.7469 47.7152C23.7419 47.7152 23.7369 47.7153 23.7318 47.7153C23.721 47.7153 23.7101 47.7152 23.6992 47.7152C23.6887 47.7151 23.6781 47.7151 23.6677 47.7151C21.6401 47.7164 19.6236 46.9859 17.7622 45.0693C15.7876 44.3768 14.3285 43.3882 12.9584 42.3464C12.0235 42.1133 8.47876 40.1426 7.93561 35.9339C7.85798 35.7106 7.77831 35.4919 7.69864 35.2732C7.40563 34.469 7.11264 33.6648 6.92144 32.6318C3.19839 28.4341 5.57926 23.2698 8.22567 21.663L8.56372 21.0609C8.55032 16.7375 10.5295 14.9752 12.8374 13.6359C12.8076 13.628 12.7778 13.6201 12.748 13.6122L12.7477 13.6121C12.0784 13.4349 11.4096 13.2578 11.2202 12.4068C10.0203 12.0955 9.76928 11.5325 9.64884 10.9359C9.62501 10.9198 9.59693 10.9015 9.56543 10.881C9.18225 10.6309 8.29306 10.0508 8.3947 9.1047C7.80662 8.69325 7.47875 8.16537 7.64555 7.4172C7.01352 6.71846 6.8472 6.1411 7.11551 5.60886C6.36548 4.66388 6.68577 4.1691 7.00662 3.67348L7.01743 3.65678C6.4488 2.61222 6.95063 1.49213 8.53868 1.67969C9.10818 0.83152 10.2838 0.921443 10.6659 0.950671C10.7078 0.953872 10.7401 0.956344 10.7611 0.956778C10.9995 0.654744 11.3145 0.395977 12.2823 0.521361C12.9095 -0.0454515 13.6106 0.0512744 14.3336 0.329694ZM20.3463 10.2608C18.9012 8.65175 16.2636 6.76257 11.7263 4.42715C15.2562 5.62457 18.4412 7.2206 21.1068 9.41707C24.2406 7.93823 22.0804 4.20847 20.5515 2.72768C20.474 3.11869 20.3862 3.36591 20.2859 3.43881C20.1464 3.2873 20.0141 3.13477 19.8818 2.98224C19.5419 2.59029 19.2019 2.19835 18.7406 1.82371C18.7401 1.89275 18.7476 1.96311 18.7551 2.03348C18.7808 2.27465 18.8065 2.51583 18.5112 2.70358C18.1677 2.23513 17.7032 1.81697 17.0866 1.46212C17.3429 1.91002 17.1949 2.08885 17.0469 2.26768C17.0234 2.29611 16.9998 2.32453 16.9779 2.35404C16.9529 2.33231 16.928 2.31056 16.9031 2.28881C16.4583 1.90095 16.0135 1.51309 15.1912 1.20901C15.22 1.24454 15.2501 1.27996 15.2803 1.31538C15.499 1.57225 15.7177 1.82912 15.4085 2.12504C14.9235 1.81809 14.4355 1.51155 13.2837 1.29338C13.3468 1.36472 13.4263 1.43606 13.5059 1.5074C13.7533 1.72935 14.0007 1.9513 13.7545 2.17325C13.1455 1.93752 12.4718 1.7664 11.7263 1.66702C12.0833 1.96463 12.3811 2.25611 12.0885 2.48662C11.4368 2.28344 10.5391 2.00975 9.66184 2.24556L10.2172 2.81205C10.2637 2.86926 9.50031 2.87373 8.73692 2.8782C8.48864 2.87965 8.24036 2.8811 8.01994 2.88437C8.03442 2.90475 8.0489 2.92509 8.06339 2.94543C8.37699 3.38585 8.69059 3.82626 8.87711 4.58384C8.79402 4.66915 8.40078 4.6306 8.00753 4.59205C7.97943 4.5893 7.95134 4.58655 7.92336 4.58384C8.18183 5.13537 8.55475 5.43922 8.84916 5.6791C9.04485 5.83855 9.20586 5.96974 9.27551 6.12662C9.01266 6.32834 8.64796 6.27584 8.24933 6.13867C8.47043 6.60035 8.86468 6.95832 9.25893 7.31629C9.41708 7.45988 9.57523 7.60348 9.72221 7.75377C9.59243 7.84712 9.3657 7.90284 8.82882 7.83814C9.30309 8.34909 9.87608 8.81624 10.5552 9.23628C10.4461 9.36407 10.0955 9.37132 9.74492 9.37857C9.70909 9.37931 9.67327 9.38005 9.6377 9.38092C10.1176 9.85696 10.7049 10.1542 11.2923 10.4514L11.2924 10.4514L11.2924 10.4514L11.2925 10.4515L11.2926 10.4515L11.2927 10.4516L11.2927 10.4516L11.2928 10.4516L11.2929 10.4517L11.293 10.4517L11.293 10.4517L11.2931 10.4518L11.2932 10.4518C11.4585 10.5354 11.6238 10.6191 11.7867 10.7067C11.4727 10.9241 11.2347 10.9139 10.9967 10.9037C10.9543 10.9019 10.9119 10.9001 10.8691 10.8996C11.3162 11.2718 12.0299 11.4919 12.7437 11.712C12.8678 11.7503 12.9919 11.7886 13.1147 11.8277C12.9571 12.0758 12.7996 12.1437 12.4627 12.2134C12.9709 12.4984 13.6064 12.5427 14.12 12.5785C14.4925 12.6045 14.8008 12.626 14.9497 12.7316C14.8642 12.9788 14.623 13.1397 14.334 13.274C15.7456 13.3571 19.6062 13.222 20.3463 10.2608ZM35.8014 4.42715C31.2641 6.76257 28.6264 8.65175 27.1814 10.2608C27.9214 13.222 31.782 13.3571 33.1936 13.274C32.9046 13.1397 32.6634 12.9788 32.5779 12.7316C32.7268 12.626 33.0352 12.6045 33.4077 12.5785C33.9212 12.5427 34.5567 12.4984 35.0649 12.2134C34.7281 12.1437 34.5705 12.0758 34.413 11.8277C34.5357 11.7886 34.6598 11.7503 34.784 11.712C35.4977 11.4919 36.2115 11.2718 36.6585 10.8996C36.6157 10.9001 36.5733 10.9019 36.5309 10.9037C36.2929 10.9139 36.055 10.9241 35.741 10.7067C35.9042 10.6189 36.0698 10.5352 36.2354 10.4514C36.8227 10.1542 37.4101 9.85696 37.89 9.38092C37.8544 9.38005 37.8186 9.37931 37.7827 9.37857C37.4321 9.37132 37.0815 9.36407 36.9724 9.23628C37.6516 8.81624 38.2246 8.34909 38.6988 7.83814C38.1619 7.90284 37.9352 7.84712 37.8054 7.75377C37.9524 7.60348 38.1106 7.45988 38.2687 7.31629C38.663 6.95832 39.0572 6.60035 39.2783 6.13867C38.8797 6.27584 38.515 6.32834 38.2521 6.12662C38.3218 5.96974 38.4828 5.83855 38.6785 5.6791C38.9729 5.43922 39.3458 5.13537 39.6043 4.58384C39.5763 4.58655 39.5482 4.5893 39.5201 4.59205C39.1269 4.6306 38.7336 4.66915 38.6505 4.58384C38.8371 3.82626 39.1507 3.38584 39.4643 2.94543L39.4876 2.91267L39.5077 2.88437C39.2873 2.8811 39.039 2.87965 38.7907 2.8782C38.0273 2.87373 37.2639 2.86926 37.3105 2.81205L37.8658 2.24556C36.9885 2.00975 36.0908 2.28344 35.4392 2.48662C35.1466 2.25611 35.4444 1.96463 35.8014 1.66702C35.0558 1.7664 34.3821 1.93752 33.7731 2.17325C33.5269 1.9513 33.7743 1.72935 34.0218 1.5074C34.1013 1.43606 34.1808 1.36472 34.244 1.29338C33.0921 1.51155 32.6041 1.81809 32.1192 2.12504C31.8099 1.82912 32.0287 1.57225 32.2474 1.31538C32.2775 1.27996 32.3077 1.24454 32.3365 1.20901C31.5141 1.5131 31.0693 1.90095 30.6246 2.28881C30.5996 2.31056 30.5747 2.33231 30.5497 2.35404C30.5278 2.32453 30.5043 2.29611 30.4807 2.26768C30.3328 2.08885 30.1848 1.91002 30.441 1.46212C29.8244 1.81697 29.36 2.23513 29.0165 2.70358C28.7211 2.51583 28.7468 2.27465 28.7725 2.03348C28.78 1.96311 28.7875 1.89275 28.7871 1.82371C28.3258 2.19835 27.9858 2.59029 27.6458 2.98224C27.5135 3.13477 27.3812 3.2873 27.2418 3.43881C27.1415 3.36591 27.0537 3.11869 26.9762 2.72768C25.4473 4.20847 23.287 7.93823 26.4208 9.41707C29.0864 7.2206 32.2715 5.62457 35.8014 4.42715ZM18.7809 16.3768C18.7867 15.2628 21.1902 13.3421 23.6944 13.4072C25.9166 13.3827 28.668 15.0625 28.657 16.6452C28.6473 18.0421 26.7247 19.173 23.7115 19.1515C20.7609 19.1163 18.7739 17.7304 18.7809 16.3768ZM17.6672 14.467C13.4714 13.7597 9.98022 16.2485 10.1208 20.7909C10.2588 22.5323 19.2129 14.7263 17.6672 14.467ZM22.633 23.5766C22.463 22.178 21.7599 20.995 20.6785 20.2876C19.597 19.5803 18.2258 19.4066 16.8665 19.8048C15.5072 20.203 14.2711 21.1405 13.4301 22.4109C12.5892 23.6814 12.2123 25.1809 12.3823 26.5794C12.5524 27.978 13.2554 29.1611 14.3369 29.8684C15.4183 30.5758 16.7895 30.7495 18.1488 30.3512C19.5082 29.953 20.7443 29.0156 21.5852 27.7451C22.4262 26.4746 22.8031 24.9751 22.633 23.5766ZM9.42374 22.696C11.8553 22.0455 10.2445 32.7384 8.26628 31.861C6.09025 30.1135 5.38935 24.996 9.42374 22.696ZM16.7486 41.0199C18.0458 40.0516 17.3372 36.7667 15.7827 34.897C13.9988 32.8305 11.6811 31.5983 10.181 32.5105C9.17788 33.2727 8.99375 35.867 10.4224 38.4165C12.5408 41.4547 15.5213 41.7591 16.7486 41.0199ZM29.2587 34.5808C29.2587 35.9078 28.6861 37.1805 27.6669 38.1188C26.6476 39.0572 25.2652 39.5843 23.8238 39.5843C22.3823 39.5843 21 39.0572 19.9807 38.1188C18.9615 37.1805 18.3888 35.9078 18.3888 34.5808C18.3888 33.2539 18.9615 31.9812 19.9807 31.0429C21 30.1045 22.3823 29.5774 23.8238 29.5774C25.2652 29.5774 26.6476 30.1045 27.6669 31.0429C28.6861 31.9812 29.2587 33.2539 29.2587 34.5808ZM24.8027 23.3099C24.9728 21.9114 25.6758 20.7283 26.7573 20.0209C27.8387 19.3136 29.2099 19.1399 30.5692 19.5381C31.9285 19.9363 33.1647 20.8738 34.0056 22.1443C34.8466 23.4148 35.2235 24.9142 35.0534 26.3128C34.8834 27.7113 34.1803 28.8944 33.0989 29.6018C32.0174 30.3091 30.6462 30.4828 29.2869 30.0846C27.9276 29.6864 26.6915 28.7489 25.8505 27.4784C25.0096 26.2079 24.6327 24.7085 24.8027 23.3099ZM29.2604 14.6003C33.4563 13.893 36.9474 16.3818 36.8069 20.9242C36.6689 22.6656 27.7147 14.8596 29.2604 14.6003ZM37.5211 22.5626C35.0895 21.9122 36.7003 32.6051 38.6785 31.7277C40.8546 29.9802 41.5555 24.8627 37.5211 22.5626ZM31.6009 34.3042C29.919 36.271 28.9824 39.8582 30.2094 41.0137C31.3825 41.9113 34.5318 41.7859 36.858 38.5634C38.5472 36.3991 37.9812 32.7846 37.0163 31.825C35.583 30.7182 33.5255 32.1347 31.6009 34.3042ZM28.9662 42.9243C28.9605 41.8667 26.0308 41.0694 23.8474 41.1646C21.6776 41.1104 18.3501 42.0325 18.3905 43.2136C18.3558 44.0191 21.0029 46.3431 23.7025 46.2268C26.3092 46.2717 29.0025 43.9513 28.9662 42.9243Z" fill="white"/>
</svg>
