<svg xmlns:xlink="http://www.w3.org/1999/xlink" xmlns="http://www.w3.org/2000/svg" viewBox="0 0 48 48" width="172"  height="172" ><path d="M 28.382812 5.0859375 A 1.50015 1.50015 0 0 0 27.337891 7.6621094 C 32.231587 12.555806 32.231587 20.446147 27.337891 25.339844 A 1.50015 1.50015 0 1 0 29.458984 27.460938 C 35.499288 21.420634 35.499288 11.581319 29.458984 5.5410156 A 1.50015 1.50015 0 0 0 28.382812 5.0859375 z M 11.476562 7.9785156 A 1.50015 1.50015 0 0 0 10 9.5 L 10 30 L 9.5 30 C 7.0324991 30 5 32.032499 5 34.5 L 5 38.5 C 5 40.967501 7.0324991 43 9.5 43 L 38.5 43 C 40.967501 43 43 40.967501 43 38.5 L 43 34.5 C 43 32.032499 40.967501 30 38.5 30 L 20 30 L 20 16.5 A 1.50015 1.50015 0 0 0 18.476562 14.978516 A 1.50015 1.50015 0 0 0 17 16.5 L 17 30 L 13 30 L 13 9.5 A 1.50015 1.50015 0 0 0 11.476562 7.9785156 z M 24.140625 9.328125 A 1.50015 1.50015 0 0 0 23.095703 11.904297 C 25.646367 14.454961 25.646367 18.545039 23.095703 21.095703 A 1.50015 1.50015 0 1 0 25.216797 23.216797 C 28.914133 19.519461 28.914133 13.480539 25.216797 9.7832031 A 1.50015 1.50015 0 0 0 24.140625 9.328125 z M 11.5 34.5 C 12.605 34.5 13.5 35.395 13.5 36.5 C 13.5 37.605 12.605 38.5 11.5 38.5 C 10.395 38.5 9.5 37.605 9.5 36.5 C 9.5 35.395 10.395 34.5 11.5 34.5 z M 29.5 34.5 C 30.605 34.5 31.5 35.395 31.5 36.5 C 31.5 37.605 30.605 38.5 29.5 38.5 C 28.395 38.5 27.5 37.605 27.5 36.5 C 27.5 35.395 28.395 34.5 29.5 34.5 z M 36.5 34.5 C 37.605 34.5 38.5 35.395 38.5 36.5 C 38.5 37.605 37.605 38.5 36.5 38.5 C 35.395 38.5 34.5 37.605 34.5 36.5 C 34.5 35.395 35.395 34.5 36.5 34.5 z"></path></svg>