<svg xmlns:xlink="http://www.w3.org/1999/xlink" xmlns="http://www.w3.org/2000/svg" viewBox="0 0 48 48" width="172"  height="172" ><path d="M 9.5 7 C 6.468 7 4 9.468 4 12.5 L 4 35.5 C 4 38.532 6.468 41 9.5 41 L 38.5 41 C 41.532 41 44 38.532 44 35.5 L 44 12.5 C 44 9.468 41.532 7 38.5 7 L 9.5 7 z M 16 18 C 16.513 18 16.973109 18.313016 17.162109 18.791016 L 20.912109 28.291016 C 21.165109 28.933016 20.850984 29.658109 20.208984 29.912109 C 20.057984 29.971109 19.903953 30 19.751953 30 C 19.252953 30 18.781891 29.699031 18.587891 29.207031 L 18.208984 28.248047 L 13.791016 28.248047 L 13.412109 29.207031 C 13.159109 29.849031 12.433062 30.166109 11.789062 29.912109 C 11.147063 29.659109 10.832937 28.932062 11.085938 28.289062 L 14.835938 18.789062 C 15.025937 18.312062 15.487 18 16 18 z M 24.25 18 L 27.5 18 C 29.981 18 32 20.019 32 22.5 C 32 24.981 29.981 27 27.5 27 L 25.5 27 L 25.5 28.75 C 25.5 29.44 24.94 30 24.25 30 C 23.56 30 23 29.44 23 28.75 L 23 19.25 C 23 18.56 23.56 18 24.25 18 z M 35.25 18 C 35.94 18 36.5 18.56 36.5 19.25 L 36.5 28.75 C 36.5 29.44 35.94 30 35.25 30 C 34.56 30 34 29.44 34 28.75 L 34 19.25 C 34 18.56 34.56 18 35.25 18 z M 25.5 20.5 L 25.5 24.5 L 27.5 24.5 C 28.603 24.5 29.5 23.603 29.5 22.5 C 29.5 21.397 28.603 20.5 27.5 20.5 L 25.5 20.5 z M 16 22.654297 L 14.777344 25.75 L 17.222656 25.75 L 16 22.654297 z"></path></svg>