<svg xmlns:xlink="http://www.w3.org/1999/xlink" xmlns="http://www.w3.org/2000/svg" viewBox="0 0 48 48" width="172"  height="172" ><path d="M14 17.5c0-2.485-2.015-4.5-4.5-4.5S5 15.015 5 17.5c0 1.887 0 20.112 0 22C5 41.985 7.015 44 9.5 44s4.5-2.015 4.5-4.5C14 37.612 14 19.387 14 17.5zM43 8.5C43 6.015 40.985 4 38.5 4S34 6.015 34 8.5c0 1.887 0 29.112 0 31 0 2.485 2.015 4.5 4.5 4.5s4.5-2.015 4.5-4.5C43 37.612 43 10.387 43 8.5zM28.5 26.5c0-2.485-2.015-4.5-4.5-4.5s-4.5 2.015-4.5 4.5c0 1.887 0 11.112 0 13 0 2.485 2.015 4.5 4.5 4.5s4.5-2.015 4.5-4.5C28.5 37.612 28.5 28.387 28.5 26.5z"></path></svg>