<svg xmlns:xlink="http://www.w3.org/1999/xlink" xmlns="http://www.w3.org/2000/svg" viewBox="0 0 48 48" width="172"  height="172" ><path d="M 21.476562 3.9785156 A 1.50015 1.50015 0 0 0 20 5.5 L 20 8 L 9.5 8 C 7.57 8 6 9.57 6 11.5 L 6 38.5 C 6 40.43 7.57 42 9.5 42 L 38.5 42 C 40.43 42 42 40.43 42 38.5 L 42 11.5 C 42 9.57 40.43 8 38.5 8 L 37 8 L 37 5.5 A 1.50015 1.50015 0 0 0 35.5 4 L 27.5 4 A 1.50015 1.50015 0 0 0 26 5.5 L 26 8 L 23 8 L 23 5.5 A 1.50015 1.50015 0 0 0 21.476562 3.9785156 z M 29 7 L 34 7 L 34 10 L 29 10 L 29 7 z M 12.5 15 L 14.5 15 C 15.329 15 16 15.671 16 16.5 C 16 17.329 15.329 18 14.5 18 L 14 18 L 14 22.5 C 14 23.329 13.329 24 12.5 24 C 11.671 24 11 23.329 11 22.5 L 11 16.5 C 11 15.671 11.671 15 12.5 15 z M 20.5 15 L 22.5 15 C 23.329 15 24 15.671 24 16.5 C 24 17.329 23.329 18 22.5 18 L 22 18 L 22 22.5 C 22 23.329 21.329 24 20.5 24 C 19.671 24 19 23.329 19 22.5 L 19 16.5 C 19 15.671 19.671 15 20.5 15 z M 29.5 15 L 35.5 15 C 36.329 15 37 15.671 37 16.5 L 37 22.5 C 37 23.329 36.329 24 35.5 24 L 29.5 24 C 28.671 24 28 23.329 28 22.5 L 28 16.5 C 28 15.671 28.671 15 29.5 15 z M 31 18 L 31 21 L 34 21 L 34 18 L 31 18 z M 12.5 28 L 26.5 28 C 27.329 28 28 28.671 28 29.5 C 28 30.329 27.329 31 26.5 31 L 12.5 31 C 11.671 31 11 30.329 11 29.5 C 11 28.671 11.671 28 12.5 28 z M 33.5 28 C 34.329 28 35 28.671 35 29.5 L 35 35.5 C 35 36.329 34.329 37 33.5 37 C 32.671 37 32 36.329 32 35.5 L 32 29.5 C 32 28.671 32.671 28 33.5 28 z M 12.5 34 L 26.5 34 C 27.329 34 28 34.671 28 35.5 C 28 36.329 27.329 37 26.5 37 L 12.5 37 C 11.671 37 11 36.329 11 35.5 C 11 34.671 11.671 34 12.5 34 z"></path></svg>