<svg xmlns:xlink="http://www.w3.org/1999/xlink" xmlns="http://www.w3.org/2000/svg" viewBox="0 0 48 48" width="172"  height="172" ><path d="M 20.5 3 C 18.203405 3 16.305701 4.7666235 16.050781 7 L 12.5 7 C 10.019 7 8 9.019 8 11.5 L 8 38.5 C 8 40.981 10.019 43 12.5 43 L 35.5 43 C 37.981 43 40 40.981 40 38.5 L 40 11.5 C 40 9.019 37.981 7 35.5 7 L 31.949219 7 C 31.694299 4.7666235 29.796595 3 27.5 3 L 20.5 3 z M 20.5 6 L 27.5 6 C 28.346499 6 29 6.6535009 29 7.5 C 29 8.3464991 28.346499 9 27.5 9 L 20.5 9 C 19.653501 9 19 8.3464991 19 7.5 C 19 6.6535009 19.653501 6 20.5 6 z M 16.5 17 L 31.5 17 C 32.328 17 33 17.671 33 18.5 C 33 19.329 32.328 20 31.5 20 L 16.5 20 C 15.672 20 15 19.329 15 18.5 C 15 17.671 15.672 17 16.5 17 z M 16.5 25 L 23.5 25 C 24.328 25 25 25.671 25 26.5 C 25 27.329 24.328 28 23.5 28 L 16.5 28 C 15.672 28 15 27.329 15 26.5 C 15 25.671 15.672 25 16.5 25 z M 16.5 33 L 27.5 33 C 28.328 33 29 33.671 29 34.5 C 29 35.329 28.328 36 27.5 36 L 16.5 36 C 15.672 36 15 35.329 15 34.5 C 15 33.671 15.672 33 16.5 33 z"></path></svg>