<svg xmlns:xlink="http://www.w3.org/1999/xlink" xmlns="http://www.w3.org/2000/svg" viewBox="0 0 48 48" width="172" height="172">
  <path
    d="M 4.5 5 A 1.50015 1.50015 0 1 0 4.5 8 L 5 8 L 5 28.035156 C 3.306 28.278156 2 29.74 2 31.5 L 2 41.5 C 2 42.328 2.672 43 3.5 43 L 13 43 C 13.552 43 14 42.552 14 42 L 14 35 C 14 34.448 14.448 34 15 34 L 18 34 C 18.552 34 19 34.448 19 35 L 19 42 C 19 42.552 19.448 43 20 43 L 29.5 43 C 30.328 43 31 42.328 31 41.5 L 31 31.5 C 31 29.74 29.694 28.278156 28 28.035156 L 28 8 L 28.5 8 A 1.50015 1.50015 0 1 0 28.5 5 L 4.5 5 z M 12 12 L 14 12 C 14.552 12 15 12.448 15 13 L 15 15 C 15 15.552 14.552 16 14 16 L 12 16 C 11.448 16 11 15.552 11 15 L 11 13 C 11 12.448 11.448 12 12 12 z M 19 12 L 21 12 C 21.552 12 22 12.448 22 13 L 22 15 C 22 15.552 21.552 16 21 16 L 19 16 C 18.448 16 18 15.552 18 15 L 18 13 C 18 12.448 18.448 12 19 12 z M 30 12 L 30 26.603516 C 31.79 27.525516 33 29.4 33 31.5 L 33 41.5 C 33 42.039 32.866437 42.544 32.648438 43 L 44.5 43 C 45.33 43 46 42.33 46 41.5 L 46 17.5 C 46 14.47 43.53 12 40.5 12 L 30 12 z M 12 19 L 14 19 C 14.552 19 15 19.448 15 20 L 15 22 C 15 22.552 14.552 23 14 23 L 12 23 C 11.448 23 11 22.552 11 22 L 11 20 C 11 19.448 11.448 19 12 19 z M 19 19 L 21 19 C 21.552 19 22 19.448 22 20 L 22 22 C 22 22.552 21.552 23 21 23 L 19 23 C 18.448 23 18 22.552 18 22 L 18 20 C 18 19.448 18.448 19 19 19 z M 37 19 L 39 19 C 39.552 19 40 19.448 40 20 L 40 22 C 40 22.552 39.552 23 39 23 L 37 23 C 36.448 23 36 22.552 36 22 L 36 20 C 36 19.448 36.448 19 37 19 z M 12 26 L 14 26 C 14.552 26 15 26.448 15 27 L 15 29 C 15 29.552 14.552 30 14 30 L 12 30 C 11.448 30 11 29.552 11 29 L 11 27 C 11 26.448 11.448 26 12 26 z M 19 26 L 21 26 C 21.552 26 22 26.448 22 27 L 22 29 C 22 29.552 21.552 30 21 30 L 19 30 C 18.448 30 18 29.552 18 29 L 18 27 C 18 26.448 18.448 26 19 26 z M 37 26 L 39 26 C 39.552 26 40 26.448 40 27 L 40 29 C 40 29.552 39.552 30 39 30 L 37 30 C 36.448 30 36 29.552 36 29 L 36 27 C 36 26.448 36.448 26 37 26 z M 37 33 L 39 33 C 39.552 33 40 33.448 40 34 L 40 36 C 40 36.552 39.552 37 39 37 L 37 37 C 36.448 37 36 36.552 36 36 L 36 34 C 36 33.448 36.448 33 37 33 z M 7 34 L 9 34 C 9.552 34 10 34.448 10 35 L 10 37 C 10 37.552 9.552 38 9 38 L 7 38 C 6.448 38 6 37.552 6 37 L 6 35 C 6 34.448 6.448 34 7 34 z M 24 34 L 26 34 C 26.552 34 27 34.448 27 35 L 27 37 C 27 37.552 26.552 38 26 38 L 24 38 C 23.448 38 23 37.552 23 37 L 23 35 C 23 34.448 23.448 34 24 34 z"
  ></path>
</svg>
