<svg xmlns:xlink="http://www.w3.org/1999/xlink" xmlns="http://www.w3.org/2000/svg" viewBox="0 0 48 48" width="172" height="172">
  <path
    d="M 8 6 A 2 2 0 0 0 8 10 A 2 2 0 0 0 8 6 z M 14 6 A 2 2 0 0 0 14 10 A 2 2 0 0 0 14 6 z M 20 6 A 2 2 0 0 0 20 10 A 2 2 0 0 0 20 6 z M 26 6 A 2.0002 2.0002 0 1 0 26 10 C 32.651124 10 38 15.348876 38 22 A 2.0002 2.0002 0 1 0 42 22 C 42 13.187124 34.812876 6 26 6 z M 40 26 A 2 2 0 0 0 40 30 A 2 2 0 0 0 40 26 z M 40 32 A 2 2 0 0 0 40 36 A 2 2 0 0 0 40 32 z M 40 38 A 2 2 0 0 0 40 42 A 2 2 0 0 0 40 38 z"
  ></path>
</svg>
