<svg xmlns:xlink="http://www.w3.org/1999/xlink" xmlns="http://www.w3.org/2000/svg" viewBox="0 0 48 48" width="172"  height="172" ><path d="M 5.5 12 C 2.467 12 0 14.468 0 17.5 L 0 30.5 C 0 33.532 2.467 36 5.5 36 L 14 36 L 14 12 L 5.5 12 z M 17 12 L 17 36 L 31 36 L 31 12 L 17 12 z M 34 12 L 34 36 L 42.5 36 C 45.533 36 48 33.532 48 30.5 L 48 17.5 C 48 14.468 45.533 12 42.5 12 L 34 12 z M 7 18 C 9.206 18 11 19.794 11 22 L 11 26 C 11 28.206 9.206 30 7 30 C 4.794 30 3 28.206 3 26 L 3 22 C 3 19.794 4.794 18 7 18 z M 24 18 C 26.206 18 28 19.794 28 22 L 28 26 C 28 28.206 26.206 30 24 30 C 21.794 30 20 28.206 20 26 L 20 22 C 20 19.794 21.794 18 24 18 z M 37.134766 18 L 39.894531 18 C 39.648531 18.272 39.507812 18.622188 39.507812 18.992188 C 39.507812 19.823187 40.177 20.5 41 20.5 C 41.831 20.5 42.507812 19.823188 42.507812 18.992188 C 42.507812 18.622187 42.365141 18.271 42.119141 18 L 44.880859 18 C 44.962859 18.318 45.005859 18.649188 45.005859 18.992188 C 45.006859 21.202187 43.210953 23 41.001953 23 C 38.799953 23 37.007812 21.202188 37.007812 18.992188 C 37.007812 18.649188 37.052766 18.317 37.134766 18 z M 7 20.5 C 6.173 20.5 5.5 21.173 5.5 22 L 5.5 26 C 5.5 26.827 6.173 27.5 7 27.5 C 7.827 27.5 8.5 26.827 8.5 26 L 8.5 22 C 8.5 21.173 7.827 20.5 7 20.5 z M 24 20.5 C 23.173 20.5 22.5 21.173 22.5 22 L 22.5 26 C 22.5 26.827 23.173 27.5 24 27.5 C 24.827 27.5 25.5 26.827 25.5 26 L 25.5 22 C 25.5 21.173 24.827 20.5 24 20.5 z M 38.25 25 L 43.75 25 C 44.179 25 44.577641 25.219031 44.806641 25.582031 C 45.035641 25.945031 45.063859 26.398156 44.880859 26.785156 L 43.357422 30 L 40.591797 30 L 41.775391 27.5 L 38.25 27.5 C 37.56 27.5 37 26.94 37 26.25 C 37 25.56 37.56 25 38.25 25 z"></path></svg>