<svg xmlns:xlink="http://www.w3.org/1999/xlink" xmlns="http://www.w3.org/2000/svg" viewBox="0 0 48 48" width="172" height="172">
  <path
    d="M36.5,6h-25C8.468,6,6,8.467,6,11.5v25c0,3.033,2.468,5.5,5.5,5.5h25c3.032,0,5.5-2.467,5.5-5.5v-25 C42,8.467,39.532,6,36.5,6z M24,11c0.828,0,1.5,0.672,1.5,1.5S24.828,14,24,14s-1.5-0.672-1.5-1.5S23.172,11,24,11z M18.5,11 c0.828,0,1.5,0.672,1.5,1.5S19.328,14,18.5,14S17,13.328,17,12.5S17.672,11,18.5,11z M12.5,31c-0.828,0-1.5-0.672-1.5-1.5 s0.672-1.5,1.5-1.5s1.5,0.672,1.5,1.5S13.328,31,12.5,31z M12.5,25.5c-0.828,0-1.5-0.672-1.5-1.5s0.672-1.5,1.5-1.5 S14,23.172,14,24S13.328,25.5,12.5,25.5z M12.5,20c-0.828,0-1.5-0.672-1.5-1.5s0.672-1.5,1.5-1.5s1.5,0.672,1.5,1.5 S13.328,20,12.5,20z M18.5,37c-0.828,0-1.5-0.672-1.5-1.5s0.672-1.5,1.5-1.5s1.5,0.672,1.5,1.5S19.328,37,18.5,37z M18,27.5v-7 c0-1.378,1.121-2.5,2.5-2.5h7c1.379,0,2.5,1.122,2.5,2.5v7c0,1.378-1.121,2.5-2.5,2.5h-7C19.121,30,18,28.878,18,27.5z M24,37 c-0.828,0-1.5-0.672-1.5-1.5S23.172,34,24,34s1.5,0.672,1.5,1.5S24.828,37,24,37z M29.5,37c-0.828,0-1.5-0.672-1.5-1.5 s0.672-1.5,1.5-1.5s1.5,0.672,1.5,1.5S30.328,37,29.5,37z M29.5,14c-0.828,0-1.5-0.672-1.5-1.5s0.672-1.5,1.5-1.5 s1.5,0.672,1.5,1.5S30.328,14,29.5,14z M35.5,31c-0.828,0-1.5-0.672-1.5-1.5s0.672-1.5,1.5-1.5s1.5,0.672,1.5,1.5 S36.328,31,35.5,31z M35.5,25.5c-0.828,0-1.5-0.672-1.5-1.5s0.672-1.5,1.5-1.5S37,23.172,37,24S36.328,25.5,35.5,25.5z M35.5,20 c-0.828,0-1.5-0.672-1.5-1.5s0.672-1.5,1.5-1.5s1.5,0.672,1.5,1.5S36.328,20,35.5,20z"
  ></path>
</svg>
