<svg xmlns:xlink="http://www.w3.org/1999/xlink" xmlns="http://www.w3.org/2000/svg" viewBox="0 0 48 48" width="172" height="172">
  <path
    d="M16.5,23c-0.83,0-1.5,0.67-1.5,1.5c0,0.83,0.67,1.5,1.5,1.5s1.5-0.67,1.5-1.5C18,23.67,17.33,23,16.5,23z M16.5,23 c-0.83,0-1.5,0.67-1.5,1.5c0,0.83,0.67,1.5,1.5,1.5s1.5-0.67,1.5-1.5C18,23.67,17.33,23,16.5,23z M39.14,15.52L24.93,4.32 c-0.55-0.43-1.31-0.43-1.86,0L8.86,15.52C7.05,16.94,6,19.11,6,21.41V40.5C6,41.88,7.12,43,8.5,43h31c1.38,0,2.5-1.12,2.5-2.5 V21.41C42,19.11,40.95,16.94,39.14,15.52z M36,36c0,1.1-0.9,2-2,2H14c-1.1,0-2-0.9-2-2v-3c0-1.1,0.9-2,2-2h20c1.1,0,2,0.9,2,2V36z M36,26c0,1.1-0.9,2-2,2H14c-1.1,0-2-0.9-2-2v-3c0-1.1,0.9-2,2-2h20c1.1,0,2,0.9,2,2V26z M16.5,23c-0.83,0-1.5,0.67-1.5,1.5 c0,0.83,0.67,1.5,1.5,1.5s1.5-0.67,1.5-1.5C18,23.67,17.33,23,16.5,23z M16.5,33c-0.83,0-1.5,0.67-1.5,1.5c0,0.83,0.67,1.5,1.5,1.5 s1.5-0.67,1.5-1.5C18,33.67,17.33,33,16.5,33z M16.5,23c-0.83,0-1.5,0.67-1.5,1.5c0,0.83,0.67,1.5,1.5,1.5s1.5-0.67,1.5-1.5 C18,23.67,17.33,23,16.5,23z M16.5,23c-0.83,0-1.5,0.67-1.5,1.5c0,0.83,0.67,1.5,1.5,1.5s1.5-0.67,1.5-1.5 C18,23.67,17.33,23,16.5,23z M16.5,33c-0.83,0-1.5,0.67-1.5,1.5c0,0.83,0.67,1.5,1.5,1.5s1.5-0.67,1.5-1.5 C18,33.67,17.33,33,16.5,33z M16.5,33c-0.83,0-1.5,0.67-1.5,1.5c0,0.83,0.67,1.5,1.5,1.5s1.5-0.67,1.5-1.5 C18,33.67,17.33,33,16.5,33z"
  ></path>
</svg>
