<svg xmlns:xlink="http://www.w3.org/1999/xlink" xmlns="http://www.w3.org/2000/svg" viewBox="0 0 48 48" width="172" height="172">
  <path
    d="M42.485,8.515c-3.13-3.13-7.733-4.237-11.911-2.995c-0.346,0.103-0.603,0.399-0.679,0.751l-1.399,6.519	C28.363,13.413,28.838,14,29.475,14H32c0.347,0,0.668,0.18,0.851,0.474c0.183,0.295,0.199,0.663,0.044,0.973l-8,16	C24.723,31.79,24.374,32,24,32c-0.06,0-0.12-0.005-0.181-0.017c-0.438-0.081-0.771-0.441-0.814-0.884l-0.82-8.199	c-0.051-0.511-0.481-0.9-0.995-0.9H18c-0.276,0-0.541-0.115-0.73-0.317c-0.188-0.202-0.286-0.474-0.268-0.75l0.962-14.445	c0.031-0.46-0.253-0.897-0.697-1.022c-4.129-1.167-8.66-0.043-11.753,3.048C3.248,10.781,2,13.794,2,17s1.248,6.219,3.515,8.485	c4.061,4.061,17.306,16.959,17.438,17.089C23.245,42.858,23.622,43,24,43s0.755-0.142,1.047-0.425	c0.133-0.13,13.378-13.029,17.438-17.089C44.752,23.219,46,20.206,46,17S44.752,10.781,42.485,8.515z"
  ></path>
</svg>
