<svg xmlns:xlink="http://www.w3.org/1999/xlink" xmlns="http://www.w3.org/2000/svg" viewBox="0 0 48 48" width="172"  height="172" ><path d="M39.5,8h-31C6.019,8,4,10.019,4,12.5v23C4,37.981,6.019,40,8.5,40h31c2.481,0,4.5-2.019,4.5-4.5v-23	C44,10.019,41.981,8,39.5,8z M10.5,32C9.672,32,9,31.328,9,30.5S9.672,29,10.5,29s1.5,0.672,1.5,1.5S11.328,32,10.5,32z M10.5,26	C9.672,26,9,25.328,9,24.5S9.672,23,10.5,23s1.5,0.672,1.5,1.5S11.328,26,10.5,26z M10.5,20C9.672,20,9,19.328,9,18.5	S9.672,17,10.5,17s1.5,0.672,1.5,1.5S11.328,20,10.5,20z M20.5,32h-5c-0.829,0-1.5-0.672-1.5-1.5s0.671-1.5,1.5-1.5h5	c0.829,0,1.5,0.672,1.5,1.5S21.329,32,20.5,32z M20.5,26h-5c-0.829,0-1.5-0.672-1.5-1.5s0.671-1.5,1.5-1.5h5	c0.829,0,1.5,0.672,1.5,1.5S21.329,26,20.5,26z M20.5,20h-5c-0.829,0-1.5-0.672-1.5-1.5s0.671-1.5,1.5-1.5h5	c0.829,0,1.5,0.672,1.5,1.5S21.329,20,20.5,20z M27.5,32c-0.828,0-1.5-0.672-1.5-1.5s0.672-1.5,1.5-1.5s1.5,0.672,1.5,1.5	S28.328,32,27.5,32z M27.5,26c-0.828,0-1.5-0.672-1.5-1.5s0.672-1.5,1.5-1.5s1.5,0.672,1.5,1.5S28.328,26,27.5,26z M27.5,20	c-0.828,0-1.5-0.672-1.5-1.5s0.672-1.5,1.5-1.5s1.5,0.672,1.5,1.5S28.328,20,27.5,20z M37.5,32h-5c-0.829,0-1.5-0.672-1.5-1.5	s0.671-1.5,1.5-1.5h5c0.829,0,1.5,0.672,1.5,1.5S38.329,32,37.5,32z M37.5,26h-5c-0.829,0-1.5-0.672-1.5-1.5s0.671-1.5,1.5-1.5h5	c0.829,0,1.5,0.672,1.5,1.5S38.329,26,37.5,26z M37.5,20h-5c-0.829,0-1.5-0.672-1.5-1.5s0.671-1.5,1.5-1.5h5	c0.829,0,1.5,0.672,1.5,1.5S38.329,20,37.5,20z"></path></svg>