<svg xmlns:xlink="http://www.w3.org/1999/xlink" xmlns="http://www.w3.org/2000/svg" viewBox="0 0 48 48" width="172"  height="172" ><path d="M36.5,6h-6.581c-0.828,0-1.5,0.672-1.5,1.5c0,3.302-2.643,4.5-4.419,4.5s-4.419-1.198-4.419-4.5c0-0.828-0.672-1.5-1.5-1.5	H11.5C8.468,6,6,8.468,6,11.5v25c0,3.032,2.468,5.5,5.5,5.5h25c3.032,0,5.5-2.468,5.5-5.5v-25C42,8.468,39.532,6,36.5,6z M31.061,28.561l-6,6c-0.139,0.139-0.306,0.25-0.49,0.326c-0.008,0.003-0.016,0.004-0.023,0.007C24.377,34.96,24.193,35,24,35	s-0.377-0.04-0.547-0.106c-0.008-0.003-0.016-0.004-0.023-0.007c-0.185-0.076-0.351-0.187-0.49-0.326l-6-6	c-0.586-0.586-0.586-1.535,0-2.121s1.535-0.586,2.121,0l3.439,3.439V20.5c0-0.828,0.672-1.5,1.5-1.5s1.5,0.672,1.5,1.5v9.379	l3.439-3.439c0.586-0.586,1.535-0.586,2.121,0S31.646,27.975,31.061,28.561z"></path></svg>