<svg xmlns:xlink="http://www.w3.org/1999/xlink" xmlns="http://www.w3.org/2000/svg" viewBox="0 0 48 48" width="172" height="172">
  <path
    d="M44 41c0 1.657-1.343 3-3 3s-3-1.343-3-3c0-1.262 1.742-4.665 2.571-6.213.184-.344.674-.344.858 0C42.258 36.335 44 39.738 44 41zM41.561 25.939l-22.5-22.5c-.586-.586-1.535-.586-2.121 0-.586.585-.586 1.536 0 2.121L18.879 7.5 5.611 20.768c-2.145 2.145-2.145 5.633 0 7.778l13.843 13.843C20.493 43.428 21.875 44 23.344 44c1.469 0 2.85-.572 3.889-1.611l14.328-14.328C42.146 27.475 42.146 26.525 41.561 25.939zM35.379 30H11.5c-.06 0-.116.011-.174.018l-3.593-3.593c-.975-.975-.975-2.561 0-3.536L21 9.621 38.379 27 35.379 30z"
  ></path>
</svg>
