<svg fill="#000000" xmlns="http://www.w3.org/2000/svg"  viewBox="0 0 48 48" width="48px" height="48px"><path d="M 14 4 C 11.81506 4 10 5.8150603 10 8 L 10 42 A 2.0002 2.0002 0 0 0 13.517578 43.300781 L 24.919922 30 L 31.330078 30 C 33.249853 30 34.923995 28.605511 35.267578 26.716797 A 2.0002 2.0002 0 0 0 35.267578 26.714844 L 38.539062 8.7148438 C 38.977891 6.2983379 37.058749 4 34.603516 4 L 14 4 z M 14 8 L 34.603516 8 L 33.332031 15 L 24 15 A 2.0002 2.0002 0 1 0 24 19 L 32.603516 19 L 31.332031 26 L 31.330078 26 L 24 26 A 2.0002 2.0002 0 0 0 22.482422 26.699219 L 14 36.595703 L 14 8 z"/></svg>