<svg xmlns:xlink="http://www.w3.org/1999/xlink" xmlns="http://www.w3.org/2000/svg" viewBox="0 0 48 48" width="172" height="172">
  <path
    d="M 2.5 6 A 1.50015 1.50015 0 1 0 2.5 9 L 5 9 L 5 40.5 A 1.50015 1.50015 0 1 0 8 40.5 L 8 35 L 41.5 35 C 43.43 35 45 33.43 45 31.5 L 45 15.5 C 45 13.57 43.43 12 41.5 12 L 8 12 L 8 7.5 A 1.50015 1.50015 0 0 0 6.5 6 L 2.5 6 z M 32.5 17 C 36.09 17 39 19.91 39 23.5 C 39 27.09 36.09 30 32.5 30 C 28.91 30 26 27.09 26 23.5 C 26 19.91 28.91 17 32.5 17 z M 12.5 19 L 18.5 19 C 19.33 19 20 19.67 20 20.5 C 20 21.33 19.33 22 18.5 22 L 12.5 22 C 11.67 22 11 21.33 11 20.5 C 11 19.67 11.67 19 12.5 19 z M 12.5 25 L 18.5 25 C 19.33 25 20 25.67 20 26.5 C 20 27.33 19.33 28 18.5 28 L 12.5 28 C 11.67 28 11 27.33 11 26.5 C 11 25.67 11.67 25 12.5 25 z M 15 37 L 15 39.5 C 15 40.329 15.671 41 16.5 41 L 35.5 41 C 36.329 41 37 40.329 37 39.5 L 37 37 L 15 37 z"
  ></path>
</svg>
