<svg xmlns:xlink="http://www.w3.org/1999/xlink" xmlns="http://www.w3.org/2000/svg" viewBox="0 0 48 48" width="172"  height="172" ><path d="M 22.5 4 C 22.103 4 21.721453 4.1584531 21.439453 4.4394531 L 13.439453 12.439453 C 13.158453 12.721453 13 13.102 13 13.5 L 13 17.5 C 13 17.898 13.158453 18.278547 13.439453 18.560547 L 29.439453 34.560547 C 29.721453 34.841547 30.103 35 30.5 35 L 34.5 35 C 34.897 35 35.278547 34.841547 35.560547 34.560547 L 43.560547 26.560547 C 43.841547 26.278547 44 25.898 44 25.5 L 44 21.5 C 44 21.102 43.841547 20.721453 43.560547 20.439453 L 27.560547 4.4394531 C 27.278547 4.1584531 26.897 4 26.5 4 L 22.5 4 z M 36.435547 7 C 35.861172 7 35.286609 7.21875 34.849609 7.65625 L 34.228516 8.2773438 L 39.720703 13.771484 L 40.34375 13.148438 C 40.76775 12.724437 41 12.1615 41 11.5625 C 41 10.9625 40.76675 10.399562 40.34375 9.9765625 L 38.021484 7.65625 C 37.583984 7.21875 37.009922 7 36.435547 7 z M 17.384766 25.332031 L 10.064453 32.650391 L 15.347656 37.933594 L 22.666016 30.615234 L 17.384766 25.332031 z M 8.6621094 34.076172 L 4.8125 37.15625 C 4.3305 37.54225 4.034 38.118375 4 38.734375 C 3.966 39.350375 4.1968125 39.954625 4.6328125 40.390625 L 7.6054688 43.363281 L 7.6074219 43.363281 C 8.0164219 43.772281 8.5705313 44 9.1445312 44 C 9.1845312 44 9.2236719 43.998094 9.2636719 43.996094 C 9.8786719 43.962094 10.453844 43.667547 10.839844 43.185547 L 13.919922 39.335938 L 8.6621094 34.076172 z"></path></svg>