<svg xmlns:xlink="http://www.w3.org/1999/xlink" xmlns="http://www.w3.org/2000/svg" viewBox="0 0 48 48" width="172"  height="172" ><path d="M 13.5 4 C 10.468 4 8 6.467 8 9.5 L 8 38.5 C 8 41.533 10.468 44 13.5 44 L 34.5 44 C 37.532 44 40 41.533 40 38.5 L 40 9.5 C 40 6.467 37.532 4 34.5 4 L 13.5 4 z M 13.5 8 C 14.328 8 15 8.672 15 9.5 C 15 10.328 14.328 11 13.5 11 C 12.672 11 12 10.328 12 9.5 C 12 8.672 12.672 8 13.5 8 z M 34.5 8 C 35.328 8 36 8.672 36 9.5 C 36 10.328 35.328 11 34.5 11 C 33.672 11 33 10.328 33 9.5 C 33 8.672 33.672 8 34.5 8 z M 24 12 C 29.523 12 34 16.477 34 22 C 34 27.523 29.523 32 24 32 C 22.903 32 21.849328 31.817234 20.861328 31.490234 L 18.792969 33.560547 C 18.498969 33.854547 18.114469 34 17.730469 34 C 17.346469 34 16.962922 33.853547 16.669922 33.560547 C 16.103318 32.99491 16.090046 32.090241 16.619141 31.501953 L 25.060547 23.060547 A 1.50015 1.50015 0 0 0 23.970703 20.486328 A 1.50015 1.50015 0 0 0 22.939453 20.939453 L 15.964844 27.914062 C 14.739086 26.257254 14 24.219858 14 22 C 14 16.477 18.477 12 24 12 z M 13.5 37 C 14.328 37 15 37.672 15 38.5 C 15 39.328 14.328 40 13.5 40 C 12.672 40 12 39.328 12 38.5 C 12 37.672 12.672 37 13.5 37 z M 34.5 37 C 35.328 37 36 37.672 36 38.5 C 36 39.328 35.328 40 34.5 40 C 33.672 40 33 39.328 33 38.5 C 33 37.672 33.672 37 34.5 37 z"></path></svg>