<svg id="Layer_1" data-name="Layer 1" xmlns="http://www.w3.org/2000/svg" viewBox="0 0 511.78 383.9"><defs><style>.cls-1{fill:#fdf7fa;}.cls-2{fill:#231f20;}</style></defs><title>hellsing eye</title><path class="cls-1" d="M30.05,566V182.1H541.83V566ZM285.69,219.49c-1.53,2.43-2.66,4.41-4,6.26-9.71,13.73-19.14,27.67-29.3,41.06-6.26,8.25-13.49,15.78-20.58,23.36a74.48,74.48,0,0,1-10.49,8.89c-9.65,7.07-19.16,14.42-29.3,20.74-8,5-16.87,8.56-25.28,12.91-1.12.58-1.83,2-2.74,3a10.59,10.59,0,0,0,2.47,2.07,679,679,0,0,1,84.64,40.88C268.76,388.73,286,399.42,299.49,415c4.21,4.86,7.43,10.4,6.32,16.95-1.89,11.24-14.89,20.93-26.27,19.83a108.62,108.62,0,0,1-46.84-15.42c-1.51-.93-3.5-1.08-6.53-2,1.06,2.25,1.25,3.53,2,4.11,7.76,6,15.92,11.48,23.34,17.84a237.38,237.38,0,0,1,21.38,20.7c8.78,9.66,12.28,22.06,15.76,34.3,1.32,4.67,2.17,9.48,3.41,15,.69-.79,1.67-1.42,1.9-2.26,3.41-12.12,6.45-24.35,10.15-36.37,2.39-7.76,6.29-15.15,12.94-20a317.69,317.69,0,0,1,27.69-17.48c3.12-1.8,3.75-3.24,2.74-6.5-4.37-14.12-5.31-28.54-1.77-42.93,4.14-16.84,14.2-30.6,24.19-44.35,1.06-1.45,1.05-3.67,1.54-5.53-1.77.14-3.68-.07-5.29.51-5.67,2-11.08,4.95-16.88,6.4-12.3,3.09-24.68,6.16-37.21,7.9a129.7,129.7,0,0,1-30.74.91c-16.88-1.7-32.62-7.88-47.33-16.31-9-5.18-18.15-10.45-25.17-19.6,12.19-9,24.27-17.85,36.35-26.75-3.49,21.16.57,38.67,19.15,49.89,15.95,9.64,33,8.85,47.36-2.59,18.26-14.59,20.85-33.95,10.58-55.36,16.68,8.66,30.41,20.19,43.82,32.56-3.34,3.3-6.38,6.16-9.23,9.18-1.43,1.52-4.69,3.09-1.87,5.47,1.37,1.16,4.54,1.27,6.41.56,5.93-2.25,11.43-5.85,17.49-7.57,8.71-2.48,17.77-3.78,27.56-5.76-12.15-6.09-24.61-11.56-36.25-18.4a164.4,164.4,0,0,1-33-25c-10-9.94-20.14-19.65-28-31.38S293.77,231.93,285.69,219.49Z" transform="translate(-30.05 -182.1)"/><path class="cls-2" d="M285.69,219.49c8.08,12.44,15.63,24.38,23.5,36.11s18,21.44,28,31.38a164.4,164.4,0,0,0,33,25c11.64,6.84,24.1,12.31,36.25,18.4-9.79,2-18.85,3.28-27.56,5.76-6.06,1.72-11.56,5.32-17.49,7.57-1.87.71-5,.6-6.41-.56-2.82-2.38.44-3.95,1.87-5.47,2.85-3,5.89-5.88,9.23-9.18-13.41-12.37-27.14-23.9-43.82-32.56,10.27,21.41,7.68,40.77-10.58,55.36-14.32,11.44-31.41,12.23-47.36,2.59-18.58-11.22-22.64-28.73-19.15-49.89-12.08,8.9-24.16,17.79-36.35,26.75,7,9.15,16.13,14.42,25.17,19.6,14.71,8.43,30.45,14.61,47.33,16.31a129.7,129.7,0,0,0,30.74-.91c12.53-1.74,24.91-4.81,37.21-7.9,5.8-1.45,11.21-4.37,16.88-6.4,1.61-.58,3.52-.37,5.29-.51-.49,1.86-.48,4.08-1.54,5.53-10,13.75-20.05,27.51-24.19,44.35-3.54,14.39-2.6,28.81,1.77,42.93,1,3.26.38,4.7-2.74,6.5A317.69,317.69,0,0,0,317,467.75c-6.65,4.81-10.55,12.2-12.94,20-3.7,12-6.74,24.25-10.15,36.37-.23.84-1.21,1.47-1.9,2.26-1.24-5.5-2.09-10.31-3.41-15-3.48-12.24-7-24.64-15.76-34.3a237.38,237.38,0,0,0-21.38-20.7c-7.42-6.36-15.58-11.87-23.34-17.84-.74-.58-.93-1.86-2-4.11,3,.88,5,1,6.53,2a108.62,108.62,0,0,0,46.84,15.42c11.38,1.1,24.38-8.59,26.27-19.83,1.11-6.55-2.11-12.09-6.32-16.95-13.51-15.59-30.73-26.28-48.35-36.36a679,679,0,0,0-84.64-40.88A10.59,10.59,0,0,1,164,335.7c.91-1,1.62-2.41,2.74-3,8.41-4.35,17.29-7.92,25.28-12.91,10.14-6.32,19.65-13.67,29.3-20.74a74.48,74.48,0,0,0,10.49-8.89c7.09-7.58,14.32-15.11,20.58-23.36,10.16-13.39,19.59-27.33,29.3-41.06C283,223.9,284.16,221.92,285.69,219.49Zm-24,90c-4.35,11.29.35,22.68,8.22,28.84,9.09,7.13,20.47,8,30.17,1.47,8.14-5.5,13.95-14.21,11.41-27.62-2.83,20.17-11.12,28-29.29,26.88C270.29,338.34,262.92,328.26,261.71,309.51Z" transform="translate(-30.05 -182.1)"/><path class="cls-1" d="M261.71,309.51c1.21,18.75,8.58,28.83,20.51,29.57,18.17,1.12,26.46-6.71,29.29-26.88,2.54,13.41-3.27,22.12-11.41,27.62-9.7,6.55-21.08,5.66-30.17-1.47C262.06,332.19,257.36,320.8,261.71,309.51Z" transform="translate(-30.05 -182.1)"/></svg>