<svg xmlns:xlink="http://www.w3.org/1999/xlink" xmlns="http://www.w3.org/2000/svg" viewBox="0 0 48 48" width="172"  height="172" ><path d="M 24.015625 4 C 15.746684 4 8.6222817 9.0339844 5.5859375 16.220703 A 2.0002 2.0002 0 1 0 9.2695312 17.779297 C 11.695187 12.038016 17.368566 8 24.015625 8 C 32.875714 8 40.015625 15.139911 40.015625 24 C 40.015625 32.860089 32.875714 40 24.015625 40 C 17.368566 40 11.695187 35.961984 9.2695312 30.220703 A 2.0002 2.0002 0 1 0 5.5859375 31.779297 C 8.6222817 38.966016 15.746684 44 24.015625 44 C 35.037536 44 44.015625 35.021911 44.015625 24 C 44.015625 12.978089 35.037536 4 24.015625 4 z M 22.978516 15.980469 A 2.0002 2.0002 0 0 0 21.585938 19.414062 L 24.171875 22 L 6 22 A 2.0002 2.0002 0 1 0 6 26 L 24.171875 26 L 21.585938 28.585938 A 2.0002 2.0002 0 1 0 24.414062 31.414062 L 30.414062 25.414062 A 2.0002 2.0002 0 0 0 30.414062 22.585938 L 24.414062 16.585938 A 2.0002 2.0002 0 0 0 22.978516 15.980469 z"></path></svg>