<svg fill="#000000" xmlns="http://www.w3.org/2000/svg"  viewBox="0 0 48 48" width="48px" height="48px"><path d="M36.5,6h-25C8.468,6,6,8.468,6,11.5v25c0,3.032,2.468,5.5,5.5,5.5h25c3.032,0,5.5-2.468,5.5-5.5v-25	C42,8.468,39.532,6,36.5,6z M30.5,13c1.933,0,3.5,1.567,3.5,3.5S32.433,20,30.5,20S27,18.433,27,16.5S28.567,13,30.5,13z M23,14	c1.657,0,3,1.343,3,3s-1.343,3-3,3s-3-1.343-3-3S21.343,14,23,14z M16.5,15c1.381,0,2.5,1.119,2.5,2.5c0,1.381-1.119,2.5-2.5,2.5	S14,18.881,14,17.5C14,16.119,15.119,15,16.5,15z M36,33.5c0,0.828-0.671,1.5-1.5,1.5h-8c-0.829,0-1.5-0.672-1.5-1.5V33h-5.5	c-0.829,0-1.5-0.672-1.5-1.5V31h-4.5c-0.829,0-1.5-0.672-1.5-1.5v-3.078C12,23.983,14.019,22,16.5,22	c1.239,0,2.362,0.495,3.176,1.293C20.562,22.498,21.719,22,23,22c1.437,0,2.724,0.618,3.637,1.591C27.631,22.609,28.995,22,30.5,22	c3.033,0,5.5,2.468,5.5,5.5V33.5z"/></svg>