<svg xmlns:xlink="http://www.w3.org/1999/xlink" xmlns="http://www.w3.org/2000/svg" viewBox="0 0 48 48" width="172"  height="172" ><path d="M 2.5 6 A 1.50015 1.50015 0 1 0 2.5 9 L 5 9 L 5 40.5 A 1.50015 1.50015 0 1 0 8 40.5 L 8 39 L 12 39 C 12.552 39 13 38.552 13 38 L 13 35 L 21 35 L 21 37.5 C 21 38.328 21.671 39 22.5 39 L 39.5 39 C 40.329 39 41 38.328 41 37.5 L 41 35 L 41.5 35 C 43.414955 35 45 33.414955 45 31.5 L 45 17.5 C 45 15.585045 43.414955 14 41.5 14 L 8 14 L 8 7.5 A 1.50015 1.50015 0 0 0 6.5 6 L 2.5 6 z M 9 20 L 11 20 C 11.55 20 12 20.45 12 21 L 12 28 C 12 28.55 11.55 29 11 29 L 9 29 L 9 20 z M 17.5 20 L 22.5 20 C 23.33 20 24 20.67 24 21.5 C 24 22.33 23.33 23 22.5 23 L 17.5 23 C 16.67 23 16 22.33 16 21.5 C 16 20.67 16.67 20 17.5 20 z M 30 20 L 37 20 C 37.55 20 38 20.45 38 21 L 38 28 C 38 28.55 37.55 29 37 29 L 30 29 C 29.45 29 29 28.55 29 28 L 29 21 C 29 20.45 29.45 20 30 20 z M 17.5 26 L 22.5 26 C 23.33 26 24 26.67 24 27.5 C 24 28.33 23.33 29 22.5 29 L 17.5 29 C 16.67 29 16 28.33 16 27.5 C 16 26.67 16.67 26 17.5 26 z"></path></svg>