<svg xmlns:xlink="http://www.w3.org/1999/xlink" xmlns="http://www.w3.org/2000/svg" viewBox="0 0 48 48" width="172"  height="172" ><path d="M 24 4 C 12.972 4 4 12.972 4 24 C 4 35.028 12.972 44 24 44 C 35.028 44 44 35.028 44 24 C 44 12.972 35.028 4 24 4 z M 17 17 C 20.309 17 23 20.14 23 24 C 23 27.86 20.309 31 17 31 C 13.691 31 11 27.86 11 24 C 11 20.14 13.691 17 17 17 z M 29.615234 17 L 30.462891 17 C 32.214891 17 33.59275 17.826125 34.34375 19.328125 C 34.71375 20.069125 34.412875 20.970797 33.671875 21.341797 C 32.930875 21.711797 32.029203 21.413875 31.658203 20.671875 C 31.484203 20.322875 31.218938 20 30.460938 20 L 29.615234 20 C 28.898234 20 28.269531 20.584 28.269531 21.25 C 28.269531 21.939 28.830531 22.5 29.519531 22.5 L 30.748047 22.5 C 33.092047 22.5 34.998047 24.407 34.998047 26.75 C 34.998047 29.093 33.094 31 30.75 31 L 29.039062 31 C 27.036062 31 25.722203 29.797875 25.158203 28.671875 C 24.788203 27.930875 25.087125 27.029203 25.828125 26.658203 C 26.571125 26.290203 27.471797 26.587125 27.841797 27.328125 C 27.897797 27.440125 28.219062 28 29.039062 28 L 30.75 28 C 31.44 28 32 27.439 32 26.75 C 32 26.061 31.439 25.5 30.75 25.5 L 29.519531 25.5 C 27.175531 25.5 25.269531 23.593 25.269531 21.25 C 25.269531 18.946 27.259234 17 29.615234 17 z M 17 20 A 3 4 0 0 0 17 28 A 3 4 0 0 0 17 20 z"></path></svg>