<svg xmlns:xlink="http://www.w3.org/1999/xlink" xmlns="http://www.w3.org/2000/svg" viewBox="0 0 48 48" width="172" height="172">
  <path
    d="M23.5,5C11.294,5,4,13.898,4,22.5c0,3.402,3.098,6.5,6.5,6.5c1.679,0,3.484-0.365,4.934-0.659	C16.262,28.173,17.118,28,17.5,28c1.969,0,2.509,1.498,3.355,5.174C21.808,37.321,23.114,43,30.578,43C36.205,43,44,36.918,44,25.5	C44,14.196,34.804,5,23.5,5z M37,21.5c0,1.381-1.119,2.5-2.5,2.5S32,22.881,32,21.5c0-1.381,1.119-2.5,2.5-2.5S37,20.119,37,21.5z M30.5,13c1.381,0,2.5,1.119,2.5,2.5c0,1.381-1.119,2.5-2.5,2.5S28,16.881,28,15.5C28,14.119,29.119,13,30.5,13z M23.5,16	c-1.381,0-2.5-1.119-2.5-2.5c0-1.381,1.119-2.5,2.5-2.5s2.5,1.119,2.5,2.5C26,14.881,24.881,16,23.5,16z M30.5,36	c-1.381,0-2.5-1.119-2.5-2.5c0-1.381,1.119-2.5,2.5-2.5s2.5,1.119,2.5,2.5C33,34.881,31.881,36,30.5,36z M35.5,31	c-1.381,0-2.5-1.119-2.5-2.5c0-1.381,1.119-2.5,2.5-2.5s2.5,1.119,2.5,2.5C38,29.881,36.881,31,35.5,31z"
  ></path>
</svg>
