<svg xmlns:xlink="http://www.w3.org/1999/xlink" xmlns="http://www.w3.org/2000/svg" viewBox="0 0 48 48" width="172"  height="172" ><path d="M 11.5 3 C 9.57 3 8 4.57 8 6.5 L 8 12.5 C 8 14.43 9.57 16 11.5 16 L 14 16 L 14 36.5 C 14 38.414955 15.585045 40 17.5 40 L 25 40 L 25 41.5 C 25 43.43 26.57 45 28.5 45 L 36.5 45 C 38.43 45 40 43.43 40 41.5 L 40 35.5 C 40 33.57 38.43 32 36.5 32 L 28.5 32 C 26.57 32 25 33.57 25 35.5 L 25 37 L 17.5 37 C 17.204955 37 17 36.795045 17 36.5 L 17 24 L 25 24 L 25 25.5 C 25 27.43 26.57 29 28.5 29 L 36.5 29 C 38.43 29 40 27.43 40 25.5 L 40 19.5 C 40 17.57 38.43 16 36.5 16 L 28.5 16 C 26.57 16 25 17.57 25 19.5 L 25 21 L 17 21 L 17 16 L 19.5 16 C 21.43 16 23 14.43 23 12.5 L 23 6.5 C 23 4.57 21.43 3 19.5 3 L 11.5 3 z"></path></svg>