<svg xmlns:xlink="http://www.w3.org/1999/xlink" xmlns="http://www.w3.org/2000/svg" viewBox="0 0 48 48" width="172"  height="172" ><path d="M 13.5 3 C 10.467 3 8 5.468 8 8.5 L 8 34 L 8 35.5 L 8 36.5 C 8 39.363 10.201 41.720609 13 41.974609 L 13 38.949219 C 12.022455 38.75028 11.254766 37.976735 11.054688 37 L 38.5 37 C 39.329 37 40 36.328 40 35.5 L 40 8.5 C 40 5.468 37.533 3 34.5 3 L 13.5 3 z M 16 10 C 17.105 10 18 10.895 18 12 C 18 13.105 17.105 14 16 14 C 14.895 14 14 13.105 14 12 C 14 10.895 14.895 10 16 10 z M 16 18 C 17.105 18 18 18.895 18 20 C 18 21.105 17.105 22 16 22 C 14.895 22 14 21.105 14 20 C 14 18.895 14.895 18 16 18 z M 16 26 C 17.105 26 18 26.895 18 28 C 18 29.105 17.105 30 16 30 C 14.895 30 14 29.105 14 28 C 14 26.895 14.895 26 16 26 z M 15 39 L 15 45.5 C 15 46.106 15.364781 46.652766 15.925781 46.884766 C 16.486781 47.119766 17.132547 46.989547 17.560547 46.560547 L 19.5 44.621094 L 21.439453 46.560547 C 21.726453 46.847547 22.109 47 22.5 47 C 22.693 47 22.889219 46.963719 23.074219 46.886719 C 23.635219 46.653719 24 46.106 24 45.5 L 24 39 L 15 39 z M 26 39 L 26 42 L 38.5 42 C 39.329 42 40 41.328 40 40.5 C 40 39.672 39.329 39 38.5 39 L 26 39 z"></path></svg>