<svg xmlns:xlink="http://www.w3.org/1999/xlink" xmlns="http://www.w3.org/2000/svg" viewBox="0 0 48 48" width="48" height="48">
  <path
    d="M 12.5 4 C 10.019 4 8 6.019 8 8.5 L 8 39.5 C 8 41.981 10.019 44 12.5 44 L 25.640625 44 C 23.391625 41.662 22 38.493 22 35 L 17.490234 35 C 16.662234 35 15.990234 34.328 15.990234 33.5 C 15.990234 32.741 16.555109 32.112672 17.287109 32.013672 L 17.490234 32 L 22.363281 32 C 22.707281 30.554 23.287313 29.215 24.070312 28 L 17.490234 28 C 16.662234 28 15.990234 27.315328 15.990234 26.486328 C 15.990234 25.727328 16.555109 25.099 17.287109 25 L 17.490234 24.986328 L 26.720703 24.986328 C 28.971703 23.122328 31.856 22 35 22 C 36.771 22 38.46 22.359906 40 23.003906 L 40 20 L 28.5 20 C 26.019 20 24 17.981 24 15.5 L 24 4 L 12.5 4 z M 27 4.8789062 L 27 15.5 C 27 16.327 27.673 17 28.5 17 L 39.121094 17 L 27 4.8789062 z M 35 24 C 28.925 24 24 28.925 24 35 C 24 41.075 28.925 46 35 46 C 41.075 46 46 41.075 46 35 C 46 28.925 41.075 24 35 24 z M 41 30 C 41.25575 30 41.511531 30.097469 41.707031 30.292969 C 42.098031 30.683969 42.098031 31.316031 41.707031 31.707031 L 33.707031 39.707031 C 33.512031 39.902031 33.256 40 33 40 C 32.744 40 32.487969 39.902031 32.292969 39.707031 L 28.292969 35.707031 C 27.901969 35.316031 27.901969 34.683969 28.292969 34.292969 C 28.683969 33.901969 29.316031 33.901969 29.707031 34.292969 L 33 37.585938 L 40.292969 30.292969 C 40.488469 30.097469 40.74425 30 41 30 z"
  ></path>
</svg>
