<svg xmlns:xlink="http://www.w3.org/1999/xlink" xmlns="http://www.w3.org/2000/svg" viewBox="0 0 48 48" width="172"  height="172" ><path d="M 24 6 C 23.211034 6 22.462241 6.065646 21.751953 6.1542969 A 2.0002 2.0002 0 1 0 22.248047 10.123047 C 22.851759 10.047698 23.430966 10 24 10 C 31.756241 10 38 16.243759 38 24 C 38 31.756241 31.756241 38 24 38 C 16.243759 38 10 31.756241 10 24 C 10 21.364943 10.738832 18.918741 12 16.822266 L 12 17 A 2.0002 2.0002 0 1 0 16 17 L 16 11.511719 L 16 11 A 2.0002 2.0002 0 0 0 14 9 L 8 9 A 2.0002 2.0002 0 1 0 8 13 L 9.7695312 13 C 7.4118008 16.043907 6 19.861583 6 24 C 6 33.917759 14.082241 42 24 42 C 33.917759 42 42 33.917759 42 24 C 42 14.082241 33.917759 6 24 6 z"></path></svg>