<svg xmlns:xlink="http://www.w3.org/1999/xlink" xmlns="http://www.w3.org/2000/svg" viewBox="0 0 48 48" width="172" height="172">
  <path
    d="M 18.320312 9.0019531 C 17.57536 9.0019531 16.838419 9.1527061 16.154297 9.4453125 L 4.7265625 14.341797 C 3.0755431 15.048986 2 16.683202 2 18.478516 L 2 29.521484 C 2 31.316798 3.0755431 32.951014 4.7265625 33.658203 L 16.154297 38.556641 C 16.653996 38.770367 17.197771 38.821822 17.736328 38.880859 A 1.50015 1.50015 0 0 0 18.320312 39.001953 L 41.5 39.001953 C 43.414955 39.001953 45 37.416908 45 35.501953 L 45 12.501953 C 45 10.586998 43.414955 9.0019531 41.5 9.0019531 L 18.320312 9.0019531 z M 30.5 12.001953 L 41.5 12.001953 C 41.795045 12.001953 42 12.206908 42 12.501953 L 42 15 L 37.5 15 A 1.50015 1.50015 0 1 0 37.5 18 L 42 18 L 42 20 L 37.5 20 A 1.50015 1.50015 0 1 0 37.5 23 L 42 23 L 42 25 L 37.5 25 A 1.50015 1.50015 0 1 0 37.5 28 L 42 28 L 42 30 L 37.5 30 A 1.50015 1.50015 0 1 0 37.5 33 L 42 33 L 42 35.501953 C 42 35.796998 41.795045 36.001953 41.5 36.001953 L 30.5 36.001953 L 30.5 32.5 C 30.5 31.948 30.052 31.5 29.5 31.5 L 25.5 31.5 C 24.948 31.5 24.5 31.052 24.5 30.5 L 24.5 28.5 C 24.5 27.948 24.052 27.5 23.5 27.5 L 16.195312 27.5 C 14.198313 27.5 12.427953 25.865141 12.501953 23.869141 C 12.535953 22.960141 12.918297 22.130297 13.529297 21.529297 C 14.159297 20.889297 15.04 20.500953 16 20.501953 L 23.5 20.501953 C 24.052 20.501953 24.5 20.053953 24.5 19.501953 L 24.5 17.501953 C 24.5 16.949953 24.948 16.501953 25.5 16.501953 L 29.5 16.501953 C 30.052 16.501953 30.5 16.053953 30.5 15.501953 L 30.5 12.001953 z"
  ></path>
</svg>
