<svg fill="#000000" xmlns="http://www.w3.org/2000/svg" viewBox="0 0 48 48" width="48px" height="48px">
  <path
    d="M 36.5 5 A 6.5 6.5 0 0 0 31.349609 15.457031 L 25.773438 22.5 L 17.824219 22.5 A 6.5 6.5 0 0 0 11.5 17.5 A 6.5 6.5 0 0 0 11.5 30.5 A 6.5 6.5 0 0 0 17.816406 25.5 L 25.773438 25.5 L 31.349609 32.542969 A 6.5 6.5 0 0 0 36.5 43 A 6.5 6.5 0 0 0 36.5 30 A 6.5 6.5 0 0 0 33.677734 30.652344 L 28.414062 24 L 33.675781 17.351562 A 6.5 6.5 0 0 0 36.5 18 A 6.5 6.5 0 0 0 36.5 5 z"
  />
</svg>
