<svg xmlns:xlink="http://www.w3.org/1999/xlink" xmlns="http://www.w3.org/2000/svg" viewBox="0 0 48 48" width="172"  height="172" ><path d="M 23.970703 3.9726562 A 2.0002 2.0002 0 0 0 22 6 L 22 22 A 2.0002 2.0002 0 1 0 26 22 L 26 6 A 2.0002 2.0002 0 0 0 23.970703 3.9726562 z M 17.03125 9.5957031 A 2.0002 2.0002 0 0 0 16.125 9.8105469 C 10.126881 12.732506 6 18.900262 6 26 C 6 35.917759 14.082241 44 24 44 C 33.917759 44 42 35.917759 42 26 C 42 18.900051 37.873521 12.733423 31.876953 9.8105469 A 2.0003292 2.0003292 0 1 0 30.123047 13.40625 C 34.782479 15.677373 38 20.447949 38 26 C 38 33.756241 31.756241 40 24 40 C 16.243759 40 10 33.756241 10 26 C 10 20.447738 13.215119 15.676291 17.875 13.40625 A 2.0002 2.0002 0 0 0 17.03125 9.5957031 z"></path></svg>