<svg xmlns:xlink="http://www.w3.org/1999/xlink" xmlns="http://www.w3.org/2000/svg" viewBox="0 0 48 48" width="172" height="172">
  <path
    d="M 13.5 4 C 10.468 4 8 6.467 8 9.5 L 8 38.5 C 8 41.533 10.468 44 13.5 44 L 34.5 44 C 37.532 44 40 41.533 40 38.5 L 40 28.65625 C 39.202 28.87425 38.367 29 37.5 29 L 26.5 29 C 21.253 29 17 24.747 17 19.5 C 17 14.253 21.253 10 26.5 10 L 37.5 10 C 38.367 10 39.202 10.12575 40 10.34375 L 40 9.5 C 40 6.467 37.532 4 34.5 4 L 13.5 4 z M 26.5 12 C 22.364 12 19 15.364 19 19.5 C 19 23.636 22.364 27 26.5 27 L 28.5 27 C 29.329 27 30 26.329 30 25.5 C 30 24.671 29.329 24 28.5 24 L 26.5 24 C 24.019 24 22 21.981 22 19.5 C 22 17.019 24.019 15 26.5 15 L 28.5 15 C 29.329 15 30 14.329 30 13.5 C 30 12.671 29.329 12 28.5 12 L 26.5 12 z M 35.5 12 C 34.671 12 34 12.671 34 13.5 C 34 14.329 34.671 15 35.5 15 L 37.5 15 C 39.981 15 42 17.019 42 19.5 C 42 21.981 39.981 24 37.5 24 L 35.5 24 C 34.671 24 34 24.671 34 25.5 C 34 26.329 34.671 27 35.5 27 L 37.5 27 C 41.636 27 45 23.636 45 19.5 C 45 15.364 41.636 12 37.5 12 L 35.5 12 z M 26.5 18 C 25.671 18 25 18.671 25 19.5 C 25 20.329 25.671 21 26.5 21 L 37.5 21 C 38.329 21 39 20.329 39 19.5 C 39 18.671 38.329 18 37.5 18 L 26.5 18 z M 13.5 34 L 34.5 34 C 35.879 34 37 35.122 37 36.5 L 37 38.5 C 37 39.878 35.879 41 34.5 41 L 13.5 41 C 12.121 41 11 39.878 11 38.5 L 11 36.5 C 11 35.122 12.121 34 13.5 34 z M 33.5 36 A 1.5 1.5 0 0 0 33.5 39 A 1.5 1.5 0 0 0 33.5 36 z"
  ></path>
</svg>
