<svg xmlns:xlink="http://www.w3.org/1999/xlink" xmlns="http://www.w3.org/2000/svg" viewBox="0 0 48 48" width="172" height="172">
  <path
    d="M6,38.5C6,40.43,7.57,42,9.5,42h29c1.93,0,3.5-1.57,3.5-3.5V32H6V38.5z M6,29h36V19H6V29z M38.5,6h-29C7.57,6,6,7.57,6,9.5 V16h36V9.5C42,7.57,40.43,6,38.5,6z M37,11c0,1.105-0.895,2-2,2s-2-0.895-2-2s0.895-2,2-2S37,9.895,37,11z M21.5,12.5h-9 c-0.828,0-1.5-0.671-1.5-1.5s0.672-1.5,1.5-1.5h9c0.828,0,1.5,0.671,1.5,1.5S22.328,12.5,21.5,12.5z M37,24c0,1.105-0.895,2-2,2 s-2-0.895-2-2s0.895-2,2-2S37,22.895,37,24z M21.5,25.5h-9c-0.828,0-1.5-0.671-1.5-1.5s0.672-1.5,1.5-1.5h9 c0.828,0,1.5,0.671,1.5,1.5S22.328,25.5,21.5,25.5z M37,37c0,1.105-0.895,2-2,2s-2-0.895-2-2s0.895-2,2-2S37,35.895,37,37z M21.5,38.5h-9c-0.828,0-1.5-0.671-1.5-1.5s0.672-1.5,1.5-1.5h9c0.828,0,1.5,0.671,1.5,1.5S22.328,38.5,21.5,38.5z"
  ></path>
</svg>
