<svg xmlns:xlink="http://www.w3.org/1999/xlink" xmlns="http://www.w3.org/2000/svg" viewBox="0 0 48 48" width="172"  height="172" ><path d="M 8.5 5 C 6.019 5 4 7.019 4 9.5 L 4 30.5 C 4 32.981 6.019 35 8.5 35 L 17 35 L 17 40 L 13.5 40 A 1.50015 1.50015 0 1 0 13.5 43 L 18.253906 43 A 1.50015 1.50015 0 0 0 18.740234 43 L 29.253906 43 A 1.50015 1.50015 0 0 0 29.740234 43 L 34.5 43 A 1.50015 1.50015 0 1 0 34.5 40 L 31 40 L 31 35 L 39.5 35 C 41.981 35 44 32.981 44 30.5 L 44 9.5 C 44 7.019 41.981 5 39.5 5 L 8.5 5 z M 21.527344 12 C 22.137344 12.011 22.680391 12.391937 22.900391 12.960938 L 26.679688 22.787109 L 28.158203 19.828125 C 28.412203 19.320125 28.932 19 29.5 19 L 36.5 19 C 37.328 19 38 19.671 38 20.5 C 38 21.329 37.328 22 36.5 22 L 30.427734 22 L 27.841797 27.171875 C 27.586797 27.681875 27.066 28 26.5 28 C 26.477 28 26.451734 28.000047 26.427734 27.998047 C 25.833734 27.970047 25.313609 27.593062 25.099609 27.039062 L 21.425781 17.484375 L 19.878906 21.091797 C 19.642906 21.643797 19.1 22 18.5 22 L 11.5 22 C 10.672 22 10 21.329 10 20.5 C 10 19.671 10.672 19 11.5 19 L 17.511719 19 L 20.121094 12.908203 C 20.362094 12.347203 20.930344 11.966 21.527344 12 z M 20 35 L 28 35 L 28 40 L 20 40 L 20 35 z"></path></svg>