<svg fill="#000000" xmlns="http://www.w3.org/2000/svg" viewBox="0 0 48 48" width="48px" height="48px">
  <path
    d="M 11.5 6 C 8.4802259 6 6 8.4802259 6 11.5 L 6 36.5 C 6 39.519774 8.4802259 42 11.5 42 L 36.5 42 C 39.519774 42 42 39.519774 42 36.5 L 42 11.5 C 42 8.4802259 39.519774 6 36.5 6 L 11.5 6 z M 27.5 11 C 28.33 11 29 11.67 29 12.5 C 29 15.53 31.47 18 34.5 18 C 35.33 18 36 18.67 36 19.5 C 36 20.33 35.33 21 34.5 21 C 32.4 21 30.48 20.240469 29 18.980469 L 29 29 C 29 33.41 25.41 37 21 37 C 16.59 37 13 33.41 13 29 C 13 24.59 16.59 21 21 21 C 21.21 21 21.419141 21.009531 21.619141 21.019531 C 22.449141 21.089531 23.07 21.810859 23 22.630859 C 22.94 23.460859 22.220625 24.079531 21.390625 24.019531 C 21.260625 24.009531 21.13 24 21 24 C 18.24 24 16 26.24 16 29 C 16 31.76 18.24 34 21 34 C 23.76 34 26 31.76 26 29 L 26 12.5 C 26 11.67 26.67 11 27.5 11 z"
  />
</svg>
