<svg xmlns:xlink="http://www.w3.org/1999/xlink" xmlns="http://www.w3.org/2000/svg" viewBox="0 0 48 48" width="172"  height="172" ><path d="M 8.5 6 A 1.50015 1.50015 0 1 0 8.5 9 L 8.6308594 9 L 11.175781 36.998047 C 11.435781 39.850047 13.789344 42 16.652344 42 L 31.345703 42 C 34.208703 42 36.564219 39.850047 36.824219 36.998047 L 39.369141 9 L 39.5 9 A 1.50015 1.50015 0 1 0 39.5 6 L 8.5 6 z M 22.814453 12 L 25.818359 12 C 26.470359 12 27 12.530594 27 13.183594 L 27 14.816406 C 27 15.469406 26.469406 16 25.816406 16 L 23.5 16 C 23.18 16 22.872484 16.127516 22.646484 16.353516 L 22.416016 16.583984 C 22.149016 16.850984 22 17.211891 22 17.587891 L 22 19.808594 C 22 20.466594 21.466594 21 20.808594 21 L 20.603516 21 C 20.216516 21 19.846266 21.153734 19.572266 21.427734 L 18.597656 22.402344 C 17.949656 23.050344 16.838516 22.668812 16.728516 21.757812 L 16.074219 16.34375 C 15.988219 15.62875 16.547578 15 17.267578 15 L 19 15 L 21.423828 12.576172 C 21.792828 12.207172 22.292453 12 22.814453 12 z M 29.689453 16 L 32.013672 16 C 32.539672 16 32.948625 16.457469 32.890625 16.980469 L 32.087891 24.214844 C 32.038891 24.661844 31.660938 25 31.210938 25 L 28.5 25 C 28.19 25 27.902187 24.837266 27.742188 24.572266 L 25.826172 21.378906 C 25.462172 20.771906 25.900422 20 26.607422 20 L 27.236328 20 C 27.684328 20 28.075594 19.694766 28.183594 19.259766 L 28.832031 16.667969 C 28.931031 16.275969 29.284453 16 29.689453 16 z M 21.410156 24.021484 C 22.104785 23.993008 22.800781 24.329844 23.191406 24.980469 L 24.427734 27.041016 C 24.784734 27.636016 25.426141 28 26.119141 28 L 29.673828 28 C 30.630828 28 31.177563 29.096281 30.601562 29.863281 L 29 32 L 29 34.636719 C 29 35.389719 28.389719 36 27.636719 36 L 19.945312 36 C 19.377312 36 18.868922 35.648234 18.669922 35.115234 L 16.341797 28.90625 C 16.137797 28.36325 16.298141 27.751859 16.744141 27.380859 L 20.226562 24.478516 C 20.576438 24.187141 20.993379 24.03857 21.410156 24.021484 z"></path></svg>