<svg xmlns:xlink="http://www.w3.org/1999/xlink" xmlns="http://www.w3.org/2000/svg" viewBox="0 0 48 48" width="172"  height="172" ><path d="M 24 0.029296875 C 23.55 0.029296875 23.100313 0.2103125 22.820312 0.5703125 L 14.320312 11.410156 C 13.890313 11.950156 13.890313 12.719766 14.320312 13.259766 C 14.460313 13.439766 14.879297 13.900391 15.779297 14.400391 C 15.909297 14.470391 16.039453 14.539375 16.189453 14.609375 C 17.629453 15.309375 20.05 16 24 16 C 27.95 16 30.370547 15.309375 31.810547 14.609375 C 31.960547 14.539375 32.090703 14.470391 32.220703 14.400391 C 33.120703 13.900391 33.539687 13.439766 33.679688 13.259766 C 34.109688 12.719766 34.109687 11.950156 33.679688 11.410156 L 25.179688 0.5703125 C 24.899687 0.2103125 24.45 0.029296875 24 0.029296875 z M 15.109375 16.320312 L 11.230469 22.439453 C 10.930469 22.919453 10.920938 23.519766 11.210938 24.009766 C 11.240937 24.059766 11.309922 24.160781 11.419922 24.300781 C 11.469922 24.360781 11.520078 24.420469 11.580078 24.480469 C 11.680078 24.600469 11.810703 24.729141 11.970703 24.869141 C 12.110703 24.999141 12.280703 25.129297 12.470703 25.279297 C 12.490703 25.299297 12.509297 25.310312 12.529297 25.320312 C 12.749297 25.480312 12.999297 25.640547 13.279297 25.810547 C 13.369297 25.860547 13.470313 25.920703 13.570312 25.970703 L 13.570312 25.980469 C 15.430312 26.990469 18.63 28 24 28 C 29.37 28 32.569687 26.990469 34.429688 25.980469 L 34.429688 25.970703 C 34.529688 25.920703 34.630703 25.860547 34.720703 25.810547 C 35.000703 25.640547 35.250703 25.480313 35.470703 25.320312 C 35.490703 25.310313 35.509297 25.299297 35.529297 25.279297 C 35.719297 25.129297 35.889297 24.999141 36.029297 24.869141 C 36.189297 24.729141 36.319922 24.600469 36.419922 24.480469 C 36.479922 24.420469 36.530078 24.360781 36.580078 24.300781 C 36.690078 24.160781 36.759062 24.059766 36.789062 24.009766 C 37.079063 23.519766 37.069531 22.919453 36.769531 22.439453 L 32.890625 16.320312 C 32.140625 16.700312 31.19 17.069375 30 17.359375 C 29.37 17.519375 28.660859 17.649766 27.880859 17.759766 C 26.750859 17.909766 25.47 18 24 18 C 22.53 18 21.249141 17.909766 20.119141 17.759766 C 19.339141 17.649766 18.63 17.519375 18 17.359375 C 16.81 17.069375 15.859375 16.700312 15.109375 16.320312 z M 12.490234 27.689453 L 8.2304688 34.509766 C 7.8404687 35.119766 7.9502344 35.920156 8.4902344 36.410156 C 8.5402344 36.460156 8.920625 36.799531 9.640625 37.269531 C 9.840625 37.399531 10.060781 37.539453 10.300781 37.689453 C 10.390781 37.739453 10.480078 37.799609 10.580078 37.849609 C 10.750078 37.939609 10.929141 38.040391 11.119141 38.150391 C 11.139141 38.160391 11.159453 38.169688 11.189453 38.179688 C 12.269453 38.739687 13.689219 39.349375 15.449219 39.859375 C 15.619219 39.919375 15.800234 39.959766 15.990234 40.009766 C 16.540234 40.149766 17.120469 40.290156 17.730469 40.410156 C 17.900469 40.440156 18.07 40.469766 18.25 40.509766 C 18.5 40.559766 18.75 40.600859 19 40.630859 C 20.5 40.860859 22.16 41 24 41 C 25.84 41 27.5 40.860859 29 40.630859 C 29.25 40.600859 29.5 40.559766 29.75 40.509766 C 29.93 40.469766 30.099531 40.440156 30.269531 40.410156 C 30.879531 40.290156 31.459766 40.149766 32.009766 40.009766 C 32.199766 39.959766 32.380781 39.919375 32.550781 39.859375 C 34.310781 39.349375 35.730547 38.739688 36.810547 38.179688 C 36.840547 38.169687 36.860859 38.160391 36.880859 38.150391 C 37.070859 38.040391 37.249922 37.939609 37.419922 37.849609 C 37.519922 37.799609 37.609219 37.739453 37.699219 37.689453 C 37.939219 37.539453 38.159375 37.399531 38.359375 37.269531 C 39.079375 36.799531 39.459766 36.460156 39.509766 36.410156 C 40.049766 35.920156 40.159531 35.119766 39.769531 34.509766 L 35.509766 27.689453 C 34.759766 28.109453 33.829219 28.519141 32.699219 28.869141 C 32.089219 29.059141 31.409922 29.240625 30.669922 29.390625 C 28.869922 29.760625 26.67 30 24 30 C 21.33 30 19.130078 29.760625 17.330078 29.390625 C 16.590078 29.240625 15.910781 29.059141 15.300781 28.869141 C 14.170781 28.519141 13.240234 28.109453 12.490234 27.689453 z M 19 42.660156 L 19 46.5 C 19 47.33 19.67 48 20.5 48 L 27.5 48 C 28.33 48 29 47.33 29 46.5 L 29 42.660156 C 27.49 42.870156 25.82 43 24 43 C 22.18 43 20.51 42.870156 19 42.660156 z"></path></svg>