<svg fill="#000000" xmlns="http://www.w3.org/2000/svg"  viewBox="0 0 48 48" width="48px" height="48px"><path d="M36.5,6h-25C8.468,6,6,8.468,6,11.5v25c0,3.032,2.468,5.5,5.5,5.5h25c3.032,0,5.5-2.468,5.5-5.5v-25	C42,8.468,39.532,6,36.5,6z M32,32.36c0,0.201-0.061,0.398-0.175,0.564C31.398,33.549,30.024,35,26.5,35c-3.584,0-6.5-2.916-6.5-6.5	V23h-2c-0.552,0-1-0.447-1-1v-2.99c0-0.495,0.362-0.915,0.852-0.989c1.322-0.198,3.612-1.005,4.095-4.171	c0.075-0.488,0.495-0.85,0.989-0.85H25c0.552,0,1,0.447,1,1v3h3c0.552,0,1,0.447,1,1v4c0,0.553-0.448,1-1,1h-3v5	c0,1.458,0.548,2,2.024,2c1.063,0,1.981-0.314,2.563-0.579c0.31-0.14,0.67-0.112,0.955,0.07C31.828,29.676,32,29.992,32,30.332	V32.36z"/></svg>