<svg xmlns:xlink="http://www.w3.org/1999/xlink" xmlns="http://www.w3.org/2000/svg" viewBox="0 0 48 48" width="172"  height="172" ><path d="M 14.5 5 A 1.50015 1.50015 0 0 0 13.066406 7 L 7.5 7 C 5.567 7 4 8.567 4 10.5 C 4 12.433 5.567 14 7.5 14 L 40.5 14 C 42.433 14 44 12.433 44 10.5 C 44 8.567 42.433 7 40.5 7 L 34.933594 7 A 1.50015 1.50015 0 0 0 33.5 5 L 31.5 5 A 1.50015 1.50015 0 0 0 30.066406 7 L 17.933594 7 A 1.50015 1.50015 0 0 0 16.5 5 L 14.5 5 z M 5 16 L 5 34.5 C 5 38.09 7.91 41 11.5 41 L 36.5 41 C 40.09 41 43 38.09 43 34.5 L 43 16 L 5 16 z M 32.5 22 C 33.328 22 34 22.671 34 23.5 L 34 25 L 35.5 25 C 36.328 25 37 25.671 37 26.5 C 37 27.329 36.328 28 35.5 28 L 34 28 L 34 29.5 C 34 30.329 33.328 31 32.5 31 C 31.672 31 31 30.329 31 29.5 L 31 28 L 29.5 28 C 28.672 28 28 27.329 28 26.5 C 28 25.671 28.672 25 29.5 25 L 31 25 L 31 23.5 C 31 22.671 31.672 22 32.5 22 z M 12.5 25 L 18.5 25 C 19.328 25 20 25.671 20 26.5 C 20 27.329 19.328 28 18.5 28 L 12.5 28 C 11.672 28 11 27.329 11 26.5 C 11 25.671 11.672 25 12.5 25 z"></path></svg>