<svg xmlns:xlink="http://www.w3.org/1999/xlink" xmlns="http://www.w3.org/2000/svg" viewBox="0 0 48 48" width="172"  height="172" ><path d="M 24 3 C 20.554853 3 17.260082 3.6804206 14.248047 4.9042969 A 2.0002383 2.0002383 0 0 0 15.751953 8.6113281 C 18.301918 7.5752044 21.081147 7 24 7 C 27.251499 7 30.343844 7.7430889 33.154297 9.0527344 A 2.0002 2.0002 0 1 0 34.845703 5.4277344 C 31.540156 3.8873798 27.862501 3 24 3 z M 8.9804688 8.2675781 A 2.0002 2.0002 0 0 0 7.7480469 8.7246094 C 6.5772123 9.664743 5.4912216 10.703803 4.5 11.828125 A 2.0002 2.0002 0 1 0 7.5 14.472656 C 8.3407784 13.518979 9.2607878 12.639616 10.251953 11.84375 A 2.0002 2.0002 0 0 0 8.9804688 8.2675781 z M 26.023438 9.1171875 A 2.0002 2.0002 0 0 0 25.777344 13.107422 C 33.455705 13.964719 39.522083 20.299168 39.957031 28.111328 A 2.0002 2.0002 0 1 0 43.951172 27.888672 C 43.40812 18.134832 35.830295 10.205515 26.222656 9.1328125 A 2.0002 2.0002 0 0 0 26.023438 9.1171875 z M 18.974609 9.7128906 A 2.0002 2.0002 0 0 0 18.443359 9.8007812 C 10.107097 12.21783 4 19.915164 4 29 C 4 29.927296 4.047225 31.399764 4.2617188 33.232422 A 2.0002 2.0002 0 1 0 8.234375 32.767578 C 8.0408685 31.114236 8 29.790704 8 29 C 8 21.706836 12.896903 15.573529 19.556641 13.642578 A 2.0002 2.0002 0 0 0 18.974609 9.7128906 z M 24 15 C 16.298319 15 10 21.298319 10 29 C 10 30.347983 10.143883 34.676021 11.861328 39.652344 A 2.0002 2.0002 0 1 0 15.640625 38.347656 C 14.13807 33.993979 14 30.032017 14 29 C 14 23.467681 18.467681 19 24 19 C 27.333342 19 30.276447 20.6473 32.101562 23.171875 A 2.0003092 2.0003092 0 1 0 35.34375 20.828125 C 32.800865 17.3107 28.654658 15 24 15 z M 24 21 C 19.605603 21 16 24.605603 16 29 C 16 30.042969 16.05074 37.101005 20.248047 43.140625 A 2.0002 2.0002 0 1 0 23.533203 40.859375 C 20.19851 36.060995 20 29.653031 20 29 C 20 26.768397 21.768397 25 24 25 C 26.225596 25 27.987879 26.757659 28 28.978516 L 28 28.986328 L 28 28.994141 C 28.02864 31.05237 28.595284 34.285966 30.519531 36.791016 C 31.540339 38.119295 33.166016 39.496094 33.166016 39.496094 A 2.0002 2.0002 0 1 0 35.820312 36.503906 C 35.820312 36.503906 34.164599 34.969236 33.691406 34.353516 C 32.779653 33.16659 32.013357 29.899223 32 28.939453 C 31.966518 24.572366 28.374485 21 24 21 z M 23.970703 26.972656 A 2.0002 2.0002 0 0 0 22 29 C 22 29 21.76098 36.589106 26.585938 41.414062 L 27.585938 42.414062 A 2.0002 2.0002 0 1 0 30.414062 39.585938 L 29.414062 38.585938 C 26.239021 35.410894 26 29 26 29 A 2.0002 2.0002 0 0 0 23.970703 26.972656 z M 35.900391 26.974609 A 2.0002 2.0002 0 0 0 34.005859 29.072266 C 34.031039 29.770351 34.10942 30.696079 34.509766 31.724609 C 35.802299 35.051465 39.164062 36.316406 39.164062 36.316406 A 2.0002 2.0002 0 1 0 40.835938 32.683594 C 40.835938 32.683594 38.677748 31.406535 38.238281 30.275391 C 38.146631 30.039921 38.012772 29.227649 38.001953 28.927734 A 2.0002 2.0002 0 0 0 35.900391 26.974609 z"></path></svg>