<svg xmlns:xlink="http://www.w3.org/1999/xlink" xmlns="http://www.w3.org/2000/svg" viewBox="0 0 48 48" width="172" height="172">
  <path
    d="M 17.5 5 C 15.019 5 13 7.019 13 9.5 L 13 38.5 C 13 40.981 15.019 43 17.5 43 L 39.5 43 C 41.981 43 44 40.981 44 38.5 L 44 20 L 33.5 20 C 31.019 20 29 17.981 29 15.5 L 29 5 L 17.5 5 z M 32 5.8789062 L 32 15.5 C 32 16.327 32.673 17 33.5 17 L 43.121094 17 L 32 5.8789062 z M 9.4765625 6.9785156 A 1.50015 1.50015 0 0 0 8 8.5 L 8 39.5 A 1.50015 1.50015 0 1 0 11 39.5 L 11 8.5 A 1.50015 1.50015 0 0 0 9.4765625 6.9785156 z M 4.4765625 8.9785156 A 1.50015 1.50015 0 0 0 3 10.5 L 3 37.5 A 1.50015 1.50015 0 1 0 6 37.5 L 6 10.5 A 1.50015 1.50015 0 0 0 4.4765625 8.9785156 z"
  ></path>
</svg>
