<svg xmlns:xlink="http://www.w3.org/1999/xlink" xmlns="http://www.w3.org/2000/svg" viewBox="0 0 48 48" width="172"  height="172" ><path d="M 10 6 C 7.8150603 6 6 7.8150603 6 10 L 6 19 C 6 21.18494 7.8150603 23 10 23 L 19 23 C 21.18494 23 23 21.18494 23 19 L 23 10 C 23 7.8150603 21.18494 6 19 6 L 10 6 z M 29 6 C 26.81506 6 25 7.8150603 25 10 L 25 19 C 25 21.18494 26.81506 23 29 23 L 38 23 C 40.18494 23 42 21.18494 42 19 L 42 10 C 42 7.8150603 40.18494 6 38 6 L 29 6 z M 10 12 L 19 12 L 19 19 L 10 19 L 10 12 z M 29 12 L 38 12 L 38 19 L 29 19 L 29 12 z M 10 25 C 7.8150603 25 6 26.81506 6 29 L 6 38 C 6 40.18494 7.8150603 42 10 42 L 19 42 C 21.18494 42 23 40.18494 23 38 L 23 29 C 23 26.81506 21.18494 25 19 25 L 10 25 z M 29 25 C 26.81506 25 25 26.81506 25 29 L 25 38 C 25 40.18494 26.81506 42 29 42 L 38 42 C 40.18494 42 42 40.18494 42 38 L 42 29 C 42 26.81506 40.18494 25 38 25 L 29 25 z M 10 31 L 19 31 L 19 38 L 10 38 L 10 31 z M 29 31 L 38 31 L 38 38 L 29 38 L 29 31 z"></path></svg>