<svg xmlns:xlink="http://www.w3.org/1999/xlink" xmlns="http://www.w3.org/2000/svg" viewBox="0 0 48 48" width="172" height="172">
  <path
    d="M43.431,35.294L27.949,7.328C27.142,5.871,25.666,5,24,5s-3.142,0.871-3.949,2.328L4.569,35.294	c-0.783,1.415-0.761,3.09,0.061,4.483C5.45,41.169,6.904,42,8.519,42h30.963c1.614,0,3.068-0.831,3.889-2.223	C44.191,38.385,44.214,36.709,43.431,35.294z M22.5,17.5c0-0.829,0.672-1.5,1.5-1.5s1.5,0.671,1.5,1.5v10c0,0.829-0.672,1.5-1.5,1.5	s-1.5-0.671-1.5-1.5V17.5z M24,36c-1.105,0-2-0.895-2-2c0-1.105,0.895-2,2-2s2,0.895,2,2C26,35.105,25.105,36,24,36z"
  ></path>
</svg>
