<svg xmlns:xlink="http://www.w3.org/1999/xlink" xmlns="http://www.w3.org/2000/svg" viewBox="0 0 48 48" width="172" height="172">
  <path
    d="M5.302 11.01l14.997-2.03C21.199 8.858 22 9.558 22 10.467V21c0 .828-.672 1.5-1.5 1.5h-15C4.672 22.5 4 21.828 4 21v-8.5C4 11.747 4.556 11.111 5.302 11.01zM44 7.5V21c0 .828-.672 1.5-1.5 1.5h-16c-.828 0-1.5-.672-1.5-1.5V9.661c0-.751.555-1.386 1.299-1.486L42.3 6.01c.43-.05.86.07 1.19.36C43.81 6.66 44 7.07 44 7.5zM5.5 25.5h15c.828 0 1.5.672 1.5 1.5v10.533c0 .908-.801 1.608-1.701 1.486L5.3 36.99C4.555 36.889 4 36.254 4 35.502V27C4 26.172 4.672 25.5 5.5 25.5zM42.5 25.5c.828 0 1.5.672 1.5 1.5v13.5c0 .43-.19.84-.51 1.13C43.21 41.87 42.86 42 42.5 42c-.07 0-.13 0-.2-.01l-16.001-2.164C25.555 39.725 25 39.09 25 38.339V27c0-.828.672-1.5 1.5-1.5H42.5z"
  ></path>
</svg>
