<svg xmlns:xlink="http://www.w3.org/1999/xlink" xmlns="http://www.w3.org/2000/svg" viewBox="0 0 48 48" width="172"  height="172" ><path d="M 30.382812 4.0859375 A 1.50015 1.50015 0 0 0 29.337891 6.6621094 C 34.231587 11.555806 34.231587 19.446147 29.337891 24.339844 A 1.50015 1.50015 0 1 0 31.458984 26.460938 C 37.499288 20.420634 37.499288 10.581319 31.458984 4.5410156 A 1.50015 1.50015 0 0 0 30.382812 4.0859375 z M 13.476562 6.9785156 A 1.50015 1.50015 0 0 0 12 8.5 L 12 29 L 9.5 29 C 7.0324991 29 5 31.032499 5 33.5 L 5 39.5 C 5 41.967501 7.0324991 44 9.5 44 L 38.5 44 C 40.967501 44 43 41.967501 43 39.5 L 43 33.5 C 43 31.032499 40.967501 29 38.5 29 L 22 29 L 22 15.5 A 1.50015 1.50015 0 0 0 20.476562 13.978516 A 1.50015 1.50015 0 0 0 19 15.5 L 19 29 L 15 29 L 15 8.5 A 1.50015 1.50015 0 0 0 13.476562 6.9785156 z M 26.140625 8.328125 A 1.50015 1.50015 0 0 0 25.095703 10.904297 C 27.646367 13.454961 27.646367 17.545039 25.095703 20.095703 A 1.50015 1.50015 0 1 0 27.216797 22.216797 C 30.914133 18.519461 30.914133 12.480539 27.216797 8.7832031 A 1.50015 1.50015 0 0 0 26.140625 8.328125 z M 9.5 32 L 13.253906 32 A 1.50015 1.50015 0 0 0 13.740234 32 L 20.253906 32 A 1.50015 1.50015 0 0 0 20.740234 32 L 38.5 32 C 39.346499 32 40 32.653501 40 33.5 L 40 39.5 C 40 40.346499 39.346499 41 38.5 41 L 9.5 41 C 8.6535009 41 8 40.346499 8 39.5 L 8 33.5 C 8 32.653501 8.6535009 32 9.5 32 z M 13.5 34.5 A 2 2 0 0 0 13.5 38.5 A 2 2 0 0 0 13.5 34.5 z M 28.5 34.5 A 2 2 0 0 0 28.5 38.5 A 2 2 0 0 0 28.5 34.5 z M 34.5 34.5 A 2 2 0 0 0 34.5 38.5 A 2 2 0 0 0 34.5 34.5 z"></path></svg>