<svg xmlns:xlink="http://www.w3.org/1999/xlink" xmlns="http://www.w3.org/2000/svg" viewBox="0 0 48 48" width="172" height="172">
  <path
    d="M 37.994141 4 C 35.247707 4 32.990234 6.2594255 32.990234 9.0058594 L 32.990234 39 C 32.990234 41.746434 35.247707 44.005859 37.994141 44.005859 C 40.740575 44.005859 43 41.746434 43 39 L 43 9.0058594 C 43 6.2594255 40.740575 4 37.994141 4 z M 37.994141 7 C 39.119707 7 40 7.8802933 40 9.0058594 L 40 39 C 40 40.125566 39.119707 41.005859 37.994141 41.005859 C 36.868575 41.005859 35.990234 40.125566 35.990234 39 L 35.990234 9.0058594 C 35.990234 7.8802933 36.868575 7 37.994141 7 z M 9.9941406 13.005859 C 7.2477067 13.005859 4.9902344 15.263332 4.9902344 18.009766 L 4.9902344 39 C 4.9902344 41.746434 7.2477067 44.005859 9.9941406 44.005859 C 12.740575 44.005859 15 41.746434 15 39 L 15 18.009766 C 15 15.263332 12.740575 13.005859 9.9941406 13.005859 z M 9.9941406 16.005859 C 11.119707 16.005859 12 16.8842 12 18.009766 L 12 39 C 12 40.125566 11.119707 41.005859 9.9941406 41.005859 C 8.8685745 41.005859 7.9902344 40.125566 7.9902344 39 L 7.9902344 18.009766 C 7.9902344 16.8842 8.8685745 16.005859 9.9941406 16.005859 z M 24 22 C 21.253566 22 18.994141 24.259425 18.994141 27.005859 L 18.994141 39 C 18.994141 41.746434 21.253566 44.005859 24 44.005859 C 26.746434 44.005859 29.005859 41.746434 29.005859 39 L 29.005859 27.005859 C 29.005859 24.259425 26.746434 22 24 22 z M 24 25 C 25.125566 25 26.005859 25.880293 26.005859 27.005859 L 26.005859 39 C 26.005859 40.125566 25.125566 41.005859 24 41.005859 C 22.874434 41.005859 21.994141 40.125566 21.994141 39 L 21.994141 27.005859 C 21.994141 25.880293 22.874434 25 24 25 z"
  ></path>
</svg>
