<svg xmlns:xlink="http://www.w3.org/1999/xlink" xmlns="http://www.w3.org/2000/svg" viewBox="0 0 48 48" width="172" height="172">
  <path
    d="M 21.476562 3.9785156 A 1.50015 1.50015 0 0 0 20 5.5 L 20 7 L 9.5 7 C 7.5850452 7 6 8.5850452 6 10.5 L 6 38.5 C 6 40.414955 7.5850452 42 9.5 42 L 38.5 42 C 40.414955 42 42 40.414955 42 38.5 L 42 10.5 C 42 8.5850452 40.414955 7 38.5 7 L 36 7 L 36 5.5 A 1.50015 1.50015 0 0 0 34.5 4 L 26.5 4 A 1.50015 1.50015 0 0 0 25 5.5 L 25 7 L 23 7 L 23 5.5 A 1.50015 1.50015 0 0 0 21.476562 3.9785156 z M 28 7 L 33 7 L 33 10 L 28 10 L 28 7 z M 9.5 10 L 20 10 L 20 11.5 A 1.50015 1.50015 0 1 0 23 11.5 L 23 10 L 25 10 L 25 11.5 A 1.50015 1.50015 0 0 0 26.5 13 L 34.5 13 A 1.50015 1.50015 0 0 0 36 11.5 L 36 10 L 38.5 10 C 38.795045 10 39 10.204955 39 10.5 L 39 38.5 C 39 38.795045 38.795045 39 38.5 39 L 9.5 39 C 9.2049548 39 9 38.795045 9 38.5 L 9 10.5 C 9 10.204955 9.2049548 10 9.5 10 z M 13.5 16 A 1.50015 1.50015 0 0 0 12 17.5 L 12 23.5 A 1.50015 1.50015 0 1 0 15 23.5 L 15 19 L 15.5 19 A 1.50015 1.50015 0 1 0 15.5 16 L 13.5 16 z M 20.5 16 A 1.50015 1.50015 0 0 0 19 17.5 L 19 23.5 A 1.50015 1.50015 0 1 0 22 23.5 L 22 19 L 22.5 19 A 1.50015 1.50015 0 1 0 22.5 16 L 20.5 16 z M 28.5 16 A 1.50015 1.50015 0 0 0 27 17.5 L 27 23.5 A 1.50015 1.50015 0 0 0 28.5 25 L 34.5 25 A 1.50015 1.50015 0 0 0 36 23.5 L 36 17.5 A 1.50015 1.50015 0 0 0 34.5 16 L 28.5 16 z M 30 19 L 33 19 L 33 22 L 30 22 L 30 19 z M 32.476562 27.978516 A 1.50015 1.50015 0 0 0 31 29.5 L 31 34.5 A 1.50015 1.50015 0 1 0 34 34.5 L 34 29.5 A 1.50015 1.50015 0 0 0 32.476562 27.978516 z M 13.5 28 A 1.50015 1.50015 0 1 0 13.5 31 L 26.5 31 A 1.50015 1.50015 0 1 0 26.5 28 L 13.5 28 z M 13.5 33 A 1.50015 1.50015 0 1 0 13.5 36 L 26.5 36 A 1.50015 1.50015 0 1 0 26.5 33 L 13.5 33 z"
  ></path>
</svg>
