<svg xmlns:xlink="http://www.w3.org/1999/xlink" xmlns="http://www.w3.org/2000/svg" viewBox="0 0 48 48" width="172" height="172">
  <path
    d="M 16.978516 2 A 1.50015 1.50015 0 0 0 15.939453 2.4394531 L 9.4394531 8.9394531 A 1.50015 1.50015 0 0 0 9.4394531 11.060547 L 22.378906 24 L 9.4394531 36.939453 A 1.50015 1.50015 0 0 0 9.4394531 39.060547 L 15.939453 45.560547 A 1.50015 1.50015 0 0 0 18.060547 45.560547 L 38.560547 25.060547 A 1.50015 1.50015 0 0 0 38.560547 22.939453 L 18.060547 2.4394531 A 1.50015 1.50015 0 0 0 16.978516 2 z M 17 5.6210938 L 35.378906 24 L 17 42.378906 L 12.621094 38 L 25.560547 25.060547 A 1.50015 1.50015 0 0 0 25.560547 22.939453 L 12.621094 10 L 17 5.6210938 z"
  ></path>
</svg>
