<svg xmlns:xlink="http://www.w3.org/1999/xlink" xmlns="http://www.w3.org/2000/svg" viewBox="0 0 48 48" width="172" height="172">
  <path
    d="M 20.5 3 C 18.203405 3 16.305701 4.7666235 16.050781 7 L 12.5 7 C 10.032499 7 8 9.0324991 8 11.5 L 8 38.5 C 8 40.967501 10.032499 43 12.5 43 L 35.5 43 C 37.967501 43 40 40.967501 40 38.5 L 40 11.5 C 40 9.0324991 37.967501 7 35.5 7 L 31.949219 7 C 31.694299 4.7666235 29.796595 3 27.5 3 L 20.5 3 z M 20.5 6 L 27.5 6 C 28.346499 6 29 6.6535009 29 7.5 C 29 8.3464991 28.346499 9 27.5 9 L 20.5 9 C 19.653501 9 19 8.3464991 19 7.5 C 19 6.6535009 19.653501 6 20.5 6 z M 12.5 10 L 16.769531 10 C 17.581237 11.2019 18.954719 12 20.5 12 L 27.5 12 C 29.045281 12 30.418763 11.2019 31.230469 10 L 35.5 10 C 36.346499 10 37 10.653501 37 11.5 L 37 38.5 C 37 39.346499 36.346499 40 35.5 40 L 12.5 40 C 11.653501 40 11 39.346499 11 38.5 L 11 11.5 C 11 10.653501 11.653501 10 12.5 10 z M 16.5 17 A 1.50015 1.50015 0 1 0 16.5 20 L 31.5 20 A 1.50015 1.50015 0 1 0 31.5 17 L 16.5 17 z M 16.5 25 A 1.50015 1.50015 0 1 0 16.5 28 L 23.5 28 A 1.50015 1.50015 0 1 0 23.5 25 L 16.5 25 z M 16.5 33 A 1.50015 1.50015 0 1 0 16.5 36 L 27.5 36 A 1.50015 1.50015 0 1 0 27.5 33 L 16.5 33 z"
  ></path>
</svg>
