<svg xmlns:xlink="http://www.w3.org/1999/xlink" xmlns="http://www.w3.org/2000/svg" viewBox="0 0 48 48" width="172" height="172">
  <path
    d="M 23.951172 4 A 1.50015 1.50015 0 0 0 23.072266 4.3222656 L 8.859375 15.519531 C 7.0554772 16.941163 6 19.113506 6 21.410156 L 6 40.5 C 6 41.863594 7.1364058 43 8.5 43 L 39.5 43 C 40.863594 43 42 41.863594 42 40.5 L 42 21.410156 C 42 19.113506 40.944523 16.941163 39.140625 15.519531 L 24.927734 4.3222656 A 1.50015 1.50015 0 0 0 23.951172 4 z M 24 7.4101562 L 37.285156 17.876953 C 38.369258 18.731322 39 20.030807 39 21.410156 L 39 40 L 9 40 L 9 21.410156 C 9 20.030807 9.6307412 18.731322 10.714844 17.876953 L 24 7.4101562 z M 15 21 C 13.9 21 13 21.9 13 23 L 13 26 C 13 27.1 13.9 28 15 28 L 33 28 C 34.1 28 35 27.1 35 26 L 35 23 C 35 21.9 34.1 21 33 21 L 15 21 z M 17.5 23 C 18.33 23 19 23.67 19 24.5 C 19 25.33 18.33 26 17.5 26 C 16.67 26 16 25.33 16 24.5 C 16 23.67 16.67 23 17.5 23 z M 15 30 C 13.9 30 13 30.9 13 32 L 13 35 C 13 36.1 13.9 37 15 37 L 33 37 C 34.1 37 35 36.1 35 35 L 35 32 C 35 30.9 34.1 30 33 30 L 15 30 z M 17.5 32 C 18.33 32 19 32.67 19 33.5 C 19 34.33 18.33 35 17.5 35 C 16.67 35 16 34.33 16 33.5 C 16 32.67 16.67 32 17.5 32 z"
  ></path>
</svg>
