<svg xmlns:xlink="http://www.w3.org/1999/xlink" xmlns="http://www.w3.org/2000/svg" viewBox="0 0 48 48" width="172" height="172">
  <path
    d="M 11.5 6 C 8.4802259 6 6 8.4802259 6 11.5 L 6 36.5 C 6 39.519774 8.4802259 42 11.5 42 L 36.5 42 C 39.519774 42 42 39.519774 42 36.5 L 42 11.5 C 42 8.4802259 39.519774 6 36.5 6 L 29.919922 6 A 1.50015 1.50015 0 0 0 28.419922 7.5 C 28.419922 9.10675 27.841159 10.13956 27.007812 10.875 C 26.174467 11.61044 25.02588 12 24 12 C 22.97412 12 21.825533 11.61044 20.992188 10.875 C 20.158842 10.13956 19.580078 9.10675 19.580078 7.5 A 1.50015 1.50015 0 0 0 18.080078 6 L 11.5 6 z M 11.5 9 L 16.894531 9 C 17.225629 10.675386 17.90699 12.153508 19.007812 13.125 C 20.440717 14.38956 22.25288 15 24 15 C 25.74712 15 27.559283 14.38956 28.992188 13.125 C 30.09301 12.153508 30.774371 10.675386 31.105469 9 L 36.5 9 C 37.898226 9 39 10.101774 39 11.5 L 39 36.5 C 39 37.898226 37.898226 39 36.5 39 L 11.5 39 C 10.101774 39 9 37.898226 9 36.5 L 9 11.5 C 9 10.101774 10.101774 9 11.5 9 z M 23.976562 18.978516 A 1.50015 1.50015 0 0 0 22.5 20.5 L 22.5 29.878906 L 19.060547 26.439453 A 1.50015 1.50015 0 1 0 16.939453 28.560547 L 22.810547 34.431641 A 1.50015 1.50015 0 0 0 25.197266 34.423828 L 31.060547 28.560547 A 1.50015 1.50015 0 1 0 28.939453 26.439453 L 25.5 29.878906 L 25.5 20.5 A 1.50015 1.50015 0 0 0 23.976562 18.978516 z"
  ></path>
</svg>
