<svg xmlns:xlink="http://www.w3.org/1999/xlink" xmlns="http://www.w3.org/2000/svg" viewBox="0 0 48 48" width="172" height="172">
  <path
    d="M 24 1 C 18.495178 1 14 5.4951777 14 11 L 14 18.5 L 14.042969 18.5 C 10.366894 21.434776 8 25.944099 8 31 C 8 39.818787 15.181206 47 24 47 C 32.818794 47 40 39.818787 40 31 C 40 25.944099 37.633106 21.434776 33.957031 18.5 L 34 18.5 L 34 11 C 34 5.4951777 29.504822 1 24 1 z M 24 4 C 27.883178 4 31 7.1168223 31 11 L 31 16.636719 C 28.881922 15.599587 26.511904 15 24 15 C 21.488096 15 19.118078 15.599587 17 16.636719 L 17 11 C 17 7.1168223 20.116822 4 24 4 z M 24 18 C 31.197475 18 37 23.80253 37 31 C 37 38.19747 31.197475 44 24 44 C 16.802525 44 11 38.19747 11 31 C 11 23.80253 16.802525 18 24 18 z M 24 24 A 5 5 0 0 0 22 33.576172 L 22 37 C 22 38.105 22.895 39 24 39 C 25.105 39 26 38.105 26 37 L 26 33.580078 A 5 5 0 0 0 24 24 z"
  ></path>
</svg>
