<svg xmlns:xlink="http://www.w3.org/1999/xlink" xmlns="http://www.w3.org/2000/svg" viewBox="0 0 48 48" width="172" height="172">
  <path
    d="M 13.5 4 C 10.480226 4 8 6.4802259 8 9.5 L 8 36.5 L 8 38.5 C 8 41.519774 10.480226 44 13.5 44 L 34.5 44 C 37.519774 44 40 41.519774 40 38.5 L 40 36.5 L 40 9.5 C 40 6.4802259 37.519774 4 34.5 4 L 13.5 4 z M 13.5 7 L 34.5 7 C 35.898226 7 37 8.1017741 37 9.5 L 37 31.613281 C 36.247721 31.224692 35.399198 31 34.5 31 L 13.5 31 C 12.600802 31 11.752279 31.224692 11 31.613281 L 11 9.5 C 11 8.1017741 12.101774 7 13.5 7 z M 24.0625 11 A 1.50015 1.50015 0 0 0 23.914062 11.001953 A 1.50015 1.50015 0 0 0 22.705078 11.744141 L 20.138672 16.144531 L 16.009766 12.390625 A 1.50015 1.50015 0 0 0 13.511719 13.685547 L 14.683594 23.058594 C 14.964105 25.298204 16.89056 27 19.148438 27 L 28.740234 27 C 31.066901 27 33.032204 25.19235 33.224609 22.873047 L 33.994141 13.625 A 1.50015 1.50015 0 0 0 31.439453 12.439453 L 27.814453 16.064453 L 25.294922 11.744141 A 1.50015 1.50015 0 0 0 24.0625 11 z M 24 15.476562 L 26.205078 19.255859 A 1.50015 1.50015 0 0 0 28.560547 19.560547 L 30.666016 17.455078 L 30.234375 22.625 C 30.16878 23.415696 29.533568 24 28.740234 24 L 19.148438 24 C 18.380315 24 17.755645 23.447937 17.660156 22.685547 L 16.992188 17.337891 L 19.490234 19.609375 A 1.50015 1.50015 0 0 0 21.794922 19.255859 L 24 15.476562 z M 13.5 34 L 34.5 34 C 35.898226 34 37 35.101774 37 36.5 L 37 38.5 C 37 39.898226 35.898226 41 34.5 41 L 13.5 41 C 12.101774 41 11 39.898226 11 38.5 L 11 36.5 C 11 35.101774 12.101774 34 13.5 34 z M 33.5 36 A 1.5 1.5 0 0 0 33.5 39 A 1.5 1.5 0 0 0 33.5 36 z"
  ></path>
</svg>
