<svg xmlns:xlink="http://www.w3.org/1999/xlink" xmlns="http://www.w3.org/2000/svg" viewBox="0 0 48 48" width="172" height="172">
  <path
    d="M 2.5 6 A 1.50015 1.50015 0 1 0 2.5 9 L 5 9 L 5 41.5 A 1.50015 1.50015 0 1 0 8 41.5 L 8 40 L 12.5 40 A 1.50015 1.50015 0 0 0 14 38.5 L 14 36 L 21 36 L 21 38.5 A 1.50015 1.50015 0 0 0 22.5 40 L 39.5 40 A 1.50015 1.50015 0 0 0 41 38.5 L 41 36 L 41.5 36 C 43.418182 36 45 34.418182 45 32.5 L 45 16.5 C 45 14.581818 43.418182 13 41.5 13 L 8 13 L 8 7.5 A 1.50015 1.50015 0 0 0 6.5 6 L 2.5 6 z M 8 16 L 41.5 16 C 41.781818 16 42 16.218182 42 16.5 L 42 32.5 C 42 32.781818 41.781818 33 41.5 33 L 39.5 33 A 1.50015 1.50015 0 0 0 38 34.5 L 38 37 L 24 37 L 24 34.5 A 1.50015 1.50015 0 0 0 22.5 33 L 12.5 33 A 1.50015 1.50015 0 0 0 11 34.5 L 11 37 L 8 37 L 8 30 L 12.5 30 A 1.50015 1.50015 0 0 0 14 28.5 L 14 20.5 A 1.50015 1.50015 0 0 0 12.5 19 L 8 19 L 8 16 z M 18.5 19 A 1.50015 1.50015 0 1 0 18.5 22 L 22.5 22 A 1.50015 1.50015 0 1 0 22.5 19 L 18.5 19 z M 29.5 19 A 1.50015 1.50015 0 0 0 28 20.5 L 28 28.5 A 1.50015 1.50015 0 0 0 29.5 30 L 37.5 30 A 1.50015 1.50015 0 0 0 39 28.5 L 39 20.5 A 1.50015 1.50015 0 0 0 37.5 19 L 29.5 19 z M 8 22 L 11 22 L 11 27 L 8 27 L 8 22 z M 31 22 L 36 22 L 36 27 L 31 27 L 31 22 z M 18.5 25 A 1.50015 1.50015 0 1 0 18.5 28 L 22.5 28 A 1.50015 1.50015 0 1 0 22.5 25 L 18.5 25 z"
  ></path>
</svg>
