<svg xmlns:xlink="http://www.w3.org/1999/xlink" xmlns="http://www.w3.org/2000/svg" viewBox="0 0 48 48" width="172" height="172">
  <path
    d="M 24 3 C 22.458334 3 21.112148 3.6321334 20.253906 4.5976562 C 19.395664 5.5631791 19 6.7916668 19 8 C 19 8.3468847 19.108985 8.6857354 19.175781 9.0292969 L 13.384766 12.337891 C 12.528976 11.550068 11.369018 11.001953 10 11.001953 C 8.458667 11.001953 7.1119819 11.632321 6.2539062 12.597656 C 5.3958308 13.562992 5.0019531 14.791917 5.0019531 16 C 5.0019531 17.208083 5.3958307 18.437008 6.2539062 19.402344 C 7.1119819 20.367679 8.458667 20.998047 10 20.998047 C 11.369018 20.998047 12.528976 20.449932 13.384766 19.662109 L 19.175781 22.970703 C 19.108985 23.314265 19 23.653115 19 24 C 19 25.208333 19.395664 26.436821 20.253906 27.402344 C 20.809782 28.027704 21.614196 28.427067 22.5 28.691406 L 22.5 35.308594 C 21.767091 35.527306 21.131671 35.862468 20.615234 36.337891 L 14.824219 33.027344 C 14.89071 32.684572 14.998047 32.346065 14.998047 32 C 14.998047 30.791917 14.604169 29.562992 13.746094 28.597656 C 12.888018 27.632321 11.541333 27.001953 10 27.001953 C 8.458667 27.001953 7.1119819 27.632321 6.2539062 28.597656 C 5.3958308 29.562992 5.0019531 30.791917 5.0019531 32 C 5.0019531 33.208083 5.3958307 34.437008 6.2539062 35.402344 C 7.1119819 36.367679 8.458667 36.998047 10 36.998047 C 11.369018 36.998047 12.528976 36.449932 13.384766 35.662109 L 19.175781 38.970703 C 19.108985 39.314265 19 39.653115 19 40 C 19 41.208333 19.395664 42.436821 20.253906 43.402344 C 21.112148 44.367867 22.458334 45 24 45 C 25.541666 45 26.887852 44.367867 27.746094 43.402344 C 28.604336 42.436821 29 41.208333 29 40 C 29 39.653115 28.891015 39.314265 28.824219 38.970703 L 34.615234 35.662109 C 35.471024 36.449932 36.630982 36.998047 38 36.998047 C 39.541333 36.998047 40.888018 36.367679 41.746094 35.402344 C 42.604169 34.437008 42.998047 33.208083 42.998047 32 C 42.998047 30.791917 42.604169 29.562992 41.746094 28.597656 C 40.888018 27.632321 39.541333 27.001953 38 27.001953 C 36.458667 27.001953 35.111982 27.632321 34.253906 28.597656 C 33.395831 29.562992 33.001953 30.791917 33.001953 32 C 33.001953 32.346065 33.10929 32.684572 33.175781 33.027344 L 27.384766 36.337891 C 26.868329 35.862468 26.232909 35.527306 25.5 35.308594 L 25.5 28.691406 C 26.385804 28.427067 27.190218 28.027704 27.746094 27.402344 C 28.604336 26.436821 29 25.208333 29 24 C 29 23.653115 28.891015 23.314265 28.824219 22.970703 L 34.615234 19.662109 C 35.471024 20.449932 36.630982 20.998047 38 20.998047 C 39.541333 20.998047 40.888018 20.367679 41.746094 19.402344 C 42.604169 18.437008 42.998047 17.208083 42.998047 16 C 42.998047 14.791917 42.604169 13.562992 41.746094 12.597656 C 40.888018 11.632321 39.541333 11.001953 38 11.001953 C 36.458667 11.001953 35.111982 11.632321 34.253906 12.597656 C 33.395831 13.562992 33.001953 14.791917 33.001953 16 C 33.001953 16.346065 33.10929 16.684572 33.175781 17.027344 L 27.384766 20.337891 C 26.528811 19.549915 25.369314 19 24 19 C 22.630686 19 21.471189 19.549915 20.615234 20.337891 L 14.824219 17.027344 C 14.89071 16.684572 14.998047 16.346065 14.998047 16 C 14.998047 15.653935 14.89071 15.315428 14.824219 14.972656 L 20.615234 11.662109 C 21.471189 12.450085 22.630686 13 24 13 C 25.541666 13 26.887852 12.367867 27.746094 11.402344 C 28.604336 10.436821 29 9.2083332 29 8 C 29 6.7916668 28.604336 5.5631791 27.746094 4.5976562 C 26.887852 3.6321334 25.541666 3 24 3 z M 24 6 C 24.791666 6 25.195482 6.2428666 25.503906 6.5898438 C 25.81233 6.9368209 26 7.4583332 26 8 C 26 8.5416668 25.81233 9.0631791 25.503906 9.4101562 C 25.195482 9.7571335 24.791666 10 24 10 C 23.208334 10 22.804518 9.7571335 22.496094 9.4101562 C 22.18767 9.0631791 22 8.5416668 22 8 C 22 7.4583332 22.18767 6.9368209 22.496094 6.5898438 C 22.804518 6.2428666 23.208334 6 24 6 z M 10 14.001953 C 10.791333 14.001953 11.195649 14.245007 11.503906 14.591797 C 11.812164 14.938587 11.998047 15.458583 11.998047 16 C 11.998047 16.541417 11.812164 17.061414 11.503906 17.408203 C 11.195649 17.754993 10.791333 17.998047 10 17.998047 C 9.2086673 17.998047 8.804351 17.754993 8.4960938 17.408203 C 8.1878363 17.061413 8.0019531 16.541417 8.0019531 16 C 8.0019531 15.458583 8.1878364 14.938586 8.4960938 14.591797 C 8.804351 14.245007 9.2086673 14.001953 10 14.001953 z M 38 14.001953 C 38.791333 14.001953 39.195649 14.245007 39.503906 14.591797 C 39.812164 14.938587 39.998047 15.458583 39.998047 16 C 39.998047 16.541417 39.812164 17.061414 39.503906 17.408203 C 39.195649 17.754993 38.791333 17.998047 38 17.998047 C 37.208667 17.998047 36.804351 17.754993 36.496094 17.408203 C 36.187836 17.061413 36.001953 16.541417 36.001953 16 C 36.001953 15.458583 36.187836 14.938586 36.496094 14.591797 C 36.804351 14.245007 37.208667 14.001953 38 14.001953 z M 24 22 C 24.791666 22 25.195482 22.242867 25.503906 22.589844 C 25.81233 22.936821 26 23.458333 26 24 C 26 24.541667 25.81233 25.063179 25.503906 25.410156 C 25.195482 25.757133 24.791666 26 24 26 C 23.208334 26 22.804518 25.757133 22.496094 25.410156 C 22.18767 25.063179 22 24.541667 22 24 C 22 23.458333 22.18767 22.936821 22.496094 22.589844 C 22.804518 22.242867 23.208334 22 24 22 z M 10 30.001953 C 10.791333 30.001953 11.195649 30.245007 11.503906 30.591797 C 11.812164 30.938587 11.998047 31.458583 11.998047 32 C 11.998047 32.541417 11.812164 33.061413 11.503906 33.408203 C 11.195649 33.754993 10.791333 33.998047 10 33.998047 C 9.2086673 33.998047 8.804351 33.754993 8.4960938 33.408203 C 8.1878363 33.061413 8.0019531 32.541417 8.0019531 32 C 8.0019531 31.458583 8.1878364 30.938586 8.4960938 30.591797 C 8.804351 30.245007 9.2086673 30.001953 10 30.001953 z M 38 30.001953 C 38.791333 30.001953 39.195649 30.245007 39.503906 30.591797 C 39.812164 30.938587 39.998047 31.458583 39.998047 32 C 39.998047 32.541417 39.812164 33.061413 39.503906 33.408203 C 39.195649 33.754993 38.791333 33.998047 38 33.998047 C 37.208667 33.998047 36.804351 33.754993 36.496094 33.408203 C 36.187836 33.061413 36.001953 32.541417 36.001953 32 C 36.001953 31.458583 36.187836 30.938586 36.496094 30.591797 C 36.804351 30.245007 37.208667 30.001953 38 30.001953 z M 24 38 C 24.791666 38 25.195482 38.242867 25.503906 38.589844 C 25.81233 38.936821 26 39.458333 26 40 C 26 40.541667 25.81233 41.063179 25.503906 41.410156 C 25.195482 41.757133 24.791666 42 24 42 C 23.208334 42 22.804518 41.757133 22.496094 41.410156 C 22.18767 41.063179 22 40.541667 22 40 C 22 39.458333 22.18767 38.936821 22.496094 38.589844 C 22.804518 38.242867 23.208334 38 24 38 z"
  ></path>
</svg>
