<svg xmlns:xlink="http://www.w3.org/1999/xlink" xmlns="http://www.w3.org/2000/svg" viewBox="0 0 48 48" width="172"  height="172" ><path d="M 42.470703 3.9863281 A 1.50015 1.50015 0 0 0 41.439453 4.4394531 L 27.878906 18 L 27.845703 18 L 15.845703 30 L 15.878906 30 L 4.4394531 41.439453 A 1.50015 1.50015 0 1 0 6.5605469 43.560547 L 14.121094 36 L 34.5 36 C 37.519774 36 40 33.519774 40 30.5 L 40 28 L 42 28 C 43.105 28 44 27.105 44 26 L 44 22 C 44 20.895 43.105 20 42 20 L 40 20 L 40 17.5 C 40 15.509486 38.917948 13.768369 37.318359 12.802734 L 43.560547 6.5605469 A 1.50015 1.50015 0 0 0 42.470703 3.9863281 z M 9.5 12 C 6.468 12 4 14.468 4 17.5 L 4 30.5 C 4 32.425 4.997 34.120516 6.5 35.103516 L 8.734375 32.867188 C 7.731375 32.542187 7 31.61 7 30.5 L 7 17.5 C 7 16.121 8.121 15 9.5 15 L 26.603516 15 L 29.603516 12 L 9.5 12 z M 35.050781 15.070312 C 36.165642 15.320108 37 16.293767 37 17.5 L 37 30.5 C 37 31.898226 35.898226 33 34.5 33 L 17.121094 33 L 20.121094 30 L 32 30 C 33.105 30 34 29.105 34 28 L 34 20 C 34 18.932568 33.162248 18.069742 32.109375 18.011719 L 35.050781 15.070312 z M 12 18 C 10.895 18 10 18.895 10 20 L 10 28 C 10 28.981 10.706672 29.793844 11.638672 29.964844 L 23.603516 18 L 12 18 z"></path></svg>