<svg xmlns:xlink="http://www.w3.org/1999/xlink" xmlns="http://www.w3.org/2000/svg" viewBox="0 0 48 48" width="172"  height="172" ><path d="M 11.5 6 C 8.4802259 6 6 8.4802259 6 11.5 L 6 36.5 C 6 39.519774 8.4802259 42 11.5 42 L 36.5 42 C 39.519774 42 42 39.519774 42 36.5 L 42 11.5 C 42 8.4802259 39.519774 6 36.5 6 L 11.5 6 z M 11.5 9 L 36.5 9 C 37.898226 9 39 10.101774 39 11.5 L 39 36.5 C 39 37.898226 37.898226 39 36.5 39 L 11.5 39 C 10.101774 39 9 37.898226 9 36.5 L 9 11.5 C 9 10.101774 10.101774 9 11.5 9 z M 31.484375 10.984375 A 1.50015 1.50015 0 0 0 30.439453 13.560547 L 30.878906 14 L 26.5 14 A 1.50015 1.50015 0 1 0 26.5 17 L 30.878906 17 L 30.439453 17.439453 A 1.50015 1.50015 0 1 0 32.560547 19.560547 L 35.560547 16.560547 A 1.50015 1.50015 0 0 0 35.560547 14.439453 L 32.560547 11.439453 A 1.50015 1.50015 0 0 0 31.484375 10.984375 z M 16.470703 14.986328 A 1.50015 1.50015 0 0 0 15.439453 15.439453 L 12.439453 18.439453 A 1.50015 1.50015 0 0 0 12.439453 20.560547 L 15.439453 23.560547 A 1.50015 1.50015 0 1 0 17.560547 21.439453 L 17.121094 21 L 21.5 21 A 1.50015 1.50015 0 1 0 21.5 18 L 17.121094 18 L 17.560547 17.560547 A 1.50015 1.50015 0 0 0 16.470703 14.986328 z M 31.484375 23.984375 A 1.50015 1.50015 0 0 0 30.439453 26.560547 L 30.878906 27 L 26.5 27 A 1.50015 1.50015 0 1 0 26.5 30 L 30.878906 30 L 30.439453 30.439453 A 1.50015 1.50015 0 1 0 32.560547 32.560547 L 35.560547 29.560547 A 1.50015 1.50015 0 0 0 35.560547 27.439453 L 32.560547 24.439453 A 1.50015 1.50015 0 0 0 31.484375 23.984375 z M 16.470703 27.986328 A 1.50015 1.50015 0 0 0 15.439453 28.439453 L 12.439453 31.439453 A 1.50015 1.50015 0 0 0 12.439453 33.560547 L 15.439453 36.560547 A 1.50015 1.50015 0 1 0 17.560547 34.439453 L 17.121094 34 L 21.5 34 A 1.50015 1.50015 0 1 0 21.5 31 L 17.121094 31 L 17.560547 30.560547 A 1.50015 1.50015 0 0 0 16.470703 27.986328 z"></path></svg>