<svg fill="#000000" xmlns="http://www.w3.org/2000/svg" viewBox="0 0 48 48" width="48px" height="48px">
  <path
    d="M 24.4375 3.0019531 A 1.50015 1.50015 0 0 0 23.158203 5.1699219 C 23.158203 5.1699219 24 6.75 24 10.5 C 24 13.575894 22.205472 16.951381 18.216797 18.548828 C 17.823432 17.82402 17.399226 17.01645 17.230469 16.003906 C 17.002685 14.637203 17 13.5 17 13.5 A 1.50015 1.50015 0 0 0 14.763672 12.193359 C 14.763672 12.193359 6 17.111111 6 27 C 6 36.9236 14.0764 45 24 45 C 33.9236 45 42 36.9236 42 27 C 42 9.530303 25.027344 3.0957031 25.027344 3.0957031 A 1.50015 1.50015 0 0 0 24.4375 3.0019531 z M 26.615234 7.2226562 C 30.914235 9.6126838 39 15.57354 39 27 C 39 35.3024 32.3024 42 24 42 C 15.6976 42 9 35.3024 9 27 C 9 21.608903 12.112098 18.169083 14.255859 16.353516 C 14.267609 16.429936 14.256572 16.418326 14.269531 16.496094 C 14.541747 18.12939 14.997511 20.118605 16.439453 21.560547 A 1.50015 1.50015 0 0 0 17.894531 21.947266 C 24.017919 20.277251 27 15.125 27 10.5 C 27 9.0873063 26.786121 8.2094136 26.615234 7.2226562 z"
  />
</svg>
