<svg fill="#000000" xmlns="http://www.w3.org/2000/svg" viewBox="0 0 48 48" width="48px" height="48px">
  <path
    d="M 11.5 6 C 8.4802259 6 6 8.4802259 6 11.5 L 6 36.5 C 6 39.519774 8.4802259 42 11.5 42 L 36.5 42 C 39.519774 42 42 39.519774 42 36.5 L 42 11.5 C 42 8.4802259 39.519774 6 36.5 6 L 11.5 6 z M 11.5 9 L 36.5 9 C 37.898226 9 39 10.101774 39 11.5 L 39 36.5 C 39 37.898226 37.898226 39 36.5 39 L 11.5 39 C 10.101774 39 9 37.898226 9 36.5 L 9 11.5 C 9 10.101774 10.101774 9 11.5 9 z M 22.494141 12 A 1.50015 1.50015 0 0 0 21.001953 13.351562 C 20.798713 15.408646 19.946295 16.127555 19.099609 16.583984 C 18.252924 17.040413 17.480469 17.058594 17.480469 17.058594 A 1.50015 1.50015 0 0 0 16 18.558594 L 16 22.5 A 1.50015 1.50015 0 0 0 17.5 24 L 19 24 L 19 28.5 C 19 32.624501 22.375499 36 26.5 36 C 28.75 36 30.326016 35.418724 31.332031 34.748047 C 32.338047 34.07737 32.841797 33.169922 32.841797 33.169922 A 1.50015 1.50015 0 0 0 33 32.5 L 33 29.5 A 1.50015 1.50015 0 0 0 30.667969 28.251953 C 30.667969 28.251953 29.493365 29 28.023438 29 C 27.440103 29 27.201299 28.883651 27.167969 28.855469 C 27.134639 28.827287 27 28.744 27 28 L 27 24 L 29.5 24 A 1.50015 1.50015 0 0 0 31 22.5 L 31 17.5 A 1.50015 1.50015 0 0 0 29.5 16 L 27 16 L 27 13.5 A 1.50015 1.50015 0 0 0 25.5 12 L 22.494141 12 z M 23.681641 15 L 24 15 L 24 17.5 A 1.50015 1.50015 0 0 0 25.5 19 L 28 19 L 28 21 L 25.5 21 A 1.50015 1.50015 0 0 0 24 22.5 L 24 28 C 24 29.256 24.376799 30.422713 25.230469 31.144531 C 26.084139 31.866349 27.10677 32 28.023438 32 C 28.818335 32 29.378112 31.77417 30 31.599609 L 30 31.966797 C 29.96612 32.017747 30.0023 32.029097 29.667969 32.251953 C 29.173984 32.581276 28.25 33 26.5 33 C 23.996501 33 22 31.003499 22 28.5 L 22 22.5 A 1.50015 1.50015 0 0 0 20.5 21 L 19 21 L 19 19.757812 C 19.476558 19.634922 19.962792 19.52684 20.523438 19.224609 C 21.791778 18.540876 23.094116 17.129867 23.681641 15 z"
  />
</svg>
