<svg xmlns:xlink="http://www.w3.org/1999/xlink" xmlns="http://www.w3.org/2000/svg" viewBox="0 0 48 48" width="172" height="172">
  <path
    d="M 24.5 4 C 20.706653 4 17.10517 4.8454773 13.871094 6.3398438 A 1.50015 1.50015 0 1 0 15.128906 9.0625 C 17.98483 7.7428663 21.151347 7 24.5 7 C 27.831591 7 31.00171 7.7471558 33.867188 9.078125 A 1.5003358 1.5003358 0 1 0 35.132812 6.3574219 C 31.888289 4.8503911 28.280409 4 24.5 4 z M 9.4824219 9.2890625 A 1.50015 1.50015 0 0 0 8.5585938 9.6347656 C 6.9824865 10.904555 5.5536957 12.353697 4.3125 13.962891 A 1.50015 1.50015 0 1 0 6.6875 15.794922 C 7.7803043 14.378116 9.0435136 13.096914 10.441406 11.970703 A 1.50015 1.50015 0 0 0 9.4824219 9.2890625 z M 25.433594 10.048828 A 1.50015 1.50015 0 0 0 25.417969 13.046875 C 33.797299 13.510202 40.503047 20.213134 40.957031 28.582031 A 1.5002913 1.5002913 0 1 0 43.953125 28.417969 C 43.417114 18.536866 35.468701 10.599408 25.582031 10.052734 A 1.50015 1.50015 0 0 0 25.433594 10.048828 z M 19.480469 10.714844 A 1.50015 1.50015 0 0 0 19.082031 10.78125 C 10.955335 13.137533 5 20.639123 5 29.5 C 5 30.203846 5.0366619 31.699125 5.2773438 33.681641 A 1.5002941 1.5002941 0 1 0 8.2558594 33.318359 C 8.0325415 31.478875 8 30.096154 8 29.5 C 8 21.982877 13.048665 15.653823 19.917969 13.662109 A 1.50015 1.50015 0 0 0 19.480469 10.714844 z M 24.5 16 C 17.069489 16 11 22.069489 11 29.5 C 11 30.807587 11.143379 35.09168 12.833984 39.990234 A 1.50015 1.50015 0 1 0 15.667969 39.009766 C 14.138574 34.57832 14 30.570413 14 29.5 C 14 23.696511 18.696511 19 24.5 19 C 28.0055 19 31.10037 20.730259 33.013672 23.378906 A 1.5002313 1.5002313 0 1 0 35.445312 21.621094 C 32.992615 18.225741 28.9945 16 24.5 16 z M 24.5 21.998047 C 20.377763 21.998047 17 25.37581 17 29.498047 C 17 30.52137 17.09427 37.472642 21.189453 43.355469 A 1.50015 1.50015 0 1 0 23.652344 41.642578 C 20.201529 36.685405 20 30.172724 20 29.498047 C 20 27.002284 22.004237 24.998047 24.5 24.998047 C 26.989497 24.998047 28.995477 27.00242 29 29.492188 L 29 29.501953 L 29 29.513672 C 29.01224 30.264125 29.139707 31.553373 29.511719 33.015625 C 29.88373 34.477877 30.459167 36.095886 31.681641 37.318359 L 31.683594 37.318359 L 33.943359 39.564453 A 1.50015 1.50015 0 1 0 36.056641 37.435547 L 33.800781 35.193359 C 33.253981 34.64482 32.719799 33.461784 32.417969 32.275391 C 32.11573 31.087393 32.006761 29.87939 32 29.464844 L 32 29.486328 C 31.9925 25.370096 28.616503 21.998047 24.5 21.998047 z M 36.476562 26.978516 A 1.50015 1.50015 0 0 0 35 28.5 L 35 29.478516 C 35 32.299426 36.608973 34.019648 37.455078 34.681641 L 37.380859 34.619141 L 38.501953 35.619141 A 1.50015 1.50015 0 1 0 40.498047 33.380859 L 39.341797 32.347656 L 39.302734 32.318359 C 38.898838 32.002355 38 31.193606 38 29.478516 L 38 28.5 A 1.50015 1.50015 0 0 0 36.476562 26.978516 z M 24.476562 27.978516 A 1.50015 1.50015 0 0 0 23 29.5 C 23 29.5 22.820735 36.941828 27.439453 41.560547 L 28.439453 42.560547 A 1.50015 1.50015 0 1 0 30.560547 40.439453 L 29.560547 39.439453 C 26.179265 36.058172 26 29.5 26 29.5 A 1.50015 1.50015 0 0 0 24.476562 27.978516 z"
  ></path>
</svg>
