<svg xmlns:xlink="http://www.w3.org/1999/xlink" xmlns="http://www.w3.org/2000/svg" viewBox="0 0 48 48" width="172" height="172">
  <path
    d="M 42.455078 6 A 1.50015 1.50015 0 0 0 42.298828 6.0136719 L 23.535156 8.5488281 A 1.50015 1.50015 0 0 0 23.066406 8.6132812 L 5.2988281 11.013672 A 1.50015 1.50015 0 0 0 4 12.5 L 4 23.753906 A 1.50015 1.50015 0 0 0 4 24.240234 L 4 35.5 A 1.50015 1.50015 0 0 0 5.2988281 36.986328 L 23.060547 39.386719 A 1.50015 1.50015 0 0 0 23.542969 39.451172 L 42.298828 41.986328 A 1.50015 1.50015 0 0 0 44 40.5 L 44 24.246094 A 1.50015 1.50015 0 0 0 44 23.759766 L 44 7.5 A 1.50015 1.50015 0 0 0 42.455078 6 z M 41 9.2167969 L 41 22.5 L 25 22.5 L 25 11.378906 L 41 9.2167969 z M 22 11.783203 L 22 22.5 L 7 22.5 L 7 13.810547 L 22 11.783203 z M 7 25.5 L 22 25.5 L 22 36.216797 L 7 34.189453 L 7 25.5 z M 25 25.5 L 41 25.5 L 41 38.783203 L 25 36.621094 L 25 25.5 z"
  ></path>
</svg>
