<svg width="48" height="48" viewBox="0 0 48 48" fill="none" xmlns="http://www.w3.org/2000/svg">
<path d="M15.2491 33.9728V27.1741L10.2505 32.0768C10.7385 32.4124 11.2471 32.7168 11.7743 32.99C12.251 33.2349 12.67 33.4275 13.1158 33.5746C13.5616 33.7218 13.9209 33.8165 14.2792 33.881C14.6375 33.9455 14.9588 33.9748 15.2573 33.9778L15.2491 33.9728ZM40.8135 33.4113C40.8599 33.4486 40.9083 33.4819 40.9597 33.5121C41.0862 33.5904 41.2187 33.6588 41.3561 33.7167C41.5664 33.8061 41.7865 33.8717 42.012 33.9123C42.3167 33.9728 42.6277 34.001 42.9386 34C43.2475 34 43.5646 33.9697 43.9218 33.9123C44.3202 33.8424 44.712 33.741 45.0935 33.6089C45.5603 33.4467 46.0145 33.2517 46.4525 33.0253C46.9879 32.7491 47.5027 32.4407 48 32.1L44.206 28.4713L31.6348 16.1157L26.1204 21.5144L18.6766 14L0 32.0778C0.494202 32.418 1.01004 32.7271 1.54437 33.0031C2.02827 33.2511 2.48128 33.4406 2.90032 33.5877C3.28073 33.7199 3.67156 33.8214 4.0689 33.8911C4.39343 33.9482 4.72242 33.9775 5.05214 33.9788C5.36308 33.9798 5.67401 33.9506 5.97877 33.8911C6.20357 33.8478 6.42331 33.7823 6.63461 33.6956C6.77237 33.6408 6.905 33.5743 7.03099 33.497L7.18028 33.3922L15.6156 25.1339L18.6261 22.3036L26.9719 30.4741L29.8928 33.4093C29.9401 33.4465 29.99 33.4806 30.0421 33.5111C30.168 33.5893 30.3007 33.6568 30.4385 33.7127C30.6506 33.7984 30.8709 33.8639 31.0943 33.9082C31.3569 33.9607 31.6668 33.9959 32.024 33.9959C32.3329 33.9959 32.65 33.9657 33.0073 33.9082C33.4059 33.84 33.7979 33.7385 34.1789 33.6049C34.6458 33.4427 35.1 33.2477 35.538 33.0212C36.0734 32.7451 36.5881 32.4366 37.0854 32.0959L30.3849 25.6752L31.6204 24.4657L37.417 30.1405L40.7971 33.4204L40.8135 33.4113Z" fill="white"/>
</svg>
