<svg width="48" height="48" viewBox="0 0 48 48" fill="none" xmlns="http://www.w3.org/2000/svg">
<path d="M19.5356 34.5067L19.5406 34.305C19.6423 30.2433 21.7541 27.1183 24.2575 27.3317C26.7609 27.5417 28.706 31.01 28.6077 35.07C28.5877 35.835 28.5027 36.57 28.351 37.2517C32.8812 38.1383 37.7464 40.3883 44 43.9983C42.7683 41.7283 41.6666 39.6817 40.6132 37.7333C38.9565 36.45 37.2297 34.7783 33.7096 32.9717C36.1297 33.6017 37.8647 34.325 39.2148 35.1383C28.5244 15.2433 27.661 12.5983 23.9958 4C22.2141 8.36333 21.1424 11.2167 19.1606 15.4533C20.3773 16.7433 21.8691 18.2417 24.2925 19.9367C21.6874 18.865 19.9107 17.7883 18.5823 16.6733C16.0455 21.9667 12.0687 29.5067 4 44C10.3419 40.34 15.2571 38.085 19.8373 37.2217C19.6407 36.3767 19.5273 35.46 19.5356 34.5067Z" fill="white"/>
</svg>
