<svg width="48" height="48" viewBox="0 0 48 48" fill="none" xmlns="http://www.w3.org/2000/svg">
<path d="M27.3064 25.3568C26.5008 25.3698 27.4599 25.768 28.5109 25.9276C28.7995 25.7045 29.0606 25.4762 29.2981 25.2595C28.6421 25.4139 27.9769 25.4165 27.3064 25.3568ZM31.6244 24.2919C32.102 23.6433 32.4523 22.9234 32.573 22.1853C32.4654 22.7106 32.1755 23.1646 31.9039 23.6485C30.4002 24.5837 31.7622 23.0907 31.9039 22.5264C30.2874 24.5331 31.6821 23.7289 31.6244 24.2919ZM33.2186 20.1941C33.3143 18.7608 32.9312 19.2135 32.8026 19.7583C32.9548 19.8387 33.0703 20.7714 33.2186 20.1941ZM24.2572 0.620041C24.6862 0.695276 25.1835 0.754945 25.1139 0.857421C25.5823 0.754945 25.6899 0.66155 24.2572 0.620041ZM25.1153 0.856123L24.8109 0.91709L25.0929 0.895038L25.1153 0.856123ZM38.4996 20.7364C38.5495 22.0218 38.1191 22.6458 37.7321 23.7484L37.038 24.0934C36.4672 25.1843 37.0918 24.7874 36.6863 25.6526C35.7955 26.4348 33.9901 28.0951 33.4114 28.2521C32.9903 28.2404 33.6975 27.7566 33.7906 27.5698C32.6019 28.374 32.8354 28.7813 31.0182 29.2729L30.9644 29.1562C26.4785 31.2407 20.2501 27.1119 20.3328 21.4667C20.2842 21.8234 20.1963 21.7378 20.0966 21.8817C19.867 18.98 21.452 16.0627 24.1286 14.8732C26.7461 13.5929 29.8164 14.1209 31.69 15.8461C30.66 14.5126 28.6093 13.0974 26.1807 13.2297C23.8006 13.2673 21.5753 14.7629 20.8314 16.387C19.6125 17.1458 19.4694 19.3134 18.9407 19.7116C18.2256 24.9041 20.2842 27.1482 23.7691 29.7879C24.3162 30.1537 23.9239 30.2108 23.9987 30.4897C22.8401 29.9552 21.7813 29.1445 20.9101 28.1535C21.3732 28.8241 21.8718 29.4727 22.5147 29.9825C21.4244 29.6206 19.9667 27.3713 19.5403 27.2792C21.4231 30.609 27.1739 33.119 30.1851 31.8724C28.7917 31.9243 27.0204 31.8997 25.4564 31.3276C24.799 30.9943 23.9042 30.3016 24.063 30.1693C28.1737 31.6882 32.4195 31.3199 35.9739 28.5011C36.8779 27.8046 37.8672 26.6216 38.1545 26.6021C37.7255 27.2416 38.2293 26.9121 37.8961 27.4764C38.7988 26.0378 37.5038 26.894 38.8289 24.9949L39.3183 25.6591C39.136 24.4696 40.818 23.0219 40.6462 21.1333C41.028 20.556 41.0739 21.7533 40.6658 23.0816C41.2353 21.608 40.8141 21.3733 40.9597 20.1578C41.1185 20.5664 41.3258 20.9984 41.4308 21.4303C41.0621 20.0074 41.81 19.0332 41.9989 18.2069C41.8126 18.1252 41.4281 18.836 41.3389 17.1536C41.352 16.4246 41.5436 16.7709 41.6197 16.5893C41.4741 16.5063 41.0949 15.946 40.8626 14.8732C41.0293 14.6229 41.3114 15.5296 41.5397 15.5646C41.3927 14.715 41.1408 14.0612 41.129 13.4048C40.4598 12.0285 40.8915 13.5903 40.3523 12.8107C39.6398 10.6224 40.9414 12.3048 41.0267 11.3112C42.1026 12.8522 42.7179 15.2403 43 16.23C42.7848 15.0237 42.4384 13.8536 42.0133 12.7225C42.34 12.8626 41.4872 10.2436 42.4384 11.9767C41.4255 8.28235 38.0903 4.82802 35.0253 3.20787C35.4005 3.54772 35.8729 3.97449 35.7036 4.04064C34.1777 3.14561 34.4453 3.07426 34.2289 2.6903C32.9876 2.19349 32.9037 2.73441 32.0823 2.6903C29.739 1.46708 29.2889 1.59421 27.1332 0.826289L27.2355 1.279C25.6821 0.767917 25.4262 1.46838 23.7494 1.28159C23.6471 1.20117 24.2873 0.997514 24.8135 0.920982C23.3138 1.11556 23.3833 0.625229 21.9164 0.975462C22.2799 0.719922 22.6591 0.557777 23.0461 0.345044C21.8233 0.421576 20.1255 1.0481 20.6516 0.478651C18.656 1.35553 15.1147 2.59302 13.1269 4.43628L13.0653 4.01859C12.1547 5.10172 9.09233 7.25111 8.84697 8.64944L8.60424 8.70522C8.13059 9.50038 7.82356 10.398 7.44831 11.2152C6.82639 12.2607 6.54036 11.6186 6.62696 11.7808C5.40805 14.2233 4.80319 16.278 4.27837 17.9656C4.65099 18.5156 4.28755 21.2838 4.42663 23.4967C3.81389 34.4304 12.1888 45.0412 21.3404 47.4941C22.6827 47.9676 24.6757 47.9533 26.3735 48C24.3726 47.4318 24.1142 47.6991 22.1631 47.0284C20.754 46.3721 20.4469 45.6249 19.4524 44.7714L19.846 45.4589C17.891 44.7766 18.7084 44.6131 17.1195 44.1176L17.5407 43.5676C16.9083 43.5261 15.8626 42.5156 15.5765 41.9578L14.8838 41.9851C14.0519 40.9694 13.6085 40.2365 13.6399 39.6697L13.4169 40.0653C13.1624 39.6346 10.3532 36.2555 11.8109 37.0429C11.5393 36.799 11.1798 36.6447 10.7888 35.9403L11.0867 35.6057C10.3847 34.7158 9.79691 33.5717 9.84152 33.193C10.2141 33.6911 10.4739 33.7819 10.7324 33.8701C8.95981 29.5259 8.8614 33.6275 7.52048 29.4481L7.80388 29.4234C7.58608 29.1043 7.45619 28.7476 7.28037 28.4051L7.4037 27.1884C6.12838 25.7291 7.04682 20.9867 7.23051 18.3898C7.35778 17.3313 8.29459 16.2054 9.00704 14.44L8.57144 14.3686C9.40066 12.9365 13.3106 8.61831 15.1186 8.84272C15.9964 7.75181 14.9454 8.84013 14.7736 8.56383C16.701 6.59215 17.3059 7.17198 18.6048 6.81397C20.0061 5.99287 17.4016 7.13955 18.0668 6.50395C20.4915 5.89039 19.7856 5.1121 22.9451 4.80337C23.2784 4.99146 22.171 5.09264 21.8954 5.33521C23.9134 4.35845 28.2852 4.57767 31.1245 5.87612C34.4191 7.39769 38.1178 11.8975 38.2661 16.1289L38.4314 16.1743C38.3487 17.858 38.6912 19.8037 38.0942 21.5899L38.4996 20.7364ZM18.5274 26.4477L18.4145 27.0068C18.9433 27.7164 19.3645 28.4882 20.0376 29.0395C19.5521 28.1016 19.19 27.7125 18.5274 26.4477ZM19.7752 26.401C19.4957 26.0936 19.3291 25.7291 19.1454 25.3607C19.3225 26.0028 19.6846 26.5567 20.0231 27.121L19.7752 26.401ZM41.8887 21.647L41.7732 21.9401C41.5554 23.463 41.087 24.9651 40.3719 26.366C41.1631 24.8911 41.6748 23.2801 41.8887 21.647ZM24.4159 0.239974C24.9591 0.0402118 25.7529 0.131013 26.3302 0C25.5784 0.0622635 24.8292 0.102475 24.0918 0.195871L24.4159 0.239974ZM5.32146 10.2774C5.4461 11.4215 4.44631 11.8716 5.54057 11.1127C6.12969 9.8091 5.31227 10.7482 5.32146 10.2774ZM4.03695 15.5866C4.28755 14.8187 4.33347 14.3634 4.43057 13.9198C3.73386 14.8006 4.11042 14.9861 4.03695 15.5866Z" fill="white"/>
</svg>
