<svg width="48" height="48" viewBox="0 0 48 48" fill="none" xmlns="http://www.w3.org/2000/svg">
<g clip-path="url(#clip0_1908_2957)">
<path d="M28.0834 3.05078C32.4487 9.33986 50.8174 33.6674 38.3041 38.7376C32.4582 41.4775 5.82692 37.1288 6.20901 37.8396C4.29858 41.0378 2.77979 43.6119 2.77979 43.6119C2.77979 43.6119 23.3169 44.5548 39.1734 42.3736C61.8119 39.2729 34.512 9.7094 28.0929 3.07906L28.0834 3.05078Z" fill="white"/>
<path d="M28.0832 3.05078C26.6313 3.25457 0 36.69 0 36.69C0 36.69 1.91996 37.2458 6.28529 37.8893C7.699 36.768 27.5865 2.59251 28.1597 3.08003C28.1494 3.06628 28.1329 3.06121 28.1098 3.06443L28.0832 3.05078Z" fill="white"/>
</g>
<defs>
<clipPath id="clip0_1908_2957">
<rect width="48" height="48" fill="white"/>
</clipPath>
</defs>
</svg>
