<svg width="48" height="48" viewBox="0 0 48 48" fill="none" xmlns="http://www.w3.org/2000/svg">
<path d="M33.5865 2C26.6584 2 21.0193 7.63914 21.0193 14.4061V21.012H14.4134C7.64647 21.012 2.00732 26.49 2.00732 33.4181C2.00732 40.3462 7.64647 45.8242 14.4134 45.8242C21.3415 45.8242 26.9807 40.3462 26.9807 33.4181V26.8122H33.5865C40.3535 26.8122 45.9926 21.3342 45.9926 14.4061C45.9926 7.63914 40.3535 2 33.5865 2ZM33.5865 7.80026C37.1311 7.80026 40.0312 10.8615 40.0312 14.4061C40.0312 18.1118 37.1311 21.012 33.5865 21.012H33.4254H27.9474C27.3029 21.012 26.9807 20.5286 26.9807 20.0453V14.4061C26.9807 10.8615 29.8808 7.80026 33.5865 7.80026ZM14.4134 26.8122H20.0526C20.697 26.8122 21.0193 27.2956 21.0193 27.7789V33.4181C21.0193 37.1238 18.1192 40.0239 14.4134 40.0239C10.8688 40.0239 7.80759 37.1238 7.80759 33.4181C7.80759 29.8735 10.8688 26.8122 14.4134 26.8122Z" fill="white" fill-opacity="0.5"/>
<path d="M21.019 21.012V14.4061C21.019 7.63914 26.6581 2 33.4251 2C34.5529 2 35.1974 2.16112 36.1641 2.32224C37.6141 2.80559 38.742 3.93342 38.742 5.22237C38.742 6.83355 37.6141 7.96138 35.8418 7.96138C35.0363 7.96138 34.714 7.80026 33.4251 7.80026C29.8805 7.80026 26.9803 10.8615 26.9803 14.4061V20.0453C26.9803 20.6897 27.3026 21.012 27.7859 21.012H32.1361C33.7473 21.012 35.0363 22.3009 35.0363 23.9121C35.0363 25.5233 33.7473 26.8122 32.1361 26.8122H26.9803V33.4181C26.9803 40.3462 21.3412 45.8242 14.4131 45.8242C13.4464 45.8242 12.6408 45.8242 11.6741 45.5019C10.3852 45.1797 9.25732 44.0519 9.25732 42.6018C9.25732 40.9906 10.3852 39.8628 12.1575 39.8628C12.963 39.8628 13.2853 40.0239 14.4131 40.0239C18.1188 40.0239 21.019 37.1238 21.019 33.4181V27.7789C21.019 27.2956 20.6967 26.8122 20.0522 26.8122H15.8632C14.252 26.8122 12.963 25.5233 12.963 23.9121C12.963 22.3009 14.252 21.012 15.8632 21.012H21.019Z" fill="white"/>
</svg>