<svg width="47" height="48" viewBox="0 0 47 48" fill="none" xmlns="http://www.w3.org/2000/svg">
<path d="M21.9263 45.8796C12.3891 45.356 4.28766 38.2604 2.41612 28.8083C1.41625 23.7026 2.26229 18.3351 4.80041 14.0672C5.00551 13.7268 5.18497 13.3865 5.18497 13.3079C5.18497 13.2294 5.03115 12.9675 4.85169 12.6795C3.80054 11.0823 2.46739 7.67855 2.10846 5.71482C1.80081 4.0391 2.15974 2.70377 3.03142 2.23247C3.64672 1.91828 4.85169 1.91828 5.92846 2.25866C7.64618 2.8085 10.0561 4.0391 11.9533 5.37444L12.9532 6.08138L13.8761 5.66245C18.414 3.51544 23.644 3.09651 28.5408 4.48422C30.1303 4.92933 32.1813 5.79337 33.3607 6.52649L33.8991 6.86687L34.8989 6.18611C36.8474 4.87696 39.206 3.82964 41.334 3.33216C43.7183 2.78232 45.1283 3.1227 45.7436 4.37948C45.9744 4.85078 46 5.06024 46 6.2123C46 6.97161 45.9231 7.83565 45.7949 8.33313C45.3078 10.5325 44.2054 13.0984 42.8722 15.1407L42.1287 16.2666L42.3338 16.6593C42.7184 17.4186 43.3337 19.4086 43.5901 20.7701C45.0001 27.8395 42.8466 34.8827 37.796 39.8313C34.1042 43.4446 29.5919 45.4607 24.3875 45.8273C23.5158 45.8796 22.7724 45.932 22.6954 45.9058C22.6442 45.932 22.2852 45.9058 21.9263 45.8796ZM25.7207 44.9632C26.9513 44.8061 29.1305 44.2563 30.3354 43.785C35.2322 41.8736 39.1548 38.2342 41.334 33.5736C42.4107 31.2695 42.9491 29.3058 43.2055 26.6613C43.4619 24.0691 43.0004 20.5606 42.1031 18.0732L41.8467 17.4186L41.5647 17.759C41.1289 18.2827 40.6161 18.4922 39.6162 18.5445C38.9497 18.5707 38.4882 18.5445 37.796 18.3612C34.7707 17.5757 32.2839 15.3502 31.3609 12.5748C30.9764 11.4227 30.9251 9.85174 31.2328 9.01389C31.4635 8.43786 32.0275 7.83565 32.489 7.73092C33.0017 7.62618 33.3094 7.46908 33.2325 7.33817C33.1299 7.15489 31.2328 6.2123 30.0022 5.741C22.4391 2.86087 13.6966 4.8246 8.23584 10.6634C5.72336 13.3603 4.03128 16.5808 3.26215 20.1417C2.46739 23.8335 2.62122 27.1587 3.74927 30.8244C5.82591 37.4749 11.1842 42.6591 17.8756 44.4396C18.4909 44.5967 19.4395 44.8061 19.9522 44.8847C21.1315 45.068 24.4388 45.1203 25.7207 44.9632ZM21.593 42.7115C14.4145 42.1093 8.85115 37.7891 6.10793 30.6935C5.56954 29.2796 5.03115 27.2373 4.82605 25.771C4.44148 22.9956 5.44135 18.7802 7.28726 15.5073C8.44095 13.4388 10.415 11.1609 12.2097 9.77319C14.235 8.22839 16.8244 6.99779 19.6189 6.26466C21.4392 5.79337 21.875 5.76719 20.7983 6.2123C17.5423 7.57382 15.1067 9.22335 13.0044 11.4227C10.1587 14.46 8.77424 18.0732 9.05625 21.7389C9.1588 22.9695 9.18444 22.9956 9.79974 22.7338C10.9022 22.2625 12.6968 22.0792 13.8761 22.3672C16.363 22.9695 18.8754 25.0903 21.1315 28.5464C22.6954 30.9029 24.3362 31.9502 26.5411 31.9502C31.3097 31.9502 36.6936 26.4256 38.0267 20.1417C38.078 19.8537 38.1549 19.5657 38.2062 19.2776C38.2575 19.042 38.3087 19.042 38.9497 19.0944C39.3342 19.1205 39.7188 19.1991 39.8213 19.2515C40.0008 19.3562 40.3341 20.3773 40.6417 21.8174C40.7699 22.4458 40.8212 23.2313 40.8212 25.0117C40.8212 27.054 40.7956 27.5253 40.5905 28.4941C40.2315 30.1698 39.8726 31.2433 39.0779 32.8667C37.3858 36.4014 34.54 39.2291 30.9507 40.9572C28.8741 41.9522 26.9769 42.4758 24.6183 42.6853C23.2338 42.8424 23.0544 42.8424 21.593 42.7115ZM40.5136 17.0521C41.1801 16.7117 41.616 16.2404 42.5646 14.8265C45.154 10.8729 46.2307 5.47917 44.6668 4.09147C43.5132 3.07033 40.8212 3.43689 37.5396 5.08643C35.4117 6.15993 33.335 7.70473 32.6685 8.72587C31.1558 11.0562 33.0017 15.0622 36.3859 16.7641C37.8216 17.5234 39.4111 17.6281 40.5136 17.0521ZM38.0011 16.607C36.6423 16.2666 35.0528 15.2455 34.5656 14.3552C33.7709 12.9413 34.5656 11.9988 38.2575 9.93029C43.2055 7.15489 43.7952 6.73596 44.1028 5.81955C44.2054 5.50536 44.3592 5.26971 44.4361 5.26971C44.6412 5.26971 44.8719 6.29085 44.795 6.89306C44.6156 8.35931 43.6413 11.3965 42.7953 13.1246C42.2056 14.329 41.5134 15.3502 40.8468 15.9786C39.9752 16.7903 39.3086 16.9212 38.0011 16.607ZM5.92846 12.313C6.05665 12.1297 6.1592 11.9464 6.1592 11.9202C6.1592 11.8678 6.00538 11.606 5.82591 11.3442C5.31316 10.5849 4.46712 8.69969 4.03128 7.36435C3.36471 5.32207 3.26216 3.98674 3.74927 3.82964C4.15947 3.69872 6.46685 5.11261 9.03061 7.02397L10.2099 7.9142L11.056 7.33817C11.5175 7.02397 11.902 6.73596 11.8764 6.68359C11.8507 6.55268 10.6714 5.61009 9.41518 4.74605C7.15907 3.20125 5.85155 2.67758 4.49276 2.78232C2.64685 2.91323 2.3392 4.74605 3.54417 8.41167C3.85182 9.35426 4.95424 11.7369 5.36444 12.3915C5.56954 12.7057 5.64645 12.7057 5.92846 12.313Z" fill="white"/>
</svg>
