<svg width="47" height="48" viewBox="0 0 47 48" fill="none" xmlns="http://www.w3.org/2000/svg">
<path fill-rule="evenodd" clip-rule="evenodd" d="M19.2282 1.01613C9.31211 1.4823 1.5495 10.4404 1.94509 15.3124C2.32994 20.0522 14.3902 24.2156 14.2483 24.3569C11.7808 26.4319 10.1535 27.8335 8.09669 29.7059C3.14344 34.2149 -0.278252 37.5599 1.45687 42.2516C3.45845 47.6637 7.83376 47.4394 12.9789 46.4335C26.2412 43.8282 48.0704 27.1188 46.9592 20.9531C46.0601 15.964 33.8606 6.10181 26.6491 2.57218C24.3962 1.46951 21.8324 0.894093 19.2282 1.01613ZM21.2787 9.57443C22.5192 9.4587 23.9642 9.77131 25.575 10.547C29.0931 12.241 32.7372 16.7387 25.575 19.2998C23.6275 19.9962 17.3791 17.6243 17.5682 14.3398C17.7405 11.3075 19.2111 9.76734 21.2787 9.57443V9.57443Z" fill="white"/>
</svg>
