<svg width="47" height="48" viewBox="0 0 47 48" fill="none" xmlns="http://www.w3.org/2000/svg">
<path d="M25.5219 1.81287C23.7502 4.03777 22.0198 5.94678 19.6575 8.29528C17.8721 10.067 17.1442 10.4515 18.3253 8.99571C19.1219 8.03433 20.2618 6.27639 20.9897 4.93047C21.6077 3.79056 23.0086 0.686695 22.8163 0.892703C22.7477 0.961373 21.8687 1.99142 20.8661 3.1588C17.7622 6.81202 15.2489 9.42146 13.024 11.3305C9.74165 14.1459 8.94508 15.0661 7.26954 17.9914C6.62405 19.1039 5.99229 19.9554 5.22319 20.7794L4.7425 21.2876L5.15452 21.2051C5.44293 21.1502 5.64894 21.2051 5.86868 21.3837L6.18456 21.6309L5.80001 22.3863C5.30559 23.3751 3.35538 25.3116 2.16053 26.012C1.65238 26.3004 1.15795 26.6163 1.07555 26.7262C0.842075 27.0146 1.17169 28.1682 1.76225 29.0884C2.43521 30.1322 3.36911 30.915 4.7425 31.588C5.70388 32.0687 6.85753 32.4395 6.85753 32.2609C6.85753 32.2335 6.70645 31.8352 6.51418 31.382C6.11589 30.4069 6.10216 30.1597 6.39057 29.2944C6.92619 27.715 8.69787 25.6961 10.703 24.3914C15.0567 21.5485 15.194 21.4386 16.7185 19.4609C18.7099 16.879 20.921 15.1073 23.764 13.8438C26.1125 12.8 27.1974 12.594 29.9992 12.6764C32.5262 12.7451 33.3914 12.9373 35.0395 13.83C36.7288 14.7365 38.1159 16.6867 38.4592 18.6094C38.9262 21.2738 37.8687 23.691 35.067 26.3691C32.4438 28.8687 30.4936 30.0361 23.9013 33.0163C20.7425 34.4584 18.5451 35.9416 16.4026 38.1116C15.4275 39.0867 14.988 39.6773 14.315 40.8584C13.8481 41.6961 13.3674 42.6712 13.2438 43.0558C12.9691 43.8661 12.818 46.0498 12.9691 47.1897L13.079 48L13.4635 46.4481C13.6833 45.5279 14.0816 44.4017 14.4386 43.7013C14.9331 42.685 15.2489 42.273 16.5399 40.9957C18.9022 38.6197 21.3743 37.1502 26.6343 34.9528C29.8893 33.5931 32.2927 32.4807 34.3803 31.3408C36.3167 30.297 36.8798 29.9262 38.3494 28.7313L39.4343 27.8524L40.1073 28.5116C40.5743 28.9785 40.794 29.1021 40.8352 28.9648C40.8764 28.8549 41.1648 27.8386 41.4807 26.7124C41.7828 25.5725 42.0987 24.5974 42.1537 24.5288C42.2223 24.4601 42.7305 24.6249 43.3348 24.9133C43.9116 25.188 44.406 25.394 44.4198 25.3803C44.4335 25.3528 44.1863 24.2266 43.8704 22.867L43.2936 20.3948L44.5708 20.3536C45.285 20.3399 45.8618 20.2712 45.8618 20.2163C45.8618 20.1614 45.1751 19.2 44.3511 18.0601C43.5133 16.9339 42.8404 15.9725 42.8404 15.9176C42.8404 15.8764 43.3622 15.6979 44.0077 15.5193C44.6532 15.3408 45.1751 15.176 45.1751 15.1485C45.1751 15.121 44.2687 14.503 43.1562 13.7751C42.0301 13.0609 41.0687 12.4155 41.0137 12.3605C40.9451 12.3056 41.3159 11.9348 41.824 11.5227C42.6069 10.9047 42.703 10.7811 42.4833 10.685C42.3459 10.63 41.1374 10.3966 39.8189 10.1494C38.5004 9.91588 37.388 9.70987 37.3605 9.66867C37.3331 9.6412 37.6627 9.14678 38.0884 8.56996C38.5279 8.00687 38.8575 7.51245 38.8301 7.49871C38.8163 7.47124 37.8687 7.56738 36.7288 7.70472C35.6026 7.84206 34.3665 7.95193 34.0095 7.95193C33.2541 7.96566 33.2678 8.04807 33.7897 6.61974C33.9271 6.22146 34.0507 5.83691 34.0507 5.78197C34.0507 5.64463 33.5288 5.83691 30.9056 6.92189C29.8893 7.34764 29.0378 7.66352 29.0103 7.63605C28.9691 7.59485 28.9966 7.14163 29.0652 6.60601C29.1339 6.07039 29.1751 5.6309 29.1614 5.6309C29.1477 5.6309 28.4884 6.00172 27.7056 6.46867C25.673 7.67725 24.794 8.103 23.4756 8.52875C22.8301 8.73476 22.2944 8.88584 22.267 8.8721C22.2532 8.84463 22.7477 7.99313 23.3794 6.99056C24.0249 5.97425 24.8352 4.55966 25.1923 3.84549C25.9477 2.3485 27.0464 -5.61588e-07 26.9914 -5.61588e-07C26.9777 -5.61588e-07 26.3185 0.824034 25.5219 1.81287ZM11.6644 16.8378C11.6644 17.2635 9.50817 19.2275 9.04122 19.2275C8.94508 19.2275 9.04122 19.0352 9.27469 18.7742C9.50817 18.5408 10.0438 17.8815 10.4833 17.3322C11.1288 16.5219 11.3073 16.3571 11.4721 16.4944C11.582 16.5768 11.6644 16.7416 11.6644 16.8378Z" fill="white"/>
</svg>
