<svg width="48" height="48" viewBox="0 0 48 48" fill="none" xmlns="http://www.w3.org/2000/svg">
<path d="M42.7545 16.3648C42.4766 16.5809 37.5711 19.3507 37.5711 25.5098C37.5711 32.6337 43.8132 35.1539 44 35.2163C43.9713 35.3699 43.0084 38.6679 40.7089 42.0282C38.6585 44.9853 36.5171 47.9376 33.2596 47.9376C30.002 47.9376 29.1636 46.0414 25.403 46.0414C21.7382 46.0414 20.4352 48 17.4555 48C14.4757 48 12.3966 45.2637 10.0061 41.9034C7.23719 37.9574 5 31.8272 5 26.009C5 16.6769 11.0553 11.7276 17.0147 11.7276C20.1813 11.7276 22.8209 13.811 24.809 13.811C26.7013 13.811 29.6523 11.6028 33.2548 11.6028C34.6201 11.6028 39.5256 11.7276 42.7545 16.3648ZM31.5445 7.65196C33.0344 5.88059 34.0883 3.42274 34.0883 0.964896C34.0883 0.624062 34.0596 0.278428 33.9973 0C31.5733 0.0912091 28.6894 1.61776 26.9504 3.63876C25.5851 5.19412 24.3108 7.65196 24.3108 10.1434C24.3108 10.5179 24.3731 10.8923 24.4018 11.0123C24.5551 11.0411 24.8042 11.0747 25.0533 11.0747C27.2282 11.0747 29.9636 9.61536 31.5445 7.65196Z" fill="white"/>
</svg>
