<svg width="48" height="48" viewBox="0 0 48 48" fill="none" xmlns="http://www.w3.org/2000/svg">
<path d="M24.0158 25.0562C22.2165 25.0562 20.752 26.5207 20.752 28.3201C20.752 30.1195 22.2165 31.584 24.0158 31.584C25.8152 31.584 27.2797 30.1195 27.2797 28.3201C27.2797 26.5207 25.8152 25.0562 24.0158 25.0562Z" fill="white"/>
<path d="M4 8.30449L7.39278 11.6973C11.6511 7.43766 17.5307 4.80052 24.0155 4.80052C30.5003 4.80052 36.3798 7.43766 40.6395 11.6973L44.0322 8.30449C38.9045 3.17679 31.8233 8.63304e-05 24.0155 8.63304e-05C16.2089 8.63304e-05 9.12897 3.17679 4 8.30449Z" fill="white"/>
<path d="M10.1069 14.4109L13.4997 17.8037C16.1937 15.1097 19.9138 13.4405 24.0154 13.4405C28.1183 13.4405 31.8384 15.1097 34.5324 17.8037L37.9252 14.4109C34.3618 10.8476 29.4413 8.64006 24.0154 8.64006C18.5895 8.64006 13.6703 10.8476 10.1069 14.4109Z" fill="white"/>
<path d="M16.2134 20.5174L19.6062 23.9102C20.7358 22.7805 22.2951 22.0805 24.0161 22.0805C25.7372 22.0805 27.2964 22.7805 28.4261 23.9102L31.8189 20.5174C29.8199 18.5184 27.0589 17.28 24.0161 17.28C20.9721 17.28 18.2124 18.5184 16.2134 20.5174Z" fill="white"/>
<path d="M36.0362 19.5639C37.8318 22.0228 38.8957 25.0492 38.8957 28.3206C38.8957 36.5252 32.2201 43.1996 24.0155 43.1996C15.811 43.1996 9.13535 36.5252 9.13535 28.3206C9.13535 25.0492 10.1993 22.0228 11.9961 19.5639L8.57431 16.142C5.92327 19.4956 4.33618 23.7249 4.33618 28.3206C4.33618 39.1712 13.1637 48 24.0155 48C34.8674 48 43.6962 39.1712 43.6962 28.3206C43.6962 23.7249 42.1078 19.4956 39.458 16.142L36.0362 19.5639Z" fill="white"/>
</svg>
