<svg width="47" height="48" viewBox="0 0 47 48" fill="none" xmlns="http://www.w3.org/2000/svg">
<path d="M9.2521 0.3504C7.20907 0.769748 7.30729 0.730739 7.18943 1.10133C7.08138 1.47191 6.93405 7.84015 7.03227 7.99618C7.08138 8.0742 7.1796 8.03519 7.33676 7.88891L7.57249 7.67436V7.87915C7.57249 8.30825 7.71 8.16197 9.36996 6.03597C9.72356 5.57762 10.087 5.13877 10.1656 5.08025C10.4406 4.85595 11.4032 5.56787 13.0631 7.20625L14.6052 8.7276L15.7937 11.0194C16.4518 12.2774 17.3358 13.9451 17.7582 14.7155L18.5243 16.1296L19.6047 16.3539C21.029 16.6367 22.5612 17.1243 22.797 17.3584C23.18 17.7387 23.3274 18.7529 23.5336 22.3808C23.7595 26.5743 24.123 30.7872 24.7614 36.9604C24.9186 38.4915 25.0757 40.2079 25.115 40.7833C25.174 41.7098 25.2624 42.0316 25.3704 41.7488C25.39 41.7 26.1267 42.6948 27.0205 43.9626C27.9144 45.2304 28.926 46.6542 29.2796 47.132L29.9181 48L29.9672 41.7781C30.0065 36.3753 30.036 35.5951 30.1538 35.8194C30.3208 36.1217 30.4583 36.073 30.4583 35.7121L30.4681 35.4488L30.6155 35.7121C30.9494 36.3363 31.0084 36.034 31.1459 32.8157C31.195 31.5772 31.2834 29.0318 31.3423 27.1594C31.4504 23.8241 31.4897 23.1122 31.5977 23.1122C31.6665 23.1122 33.2184 24.3507 34.7801 25.6478C36.7053 27.2472 38.1295 28.3784 38.2277 28.3784C38.2866 28.3784 38.2768 28.2907 38.2081 28.1736C38.0902 27.9396 38.1982 27.9786 38.542 28.2614C39.0233 28.671 38.6599 27.9591 37.1866 25.5503C36.8722 25.0432 35.1239 22.1565 33.2871 19.1333L29.9672 13.6427V9.89787V6.153L27.0009 5.17777C25.3606 4.6414 23.5238 4.01725 22.905 3.8027C22.2862 3.58815 20.8031 3.13955 19.6146 2.81773C18.4162 2.4959 16.9134 2.05705 16.2652 1.8425C14.9883 1.42315 12.8077 0.428419 12.5917 0.165107C12.3657 -0.107956 11.1085 -0.0396904 9.2521 0.3504Z" fill="white"/>
</svg>
