<svg width="48" height="48" viewBox="0 0 48 48" fill="none" xmlns="http://www.w3.org/2000/svg">
<path fill-rule="evenodd" clip-rule="evenodd" d="M21.0558 3.18157C24.0685 3.83456 26.6599 5.91142 28.07 8.79545C29.233 11.1716 29.5626 14.5091 28.8759 16.858C28.5462 17.9917 27.4748 19.7602 26.3943 20.9936C25.1948 22.354 23.6472 23.4877 21.999 24.186C21.6327 24.3493 21.2939 24.5125 21.2481 24.5488C21.2115 24.5941 21.3488 25.0657 21.5594 25.6099C21.7701 26.145 22.1821 27.197 22.4751 27.9498C24.6179 33.4367 24.4805 33.083 24.7278 33.9808C24.9109 34.6066 24.9292 35.9035 24.7735 36.3842C24.2974 37.8081 22.5118 38.1527 21.2481 37.0553C20.2042 36.1393 18.4827 33.4185 15.3144 27.6323C12.4299 22.3903 7.50348 12.8041 7.19215 11.8609C6.84418 10.7907 6.96322 9.88377 7.59505 8.96777C8.42834 7.75249 11.3952 5.44889 13.483 4.38779C14.8565 3.68945 16.2576 3.22692 17.5304 3.04553C18.2721 2.94577 20.3232 3.01833 21.0558 3.18157ZM15.5158 9.32147C15.6074 8.97684 15.9187 8.61407 16.2026 8.4871C16.4773 8.3692 17.1366 8.46896 17.6036 8.70476C18.1714 8.97684 19.3709 10.1105 20.0302 10.9902C20.6895 11.8699 21.3946 13.2666 21.6693 14.2552C21.8342 14.8447 21.8708 15.2346 21.8708 16.3411C21.8799 17.5745 21.8616 17.7468 21.6693 18.164C21.2939 18.9803 20.5796 19.4519 19.9753 19.2795C18.9497 18.9893 17.7776 17.4385 16.5231 14.7086C15.644 12.8131 15.1953 10.4098 15.5158 9.32147Z" fill="white"/>
<path d="M38.7746 13.6566C39.8917 14.0012 41.0546 14.8537 41.4484 15.6065C41.9703 16.6132 41.1554 18.9349 38.6372 23.6419C36.8058 27.0519 35.185 29.6276 34.3334 30.471C33.8847 30.9154 33.5368 31.0424 33.1613 30.9063C32.795 30.7612 32.6302 30.4257 32.4837 29.4734C32.3555 28.6209 32.3647 26.4533 32.502 24.7755C32.8134 21.1387 33.3445 17.0938 33.6558 15.9511C34.0587 14.4638 34.718 13.7291 35.8718 13.4843C36.4853 13.3482 38.0969 13.448 38.7746 13.6566Z" fill="white"/>
<path d="M33.1522 33.6997C33.8664 34.0171 34.251 34.9059 34.1686 36.0214C34.077 37.3002 33.3628 38.0529 32.2456 38.062C31.0919 38.062 30.2586 37.1641 30.2586 35.9126C30.2586 34.2892 31.8153 33.1011 33.1522 33.6997Z" fill="white"/>
<path d="M38.9577 40.5833C39.5346 40.8825 39.7727 41.1183 40.0199 41.6444C40.5693 42.7962 40.1115 44.211 39.0035 44.8005L38.6372 45H10.8916L10.5253 44.8005C9.71947 44.3742 9.28909 43.6396 9.28909 42.6873C9.28909 42.0797 9.4997 41.4721 9.8202 41.1093C10.04 40.8644 10.5894 40.5379 10.9465 40.4291C11.148 40.3747 16.2759 40.3475 24.9017 40.3565L38.5456 40.3747L38.9577 40.5833Z" fill="white"/>
</svg>