<svg width="48" height="48" viewBox="0 0 48 48" fill="none" xmlns="http://www.w3.org/2000/svg">
<path d="M31.9829 26.9277C35.1452 26.9277 39.6958 26.285 39.6958 22.5313C39.6958 22.2485 39.6701 21.94 39.6186 21.6572L37.7418 13.5072C37.3048 11.7076 36.9191 10.9106 33.7825 9.31655C31.3401 8.05677 26.0182 6 24.4242 6C22.9588 6 22.5217 7.90252 20.7734 7.90252C19.0766 7.90252 17.8425 6.48849 16.2742 6.48849C14.7574 6.48849 13.7804 7.51688 13.0091 9.65078C13.0091 9.65078 10.9009 15.6411 10.6181 16.4896C10.5667 16.6438 10.5667 16.8238 10.5667 16.978C10.5667 19.2919 19.7193 26.902 31.9829 26.9277ZM40.1843 24.0482C40.6213 26.105 40.6213 26.3364 40.6213 26.5935C40.6213 30.1157 36.662 32.0696 31.443 32.0696C19.6422 32.0696 9.33262 25.1794 9.33262 20.6031C9.33262 19.9604 9.46117 19.3433 9.71826 18.752C5.47616 18.9577 0 19.729 0 24.5624C0 32.5067 18.7938 42.2764 33.7054 42.2764C45.1205 42.2764 48 37.1087 48 33.0466C47.9743 29.8586 45.1976 26.2078 40.1843 24.0482Z" fill="white"/>
</svg>