<svg width="48" height="48" viewBox="0 0 48 48" fill="none" xmlns="http://www.w3.org/2000/svg">
<path d="M40.2747 18.0673C40.3021 17.3036 40.6128 16.5949 41.155 16.075C41.6976 15.5533 42.4056 15.2839 43.1481 15.3081C44.6788 15.3644 45.8814 16.6948 45.8297 18.2691C45.8008 19.0328 45.4903 19.7415 44.9493 20.2598C44.4067 20.7845 43.7004 21.0541 42.9546 21.0283C41.4258 20.9703 40.2245 19.643 40.2762 18.0673H40.2747ZM47.6999 20.883C47.8261 20.7971 47.9188 20.726 47.9578 20.7102L48 20.6426C47.8932 19.9516 46.8929 16.6015 46.137 15.7958C45.9286 15.5763 45.7616 15.3599 45.4237 15.1563C42.6857 13.5144 36.1936 12.5231 35.8893 12.4779L35.8376 12.4926L35.8181 12.541C35.8181 12.541 35.793 13.9262 35.7893 14.0811C35.1261 13.8517 30.3055 12.2486 25.7861 12.0872C21.9535 11.9485 16.3724 11.4381 8.97548 16.1202L8.75672 16.2603C5.277 18.4948 2.87459 21.2508 1.61851 24.4523C1.22459 25.4598 0.694864 27.733 1.21988 29.8722C1.44601 30.8072 1.86768 31.7466 2.43614 32.5878C3.72108 34.4881 5.87666 35.749 8.19909 35.9621C11.4765 36.264 13.9589 34.7482 14.8418 31.9097C15.4488 29.9513 14.8418 27.0775 12.5146 25.6115C10.6219 24.4183 8.58642 24.6895 7.40561 25.4937C6.38129 26.1929 5.80139 27.2793 5.8108 28.4724C5.83448 30.589 7.60476 31.7143 8.8781 31.7176C9.24803 31.7176 9.61952 31.6514 10.0384 31.5109C10.1875 31.4641 10.3277 31.4061 10.4823 31.3077L10.5308 31.2784L10.5612 31.2574L10.551 31.2637C10.8413 31.0602 11.0158 30.729 11.0158 30.374C11.0158 30.2771 11.0026 30.179 10.9757 30.0801C10.8253 29.5441 10.3109 29.2198 9.77791 29.3197L9.70593 29.3373L9.60854 29.368L9.46725 29.418C9.17401 29.4923 8.95447 29.4988 8.90758 29.5004C8.75845 29.4905 8.0255 29.2645 8.0255 28.438V28.4267C8.0255 28.1232 8.14373 27.9103 8.20897 27.7939C8.43698 27.4257 9.06126 27.0644 9.90414 27.14C11.0111 27.2386 11.8094 27.8231 12.3379 28.9256C12.8286 29.9507 12.7002 31.2118 12.007 32.1352C11.3186 33.0505 10.0939 33.4394 8.46301 33.2588C6.81959 33.0717 5.43021 32.098 4.65241 30.5819C3.89091 29.1001 3.84936 27.3432 4.54499 25.9935C6.2088 22.7597 9.35137 22.7936 11.0748 23.1003C13.6246 23.5558 16.5257 25.9774 17.5544 28.7737C17.7206 29.2195 17.8053 29.5727 17.8793 29.8959L17.9903 30.3787L20.871 31.8267L20.9086 31.8559L20.9786 31.8493L20.9913 31.7639C20.9734 31.6976 20.9315 31.6365 20.865 30.8065C20.8103 30.07 20.6988 28.0538 21.6849 27.0544C22.0677 26.6639 22.651 26.3153 23.1117 26.2037C24.9998 25.7289 27.214 26.0565 29.3075 28.5512C30.3912 29.8397 30.9196 30.4273 31.1846 30.6904L31.2771 30.7763L31.3859 30.8601C31.4728 30.9087 34.9864 32.5747 34.9864 32.5747L35.0587 32.557L35.0601 32.4796C35.0367 32.4522 32.8333 29.5202 33.2254 27.1066C33.5341 25.1837 35.0209 25.3581 37.0767 25.597C37.7479 25.6777 38.5119 25.7681 39.3035 25.7862C41.5115 25.8006 43.8903 25.3808 45.3566 24.7205C46.3051 24.2959 46.9105 24.0133 47.2901 23.6583C47.4265 23.5419 47.4971 23.353 47.571 23.1497L47.6225 23.0156C47.6839 22.8507 47.7742 22.5036 47.8137 22.3133C47.8297 22.2295 47.8391 22.1408 47.7809 22.0939L47.578 22.1326C46.9341 22.5315 45.3246 23.287 43.8207 23.3193C41.9531 23.3582 38.1911 21.3851 37.799 21.1752L37.7612 21.1302C37.6689 20.8977 37.1042 19.5239 36.9834 19.2331C39.6916 21.0704 41.9372 22.0859 43.6575 22.2425C45.5722 22.418 47.0635 21.3426 47.7017 20.8828H47.7016L47.6999 20.883ZM43.4423 18.3321C42.967 18.3321 42.5831 18.0673 42.5831 17.7428C42.5831 17.4152 42.967 17.1519 43.4423 17.1519C43.9176 17.1519 44.3026 17.4152 44.3026 17.7428C44.3023 18.0673 43.9173 18.3321 43.4423 18.3321V18.3321ZM43.1254 16.1509C42.6062 16.1317 42.1139 16.3206 41.7376 16.6838C41.3614 17.0471 41.1395 17.5392 41.1238 18.0721C41.0878 19.1734 41.9253 20.0999 42.9931 20.1403C43.512 20.1564 44.0067 19.9676 44.3853 19.6043C44.763 19.2393 44.9804 18.7468 44.9968 18.216C45.0329 17.1151 44.1957 16.1898 43.126 16.151L43.1254 16.1509Z" fill="white"/>
</svg>