<svg width="47" height="48" viewBox="0 0 47 48" fill="none" xmlns="http://www.w3.org/2000/svg">
<path d="M31.7654 9.09776C31.7654 6.87898 32.4953 4.81663 33.9553 2.91069C35.4152 1.00475 39.2087 0.0535471 45.3359 0.0570701V23.1545L44.2885 26.5291C43.7967 28.1383 43.126 29.6871 42.2889 31.1467C41.5328 32.4591 40.5861 33.652 39.4797 34.6863C38.3984 35.6879 37.1702 36.5181 35.8376 37.1478C34.4195 37.8101 32.9234 38.2905 31.3849 38.5778C31.6331 37.2327 31.7608 35.8681 31.7664 34.5003L31.7654 9.09776ZM10.1413 2.67183H12.8564V5.29293H10.1413V2.67183ZM12.8564 6.65528H15.5737V9.28166H12.8607L12.8564 6.65528ZM10.1413 9.98344H12.8575V12.6098H10.1413V9.98344ZM7.42822 13.9225H10.1413V16.5933H7.43139L7.42822 13.9225ZM2.00317 0H4.71622V2.67183H2.00317V0ZM15.5737 34.5003C15.5737 36.781 15.9944 38.7655 16.8357 40.4538C17.6769 42.142 18.606 43.548 19.6227 44.6718C20.6373 45.7992 21.5656 46.6355 22.4076 47.1809L23.6695 48C20.2741 48 17.2348 47.5237 14.5517 46.5711C11.8686 45.6185 9.59838 44.2903 7.74106 42.5866C5.90255 40.9095 4.4488 38.8543 3.47965 36.5623C2.49322 34.2484 2 31.747 2 29.0583V7.31266H4.71305V21.8439H7.42928V19.2197H10.1413V25.078H12.8564V15.2352H15.5737V34.5003ZM25.572 39.9845C28.0803 40.0775 30.3822 39.8897 32.4777 39.4212C34.4815 38.9875 36.392 38.2001 38.1194 37.096C39.8104 35.9944 41.2737 34.5778 42.4295 32.9234C43.6357 31.2218 44.6038 29.183 45.3338 26.8071V29.0625C45.3338 31.6252 44.8973 34.0081 44.0243 36.2114C43.1643 38.3946 41.8583 40.3744 40.1899 42.0243C38.508 43.697 36.4605 45.0488 34.0472 46.0796C31.634 47.1104 28.8889 47.7196 25.8119 47.907L24.1917 47.0615C24.0655 46.9685 23.0181 46.148 21.0495 44.6C19.0809 43.052 17.7315 40.7162 17.0016 37.5927C18.1742 38.2885 19.4308 38.8319 20.7409 39.2098C22.1536 39.6325 23.764 39.8908 25.572 39.9845ZM7.43139 5.34261H10.099V7.969H7.43139V5.34261Z" fill="white"/>
</svg>
