<svg width="48" height="48" viewBox="0 0 48 48" fill="none" xmlns="http://www.w3.org/2000/svg">
<path d="M6.74471 28.3483C9.14428 28.3483 11.0895 26.4031 11.0895 24.0035C11.0895 21.6039 9.14428 19.6587 6.74471 19.6587C4.34514 19.6587 2.3999 21.6039 2.3999 24.0035C2.3999 26.4031 4.34514 28.3483 6.74471 28.3483Z" fill="white"/>
<path d="M37.8995 46.331C40.2991 46.331 42.2443 44.3857 42.2443 41.9862C42.2443 39.5866 40.2991 37.6414 37.8995 37.6414C35.4999 37.6414 33.5547 39.5866 33.5547 41.9862C33.5547 44.3857 35.4999 46.331 37.8995 46.331Z" fill="white"/>
<path d="M37.8956 10.3586C40.2952 10.3586 42.2404 8.41333 42.2404 6.01375C42.2404 3.61418 40.2952 1.66895 37.8956 1.66895C35.496 1.66895 33.5508 3.61418 33.5508 6.01375C33.5508 8.41333 35.496 10.3586 37.8956 10.3586Z" fill="white"/>
<path d="M27.5141 13.2524C32.9241 13.2524 37.4127 17.2696 38.1561 22.4778H45.6C45.2619 18.3853 43.5652 14.571 40.7285 11.5629C38.9118 12.4881 36.678 12.5057 34.7803 11.4105C32.8813 10.3138 31.7794 8.36903 31.6736 6.33091C30.3255 6.01662 28.9327 5.85376 27.5141 5.85376C24.7978 5.85376 22.1731 6.44662 19.7859 7.57092L23.5126 14.0258C24.7502 13.5277 26.1007 13.2524 27.5141 13.2524Z" fill="white"/>
<path d="M16.7634 24.0036C16.7634 20.5783 18.3735 17.5225 20.8759 15.5525L17.1501 9.09863C16.2763 9.70912 15.4496 10.4001 14.6796 11.1696C12.5234 13.3258 10.9772 15.9292 10.1262 18.7706C11.8405 19.8811 12.9758 21.8088 12.9758 24.0036C12.9758 26.1979 11.8405 28.126 10.1262 29.236C10.9772 32.0775 12.5234 34.6808 14.6796 36.837C15.4491 37.6066 16.2749 38.2966 17.1482 38.9075L20.8744 32.4532C18.3725 30.4832 16.7634 27.4274 16.7634 24.0036Z" fill="white"/>
<path d="M38.1565 25.5247C37.4151 30.7347 32.9255 34.7543 27.514 34.7543C26.0997 34.7543 24.7488 34.479 23.5111 33.98L19.7839 40.4353C22.1706 41.5601 24.7964 42.1534 27.5135 42.1534C28.9331 42.1534 30.3279 41.9896 31.6764 41.6753C31.7803 39.6348 32.8827 37.6867 34.7831 36.5895C36.6813 35.4933 38.9161 35.511 40.7332 36.4381C43.5675 33.4295 45.2623 29.6157 45.5995 25.5247H38.1565Z" fill="white"/>
</svg>
